<svg width="98" height="43" viewBox="0 0 98 43" fill="none" xmlns="http://www.w3.org/2000/svg">
<g clip-path="url(#clip0_0_1)">
<path d="M28.9667 33.7772C28.9878 34.2622 28.8626 34.7424 28.6073 35.1553C28.3521 35.5683 27.9785 35.8949 27.5352 36.0929L12.0835 40.8716L0.210449 14.5151L13.915 15.2309L28.9667 33.7772Z" fill="#DD62A3"/>
<path fill-rule="evenodd" clip-rule="evenodd" d="M2.52617 7L13.3045 34.6827L27.3248 32.5775C27.3248 32.5775 29.7036 32.5775 27.4722 35.7142L12.3572 39.714L1.11572 13.947C1.11572 13.947 4.31555 13.8628 2.52617 7Z" fill="white"/>
<path fill-rule="evenodd" clip-rule="evenodd" d="M14.2942 34.6408L27.325 32.5356C27.325 32.5356 29.7038 32.5356 27.4724 35.6723L12.3574 39.7142C12.3574 39.7142 15.7678 37.7775 14.2942 34.6408Z" fill="#BECCBC"/>
<path fill-rule="evenodd" clip-rule="evenodd" d="M2.52637 7L20.0833 13.2733L28.967 33.7775L13.3047 34.6827L2.52637 7Z" fill="#DD62A3"/>
<path d="M16.2729 23.357C16.2729 23.357 16.694 31.104 28.3144 32.2618L25.8093 26.4937C25.8093 26.4937 16.3782 19.1257 16.2729 23.357Z" fill="#BC488A"/>
<path d="M2.37891 7.7789L2.52627 7L13.5362 33.8827L28.9669 33.7775L28.7985 34.0511L13.3046 34.6827L2.37891 7.7789Z" fill="#FF83BE"/>
<path d="M0 15.0625L0.210515 14.5151L12.2098 40.1137L27.4722 35.9034C27.4722 35.9034 28.8405 35.0403 28.5458 33.7983H28.9668C28.9969 34.2849 28.8754 34.7689 28.619 35.1836C28.3627 35.5983 27.9841 35.9233 27.5353 36.1139L12.0204 40.9558L0 15.0625Z" fill="#FF83BE"/>
</g>
<g clip-path="url(#clip1_0_1)">
<path d="M71.1525 0.944336C71.1525 0.944336 84.7728 1.70219 87.9937 10.1649C91.2146 18.6276 85.8886 24.4588 81.9519 24.4588C78.0153 24.4588 75.826 22.3537 75.6365 16.0382C75.447 9.7228 66.5002 8.60707 66.5002 8.60707L35.6177 21.3432C31.6366 24.1126 26.982 25.7562 22.1447 26.1008C15.2609 26.1008 16.8608 22.5221 16.8608 22.5221C16.8608 22.5221 16.9871 19.4275 23.3868 18.8802C29.7864 18.3328 38.1228 12.6911 38.1228 12.6911L71.1525 0.944336Z" fill="#FFB470"/>
<path d="M71.1525 0.944336C71.1525 0.944336 84.7728 1.70219 87.9937 10.1649C91.2146 18.6276 85.8886 24.4588 81.9519 24.4588C78.0153 24.4588 75.826 22.3537 75.6365 16.0382C75.447 9.7228 66.5002 8.60707 66.5002 8.60707L35.6177 21.3432C31.6366 24.1126 26.982 25.7562 22.1447 26.1008C15.2609 26.1008 16.8608 22.5221 16.8608 22.5221C16.8608 22.5221 16.9871 19.4275 23.3868 18.8802C29.7864 18.3328 38.1228 12.6911 38.1228 12.6911L71.1525 0.944336Z" fill="url(#paint0_radial_0_1)"/>
<path d="M81.973 4.2704C87.4043 8.24913 86.6254 16.0382 85.0044 20.1432C84.5959 20.9944 83.9391 21.702 83.1205 22.1726C82.302 22.6432 81.3601 22.8549 80.4188 22.7797C79.4777 22.7045 78.5813 22.3459 77.8479 21.7513C77.1144 21.1567 76.5783 20.3538 76.3101 19.4485C75.5944 15.575 77.0469 13.7857 73.6787 10.1227C72.6718 8.88691 71.9776 7.42655 71.6551 5.86542C71.3327 4.30429 71.3913 2.68842 71.8262 1.15479L70.9631 1.89159L70.1421 1.70212L66.6265 8.5649C66.6265 8.5649 75.6154 9.53327 75.7628 15.9961C75.9102 22.4589 78.0995 24.4167 82.0782 24.4167C86.057 24.4167 91.4251 18.5643 88.12 10.1227C87.3082 8.37505 86.1396 6.81663 84.6894 5.54769C83.2391 4.27874 81.5394 3.32735 79.6994 2.7547L81.973 4.2704Z" fill="#F99C5F"/>
<path d="M35.6177 21.3431C31.6366 24.1124 26.982 25.7561 22.1447 26.1007C15.2609 26.1007 16.8608 22.522 16.8608 22.522C16.8608 22.522 16.7135 26.1007 22.1447 25.385C27.576 24.6692 35.6177 18.6274 35.6177 18.6274V21.3431Z" fill="#F99C5F"/>
<path d="M36.0384 22.564C35.8406 23.1418 35.7709 23.7557 35.834 24.3631C35.8972 24.9705 36.0917 25.5569 36.4041 26.0817C36.7166 26.6064 37.1394 27.0569 37.6433 27.4018C38.1473 27.7468 38.7202 27.978 39.3224 28.0795C44.059 29.6583 65.0263 31.6582 68.6682 23.8692C69.7256 21.6242 70.199 19.1486 70.0445 16.6719C69.8899 14.1952 69.1124 11.7976 67.784 9.70156L70.4575 10.3331C70.0364 8.76324 69.9481 7.12269 70.1983 5.5167C70.4484 3.9107 71.0315 2.37473 71.9101 1.0073C66.6693 0.500349 61.3802 1.08085 56.3741 2.71247C51.255 4.71416 46.3701 7.26955 41.8065 10.3331C39.0252 11.9751 36.1343 13.4241 33.1543 14.6697C33.1543 14.6697 31.786 22.3324 33.828 23.4692L36.0384 22.564Z" fill="url(#paint1_radial_0_1)"/>
<path opacity="0.35" d="M32.8388 21.5324C32.638 19.241 32.7442 16.933 33.1546 14.6696C36.1346 13.424 39.0254 11.975 41.8068 10.333C46.3704 7.26948 51.2553 4.71409 56.3744 2.7124C52.4445 4.53921 48.6949 6.73118 45.175 9.25941C40.9647 12.5224 40.0384 13.2381 38.207 16.1222C38.887 14.5409 39.8026 13.0717 40.9226 11.7645C40.9226 11.7645 34.6072 14.8801 33.0914 20.3325L32.8388 21.5324Z" fill="#DB9CFF"/>
<path d="M33.8281 23.4692L35.9333 22.564C35.7355 23.1418 35.6657 23.7557 35.7289 24.3631C35.792 24.9705 35.9866 25.557 36.299 26.0817C36.6115 26.6064 37.0343 27.0569 37.5382 27.4019C38.0421 27.7468 38.6151 27.9781 39.2173 28.0795C43.9539 29.6584 64.9211 31.6583 68.563 23.8692C69.6205 21.6243 70.0939 19.1486 69.9393 16.6719C69.7848 14.1952 69.0072 11.7976 67.6789 9.70158L70.3524 10.3331C69.9466 8.75605 69.8756 7.11147 70.1439 5.50528C70.4122 3.89908 71.0139 2.36688 71.9102 1.00732C70.6495 2.03382 69.6532 3.34768 69.0051 4.83869C68.5793 6.11493 67.907 7.2951 67.0263 8.31218L64.9211 5.04921C64.9211 5.04921 67.9525 18.5221 56.3742 23.4903C50.5009 26.0375 33.2176 29.8057 36.6701 20.2484C36.1974 21.0981 35.6172 21.8835 34.9439 22.5851L33.8281 23.4692Z" fill="#73417C"/>
<path d="M79.531 2.79688C81.371 3.36953 83.0707 4.32092 84.5209 5.58987C85.9712 6.85881 87.1398 8.41723 87.9516 10.1649C91.2567 18.5855 85.8464 24.4588 81.9098 24.4588C77.9732 24.4588 75.7838 22.3537 75.5944 16.0382C75.579 15.1 75.3491 14.1777 74.9221 13.3421C74.4952 12.5065 73.8826 11.7797 73.1313 11.2175" fill="url(#paint2_radial_0_1)"/>
<path d="M72.3311 10.5013C73.3332 11.0376 74.1773 11.827 74.7793 12.791C75.3814 13.755 75.7203 14.86 75.7624 15.9958C75.8887 22.4586 78.0992 24.4163 82.0779 24.4163C86.0566 24.4163 91.4247 18.564 88.1196 10.1224C87.3078 8.37474 86.1392 6.81633 84.689 5.54738C83.2388 4.27844 81.539 3.32705 79.6991 2.75439L82.141 4.228C87.5723 8.20672 86.7934 15.9958 85.1724 20.1008C84.7639 20.952 84.1071 21.6596 83.2886 22.1302C82.47 22.6008 81.5281 22.8125 80.5869 22.7373C79.6457 22.6621 78.7494 22.3035 78.0159 21.7089C77.2825 21.1143 76.7464 20.3114 76.4782 19.4061C75.594 15.5747 77.0466 13.7854 73.6783 10.1224" fill="#F99C5F"/>
<path fill-rule="evenodd" clip-rule="evenodd" d="M20.9236 22.1851C20.9925 22.3833 21.0418 22.5877 21.071 22.7956C21.271 24.1369 21.0426 25.5072 20.4184 26.7111H18.4816C18.9602 26.0792 19.2791 25.3412 19.4114 24.5596C19.5438 23.7781 19.4855 22.9762 19.2417 22.222C18.9979 21.4678 18.5757 20.7835 18.0109 20.2274C17.4461 19.6712 16.7554 19.2595 15.9976 19.0273L18.7764 19.6168C19.1371 19.8438 19.4755 20.1046 19.7868 20.3957C19.7868 20.3957 19.05 20.943 19.3447 21.6167C19.6395 22.2903 20.9236 22.1851 20.9236 22.1851Z" fill="#DD62A3"/>
<path fill-rule="evenodd" clip-rule="evenodd" d="M21.0709 22.7956C21.0418 22.5878 20.9925 22.3833 20.9236 22.1851C20.9236 22.1851 19.6184 22.3114 19.3447 21.6167C19.5049 21.9465 19.7484 22.2288 20.0512 22.4355C20.3539 22.6423 20.7055 22.7664 21.0709 22.7956Z" fill="#912600"/>
</g>
<g clip-path="url(#clip2_0_1)">
<path d="M53.3311 27.3231L41.3277 39.3969L58.2233 41.0057L62.201 39.0934L59.9607 25.5994L53.3311 27.3231Z" fill="url(#paint3_radial_0_1)"/>
<path d="M48.8514 40.1205L41.3275 39.3972L46.7395 33.9621C47.5864 34.7241 48.2249 35.6896 48.5945 36.7673C48.964 37.8449 49.0524 38.9991 48.8514 40.1205Z" fill="url(#paint4_linear_0_1)"/>
<path d="M48.0348 35.536C47.8136 35.1446 47.5679 34.7675 47.2991 34.4072L41.3273 39.3971L48.0348 35.536Z" fill="white"/>
<path d="M95.7401 20.6953C95.7876 21.5392 95.6542 22.3835 95.349 23.1718L58.3279 40.9982C58.7439 40.7352 59.1023 40.3907 59.3815 39.9854C59.6607 39.5801 59.8548 39.1224 59.9521 38.64C60.0495 38.1575 60.048 37.6604 59.9479 37.1785C59.8477 36.6967 59.651 36.2401 59.3694 35.8364L95.7401 20.6953Z" fill="#BC488A"/>
<path d="M57.1701 30.8031C57.1701 30.8031 61.6979 32.418 59.2647 35.844L95.7419 20.7163C95.6851 19.8565 95.3109 19.0486 94.6918 18.4493L57.1701 30.8031Z" fill="#DD62A3"/>
<path d="M57.1702 30.8033C57.8005 27.2542 53.331 27.3235 53.331 27.3235L92.2822 17.2304C93.1797 17.4146 94.0117 17.8355 94.6918 18.4495L57.1702 30.8033Z" fill="#FF83BE"/>
</g>
<g clip-path="url(#clip3_0_1)">
<path d="M79.1995 3C81.0553 3.5669 82.7722 4.51509 84.2403 5.78385C85.7085 7.05262 86.8955 8.614 87.7253 10.368C91.0304 18.7886 85.6202 24.662 81.6836 24.662C77.7469 24.662 75.5576 22.6621 75.3681 16.2414C75.3571 15.3089 75.1356 14.3911 74.72 13.5563C74.3044 12.7215 73.7056 11.9914 72.9683 11.4206" fill="url(#paint5_radial_0_1)"/>
<path d="M72 10.7048C73.0021 11.2411 73.8462 12.0305 74.4483 12.9945C75.0503 13.9585 75.3893 15.0635 75.4314 16.1993C75.5577 22.6621 77.7681 24.6199 81.7468 24.6199C85.7256 24.6199 90.9463 18.8307 87.7254 10.368C86.9071 8.62472 85.7364 7.06996 84.2871 5.80181C82.8378 4.53367 81.1413 3.57966 79.3049 3L81.6416 4.4736C87.0728 8.47338 86.2939 16.2414 84.6309 20.3464C84.2321 21.2076 83.5796 21.9262 82.7607 22.4059C81.9419 22.8856 80.9959 23.1034 80.0497 23.0301C79.1035 22.9567 78.2024 22.5958 77.4672 21.9957C76.732 21.3956 76.198 20.5851 75.9366 19.6728C75.2209 15.7993 76.7576 13.9889 73.3052 10.347" fill="#F99C5F"/>
</g>
<defs>
<radialGradient id="paint0_radial_0_1" cx="0" cy="0" r="1" gradientUnits="userSpaceOnUse" gradientTransform="translate(23.4259 21.0594) rotate(175.996) scale(8.35678 7.43619)">
<stop stop-color="#FFE098"/>
<stop offset="0.4" stop-color="#FFC882"/>
<stop offset="0.68" stop-color="#FFB470"/>
</radialGradient>
<radialGradient id="paint1_radial_0_1" cx="0" cy="0" r="1" gradientUnits="userSpaceOnUse" gradientTransform="translate(52.3112 15.1749) rotate(180) scale(19.9989 19.9989)">
<stop stop-color="#BF78B6"/>
<stop offset="0.36" stop-color="#A767A5"/>
<stop offset="0.61" stop-color="#935A98"/>
</radialGradient>
<radialGradient id="paint2_radial_0_1" cx="0" cy="0" r="1" gradientUnits="userSpaceOnUse" gradientTransform="translate(80.8307 14.6139) rotate(179.427) scale(8.48416 9.16283)">
<stop stop-color="#FFE098"/>
<stop offset="0.59" stop-color="#FFC882"/>
<stop offset="1" stop-color="#FFB470"/>
</radialGradient>
<radialGradient id="paint3_radial_0_1" cx="0" cy="0" r="1" gradientUnits="userSpaceOnUse" gradientTransform="translate(50.4366 35.0256) rotate(-103.309) scale(9.88012 19.4685)">
<stop stop-color="#FF9A00"/>
<stop offset="1" stop-color="#FFF49D"/>
</radialGradient>
<linearGradient id="paint4_linear_0_1" x1="46.3094" y1="40.5783" x2="44.1285" y2="36.3879" gradientUnits="userSpaceOnUse">
<stop offset="0.26" stop-color="#003438"/>
<stop offset="1" stop-color="#0C2217"/>
</linearGradient>
<radialGradient id="paint5_radial_0_1" cx="0" cy="0" r="1" gradientUnits="userSpaceOnUse" gradientTransform="translate(80.5007 14.7497) rotate(179.427) scale(8.48416 9.16283)">
<stop stop-color="#FFE098"/>
<stop offset="0.59" stop-color="#FFC882"/>
<stop offset="1" stop-color="#FFB470"/>
</radialGradient>
<clipPath id="clip0_0_1">
<rect width="28.9668" height="33.935" fill="white" transform="translate(0 7)"/>
</clipPath>
<clipPath id="clip1_0_1">
<rect width="73.0907" height="28.6931" fill="white" transform="translate(15.9976 0.838867)"/>
</clipPath>
<clipPath id="clip2_0_1">
<rect width="55.618" height="21.262" fill="white" transform="translate(40 21.0039) rotate(-4.12833)"/>
</clipPath>
<clipPath id="clip3_0_1">
<rect width="16.757" height="21.662" fill="white" transform="translate(72 3)"/>
</clipPath>
</defs>
</svg>
