<svg width="75" height="30" viewBox="0 0 75 30" fill="none" xmlns="http://www.w3.org/2000/svg">
<g clip-path="url(#clip0_586_678)">
<path d="M56.1525 0.944336C56.1525 0.944336 69.7728 1.70219 72.9937 10.1649C76.2146 18.6276 70.8886 24.4588 66.9519 24.4588C63.0153 24.4588 60.826 22.3537 60.6365 16.0382C60.447 9.7228 51.5002 8.60707 51.5002 8.60707L20.6177 21.3432C16.6366 24.1126 11.982 25.7562 7.14473 26.1008C0.260902 26.1008 1.86081 22.5221 1.86081 22.5221C1.86081 22.5221 1.98712 19.4275 8.38677 18.8802C14.7864 18.3328 23.1228 12.6911 23.1228 12.6911L56.1525 0.944336Z" fill="#FFB470"/>
<path d="M56.1525 0.944336C56.1525 0.944336 69.7728 1.70219 72.9937 10.1649C76.2146 18.6276 70.8886 24.4588 66.9519 24.4588C63.0153 24.4588 60.826 22.3537 60.6365 16.0382C60.447 9.7228 51.5002 8.60707 51.5002 8.60707L20.6177 21.3432C16.6366 24.1126 11.982 25.7562 7.14473 26.1008C0.260902 26.1008 1.86081 22.5221 1.86081 22.5221C1.86081 22.5221 1.98712 19.4275 8.38677 18.8802C14.7864 18.3328 23.1228 12.6911 23.1228 12.6911L56.1525 0.944336Z" fill="url(#paint0_radial_586_678)"/>
<path d="M66.973 4.2704C72.4043 8.24913 71.6254 16.0382 70.0044 20.1432C69.5959 20.9944 68.9391 21.702 68.1205 22.1726C67.302 22.6432 66.3601 22.8549 65.4189 22.7797C64.4777 22.7045 63.5813 22.3459 62.8479 21.7513C62.1144 21.1567 61.5783 20.3538 61.3101 19.4485C60.5944 15.575 62.0469 13.7857 58.6787 10.1227C57.6718 8.88691 56.9776 7.42655 56.6551 5.86542C56.3327 4.30429 56.3913 2.68842 56.8262 1.15479L55.9631 1.89159L55.1421 1.70212L51.6265 8.5649C51.6265 8.5649 60.6154 9.53327 60.7628 15.9961C60.9102 22.4589 63.0995 24.4167 67.0782 24.4167C71.057 24.4167 76.4251 18.5643 73.12 10.1227C72.3082 8.37505 71.1396 6.81663 69.6894 5.54769C68.2391 4.27874 66.5394 3.32735 64.6994 2.7547L66.973 4.2704Z" fill="#F99C5F"/>
<path d="M20.6177 21.3431C16.6366 24.1124 11.982 25.7561 7.14473 26.1007C0.260902 26.1007 1.86081 22.522 1.86081 22.522C1.86081 22.522 1.71345 26.1007 7.14473 25.385C12.576 24.6692 20.6177 18.6274 20.6177 18.6274V21.3431Z" fill="#F99C5F"/>
<path d="M21.0384 22.564C20.8406 23.1418 20.7709 23.7557 20.834 24.3631C20.8972 24.9705 21.0917 25.5569 21.4041 26.0817C21.7166 26.6064 22.1394 27.0569 22.6433 27.4018C23.1473 27.7468 23.7202 27.978 24.3224 28.0795C29.059 29.6583 50.0263 31.6582 53.6682 23.8692C54.7256 21.6242 55.199 19.1486 55.0445 16.6719C54.8899 14.1952 54.1124 11.7976 52.784 9.70156L55.4575 10.3331C55.0364 8.76324 54.9481 7.12269 55.1983 5.5167C55.4484 3.9107 56.0315 2.37473 56.9101 1.0073C51.6693 0.500349 46.3802 1.08085 41.3741 2.71247C36.255 4.71416 31.3701 7.26955 26.8065 10.3331C24.0252 11.9751 21.1343 13.4241 18.1543 14.6697C18.1543 14.6697 16.786 22.3324 18.828 23.4692L21.0384 22.564Z" fill="url(#paint1_radial_586_678)"/>
<path opacity="0.35" d="M17.8388 21.5324C17.638 19.241 17.7442 16.933 18.1546 14.6696C21.1346 13.424 24.0254 11.975 26.8068 10.333C31.3704 7.26948 36.2553 4.71409 41.3744 2.7124C37.4445 4.53921 33.6949 6.73118 30.175 9.25941C25.9647 12.5224 25.0384 13.2381 23.207 16.1222C23.887 14.5409 24.8026 13.0717 25.9226 11.7645C25.9226 11.7645 19.6072 14.8801 18.0914 20.3325L17.8388 21.5324Z" fill="#DB9CFF"/>
<path d="M18.8281 23.4692L20.9333 22.564C20.7355 23.1418 20.6657 23.7557 20.7289 24.3631C20.792 24.9705 20.9866 25.557 21.299 26.0817C21.6115 26.6064 22.0343 27.0569 22.5382 27.4019C23.0421 27.7468 23.6151 27.9781 24.2173 28.0795C28.9539 29.6584 49.9211 31.6583 53.563 23.8692C54.6205 21.6243 55.0939 19.1486 54.9393 16.6719C54.7848 14.1952 54.0072 11.7976 52.6789 9.70158L55.3524 10.3331C54.9466 8.75605 54.8756 7.11147 55.1439 5.50528C55.4122 3.89908 56.0139 2.36688 56.9102 1.00732C55.6495 2.03382 54.6532 3.34768 54.0051 4.83869C53.5793 6.11493 52.907 7.2951 52.0263 8.31218L49.9211 5.04921C49.9211 5.04921 52.9525 18.5221 41.3742 23.4903C35.5009 26.0375 18.2176 29.8057 21.6701 20.2484C21.1974 21.0981 20.6172 21.8835 19.9439 22.5851L18.8281 23.4692Z" fill="#73417C"/>
<path d="M64.531 2.79688C66.371 3.36953 68.0707 4.32092 69.5209 5.58987C70.9712 6.85881 72.1398 8.41723 72.9516 10.1649C76.2567 18.5855 70.8464 24.4588 66.9098 24.4588C62.9732 24.4588 60.7838 22.3537 60.5944 16.0382C60.579 15.1 60.3491 14.1777 59.9221 13.3421C59.4952 12.5065 58.8826 11.7797 58.1313 11.2175" fill="url(#paint2_radial_586_678)"/>
<path d="M57.3311 10.5013C58.3332 11.0376 59.1773 11.827 59.7793 12.791C60.3814 13.755 60.7203 14.86 60.7624 15.9958C60.8887 22.4586 63.0992 24.4163 67.0779 24.4163C71.0566 24.4163 76.4247 18.564 73.1196 10.1224C72.3078 8.37474 71.1392 6.81633 69.689 5.54738C68.2388 4.27844 66.539 3.32705 64.6991 2.75439L67.141 4.228C72.5723 8.20672 71.7934 15.9958 70.1724 20.1008C69.7639 20.952 69.1071 21.6596 68.2886 22.1302C67.47 22.6008 66.5281 22.8125 65.5869 22.7373C64.6457 22.6621 63.7494 22.3035 63.0159 21.7089C62.2825 21.1143 61.7464 20.3114 61.4782 19.4061C60.594 15.5747 62.0466 13.7854 58.6783 10.1224" fill="#F99C5F"/>
<path fill-rule="evenodd" clip-rule="evenodd" d="M5.9236 22.1851C5.99249 22.3833 6.04185 22.5877 6.07096 22.7956C6.27103 24.1369 6.04265 25.5072 5.41837 26.7111H3.48163C3.96015 26.0792 4.27912 25.3412 4.41144 24.5596C4.54377 23.7781 4.48554 22.9762 4.24171 22.222C3.99789 21.4678 3.57565 20.7835 3.01087 20.2274C2.44609 19.6712 1.75544 19.2595 0.997559 19.0273L3.77635 19.6168C4.13713 19.8438 4.47548 20.1046 4.78682 20.3957C4.78682 20.3957 4.05002 20.943 4.34474 21.6167C4.63946 22.2903 5.9236 22.1851 5.9236 22.1851Z" fill="#DD62A3"/>
<path fill-rule="evenodd" clip-rule="evenodd" d="M6.07095 22.7956C6.04183 22.5878 5.99248 22.3833 5.92359 22.1851C5.92359 22.1851 4.6184 22.3114 4.34473 21.6167C4.50489 21.9465 4.7484 22.2288 5.05118 22.4355C5.35395 22.6423 5.70547 22.7664 6.07095 22.7956V22.7956Z" fill="#912600"/>
</g>
<defs>
<radialGradient id="paint0_radial_586_678" cx="0" cy="0" r="1" gradientUnits="userSpaceOnUse" gradientTransform="translate(8.42592 21.0594) rotate(175.996) scale(8.35678 7.43619)">
<stop stop-color="#FFE098"/>
<stop offset="0.4" stop-color="#FFC882"/>
<stop offset="0.68" stop-color="#FFB470"/>
</radialGradient>
<radialGradient id="paint1_radial_586_678" cx="0" cy="0" r="1" gradientUnits="userSpaceOnUse" gradientTransform="translate(37.3112 15.1749) rotate(180) scale(19.9989 19.9989)">
<stop stop-color="#BF78B6"/>
<stop offset="0.36" stop-color="#A767A5"/>
<stop offset="0.61" stop-color="#935A98"/>
</radialGradient>
<radialGradient id="paint2_radial_586_678" cx="0" cy="0" r="1" gradientUnits="userSpaceOnUse" gradientTransform="translate(65.8307 14.6139) rotate(179.427) scale(8.48416 9.16283)">
<stop stop-color="#FFE098"/>
<stop offset="0.59" stop-color="#FFC882"/>
<stop offset="1" stop-color="#FFB470"/>
</radialGradient>
<clipPath id="clip0_586_678">
<rect width="73.0907" height="28.6931" fill="white" transform="translate(0.997559 0.838867)"/>
</clipPath>
</defs>
</svg>
