<svg width="29" height="35" viewBox="0 0 29 35" fill="none" xmlns="http://www.w3.org/2000/svg">
<g clip-path="url(#clip0_586_688)">
<path d="M28.9667 27.247C28.9878 27.732 28.8626 28.2121 28.6073 28.6251C28.3521 29.038 27.9785 29.3647 27.5352 29.5626L12.0835 34.3413L0.210449 7.98486L13.915 8.70061L28.9667 27.247Z" fill="#DD62A3"/>
<path fill-rule="evenodd" clip-rule="evenodd" d="M2.52617 0.469727L13.3045 28.1524L27.3248 26.0473C27.3248 26.0473 29.7036 26.0473 27.4722 29.1839L12.3572 33.1837L1.11572 7.41671C1.11572 7.41671 4.31555 7.3325 2.52617 0.469727Z" fill="white"/>
<path fill-rule="evenodd" clip-rule="evenodd" d="M14.2942 28.1105L27.325 26.0054C27.325 26.0054 29.7038 26.0054 27.4724 29.142L12.3574 33.1839C12.3574 33.1839 15.7678 31.2472 14.2942 28.1105" fill="#BECCBC"/>
<path fill-rule="evenodd" clip-rule="evenodd" d="M2.52637 0.469727L20.0833 6.74306L28.967 27.2472L13.3047 28.1524L2.52637 0.469727Z" fill="#DD62A3"/>
<path d="M16.2729 16.8267C16.2729 16.8267 16.694 24.5737 28.3144 25.7315L25.8093 19.9634C25.8093 19.9634 16.3782 12.5954 16.2729 16.8267Z" fill="#BC488A"/>
<path d="M2.37891 1.24863L2.52627 0.469727L13.5362 27.3524L28.9669 27.2472L28.7985 27.5209L13.3046 28.1524L2.37891 1.24863Z" fill="#FF83BE"/>
<path d="M0 8.5322L0.210515 7.98486L12.2098 33.5834L27.4722 29.3731C27.4722 29.3731 28.8405 28.51 28.5458 27.268H28.9668C28.9969 27.7546 28.8754 28.2386 28.619 28.6533C28.3627 29.068 27.9841 29.3931 27.5353 29.5837L12.0204 34.4255L0 8.5322Z" fill="#FF83BE"/>
</g>
<defs>
<clipPath id="clip0_586_688">
<rect width="28.9668" height="33.935" fill="white" transform="translate(0 0.469727)"/>
</clipPath>
</defs>
</svg>
