<svg width="59" height="42" viewBox="0 0 59 42" fill="none" xmlns="http://www.w3.org/2000/svg">
<g clip-path="url(#clip0_586_679)">
<path d="M49.6481 27.5145C50.1365 29.9224 49.6723 32.4258 48.3532 34.4986C47.0342 36.5714 44.9629 38.0522 42.5749 38.6296C33.7753 41.1769 17.8183 42.6715 13.4396 39.7243C9.06093 36.7771 8.13466 26.5882 11.2292 23.1568C14.3238 19.7254 27.8388 11.0733 39.2066 14.5678C50.5744 18.0624 49.6481 27.5145 49.6481 27.5145Z" fill="#FFB470"/>
<path d="M49.6481 27.5145C50.1365 29.9224 49.6723 32.4258 48.3532 34.4986C47.0342 36.5714 44.9629 38.0522 42.5749 38.6296C33.7753 41.1769 17.8183 42.6715 13.4396 39.7243C9.06093 36.7771 8.13466 26.5882 11.2292 23.1568C14.3238 19.7254 27.8388 11.0733 39.2066 14.5678C50.5744 18.0624 49.6481 27.5145 49.6481 27.5145Z" fill="url(#paint0_radial_586_679)"/>
<path d="M49.6485 27.5142C50.1368 29.9221 49.6726 32.4255 48.3535 34.4983C47.0345 36.5711 44.9633 38.0519 42.5752 38.6293C33.7757 41.1766 17.8186 42.6712 13.4399 39.724C13.4399 39.724 20.3659 42.6712 34.4914 39.724C48.6169 36.7768 49.5853 27.5563 49.5853 27.5563L49.6485 27.5142Z" fill="#F99C5F"/>
<path d="M34.5545 26.4405C35.3335 26.4405 35.9649 25.809 35.9649 25.0301C35.9649 24.2511 35.3335 23.6196 34.5545 23.6196C33.7755 23.6196 33.144 24.2511 33.144 25.0301C33.144 25.809 33.7755 26.4405 34.5545 26.4405Z" fill="#003438"/>
<path d="M14.6398 30.5458C15.2909 30.5458 15.8187 30.0179 15.8187 29.3669C15.8187 28.7158 15.2909 28.188 14.6398 28.188C13.9887 28.188 13.4609 28.7158 13.4609 29.3669C13.4609 30.0179 13.9887 30.5458 14.6398 30.5458Z" fill="#003438"/>
<path d="M19.4185 33.1983C20.3855 32.0046 21.613 31.0481 23.007 30.4022C24.4009 29.7563 25.9242 29.4382 27.4601 29.4722C27.4601 29.4722 30.4494 37.156 26.1128 38.6085C21.7762 40.0611 19.4185 33.1983 19.4185 33.1983Z" fill="#850027"/>
<path d="M22.6182 37.8926C23.1049 38.2751 23.6788 38.5311 24.2886 38.6376C24.8984 38.7441 25.5251 38.6979 26.1127 38.5031C28.3231 37.7663 28.6178 35.3875 28.3863 33.2402C27.1287 33.5123 25.9521 34.0747 24.9506 34.8825C23.9491 35.6903 23.1503 36.7211 22.6182 37.8926Z" fill="#FF0000"/>
<path d="M28.0285 31.3475C27.876 30.7124 27.6862 30.0868 27.4601 29.4739C25.9207 29.445 24.3953 29.7696 23.0011 30.4229C21.6069 31.0762 20.3813 32.0407 19.4185 33.2422C19.4185 33.2422 21.8604 35.1789 27.2917 31.8738L28.0285 31.3475Z" fill="white"/>
<path d="M13.9453 24.7985C13.9453 24.7985 16.3031 24.4407 16.682 25.5774C17.0609 26.7142 16.1767 26.7563 14.5768 26.9458C12.9769 27.1353 11.8401 27.9142 11.3139 26.9458C10.7876 25.9774 11.7559 25.1354 13.9453 24.7985Z" fill="#62361A"/>
<path d="M32.2599 20.3989C33.1232 19.8022 34.1589 19.5063 35.2071 19.5568C36.786 19.7252 37.1859 20.9883 36.5754 21.3041C35.9649 21.6199 34.1124 21.8514 32.723 22.5461C31.3336 23.2408 30.7863 21.9777 31.1863 21.4093C31.4873 21.0169 31.8499 20.6756 32.2599 20.3989V20.3989Z" fill="#62361A"/>
<path fill-rule="evenodd" clip-rule="evenodd" d="M9.92408 13.6204C9.92408 13.6204 4.68226 9.47327 1.44034 14.9466C-0.875322 18.778 1.56665 20.82 2.30345 21.2621C2.93258 21.6737 3.58641 22.0463 4.26123 22.3778L9.92408 13.6204Z" fill="url(#paint1_radial_586_679)"/>
<path fill-rule="evenodd" clip-rule="evenodd" d="M55.7112 2.48411C47.7959 -4.73654 41.5015 6.06286 41.5015 6.06286L54.9533 14.9466C54.9533 14.9466 61.8793 8.1259 55.7112 2.48411Z" fill="url(#paint2_radial_586_679)"/>
<path fill-rule="evenodd" clip-rule="evenodd" d="M53.1006 5.01013C48.4693 0.79984 44.9326 6.7153 44.9326 6.7153L52.9322 12.3992C52.9322 12.3992 55.9846 7.64157 53.1006 5.01013Z" fill="#520F6D"/>
<path fill-rule="evenodd" clip-rule="evenodd" d="M8.34533 15.4939C8.03674 15.2726 7.68721 15.1149 7.31708 15.03C6.94696 14.9451 6.56364 14.9347 6.18945 14.9993C5.81525 15.064 5.45766 15.2024 5.13748 15.4066C4.81731 15.6108 4.54095 15.8766 4.3245 16.1886C4.06497 16.493 3.87211 16.8484 3.75835 17.2319C3.64459 17.6154 3.61246 18.0185 3.66403 18.4152C3.7156 18.8119 3.84972 19.1934 4.05775 19.535C4.26578 19.8767 4.5431 20.171 4.87184 20.3989L8.34533 15.4939Z" fill="#520F6D"/>
<path fill-rule="evenodd" clip-rule="evenodd" d="M38.6139 39.7732C49.5396 39.2048 60.4233 28.5949 59.2023 19.9638C58.5042 16.6921 56.7603 13.7364 54.2341 11.5432C50.8595 8.334 46.7023 6.06585 42.1773 4.96508C37.6523 3.8643 32.9178 3.9694 28.4461 5.26988L16.6783 8.57496C12.8068 9.92662 9.51697 12.567 7.35947 16.0543C5.20197 19.5415 4.30771 23.664 4.82634 27.7318C6.93148 40.3627 16.5731 41.4573 20.8676 41.31C19.0151 41.1122 17.26 40.3809 15.8152 39.2048C14.1582 37.709 12.9055 35.8192 12.1733 33.7104C10.1734 27.2055 10.6155 24.3636 13.668 22.6373C20.0372 19.7239 26.8065 17.7797 33.751 16.8692C38.235 16.6377 43.3716 19.8585 44.1294 23.4162C44.7511 26.2739 44.7511 29.2318 44.1294 32.0894C44.0355 33.7681 43.4591 35.3839 42.4696 36.7431C41.4801 38.1023 40.1194 39.1471 38.5508 39.7522L38.6139 39.7732Z" fill="url(#paint3_radial_586_679)"/>
<path fill-rule="evenodd" clip-rule="evenodd" d="M53.627 11.5571C56.1532 13.7503 57.8971 16.706 58.5952 19.9777C59.8162 28.6088 48.9325 39.2187 38.0068 39.7871C39.5319 39.2627 40.861 38.286 41.8171 36.9873C41.8171 36.9873 53.7112 32.356 56.5532 24.8196C57.3084 22.5507 57.4351 20.1197 56.9199 17.7846C56.4047 15.4495 55.2668 13.2975 53.627 11.5571V11.5571Z" fill="#E061A3"/>
<path fill-rule="evenodd" clip-rule="evenodd" d="M20.2607 41.2821C18.4083 41.0843 16.6532 40.353 15.2084 39.1769C13.5514 37.6811 12.2987 35.7913 11.5665 33.6825C9.56661 27.1776 10.0087 24.3356 13.0611 22.6094C19.4304 19.696 26.1997 17.7518 33.1442 16.8413C26.0774 17.2955 19.1483 19.0064 12.6822 21.8937C12.6822 21.8937 6.78781 24.0409 10.9981 33.6825C10.9981 33.6825 13.7979 41.3452 20.2607 41.2821Z" fill="#E061A3"/>
<path d="M11.4103 16.1625C12.0433 16.072 12.487 15.5134 12.4014 14.9149C12.3158 14.3165 11.7333 13.9047 11.1003 13.9952C10.4673 14.0858 10.0235 14.6443 10.1091 15.2428C10.1947 15.8413 10.7773 16.2531 11.4103 16.1625Z" fill="#520F6D"/>
<path d="M34.9834 10.5081C35.766 10.3961 36.3124 9.68959 36.2037 8.92998C36.0951 8.17037 35.3726 7.64533 34.5899 7.75727C33.8073 7.86921 33.2609 8.57575 33.3696 9.33536C33.4782 10.095 34.2008 10.62 34.9834 10.5081Z" fill="#520F6D"/>
<path fill-rule="evenodd" clip-rule="evenodd" d="M27.1233 13.494C27.1233 14.3782 24.4919 15.8307 22.3446 16.8833C21.3236 17.418 20.1572 17.6085 19.0192 17.4264C17.8811 17.2443 16.8324 16.6994 16.0292 15.8728C15.8308 15.6578 15.6738 15.408 15.5661 15.136C14.8082 13.0309 19.2922 11.3257 21.8815 10.9257C24.4708 10.5258 27.2286 11.6625 27.1233 13.494Z" fill="#520F6D"/>
<path fill-rule="evenodd" clip-rule="evenodd" d="M53.6272 11.5575C51.7983 9.77524 49.7119 8.27791 47.4381 7.11564C41.3677 4.06753 34.377 3.39925 27.8391 5.24205L16.0714 8.54713C12.1998 9.89879 8.91004 12.5392 6.75254 16.0265C4.59504 19.5137 3.70077 23.6362 4.2194 27.704C6.32455 40.3348 15.9661 41.4295 20.2606 41.2822C20.2606 41.2822 6.47191 41.7874 5.20882 27.5777C4.69335 23.7692 5.49594 19.8991 7.48335 16.6097C9.47076 13.3203 12.5234 10.8096 16.1345 9.49445L28.0286 6.12622C32.4256 4.99911 37.0235 4.90285 41.4638 5.84495C45.904 6.78705 50.0667 8.74204 53.6272 11.5575V11.5575Z" fill="#FFCAE6"/>
</g>
<defs>
<radialGradient id="paint0_radial_586_679" cx="0" cy="0" r="1" gradientUnits="userSpaceOnUse" gradientTransform="translate(28.323 35.514) rotate(180) scale(21.7883)">
<stop stop-color="#FFE098"/>
<stop offset="0.39" stop-color="#FFC882"/>
<stop offset="0.66" stop-color="#FFB470"/>
</radialGradient>
<radialGradient id="paint1_radial_586_679" cx="0" cy="0" r="1" gradientUnits="userSpaceOnUse" gradientTransform="translate(5.20855 17.2623) rotate(180) scale(4.94709 4.94709)">
<stop stop-color="#FFBCBE"/>
<stop offset="0.27" stop-color="#FFA9BE"/>
<stop offset="0.73" stop-color="#FF8DBE"/>
<stop offset="1" stop-color="#FF83BE"/>
</radialGradient>
<radialGradient id="paint2_radial_586_679" cx="0" cy="0" r="1" gradientUnits="userSpaceOnUse" gradientTransform="translate(49.8799 7.47331) rotate(180) scale(7.9364)">
<stop stop-color="#FFBCBE"/>
<stop offset="0.27" stop-color="#FFA9BE"/>
<stop offset="0.73" stop-color="#FF8DBE"/>
<stop offset="1" stop-color="#FF83BE"/>
</radialGradient>
<radialGradient id="paint3_radial_586_679" cx="0" cy="0" r="1" gradientUnits="userSpaceOnUse" gradientTransform="translate(31.9617 22.7847) rotate(180) scale(32.3561 32.3561)">
<stop stop-color="#FFBCBE"/>
<stop offset="0.27" stop-color="#FFA9BE"/>
<stop offset="0.73" stop-color="#FF8DBE"/>
<stop offset="1" stop-color="#FF83BE"/>
</radialGradient>
<clipPath id="clip0_586_679">
<rect width="58.2073" height="41.3451" fill="white" transform="translate(0.472168)"/>
</clipPath>
</defs>
</svg>
