<svg width="16" height="17" viewBox="0 0 16 17" fill="none" xmlns="http://www.w3.org/2000/svg">
<g clip-path="url(#clip0_586_718)">
<path d="M15.4466 3.09933C15.4466 3.09933 11.489 -1.30042 8.07862 0.846825C4.66829 2.99407 -1.68925 8.88848 1.06849 14.6987C1.06849 14.6987 11.7626 10.7831 15.4466 3.09933Z" fill="#821898"/>
<path d="M1.06847 14.6985C-1.28929 9.60404 3.27888 4.46748 6.73132 1.79395C6.73132 1.79395 -0.657745 8.10938 1.53161 13.7933L1.06847 14.6985Z" fill="#A832C7"/>
<path d="M14.3732 4.95196C12.8358 3.91719 11.0266 3.36051 9.1735 3.35205C9.06299 3.35403 8.9548 3.38404 8.85906 3.43927C8.76333 3.4945 8.68319 3.57315 8.62616 3.66782V3.66782C8.556 3.77081 8.51395 3.89033 8.50416 4.01456C8.49438 4.13879 8.51719 4.26343 8.57036 4.37613C8.62352 4.48884 8.70519 4.58571 8.80728 4.65717C8.90937 4.72863 9.02835 4.77219 9.15245 4.78355C10.6837 4.88292 12.1664 5.36028 13.468 6.17295L14.3732 4.95196Z" fill="#FF9A00"/>
<path d="M12.3309 7.43607C10.8237 6.34873 9.0108 5.76656 7.15227 5.773C6.99197 5.80648 6.84535 5.88712 6.73124 6.00457V6.00457C6.64115 6.10007 6.57906 6.21851 6.55177 6.34693C6.52448 6.47535 6.53303 6.60881 6.5765 6.73269C6.61997 6.85658 6.69667 6.96612 6.79822 7.04934C6.89977 7.13255 7.02226 7.18623 7.15227 7.2045C8.53491 7.30299 9.85562 7.8166 10.9415 8.6781L12.3309 7.43607Z" fill="#FF9A00"/>
<path opacity="0.35" d="M1.06885 14.6987C1.06885 14.6987 11.763 10.7831 15.447 3.09933C15.447 3.09933 11.4893 -1.30042 8.07899 0.846825C8.07899 0.846825 13.2787 4.53083 5.72122 12.4462L1.06885 14.6987Z" fill="#400454"/>
<path d="M9.61552 8.97255C11.8002 7.20719 13.6719 5.0864 15.1521 2.69922C15.1521 2.69922 16.352 2.99394 15.5941 4.5307C12.7308 8.68563 8.98581 12.1575 4.62632 14.6986C-0.236565 17.0984 0.837059 14.1512 0.837059 14.1512C1.98507 13.3364 2.96445 12.307 3.72111 11.1198C5.34207 8.82519 6.4157 9.01466 7.44722 9.39358C7.81732 9.48764 8.20365 9.49866 8.57851 9.42587C8.95338 9.35308 9.30751 9.19828 9.61552 8.97255Z" fill="#DFCAE5"/>
<path d="M1.44743 13.688C1.2602 13.8627 1.05565 14.0179 0.836942 14.1511C0.836942 14.1511 -0.00511604 16.5299 3.19471 15.33C2.49221 14.9759 1.91268 14.4184 1.53164 13.7301V13.7301L1.44743 13.688Z" fill="#F4EAF7"/>
<path d="M4.62646 14.6986C8.9544 12.1269 12.663 8.63387 15.489 4.46754C16.2469 2.99394 15.1522 2.69922 15.1522 2.69922C13.7075 5.09318 11.8717 7.22793 9.72092 9.01466C9.26942 9.31766 8.74733 9.49894 8.20521 9.54094C7.49764 10.5057 6.72389 11.4201 5.88955 12.2776C5.22593 12.9328 4.78422 13.7794 4.62646 14.6986V14.6986Z" fill="#BFB4C4"/>
</g>
<defs>
<clipPath id="clip0_586_718">
<rect width="15.3255" height="16.0833" fill="white" transform="translate(0.416016 0.257324)"/>
</clipPath>
</defs>
</svg>
