<svg width="58" height="27" viewBox="0 0 58 27" fill="none" xmlns="http://www.w3.org/2000/svg">
<g clip-path="url(#clip0_586_696)">
<path d="M14.3267 11.2133L2.32335 23.2871L19.2189 24.8958L23.1966 22.9835L20.9563 9.4895L14.3267 11.2133Z" fill="url(#paint0_radial_586_696)"/>
<path d="M9.84696 24.0106L2.32314 23.2873L7.73507 17.8523C8.58202 18.6142 9.2205 19.5798 9.59006 20.6574C9.95963 21.7351 10.048 22.8892 9.84696 24.0106V24.0106Z" fill="url(#paint1_linear_586_696)"/>
<path d="M9.03043 19.4261C8.80924 19.0347 8.56349 18.6577 8.29466 18.2973L2.32296 23.2873L9.03043 19.4261Z" fill="white"/>
<path d="M56.7357 4.58539C56.7832 5.42934 56.6498 6.27368 56.3446 7.06194L19.3235 24.8883C19.7395 24.6254 20.098 24.2808 20.3771 23.8755C20.6563 23.4702 20.8504 23.0125 20.9477 22.5301C21.0451 22.0477 21.0436 21.5505 20.9435 21.0686C20.8433 20.5868 20.6466 20.1302 20.3651 19.7265L56.7357 4.58539Z" fill="#BC488A"/>
<path d="M18.1657 14.6932C18.1657 14.6932 22.6935 16.3082 20.2603 19.7342L56.7375 4.60643C56.6807 3.74668 56.3065 2.9387 55.6874 2.33943L18.1657 14.6932Z" fill="#DD62A3"/>
<path d="M18.1658 14.6934C18.7961 11.1443 14.3266 11.2136 14.3266 11.2136L53.2778 1.12057C54.1753 1.30474 55.0073 1.72565 55.6874 2.33966L18.1658 14.6934Z" fill="#FF83BE"/>
</g>
<defs>
<radialGradient id="paint0_radial_586_696" cx="0" cy="0" r="1" gradientUnits="userSpaceOnUse" gradientTransform="translate(11.4322 18.9158) rotate(-103.309) scale(9.88012 19.4685)">
<stop stop-color="#FF9A00"/>
<stop offset="1" stop-color="#FFF49D"/>
</radialGradient>
<linearGradient id="paint1_linear_586_696" x1="7.30504" y1="24.4685" x2="5.12413" y2="20.278" gradientUnits="userSpaceOnUse">
<stop offset="0.26" stop-color="#003438"/>
<stop offset="1" stop-color="#0C2217"/>
</linearGradient>
<clipPath id="clip0_586_696">
<rect width="55.618" height="21.262" fill="white" transform="translate(0.995605 4.89404) rotate(-4.12833)"/>
</clipPath>
</defs>
</svg>
