<svg width="21" height="16" viewBox="0 0 21 16" fill="none" xmlns="http://www.w3.org/2000/svg">
<g clip-path="url(#clip0_586_708)">
<path d="M19.3853 7.93125C19.4026 7.048 19.2227 6.17201 18.8585 5.36715C18.4943 4.56229 17.9551 3.84886 17.2801 3.27888C15.6879 1.92716 13.7446 1.05526 11.6763 0.764585C9.60802 0.473905 7.4997 0.776392 5.59656 1.63686C0.628418 3.86832 0.628418 6.94183 0.628418 6.94183L17.7433 12.9204C18.6047 11.3777 19.1622 9.68405 19.3853 7.93125V7.93125Z" fill="#821898"/>
<path d="M14.6699 5.15244C14.6699 5.15244 15.112 2.83678 14.2278 1.80526L11.8911 1.21582C12.1687 2.18112 12.212 3.19869 12.0174 4.18408L14.6699 5.15244Z" fill="#FFC600"/>
<path d="M15.6382 2.54199C15.9552 3.52041 15.9552 4.57393 15.6382 5.55235L17.4697 6.94175C17.7088 5.90986 17.7088 4.83696 17.4697 3.80508C16.9033 3.32341 16.2897 2.90022 15.6382 2.54199V2.54199Z" fill="#FFC600"/>
<path opacity="0.35" d="M17.3433 3.27903C18.0182 3.84901 18.5575 4.56244 18.9216 5.3673C19.2858 6.17216 19.4658 7.04815 19.4484 7.9314C19.2253 9.6842 18.6679 11.3779 17.8064 12.9206L0.628418 6.94198C0.628418 6.94198 7.21753 -0.952315 16.6907 3.02641L17.3433 3.27903Z" fill="#2A0055"/>
<path d="M15.3644 4.83659C12.6939 3.26907 9.67977 2.38002 6.58598 2.24726C5.25629 2.06146 3.90535 2.38269 2.8016 3.14713C1.69786 3.91156 0.922081 5.06325 0.628418 6.37335L17.7433 12.9204C17.7433 12.9204 21.6799 8.77322 15.3644 4.83659Z" fill="#DCEFDA"/>
<path d="M0.628418 6.37337L17.7433 12.9204C17.7433 12.9204 21.6799 8.77324 15.3644 4.83661C13.1226 3.5063 10.6271 2.66012 8.03853 2.35254C6.28617 2.94072 4.62726 3.77726 3.11249 4.83661C2.4363 5.56119 1.57866 6.09177 0.628418 6.37337H0.628418Z" fill="#AFB4AF"/>
<path d="M11.512 15.089C11.512 15.089 17.9959 15.51 18.1643 11.1524C18.3327 6.79473 13.4698 5.36323 9.40688 3.95278C5.34395 2.54233 0.628418 4.26855 0.628418 6.94209C0.628418 9.61562 5.47026 14.4575 11.512 15.089Z" fill="#984432"/>
<path d="M15.5538 6.60498L3.25977 11.3416C3.92653 11.9001 4.6298 12.4134 5.36491 12.8783L17.2379 8.03648C16.7553 7.47376 16.1869 6.99066 15.5538 6.60498V6.60498Z" fill="#7C3629"/>
<path d="M18.1643 11.1521C18.2066 10.8096 18.2066 10.4631 18.1643 10.1206L7.87012 14.1835C8.71939 14.5245 9.60104 14.7784 10.5015 14.9414L18.038 12.0363C18.1302 11.7509 18.1729 11.4519 18.1643 11.1521V11.1521Z" fill="#7C3629"/>
<path d="M9.40688 3.95264H9.25952L0.628418 7.38403C0.763033 8.07004 1.03515 8.72169 1.42837 9.29971L12.1015 4.8368C11.1541 4.56313 10.291 4.24736 9.40688 3.95264Z" fill="#7C3629"/>
</g>
<defs>
<clipPath id="clip0_586_708">
<rect width="20.2515" height="14.4624" fill="white" transform="translate(0.628418 0.626465)"/>
</clipPath>
</defs>
</svg>
