<svg width="127" height="50" viewBox="0 0 127 50" fill="none" xmlns="http://www.w3.org/2000/svg">
<g clip-path="url(#clip0_586_996)">
<path d="M31.14 0.180176C31.14 0.180176 7.49001 1.51018 1.77001 16.2002C-3.94999 30.8902 5.48001 41.0002 12.29 41.0002C19.1 41.0002 22.92 37.5302 23.15 26.3002C23.38 15.0702 39 13.4302 39 13.4302L92.91 35.6202C92.91 35.6202 104.38 43.8502 116.32 43.8502C128.26 43.8502 125.52 37.6302 125.52 37.6302C125.52 37.6302 125.28 32.2602 114.17 31.3102C103.06 30.3602 88.72 20.5702 88.72 20.5702L31.14 0.180176Z" fill="#FFB470"/>
<path d="M31.14 0.180176C31.14 0.180176 7.49001 1.51018 1.77001 16.2002C-3.94999 30.8902 5.48001 41.0002 12.29 41.0002C19.1 41.0002 22.92 37.5302 23.15 26.3002C23.38 15.0702 39 13.4302 39 13.4302L92.91 35.6202C92.91 35.6202 104.38 43.8502 116.32 43.8502C128.26 43.8502 125.52 37.6302 125.52 37.6302C125.52 37.6302 125.28 32.2602 114.17 31.3102C103.06 30.3602 88.72 20.5702 88.72 20.5702L31.14 0.180176Z" fill="url(#paint0_radial_586_996)"/>
<path d="M12.3499 6.00006C2.92993 12.8901 4.24993 26.4101 7.09993 33.5401C9.94992 40.6701 20.9999 39.0801 22.2099 32.3601C23.4199 25.6401 20.7599 22.4901 26.7699 16.1501C32.7799 9.81006 29.9999 0.560059 29.9999 0.560059L31.4699 1.83006L32.9299 1.49006L38.9999 13.4301C38.9999 13.4301 23.3799 15.1101 23.1499 26.3401C22.9199 37.5701 19.0999 41.0001 12.2899 41.0001C5.47993 41.0001 -4.00007 30.8901 1.76993 16.2001C4.33992 9.59006 10.5499 5.68006 16.5899 3.39006L12.3499 6.00006Z" fill="#F99C5F"/>
<path d="M92.9102 35.6199C92.9102 35.6199 104.38 43.8499 116.32 43.8499C128.26 43.8499 125.52 37.6299 125.52 37.6299C125.52 37.6299 125.77 43.7899 116.31 42.6299C106.85 41.4699 92.9102 30.8999 92.9102 30.8999V35.6199Z" fill="#F99C5F"/>
<path d="M92.1901 37.7701C92.1901 37.7701 94.7101 44.5801 86.4701 47.3301C78.2301 50.0801 41.8001 53.5601 35.4701 39.8301C33.617 35.935 32.7851 31.6325 33.0528 27.3273C33.3204 23.0221 34.6788 18.8558 37.0001 15.2201L32.3401 16.3001C33.0543 13.605 33.2 10.7907 32.7679 8.03614C32.3358 5.28162 31.3353 2.64713 29.8301 0.300131C29.8301 0.300131 44.6401 -1.36987 56.8301 3.30013C69.0201 7.97013 75.5901 12.4901 82.1601 16.5401C86.993 19.3751 92.0186 21.8679 97.2001 24.0001C97.2001 24.0001 99.5701 37.3601 96.0001 39.3201L92.1901 37.7701Z" fill="url(#paint1_radial_586_996)"/>
<path d="M97.7298 36C98.5098 31.37 97.1998 24 97.1998 24C92.0304 21.8467 87.0181 19.3338 82.1998 16.48C75.5798 12.46 68.9998 7.92002 56.8198 3.27002C56.8198 3.27002 69.0298 8.80002 76.2898 14.48C83.5498 20.16 85.2098 21.41 88.4098 26.4C87.2217 23.6591 85.6308 21.111 83.6898 18.84C83.6898 18.84 94.5698 24.24 97.2798 33.73L97.7298 36Z" fill="#A832C7"/>
<path opacity="0.35" d="M96.0001 39.3198L92.1701 37.7698C92.1701 37.7698 94.6901 44.5798 86.4501 47.3298C78.2101 50.0798 41.7801 53.5598 35.4501 39.8298C33.5999 35.933 32.7714 31.6296 33.0426 27.3244C33.3137 23.0192 34.6756 18.8537 37.0001 15.2198L32.3401 16.2998C33.0543 13.6046 33.2 10.7903 32.7679 8.03581C32.3358 5.28129 31.3353 2.6468 29.8301 0.299805C29.8301 0.299805 33.8901 3.6298 34.8801 6.9498C35.6237 9.15537 36.7924 11.1938 38.3201 12.9498L42.0001 7.4098C42.0001 7.4098 36.7601 30.8098 56.8501 39.4098C67.0701 43.8098 97.1101 50.4098 91.1201 33.7498C91.9257 35.2029 92.9137 36.5472 94.0601 37.7498L96.0001 39.3198Z" fill="#400454"/>
<path fill-rule="evenodd" clip-rule="evenodd" d="M118.44 37.1101C118.334 37.4388 118.244 37.7725 118.17 38.1101C117.824 40.4727 118.234 42.8841 119.34 45.0001L122.67 44.8501C117.25 35.1301 127 31.6001 127 31.6001L122.16 32.6001C121.536 33.0052 120.957 33.4744 120.43 34.0001C120.43 34.0001 121.69 34.9301 121.19 36.1301C120.69 37.3301 118.44 37.1101 118.44 37.1101Z" fill="#C43A00"/>
<path fill-rule="evenodd" clip-rule="evenodd" d="M118.17 38.1401C118.243 37.8025 118.333 37.4688 118.44 37.1401C118.44 37.1401 120.69 37.3601 121.19 36.1401C120.909 36.7072 120.484 37.1905 119.957 37.5415C119.431 37.8925 118.821 38.099 118.19 38.1401H118.17Z" fill="#912600"/>
</g>
<defs>
<radialGradient id="paint0_radial_586_996" cx="0" cy="0" r="1" gradientUnits="userSpaceOnUse" gradientTransform="translate(115.219 34.1917) rotate(4.15) scale(14.47 13.023)">
<stop stop-color="#FFE098"/>
<stop offset="0.4" stop-color="#FFC882"/>
<stop offset="0.68" stop-color="#FFB470"/>
</radialGradient>
<radialGradient id="paint1_radial_586_996" cx="0" cy="0" r="1" gradientUnits="userSpaceOnUse" gradientTransform="translate(63.9001 24.9301) scale(34.77 34.77)">
<stop stop-color="#A22498"/>
<stop offset="0.48" stop-color="#8A1B98"/>
<stop offset="0.61" stop-color="#821898"/>
</radialGradient>
<clipPath id="clip0_586_996">
<rect width="127" height="49.86" fill="white"/>
</clipPath>
</defs>
</svg>
