<svg width="51" height="59" viewBox="0 0 51 59" fill="none" xmlns="http://www.w3.org/2000/svg">
<g clip-path="url(#clip0_586_1005)">
<path d="M-3.41807e-05 46.5301C-0.0311629 47.3691 0.189286 48.1982 0.632988 48.911C1.07669 49.6238 1.72338 50.1876 2.48997 50.5301L29.32 58.8301L50 13.0601L26.18 14.3201L-3.41807e-05 46.5301Z" fill="#C43A00"/>
<path fill-rule="evenodd" clip-rule="evenodd" d="M46.0001 0L27.2501 48.13L2.8501 44.39C2.8501 44.39 -1.2599 44.39 2.6101 49.82L28.8701 56.82L48.4001 12.07C48.4001 12.07 42.8701 11.94 46.0001 0Z" fill="#DCEFDA"/>
<path fill-rule="evenodd" clip-rule="evenodd" d="M25.5201 48.0501L2.8501 44.3901C2.8501 44.3901 -1.2599 44.3901 2.6101 49.8201L28.8701 56.8201C28.8701 56.8201 23.0001 53.4901 25.5201 48.0501Z" fill="#BECCBC"/>
<path fill-rule="evenodd" clip-rule="evenodd" d="M45.9598 0L15.4598 10.89L0.00976562 46.53L27.2498 48.13L45.9598 0Z" fill="#C43A00"/>
<path d="M22.0902 28.4302C22.0902 28.4302 21.3402 41.8802 1.16016 43.8802L5.51016 33.8802C5.51016 33.8802 21.8702 21.0802 22.0902 28.4302Z" fill="#912600"/>
<path d="M46.2298 1.36L45.9598 0L26.8198 46.72L0.00976562 46.53L0.299766 47L27.2498 48.13L46.2298 1.36Z" fill="#912600"/>
<path d="M50.35 14L49.99 13L29.14 57.56L2.60997 50.15C2.60997 50.15 0.249973 48.65 0.739973 46.58H0.00997292C-0.0395805 47.4224 0.173272 48.2594 0.619213 48.9758C1.06515 49.6921 1.72224 50.2526 2.49997 50.58L29.44 59L50.35 14Z" fill="#912600"/>
</g>
<defs>
<clipPath id="clip0_586_1005">
<rect width="50.35" height="58.98" fill="white"/>
</clipPath>
</defs>
</svg>
