<svg width="77" height="85" viewBox="0 0 77 85" fill="none" xmlns="http://www.w3.org/2000/svg">
<g clip-path="url(#clip0_586_1166)">
<path d="M71.1099 64.0001L48.7399 81.1401C47.4849 82.0995 46.0463 82.7911 44.5132 83.172C42.9801 83.5529 41.3851 83.615 39.827 83.3543C38.2689 83.0937 36.7809 82.516 35.4552 81.6569C34.1295 80.7978 32.9943 79.6757 32.1199 78.3601L2.92987 34.4201C2.04329 33.0882 1.44334 31.5866 1.16812 30.0105C0.892895 28.4344 0.94841 26.8183 1.33114 25.2648C1.71387 23.7113 2.41545 22.2544 3.39133 20.9865C4.36721 19.7187 5.59607 18.6676 6.99987 17.9001L35.3999 2.43005C38.0765 0.976995 41.2194 0.64201 44.1422 1.49824C47.065 2.35448 49.5304 4.33237 50.9999 7.00005L74.2199 49.3301C75.536 51.7444 75.9459 54.5497 75.3756 57.2397C74.8053 59.9297 73.2924 62.3274 71.1099 64.0001Z" fill="url(#paint0_radial_586_1166)"/>
<path d="M45.5098 73.7199C47.2606 73.7199 48.6798 72.3006 48.6798 70.5499C48.6798 68.7991 47.2606 67.3799 45.5098 67.3799C43.7591 67.3799 42.3398 68.7991 42.3398 70.5499C42.3398 72.3006 43.7591 73.7199 45.5098 73.7199Z" fill="#4E7821"/>
<path d="M32.8901 14.5298C32.506 14.4419 32.131 14.3181 31.7701 14.1598C31.3501 13.9398 30.5501 13.3698 30.8201 12.9598C30.9833 12.7761 31.2058 12.6554 31.4489 12.6189C31.6919 12.5824 31.94 12.6322 32.1501 12.7598C32.5801 12.9698 32.9601 13.2498 33.1501 13.0998C33.3401 12.9498 32.7201 11.5198 32.9301 10.9498C32.9871 10.814 33.0843 10.6989 33.2088 10.62C33.3332 10.5412 33.4789 10.5025 33.626 10.509C33.7732 10.5156 33.9148 10.5671 34.0317 10.6566C34.1487 10.7462 34.2354 10.8694 34.2801 11.0098C34.6001 11.7398 34.4601 12.5398 34.6801 12.5798C35.3301 12.7098 35.7901 10.9498 36.5101 10.8398C37.2301 10.7298 37.6901 11.5198 37.1801 12.4298C36.9232 12.9109 36.6359 13.3752 36.3201 13.8198L32.8901 14.5298Z" fill="#C1123F"/>
<path d="M34.4101 13.6602C32.9601 13.9702 30.4101 15.9002 31.4101 22.7902C31.8348 26.1233 32.8507 29.3539 34.4101 32.3302C35.5464 34.5377 36.5482 36.8119 37.4101 39.1402C37.6501 39.9902 37.2501 41.5502 35.9201 39.4802C34.0201 36.5402 32.1401 37.2602 31.5401 37.8102C30.9401 38.3602 31.7201 40.9502 32.5401 41.9302C33.3601 42.9102 36.7601 44.8502 38.1901 45.5202C39.6201 46.1902 40.0501 48.3602 40.1901 48.8602C40.3301 49.3602 41.0401 51.5202 41.6501 51.7802L43.3001 51.5302C43.3893 50.6041 43.3658 49.6706 43.2301 48.7502C42.8969 46.7411 42.9273 44.6885 43.3201 42.6902C43.8001 39.6902 42.8301 30.6902 42.3201 27.6102C41.8101 24.5302 40.9301 19.8802 38.9701 16.5202C37.5101 14.1302 36.4901 13.2202 34.4101 13.6602Z" fill="#4E7821"/>
<path d="M41.3998 51.4901C41.3998 51.4901 40.9798 51.7901 41.2298 53.0301C41.4798 54.2701 43.5798 68.0301 43.5798 68.0301C44.0368 68.1686 44.5202 68.196 44.9898 68.1101C45.5426 68.0151 46.0622 67.7811 46.4998 67.4301L44.0598 51.4301C43.945 51.2804 43.7902 51.1662 43.6133 51.1007C43.4363 51.0352 43.2444 51.0212 43.0598 51.0601L41.3998 51.4901Z" fill="#874600"/>
<g opacity="0.3">
<path d="M34 13.8701C34 13.8701 34.26 20.1001 35.59 23.9301C36.92 27.7601 37.47 29.9301 37.47 29.9301" stroke="#1A4E11" stroke-miterlimit="10" stroke-linecap="round"/>
</g>
<path opacity="0.3" d="M32.52 16.3301C32.52 16.3301 32.83 22.9201 34.81 27.2101C36.79 31.5001 38.05 34.8401 38.65 36.4701C39.25 38.1001 39.92 43.2801 40.15 44.3701C40.6683 45.9835 41.2862 47.5632 42 49.1001C42 49.1901 40.74 41.2401 40.53 36.2301C40.1858 31.0856 39.2325 26.0001 37.69 21.0801C36.9318 18.7214 36.3108 16.3207 35.83 13.8901" stroke="#1A4E11" stroke-miterlimit="10" stroke-linecap="round"/>
<path opacity="0.3" d="M39 19.5801C40.0709 23.4798 40.942 27.4316 41.61 31.4201C42.0095 33.9899 42.2566 36.5811 42.35 39.1801C42.35 40.8001 42.6 44.3001 42.6 44.3001" stroke="#1A4E11" stroke-miterlimit="10" stroke-linecap="round"/>
<g opacity="0.3">
<path d="M32.07 38C33.1703 39.1273 34.4428 40.0724 35.84 40.8C36.589 41.1387 37.2914 41.5723 37.93 42.09C38.2432 42.4019 38.4885 42.7752 38.6503 43.1866C38.812 43.5979 38.8869 44.0383 38.87 44.48C38.87 44.48 38.81 44.55 38.78 44.48C38.24 43.9 38.01 43.24 37.29 42.82C35.39 41.45 33.29 40.05 31.98 38H32.07Z" fill="#1A4E11"/>
</g>
<g opacity="0.3">
<path d="M31.6001 39.4702C33.2901 41.1102 35.8201 41.5602 37.0701 43.6502C37.0763 43.6548 37.0813 43.6609 37.0848 43.6678C37.0883 43.6748 37.0901 43.6824 37.0901 43.6902C37.0901 43.6979 37.0883 43.7056 37.0848 43.7125C37.0813 43.7195 37.0763 43.7255 37.0701 43.7302C35.8961 43.5053 34.8223 42.9177 34.0001 42.0502C33.0741 41.3309 32.2528 40.4861 31.5601 39.5402C31.5601 39.5402 31.5601 39.4302 31.6301 39.4702H31.6001Z" fill="#1A4E11"/>
</g>
<path d="M30.4399 17.1199C30.965 17.1754 31.478 17.3138 31.9599 17.5299C32.0399 17.6299 32.2599 18.0499 32.0999 18.2699C31.8962 18.3835 31.6592 18.4225 31.4299 18.3799C31.1099 18.2299 30.6699 17.5499 30.4299 17.1999C30.4234 17.1918 30.4196 17.1819 30.419 17.1715C30.4184 17.1612 30.4211 17.1509 30.4265 17.1422C30.432 17.1334 30.4401 17.1265 30.4497 17.1225C30.4592 17.1185 30.4698 17.1176 30.4799 17.1199H30.4399Z" fill="#1A4E11"/>
<path d="M30.08 19.5102C30.5524 19.3422 31.0487 19.2511 31.55 19.2402C31.67 19.3102 32 19.5602 31.96 19.8402C31.8324 20.0263 31.6456 20.1637 31.43 20.2302C30.9468 20.0966 30.4878 19.8874 30.07 19.6102C30.0568 19.6102 30.044 19.605 30.0347 19.5956C30.0253 19.5862 30.02 19.5735 30.02 19.5602C30.02 19.547 30.0253 19.5343 30.0347 19.5249C30.044 19.5155 30.0568 19.5102 30.07 19.5102H30.08Z" fill="#1A4E11"/>
<path d="M29.8701 23.6801C30.1895 23.4039 30.5423 23.1687 30.9201 22.9801C31.0901 22.8801 31.2501 22.7101 31.4601 22.7301C31.6701 22.7501 32.1201 22.8501 32.1601 23.1101C32.0824 23.3501 31.9232 23.5553 31.7101 23.6901C31.5501 23.8201 31.3301 23.6901 31.1301 23.7501H30.5301C30.3601 23.7501 29.9301 23.7501 29.8701 23.6701V23.6801Z" fill="#1A4E11"/>
<path d="M33.8799 26.6501C33.4729 26.9886 33.018 27.2649 32.5299 27.4701C32.3072 27.4351 32.1028 27.3258 31.9499 27.1601C31.8599 26.8801 32.1899 26.5801 32.2999 26.5001C32.819 26.4277 33.3466 26.4447 33.8599 26.5501C33.8599 26.5501 33.9199 26.6201 33.8599 26.6501H33.8799Z" fill="#1A4E11"/>
<path d="M34.7102 29.0001C34.3495 29.4696 33.9254 29.8869 33.4502 30.2401C33.3302 30.2401 32.7902 30.2901 32.6802 30.0401C32.7125 29.797 32.8252 29.5718 33.0002 29.4001C33.5461 29.1684 34.1216 29.0136 34.7102 28.9401C34.7161 28.9368 34.7226 28.9347 34.7293 28.9339C34.736 28.9332 34.7428 28.9337 34.7493 28.9356C34.7558 28.9374 34.7619 28.9406 34.7672 28.9448C34.7725 28.949 34.7769 28.9542 34.7802 28.9601C34.7835 28.966 34.7855 28.9725 34.7863 28.9792C34.7871 28.9859 34.7865 28.9927 34.7847 28.9992C34.7828 29.0057 34.7797 29.0118 34.7755 29.0171C34.7713 29.0224 34.7661 29.0268 34.7602 29.0301L34.7102 29.0001Z" fill="#1A4E11"/>
<path d="M35.4599 31.9402C35.0714 32.243 34.6355 32.4795 34.1699 32.6402C34.0399 32.6402 33.6499 32.4602 33.6099 32.1802C33.6737 31.966 33.8075 31.7794 33.9899 31.6502C34.4802 31.6368 34.9695 31.7009 35.4399 31.8402C35.4399 31.8402 35.4999 31.9202 35.4399 31.9402H35.4599Z" fill="#1A4E11"/>
<path d="M37.2002 35.3499C36.5828 35.4292 35.9577 35.4292 35.3402 35.3499C35.2302 35.2799 34.8002 34.9299 34.8902 34.6799C35.0724 34.4939 35.3199 34.3862 35.5802 34.3799C36.1675 34.5752 36.7233 34.8548 37.2302 35.2099C37.2385 35.2154 37.2452 35.2228 37.2499 35.2315C37.2546 35.2402 37.2571 35.25 37.2571 35.2599C37.2571 35.2698 37.2546 35.2795 37.2499 35.2883C37.2452 35.297 37.2385 35.3044 37.2302 35.3099L37.2002 35.3499Z" fill="#1A4E11"/>
<path d="M37.1101 37.56C36.8101 37.7 36.1101 38.07 35.9101 38C35.7101 37.93 35.5001 37.72 35.5101 37.45C35.5881 37.2556 35.7337 37.0958 35.9201 37C36.1101 36.93 36.8101 37.32 37.1201 37.46C37.1284 37.4655 37.1351 37.4729 37.1398 37.4817C37.1445 37.4904 37.1469 37.5001 37.1469 37.51C37.1469 37.5199 37.1445 37.5297 37.1398 37.5384C37.1351 37.5471 37.1284 37.5546 37.1201 37.56H37.1101Z" fill="#1A4E11"/>
<path d="M33.2001 37.2999C33.0169 36.7096 32.9127 36.0976 32.8901 35.4799C32.8901 35.3599 33.2201 34.8799 33.4901 34.9299C33.691 35.0886 33.832 35.3107 33.8901 35.5599C33.7707 36.1665 33.5724 36.7548 33.3001 37.3099C33.3001 37.3232 33.2949 37.3359 33.2855 37.3453C33.2761 37.3546 33.2634 37.3599 33.2501 37.3599C33.2369 37.3599 33.2242 37.3546 33.2148 37.3453C33.2054 37.3359 33.2001 37.3232 33.2001 37.3099V37.2999Z" fill="#1A4E11"/>
<path d="M35.1401 39.9C35.1521 39.5393 35.2161 39.1823 35.3301 38.84C35.3801 38.68 35.3301 38.47 35.5101 38.38C35.6901 38.29 36.0201 38.1 36.2401 38.27C36.3492 38.468 36.388 38.6971 36.3501 38.9199C36.3501 39.0999 36.1301 39.16 36.0001 39.27L35.6201 39.5999L35.2001 39.93C35.2001 39.93 35.1301 39.93 35.1401 39.93V39.9Z" fill="#1A4E11"/>
<path d="M35.0002 42.87C34.8326 43.1488 34.6419 43.4131 34.4302 43.66C34.3302 43.78 34.2702 43.97 34.1002 44C33.9302 44.03 33.5602 44 33.4102 43.81C33.4102 43.28 33.5302 43.04 33.9902 42.99C34.3173 42.8909 34.6516 42.8173 34.9902 42.77C35.0502 42.77 34.9902 42.84 34.9902 42.87H35.0002Z" fill="#1A4E11"/>
<path d="M36.1198 43.6801C36.1363 44.3129 36.069 44.945 35.9198 45.5601C35.8398 45.6601 35.4298 46.0701 35.1898 45.9401C35.0376 45.7321 34.9633 45.4773 34.9798 45.2201C35.2484 44.6507 35.5914 44.1194 35.9998 43.6401H36.0898L36.1198 43.6801Z" fill="#1A4E11"/>
<path d="M39.9999 46.7301C39.6585 47.2651 39.2558 47.7585 38.7999 48.2001C38.6899 48.2001 38.1199 48.3401 37.9899 48.1101C37.9722 47.8731 38.0449 47.6383 38.1933 47.4528C38.3417 47.2672 38.5549 47.1448 38.7899 47.1101C39.1799 46.9801 39.6399 46.6701 40.0099 46.7101L39.9999 46.7301Z" fill="#1A4E11"/>
<path d="M40.6499 48.9401C40.4299 49.2101 39.9599 49.8601 39.7299 49.9401C39.4999 50.0201 39.2299 49.8801 39.1199 49.6301C39.1016 49.4223 39.1623 49.2152 39.2899 49.0501C39.4499 48.8901 40.2899 48.9101 40.5999 48.8901C40.5999 48.8901 40.6799 48.9501 40.5999 48.9801L40.6499 48.9401Z" fill="#1A4E11"/>
<path d="M42.8298 42.0502C43.223 41.7836 43.6595 41.5874 44.1198 41.4702C44.2398 41.4702 44.5998 41.7002 44.6098 41.9802C44.5371 42.1848 44.3958 42.358 44.2098 42.4702C43.7389 42.4379 43.2763 42.3298 42.8398 42.1502C42.8316 42.1447 42.8248 42.1373 42.8201 42.1286C42.8154 42.1199 42.813 42.1101 42.813 42.1002C42.813 42.0903 42.8154 42.0806 42.8201 42.0718C42.8248 42.0631 42.8316 42.0557 42.8398 42.0502H42.8298Z" fill="#1A4E11"/>
<path d="M42.9398 39.1098C43.4463 39.0691 43.9561 39.1097 44.4498 39.2298C44.5398 39.3198 44.8098 39.6698 44.6898 39.9198C44.5228 40.072 44.3057 40.1574 44.0798 40.1598C43.7598 40.0898 43.2198 39.4798 42.8998 39.1598C42.8913 39.1557 42.8842 39.1493 42.8792 39.1414C42.8742 39.1334 42.8716 39.1242 42.8716 39.1148C42.8716 39.1054 42.8742 39.0962 42.8792 39.0883C42.8842 39.0803 42.8913 39.0739 42.8998 39.0698L42.9398 39.1098Z" fill="#1A4E11"/>
<path d="M42.54 36.1602C43.0161 36.0353 43.5081 35.9814 44 36.0002C44.1809 36.1312 44.3087 36.3229 44.36 36.5402C44.31 36.8202 43.92 36.9502 43.78 36.9802C43.48 36.9802 42.84 36.4502 42.5 36.2302C42.4917 36.2248 42.485 36.2173 42.4803 36.2086C42.4756 36.1999 42.4731 36.1901 42.4731 36.1802C42.4731 36.1703 42.4756 36.1606 42.4803 36.1519C42.485 36.1431 42.4917 36.1357 42.5 36.1302L42.54 36.1602Z" fill="#1A4E11"/>
<path d="M42.5498 32.5402C43.1308 32.3916 43.7308 32.3309 44.3298 32.3602C44.4698 32.4302 44.9298 32.7302 44.8498 33.0002C44.6912 33.1836 44.477 33.31 44.2398 33.3602C43.6568 33.1778 43.0939 32.9366 42.5598 32.6402C42.5465 32.6402 42.5338 32.6349 42.5244 32.6255C42.515 32.6162 42.5098 32.6035 42.5098 32.5902C42.5098 32.5769 42.515 32.5642 42.5244 32.5548C42.5338 32.5455 42.5465 32.5402 42.5598 32.5402H42.5498Z" fill="#1A4E11"/>
<path d="M41.8701 30.1401C42.0901 29.8601 42.5501 29.2001 42.7701 29.1401C42.9901 29.0801 43.2801 29.1901 43.4001 29.4401C43.4097 29.6486 43.3537 29.8549 43.2401 30.0301C42.8117 30.1718 42.3608 30.2328 41.9101 30.2101C41.9101 30.2101 41.8401 30.2101 41.9101 30.1301L41.8701 30.1401Z" fill="#1A4E11"/>
<path d="M41.1602 25.52C41.4702 25.31 42.1002 24.81 42.3502 24.82C42.5599 24.8763 42.7436 25.0035 42.8702 25.18C42.9302 25.45 42.6502 25.73 42.5502 25.8C42.0857 25.8221 41.6211 25.7577 41.1802 25.61V25.52H41.1602Z" fill="#1A4E11"/>
<path d="M40.0898 20.7401C40.5548 20.3101 41.0722 19.9405 41.6298 19.6401C41.7598 19.6401 42.3298 19.6401 42.3998 19.9301C42.342 20.1847 42.1969 20.4111 41.9898 20.5701C41.3811 20.7409 40.7521 20.8283 40.1198 20.8301V20.7401H40.0898Z" fill="#1A4E11"/>
<path d="M38.3002 18.41C38.6326 18.0671 38.9903 17.7496 39.3702 17.46C39.5602 17.32 39.7002 17.11 39.9402 17.07C40.1802 17.03 40.7202 17.02 40.7902 17.27C40.7518 17.5236 40.6237 17.7549 40.4292 17.9219C40.2346 18.0889 39.9866 18.1805 39.7302 18.18C39.4002 18.27 38.7302 18.42 38.3802 18.47C38.3802 18.47 38.2602 18.47 38.3002 18.41Z" fill="#1A4E11"/>
<path d="M38.0998 16.92C38.2855 16.4095 38.5486 15.9306 38.8798 15.5C38.9898 15.45 39.4498 15.31 39.6298 15.5C39.6934 15.7255 39.6757 15.9662 39.5798 16.18C39.1534 16.5145 38.6778 16.781 38.1698 16.97C38.1602 16.9772 38.1483 16.9807 38.1363 16.9799C38.1243 16.979 38.113 16.9739 38.1045 16.9654C38.096 16.9569 38.0908 16.9456 38.09 16.9336C38.0891 16.9215 38.0926 16.9096 38.0998 16.9V16.92Z" fill="#1A4E11"/>
<path d="M35.7602 18.1901C36.2502 17.9264 36.7756 17.7344 37.3202 17.6201C37.4502 17.6201 37.8902 17.8501 37.9002 18.1301C37.7914 18.3435 37.6158 18.5156 37.4002 18.6201C36.8434 18.5925 36.2939 18.4812 35.7702 18.2901C35.757 18.2901 35.7442 18.2848 35.7349 18.2755C35.7255 18.2661 35.7202 18.2534 35.7202 18.2401C35.7202 18.2269 35.7255 18.2141 35.7349 18.2048C35.7442 18.1954 35.757 18.1901 35.7702 18.1901H35.7602Z" fill="#1A4E11"/>
<path d="M35.6598 16.0001C35.6015 15.7577 35.5713 15.5094 35.5698 15.2601C35.5698 15.1501 35.4798 15.0001 35.5698 14.9201C35.6601 14.8561 35.7638 14.8138 35.8731 14.7965C35.9824 14.7792 36.0942 14.7872 36.1998 14.8201C36.3516 14.9326 36.458 15.0958 36.4998 15.2801C36.4998 15.4101 36.3698 15.4701 36.2898 15.5501C36.2098 15.6301 35.7498 16.1601 35.6398 16.0001H35.6598Z" fill="#1A4E11"/>
<path d="M36.6501 23.3301C37.1274 23.3348 37.6006 23.4193 38.0501 23.5801C38.1201 23.6901 38.3201 24.0401 38.1701 24.2801C37.9946 24.4107 37.7783 24.4745 37.5601 24.4601C37.3001 24.3801 36.8401 23.7101 36.5601 23.4101V23.3301H36.6501Z" fill="#1A4E11"/>
<g opacity="0.3">
<path d="M44.65 68.6201C44.5446 69.2582 44.5891 69.9121 44.78 70.5301C45.0873 71.0951 45.2714 71.7188 45.32 72.3601C45.32 72.3601 45.32 72.4301 45.26 72.4201C44.8615 72.3538 44.5054 72.1326 44.2693 71.8048C44.0333 71.4769 43.9365 71.069 44 70.6701C43.9635 69.9306 44.1631 69.1986 44.57 68.5801C44.57 68.5801 44.67 68.5801 44.66 68.5801L44.65 68.6201Z" fill="#1A4E11"/>
</g>
<g opacity="0.3">
<path d="M45.7802 69C46.1725 69.4565 46.4624 69.9919 46.6302 70.57C46.8802 71.18 46.9402 71.97 46.1602 72.32C46.1602 72.32 46.1602 72.26 46.1002 72.24C45.9544 72.0126 45.8562 71.758 45.8116 71.4916C45.7669 71.2252 45.7766 70.9525 45.8402 70.69C45.8574 70.1398 45.8104 69.5894 45.7002 69.05C45.7002 69.05 45.7002 68.96 45.7802 69.05V69Z" fill="#1A4E11"/>
</g>
<path d="M41.6099 69.4699C42.0815 69.2133 42.5913 69.0344 43.1199 68.9399C43.2499 68.9399 43.6599 69.1699 43.6699 69.4599C43.5707 69.671 43.4009 69.8408 43.1899 69.9399C42.6553 69.8889 42.1304 69.7644 41.6299 69.5699C41.6216 69.5645 41.6148 69.557 41.6102 69.5483C41.6055 69.5396 41.603 69.5298 41.603 69.5199C41.603 69.51 41.6055 69.5003 41.6102 69.4916C41.6148 69.4828 41.6216 69.4754 41.6299 69.4699H41.6099Z" fill="#1A4E11"/>
<path d="M41.8999 71.6498C42.2744 71.2889 42.7029 70.9886 43.1699 70.7598C43.3099 70.7598 43.7399 70.8598 43.8099 71.1298C43.7745 71.3569 43.6571 71.5633 43.4799 71.7098C42.9698 71.7911 42.45 71.7911 41.9399 71.7098C41.9314 71.7057 41.9243 71.6993 41.9193 71.6913C41.9143 71.6834 41.9117 71.6742 41.9117 71.6648C41.9117 71.6554 41.9143 71.6462 41.9193 71.6382C41.9243 71.6302 41.9314 71.6239 41.9399 71.6198L41.8999 71.6498Z" fill="#1A4E11"/>
<path d="M42.5401 73.89C42.6686 73.307 42.8702 72.7425 43.1401 72.21C43.2401 72.13 43.7201 71.87 43.9201 72.05C44.0017 72.2865 44.0017 72.5435 43.9201 72.78C43.5462 73.2421 43.1124 73.6523 42.6301 74C42.6204 74.0057 42.6093 74.0086 42.598 74.0083C42.5867 74.008 42.5757 74.0046 42.5663 73.9983C42.5569 73.992 42.5494 73.9832 42.5448 73.9729C42.5402 73.9626 42.5386 73.9512 42.5401 73.94V73.89Z" fill="#1A4E11"/>
<path d="M47.1498 72.1899C47.4998 72.3299 48.2798 72.5699 48.4198 72.7899C48.5598 73.0099 48.5498 73.2999 48.3498 73.4899C48.1467 73.5658 47.923 73.5658 47.7198 73.4899C47.4998 73.3599 47.2298 72.5899 47.0798 72.2499C47.0726 72.2403 47.0691 72.2284 47.07 72.2164C47.0708 72.2044 47.076 72.1931 47.0845 72.1846C47.093 72.1761 47.1043 72.1709 47.1163 72.17C47.1283 72.1692 47.1402 72.1727 47.1498 72.1799V72.1899Z" fill="#1A4E11"/>
<path d="M47.7602 70.76C48.0502 70.62 48.7602 70.24 48.9002 70.32C49.0035 70.3764 49.0919 70.4567 49.158 70.554C49.2241 70.6514 49.266 70.7632 49.2802 70.88C49.206 71.068 49.0679 71.2237 48.8902 71.32C48.7602 71.39 48.6402 71.26 48.5102 71.22C48.2527 71.1164 48.0022 70.9962 47.7602 70.86C47.752 70.8546 47.7452 70.8471 47.7405 70.8384C47.7358 70.8297 47.7334 70.8199 47.7334 70.81C47.7334 70.8001 47.7358 70.7904 47.7405 70.7817C47.7452 70.7729 47.752 70.7655 47.7602 70.76Z" fill="#1A4E11"/>
<path d="M47.21 69.08C47.39 68.82 47.78 68.15 47.96 68.15C48.0753 68.1483 48.1893 68.1747 48.2921 68.227C48.3949 68.2793 48.4834 68.3558 48.55 68.45C48.5822 68.647 48.5432 68.8491 48.44 69.02C48.35 69.16 47.57 69.15 47.26 69.16C47.2501 69.149 47.2447 69.1347 47.2447 69.12C47.2447 69.1052 47.2501 69.091 47.26 69.08H47.21Z" fill="#1A4E11"/>
<path d="M45.57 70.6499C45.86 70.6499 46.57 70.5599 46.71 70.6499C46.8093 70.8188 46.8514 71.0151 46.83 71.2099C46.7738 71.3077 46.6941 71.3901 46.598 71.4494C46.502 71.5088 46.3927 71.5433 46.28 71.5499C46.15 71.5499 46.1 71.3999 46.01 71.3199C45.92 71.2399 45.4 70.7099 45.57 70.6099V70.6499Z" fill="#1A4E11"/>
<path d="M31.6102 40.2002C31.3802 40.3502 30.7602 40.7902 30.6102 40.7102C30.5075 40.6622 30.4182 40.5897 30.3501 40.499C30.2821 40.4083 30.2375 40.3022 30.2202 40.1902C30.2656 40.0022 30.3753 39.836 30.5302 39.7202C30.6402 39.6302 31.3102 39.9802 31.5902 40.1002C31.5985 40.1057 31.6052 40.1131 31.6099 40.1218C31.6146 40.1305 31.6171 40.1403 31.6171 40.1502C31.6171 40.1601 31.6146 40.1698 31.6099 40.1786C31.6052 40.1873 31.5985 40.1947 31.5902 40.2002H31.6102Z" fill="#1A4E11"/>
<path d="M33.1802 41.6701C32.7283 42.2778 32.2045 42.8284 31.6202 43.3101C31.4902 43.3701 30.8002 43.5301 30.7002 43.3101C30.7138 43.0352 30.82 42.7729 31.0016 42.5659C31.1831 42.3589 31.4293 42.2194 31.7002 42.1701C32.1675 41.9278 32.6653 41.7495 33.1802 41.6401V41.6901V41.6701Z" fill="#1A4E11"/>
<path d="M71.1098 63.9998L48.7398 81.1298C47.4843 82.0888 46.0451 82.7798 44.5116 83.1599C42.9781 83.54 41.3828 83.6012 39.8247 83.3396C38.2666 83.0781 36.7787 82.4993 35.4534 81.6393C34.1281 80.7793 32.9934 79.6563 32.1198 78.3398L2.92984 34.3998C2.04192 33.0693 1.44085 31.5683 1.1649 29.9927C0.888945 28.417 0.944165 26.8012 1.32704 25.2481C1.70992 23.6949 2.41205 22.2385 3.38873 20.9717C4.36541 19.7048 5.59522 18.6553 6.99984 17.8898L35.3998 2.40983C38.0789 0.958358 41.2237 0.626381 44.1468 1.48645C47.0699 2.34653 49.5337 4.32871 50.9998 6.99984L74.2198 49.3098C75.5414 51.7263 75.9544 54.536 75.3839 57.2305C74.8135 59.925 73.2973 62.3263 71.1098 63.9998V63.9998Z" stroke="#00FF24" stroke-width="2" stroke-miterlimit="10"/>
<path d="M66.7402 35.6802L62.9102 70.3202L70.8202 64.2502C73.0778 62.5022 74.6382 60.0065 75.2211 57.2113C75.804 54.4162 75.3711 51.5048 74.0002 49.0002L66.7402 35.6802Z" fill="#00FF24"/>
</g>
<defs>
<radialGradient id="paint0_radial_586_1166" cx="0" cy="0" r="1" gradientUnits="userSpaceOnUse" gradientTransform="translate(38.3199 42.2601) scale(39.33 39.33)">
<stop stop-color="#00B1E5"/>
<stop offset="0.41" stop-color="#0099E5"/>
<stop offset="0.65" stop-color="#0089E5"/>
</radialGradient>
<clipPath id="clip0_586_1166">
<rect width="76.64" height="84.5" fill="white"/>
</clipPath>
</defs>
</svg>
