<svg width="88" height="100" viewBox="0 0 88 100" fill="none" xmlns="http://www.w3.org/2000/svg">
<g clip-path="url(#clip0_586_1074)">
<path d="M38.8298 98.0001L6.33984 82.2301C4.16111 81.1728 2.46959 79.3219 1.61235 77.057C0.755106 74.7921 0.797146 72.285 1.72984 70.0501L28.1198 6.84008C28.9453 4.86549 30.4139 3.22789 32.2874 2.19315C34.1608 1.15842 36.3289 0.787307 38.4398 1.14008L78.1898 7.82008C79.6277 8.0651 80.9896 8.6386 82.1695 9.49592C83.3495 10.3533 84.3158 11.4713 84.9931 12.763C85.6704 14.0548 86.0405 15.4854 86.0747 16.9435C86.1088 18.4017 85.806 19.8481 85.1898 21.1701L51.5598 93.4601C51.0301 94.601 50.2786 95.6251 49.3491 96.4727C48.4196 97.3203 47.3308 97.9744 46.1459 98.3969C44.9611 98.8195 43.7041 99.002 42.448 98.9339C41.1919 98.8657 39.962 98.5483 38.8298 98.0001Z" fill="url(#paint0_radial_586_1074)"/>
<path d="M33.67 29.3002C34.5522 29.6271 35.3503 30.147 36.006 30.8217C36.6617 31.4964 37.1584 32.309 37.46 33.2002C38.1796 35.2145 38.1796 37.4158 37.46 39.4302L34.7 47.4302C34.348 48.4558 33.8276 49.4156 33.16 50.2702C32.5266 51.0952 31.747 51.7969 30.86 52.3402C30.034 52.8541 29.1119 53.1944 28.15 53.3402C27.2292 53.4454 26.2966 53.3288 25.43 53.0002C24.546 52.6715 23.7463 52.1501 23.089 51.4738C22.4317 50.7974 21.9333 49.9832 21.63 49.0902C20.9202 47.0776 20.9202 44.8827 21.63 42.8702L24.39 34.9202C25.075 32.8834 26.442 31.1456 28.26 30.0002C29.0529 29.4885 29.9496 29.1594 30.8852 29.0366C31.8208 28.9138 32.772 29.0004 33.67 29.2902V29.3002Z" fill="#E31F00"/>
<path d="M30.9098 37.24C31.792 37.5669 32.59 38.0867 33.2457 38.7615C33.9014 39.4362 34.3982 40.2488 34.6998 41.14C35.4193 43.1543 35.4193 45.3556 34.6998 47.37L31.9398 55.37C31.26 57.3955 29.9041 59.1256 28.0998 60.27C27.3096 60.7834 26.4145 61.1137 25.4802 61.2365C24.5459 61.3594 23.5959 61.2717 22.6998 60.98C21.8029 60.6478 20.9926 60.1174 20.3294 59.4282C19.6662 58.739 19.1672 57.909 18.8698 57C18.1599 54.9874 18.1599 52.7925 18.8698 50.78L21.6398 42.83C22.334 40.8217 23.7012 39.1153 25.5098 38C26.3009 37.4885 27.1958 37.1594 28.1298 37.0366C29.0638 36.9138 30.0134 37.0003 30.9098 37.29V37.24Z" fill="#E31F00"/>
<path d="M18.89 50.8198C18.1753 52.8316 18.1753 55.0281 18.89 57.0398C19.1935 57.93 19.691 58.7416 20.3464 59.4161C21.0018 60.0905 21.7989 60.611 22.68 60.9398C23.5465 61.2398 24.4713 61.3323 25.38 61.2098C26.3396 61.0672 27.2591 60.7266 28.08 60.2098C28.9646 59.6674 29.7438 58.9695 30.38 58.1498C31.042 57.2916 31.5619 56.3328 31.92 55.3098L18.89 50.8198Z" fill="#FFB479"/>
<path d="M33.6498 29.27L61.1098 38.82C61.987 39.148 62.7808 39.666 63.4343 40.3367C64.0878 41.0075 64.5848 41.8146 64.8898 42.7C65.5998 44.7057 65.5998 46.8943 64.8898 48.9L61.9998 57.1C61.1079 59.7181 59.3424 61.9496 56.9998 63.42C55.9743 64.0828 54.8146 64.51 53.6042 64.6708C52.3938 64.8316 51.1628 64.722 49.9998 64.35L26.5398 56.17C25.4067 55.7862 24.3793 55.1424 23.5398 54.29C22.6609 53.3871 21.9797 52.3109 21.5398 51.13C21.0647 49.8505 20.8275 48.4949 20.8398 47.13C20.8432 45.7233 21.0832 44.3271 21.5498 43L24.3998 34.8C25.1007 32.8033 26.4672 31.1085 28.2698 30C29.056 29.4901 29.9463 29.1626 30.8755 29.0415C31.8047 28.9203 32.7492 29.0087 33.6398 29.3L33.6498 29.27Z" fill="#3D4470"/>
<path d="M66.0801 46.4699C66.4324 45.4465 66.6148 44.3723 66.6201 43.2899C66.6294 42.2667 66.4533 41.2503 66.1001 40.2899C65.7665 39.3838 65.249 38.5564 64.5801 37.8599C63.9473 37.2008 63.1654 36.7035 62.3001 36.4099L33.6501 29.2699C32.8 28.9745 31.8924 28.882 31.0001 28.9999C30.0428 29.139 29.1259 29.4798 28.3101 29.9999C27.4237 30.5188 26.6406 31.1969 26.0001 31.9999C25.3347 32.8521 24.8143 33.8083 24.4601 34.8299L21.6001 43.0499C21.1469 44.3356 20.9071 45.6868 20.8901 47.0499L60.0801 60.7199C60.9407 59.6347 61.6164 58.415 62.0801 57.1099L66.0801 46.4699Z" fill="#000F1D"/>
<path d="M41.1595 50.515L31.2984 47.0868C30.7819 46.9073 30.2177 47.1804 30.0382 47.6968L29.7591 48.4997C29.5795 49.0161 29.8527 49.5803 30.3691 49.7599L40.2302 53.1881C40.7466 53.3676 41.3108 53.0945 41.4904 52.5781L41.7695 51.7752C41.949 51.2588 41.6759 50.6946 41.1595 50.515Z" fill="#362B30"/>
<path d="M28.0859 45.9666L25.4317 45.0438C24.9152 44.8643 24.351 45.1374 24.1715 45.6539L23.8924 46.4567C23.7128 46.9732 23.9859 47.5374 24.5024 47.7169L27.1566 48.6396C27.673 48.8192 28.2372 48.5461 28.4168 48.0296L28.6959 47.2268C28.8754 46.7103 28.6023 46.1461 28.0859 45.9666Z" fill="#782591"/>
<path d="M46.7949 52.4671L44.1407 51.5443C43.6242 51.3648 43.06 51.6379 42.8805 52.1543L42.6014 52.9572C42.4218 53.4737 42.6949 54.0379 43.2114 54.2174L45.8656 55.1401C46.382 55.3197 46.9462 55.0466 47.1257 54.5301L47.4049 53.7272C47.5844 53.2108 47.3113 52.6466 46.7949 52.4671Z" fill="#782591"/>
<path d="M36.0222 48.8873L35.101 48.5639C34.6701 48.4127 34.1982 48.6393 34.0469 49.0702L33.8126 49.7376C33.6613 50.1685 33.888 50.6405 34.3189 50.7917L35.2401 51.1151C35.671 51.2664 36.1429 51.0397 36.2942 50.6088L36.5285 49.9414C36.6798 49.5105 36.4531 49.0386 36.0222 48.8873Z" fill="#D19300"/>
<path d="M62 57.1L66.07 46.47C66.78 44.4643 66.78 42.2757 66.07 40.27C65.7669 39.3835 65.2705 38.5755 64.6167 37.9045C63.963 37.2335 63.1682 36.7161 62.29 36.39L59.86 35.54C58.3261 35.0111 56.7551 34.5966 55.16 34.3L49.82 33.3C48.9291 33.0108 47.9849 32.9236 47.0561 33.0446C46.1272 33.1657 45.237 33.4921 44.45 34C42.72 35 41.05 38.29 40.33 40.36L37.48 48.56L62 57.1Z" fill="#8E0300"/>
<path d="M34.4201 47.51L37.2701 39.31C37.9801 37.3043 37.9801 35.1157 37.2701 33.11C36.997 32.2372 36.5279 31.4383 35.8987 30.7745C35.2696 30.1107 34.497 29.5995 33.6401 29.28C32.7495 28.9887 31.805 28.9003 30.8758 29.0214C29.9466 29.1426 29.0563 29.4701 28.2701 29.98C26.4718 31.1172 25.1222 32.8413 24.4501 34.86L21.6001 43.06L34.4201 47.51Z" fill="#8E0300"/>
<path d="M62.31 36.3398C63.1926 36.668 63.9913 37.1881 64.6485 37.8625C65.3056 38.537 65.8048 39.3489 66.11 40.2398C66.8198 42.2558 66.8198 44.4538 66.11 46.4698L62.11 56.9198C61.762 57.9472 61.2412 58.9077 60.57 59.7598C59.9366 60.5848 59.157 61.2865 58.27 61.8298C57.4483 62.3453 56.5292 62.6857 55.57 62.8298C54.6613 62.953 53.7363 62.8605 52.87 62.5598C51.9875 62.2305 51.1894 61.7087 50.5338 61.0324C49.8782 60.3561 49.3816 59.5421 49.08 58.6498C48.3653 56.638 48.3653 54.4415 49.08 52.4298L53.08 41.9798C53.7596 39.9486 55.1195 38.2143 56.93 37.0698C57.721 36.5583 58.616 36.2292 59.55 36.1064C60.484 35.9836 61.4336 36.0702 62.33 36.3598L62.31 36.3398Z" fill="#E31F00"/>
<path d="M58.34 46.7799C59.2233 47.1069 60.0226 47.6266 60.68 48.3012C61.3373 48.9758 61.836 49.7884 62.14 50.6799C62.8497 52.6959 62.8497 54.8939 62.14 56.9099L59.37 64.9099C59.0038 65.92 58.4733 66.8627 57.8 67.6999C57.1666 68.525 56.387 69.2266 55.5 69.7699C54.6783 70.2854 53.7592 70.6259 52.8 70.7699C51.8912 70.8931 50.9663 70.8007 50.1 70.4999C49.2174 70.1707 48.4194 69.6489 47.7638 68.9725C47.1082 68.2962 46.6116 67.4823 46.31 66.5899C45.5952 64.5782 45.5952 62.3817 46.31 60.3699L49.08 52.3699C49.7519 50.3375 51.1093 48.6018 52.92 47.4599C53.711 46.9484 54.606 46.6194 55.54 46.4966C56.4739 46.3738 57.4236 46.4603 58.32 46.7499L58.34 46.7799Z" fill="#E31F00"/>
<path d="M18.8702 69.9002C19.1513 69.0989 19.5938 68.3637 20.1702 67.7402C20.7571 67.1096 21.4643 66.603 22.2502 66.2502C23.0536 65.889 23.9199 65.6886 24.8002 65.6602C25.6906 65.619 26.5805 65.7514 27.4202 66.0502C29.1127 66.63 30.519 67.8359 31.3502 69.4202C31.7564 70.1817 32.0007 71.019 32.0678 71.8794C32.1349 72.7399 32.0234 73.6049 31.7402 74.4202L31.4302 76.3002L18.7202 70.3202L18.8702 69.9002Z" fill="#FFC200"/>
<path d="M34.2098 77.5901C34.4886 76.7877 34.9313 76.0521 35.5098 75.4301C36.0984 74.7969 36.8094 74.29 37.5998 73.9401C38.4006 73.5803 39.2627 73.3767 40.1398 73.3401C41.0338 73.3079 41.9258 73.4436 42.7698 73.7401C44.4569 74.3197 45.859 75.5215 46.6898 77.1001C47.0948 77.862 47.3385 78.6992 47.4056 79.5595C47.4727 80.4197 47.3618 81.2846 47.0798 82.1001L46.7598 84.1001L34.0698 78.0001L34.2098 77.5901Z" fill="#FFC200"/>
<path d="M46.3298 60.3599C45.6101 62.3708 45.6101 64.569 46.3298 66.5799C46.6337 67.4714 47.1324 68.284 47.7898 68.9586C48.4471 69.6332 49.2464 70.1529 50.1298 70.4799C50.9926 70.7805 51.9144 70.873 52.8198 70.7499C53.7788 70.6053 54.6979 70.2649 55.5198 69.7499C56.4043 69.2074 57.1835 68.5095 57.8198 67.6899C58.4853 66.834 59.0056 65.8745 59.3598 64.8499L46.3298 60.3599Z" fill="#FFB479"/>
<path d="M59.9998 63.0898L51.7698 60.2198C51.2978 60.0015 50.9294 59.6079 50.7427 59.1225C50.556 58.6371 50.5657 58.0981 50.7698 57.6198C50.902 57.1178 51.2243 56.6869 51.6684 56.4182C52.1125 56.1495 52.6438 56.064 53.1498 56.1798L61.3698 58.9998L59.9998 63.0898Z" fill="#E31F00"/>
<path d="M53.3668 58.5191C53.5917 57.8723 53.3426 57.1979 52.8105 57.013C52.2784 56.828 51.6648 57.2024 51.4399 57.8493C51.215 58.4961 51.4641 59.1705 51.9962 59.3554C52.5282 59.5404 53.1419 59.166 53.3668 58.5191Z" fill="#FFC200"/>
<path d="M30.8359 38.3951L27.9834 37.4034C26.9244 37.0353 25.7675 37.5953 25.3993 38.6542L24.8247 40.3072C24.4565 41.3662 25.0165 42.5231 26.0755 42.8912L28.928 43.8829C29.987 44.2511 31.1439 43.6911 31.5121 42.6321L32.0867 40.9791C32.4549 39.9202 31.8949 38.7632 30.8359 38.3951Z" fill="#1F1A1D"/>
<path d="M25.5498 38.2002C25.6483 37.8414 25.8837 37.5357 26.2054 37.3487C26.5271 37.1616 26.9093 37.1084 27.2698 37.2002L31.5298 38.6802C31.8723 38.8392 32.1387 39.1265 32.2715 39.48C32.4043 39.8335 32.3929 40.225 32.2398 40.5702L27.9998 41.8302L25.5498 38.2002Z" fill="#4B4346"/>
<path d="M29.249 40.0487C29.3723 39.694 29.2354 39.3241 28.9433 39.2225C28.6512 39.121 28.3144 39.3262 28.1911 39.681C28.0677 40.0357 28.2046 40.4056 28.4967 40.5071C28.7888 40.6087 29.1256 40.4035 29.249 40.0487Z" fill="#FFC200"/>
<path d="M48.601 44.5777L45.7485 43.586C44.6895 43.2179 43.5326 43.7779 43.1645 44.8369L42.5898 46.4898C42.2217 47.5488 42.7817 48.7057 43.8406 49.0739L46.6932 50.0655C47.7522 50.4337 48.9091 49.8737 49.2772 48.8147L49.8519 47.1617C50.22 46.1028 49.66 44.9459 48.601 44.5777Z" fill="#1F1A1D"/>
<path d="M43.3198 44.3802C43.4205 44.0206 43.6579 43.7148 43.9812 43.5279C44.3044 43.341 44.688 43.288 45.0498 43.3802L49.3098 44.8602C49.6488 45.023 49.9113 45.3111 50.0419 45.6637C50.1725 46.0163 50.161 46.4059 50.0098 46.7502L45.7798 48.0002L43.3198 44.3802Z" fill="#4B4346"/>
<path d="M47.0214 46.2333C47.1447 45.8786 47.0079 45.5087 46.7158 45.4071C46.4236 45.3056 46.0868 45.5108 45.9635 45.8655C45.8402 46.2202 45.977 46.5901 46.2692 46.6917C46.5613 46.7933 46.8981 46.588 47.0214 46.2333Z" fill="#FFC200"/>
<path d="M42.6665 37.4187L37.5281 35.6323C37.2621 35.5398 36.9714 35.6805 36.8789 35.9466L36.7344 36.3622C36.6419 36.6282 36.7826 36.9189 37.0487 37.0114L42.187 38.7977C42.4531 38.8902 42.7437 38.7495 42.8362 38.4834L42.9807 38.0678C43.0732 37.8018 42.9325 37.5111 42.6665 37.4187Z" fill="#00699F"/>
<path d="M41.7944 39.9494L36.656 38.1631C36.39 38.0706 36.0993 38.2113 36.0068 38.4773L35.8624 38.8929C35.7699 39.159 35.9106 39.4496 36.1766 39.5421L41.315 41.3285C41.581 41.421 41.8717 41.2803 41.9641 41.0142L42.1086 40.5986C42.2011 40.3326 42.0604 40.0419 41.7944 39.9494Z" fill="#00699F"/>
<path d="M38.8401 98L6.34015 82.22C4.15337 81.1606 2.45629 79.3027 1.59862 77.0292C0.74094 74.7557 0.788017 72.2398 1.73015 70L28.1201 6.83002C28.9441 4.85431 30.4125 3.21563 32.2863 2.18067C34.1601 1.14572 36.3291 0.775408 38.4401 1.13002L78.1901 7.81002C79.6266 8.0555 80.9872 8.62886 82.1661 9.48556C83.345 10.3423 84.3106 11.4592 84.9877 12.7497C85.6649 14.0401 86.0354 15.4693 86.0705 16.9262C86.1056 18.3831 85.8044 19.8285 85.1901 21.15L51.5602 93.44C51.0333 94.5823 50.284 95.6082 49.3563 96.4578C48.4285 97.3073 47.3408 97.9635 46.1566 98.388C44.9724 98.8125 43.7155 98.9969 42.4593 98.9303C41.2031 98.8636 39.9728 98.5474 38.8401 98V98Z" stroke="#00FF24" stroke-width="2" stroke-miterlimit="10"/>
<path d="M51.4601 93.3801L53.9301 87.8901L33.1201 94.8901L38.8901 97.8001C40.0011 98.3605 41.2139 98.6907 42.4556 98.7709C43.6973 98.8511 44.9425 98.6797 46.1164 98.267C47.2902 97.8542 48.3686 97.2086 49.2869 96.3688C50.2052 95.5291 50.9443 94.5125 51.4601 93.3801Z" fill="#00FF24"/>
</g>
<defs>
<radialGradient id="paint0_radial_586_1074" cx="0" cy="0" r="1" gradientUnits="userSpaceOnUse" gradientTransform="translate(42.6676 49.9763) rotate(11.04) scale(42.75 42.75)">
<stop stop-color="#00B1E5"/>
<stop offset="0.41" stop-color="#0099E5"/>
<stop offset="0.65" stop-color="#0089E5"/>
</radialGradient>
<clipPath id="clip0_586_1074">
<rect width="87.11" height="99.92" fill="white"/>
</clipPath>
</defs>
</svg>
