<svg width="89" height="85" viewBox="0 0 89 85" fill="none" xmlns="http://www.w3.org/2000/svg">
<g clip-path="url(#clip0_586_1110)">
<path d="M62.25 82.63L8.14997 66.19C5.59871 65.4135 3.45862 63.6585 2.19752 61.3087C0.936413 58.9589 0.656864 56.2054 1.41998 53.65L15.05 8.20004C15.4319 6.92726 16.0617 5.74256 16.9032 4.71409C17.7446 3.68561 18.7812 2.83367 19.9531 2.20727C21.1251 1.58087 22.4093 1.19238 23.7319 1.06414C25.0546 0.935899 26.3895 1.07045 27.66 1.46004L80.23 17.52C82.717 18.29 84.8101 19.9916 86.0718 22.2689C87.3335 24.5463 87.666 27.2232 87 29.74L74.93 75.56C74.5827 76.8697 73.9753 78.0959 73.1438 79.1657C72.3124 80.2355 71.2741 81.1268 70.0907 81.7866C68.9074 82.4464 67.6033 82.8612 66.2562 83.0061C64.9091 83.151 63.5466 83.0231 62.25 82.63Z" fill="url(#paint0_radial_586_1110)"/>
<path d="M48.066 29.8229C48.5051 29.8873 48.9273 30.0376 49.3084 30.2653C49.6894 30.4929 50.0219 30.7933 50.2869 31.1494C50.5519 31.5055 50.7441 31.9104 50.8526 32.3408C50.9611 32.7712 50.9838 33.2187 50.9193 33.6579L50.8467 34.1526L44.1485 33.1694L44.2211 32.6747C44.3513 31.7878 44.8284 30.9889 45.5476 30.4538C46.2668 29.9187 47.1692 29.6912 48.0561 29.8214L48.066 29.8229Z" fill="#FF8E00"/>
<path fill-rule="evenodd" clip-rule="evenodd" d="M32.8901 30.48L59.5701 34.28C59.5701 34.28 74.7501 37.28 73.2901 49.7L48.1701 46.76L32.8901 30.48Z" fill="#8E0300"/>
<path fill-rule="evenodd" clip-rule="evenodd" d="M73.2801 50.0598L48.1701 46.7598L47.0801 44.7598L73.3801 48.2198C73.4036 48.5226 73.4036 48.8269 73.3801 49.1298C73.3401 49.7598 73.2701 50.0698 73.2801 50.0598Z" fill="#FFC400"/>
<path fill-rule="evenodd" clip-rule="evenodd" d="M19.6298 41.3501L48.1698 46.7601C48.1698 46.7601 39.5998 29.2801 25.9198 28.4701C12.2398 27.6601 19.6298 41.3501 19.6298 41.3501Z" fill="#FF001B"/>
<path fill-rule="evenodd" clip-rule="evenodd" d="M20.1001 27.4403C21.1519 30.5722 22.384 33.6406 23.7901 36.6303C25.0552 39.345 26.5648 41.9391 28.3001 44.3803L31.7701 44.8603C29.8499 42.0926 28.1 39.2106 26.5301 36.2303C24.9975 33.1077 23.7459 29.8548 22.7901 26.5103L20.1001 27.4403Z" fill="#DEF4F3"/>
<path fill-rule="evenodd" clip-rule="evenodd" d="M23.6099 27.2201C24.593 30.3801 25.8269 33.4565 27.2999 36.4201C28.6564 39.1674 30.2455 41.7937 32.0499 44.2701L35.2799 44.6401C33.3604 41.8606 31.5976 38.9761 29.9999 36.0001C28.4484 32.8827 27.1411 29.6497 26.0899 26.3301L23.6099 27.2201Z" fill="#FFC400"/>
<path d="M62.2499 82.6202L8.1499 66.1802C5.59819 65.4017 3.45867 63.6443 2.19933 61.2924C0.93999 58.9405 0.663342 56.1856 1.4299 53.6302L15.0599 8.19023C15.442 6.91841 16.0714 5.73452 16.912 4.70646C17.7526 3.6784 18.7879 2.82639 19.9585 2.19929C21.1291 1.57218 22.412 1.18233 23.7335 1.05207C25.0551 0.921817 26.3894 1.05373 27.6599 1.44023L80.2299 17.5102C82.7184 18.2781 84.8131 19.9793 86.0751 22.2573C87.3371 24.5353 87.6686 27.2133 86.9999 29.7302L74.9299 75.5402C74.585 76.8515 73.9791 78.0797 73.1484 79.1513C72.3178 80.2229 71.2795 81.116 70.0956 81.777C68.9118 82.438 67.6068 82.8533 66.2587 82.9982C64.9106 83.1431 63.5472 83.0146 62.2499 82.6202V82.6202Z" stroke="#00FF24" stroke-width="2" stroke-miterlimit="10"/>
<path d="M78.1298 63.4399L49.5498 78.7599L61.3398 82.3499C62.7539 82.7794 64.2401 82.9195 65.7095 82.7618C67.179 82.6042 68.6016 82.1521 69.8924 81.4324C71.1833 80.7128 72.3159 79.7405 73.2226 78.5734C74.1293 77.4064 74.7916 76.0686 75.1698 74.6399L78.1298 63.4399Z" fill="#00FF24"/>
</g>
<defs>
<radialGradient id="paint0_radial_586_1110" cx="0" cy="0" r="1" gradientUnits="userSpaceOnUse" gradientTransform="translate(44.6019 41.944) rotate(15.84) scale(36.39 36.39)">
<stop stop-color="#00B1E5"/>
<stop offset="0.41" stop-color="#0099E5"/>
<stop offset="0.65" stop-color="#0089E5"/>
</radialGradient>
<clipPath id="clip0_586_1110">
<rect width="88.37" height="84.05" fill="white"/>
</clipPath>
</defs>
</svg>
