<svg width="102" height="72" viewBox="0 0 102 72" fill="none" xmlns="http://www.w3.org/2000/svg">
<g clip-path="url(#clip0_586_985)">
<path d="M15.6999 47.8002C15.6999 47.8002 12.6099 62.7302 27.8999 67.1402C43.1899 71.5502 70.8999 74.1402 78.5399 69.0202C86.1799 63.9002 87.8499 46.2102 82.4699 40.3602C77.0899 34.5102 53.6699 19.2302 33.8499 25.3602C14.0299 31.4902 15.6999 47.8002 15.6999 47.8002Z" fill="#FFB470"/>
<path d="M15.6999 47.8002C15.6999 47.8002 12.6099 62.7302 27.8999 67.1402C43.1899 71.5502 70.8999 74.1402 78.5399 69.0202C86.1799 63.9002 87.8499 46.2102 82.4699 40.3602C77.0899 34.5102 53.6699 19.2302 33.8499 25.3602C14.0299 31.4902 15.6999 47.8002 15.6999 47.8002Z" fill="url(#paint0_radial_586_985)"/>
<path d="M15.6999 47.7998C15.6999 47.7998 12.6099 62.7298 27.8999 67.1398C43.1899 71.5498 70.8999 74.1398 78.5399 69.0198C78.5399 69.0198 66.4799 74.1598 41.9299 69.0198C17.3799 63.8798 15.6999 47.7998 15.6999 47.7998Z" fill="#F99C5F"/>
<path d="M41.93 45.9601C43.2831 45.9601 44.38 44.8632 44.38 43.5101C44.38 42.157 43.2831 41.0601 41.93 41.0601C40.5769 41.0601 39.48 42.157 39.48 43.5101C39.48 44.8632 40.5769 45.9601 41.93 45.9601Z" fill="#003438"/>
<path d="M77.2702 52.79C78.3914 52.79 79.3002 51.8811 79.3002 50.76C79.3002 49.6388 78.3914 48.73 77.2702 48.73C76.1491 48.73 75.2402 49.6388 75.2402 50.76C75.2402 51.8811 76.1491 52.79 77.2702 52.79Z" fill="#003438"/>
<path d="M68.3799 57.6899C68.3799 57.6899 64.7299 51.7799 54.2799 51.1299C54.2799 51.1299 49.0899 64.5099 56.6199 67.0199C64.1499 69.5299 68.3799 57.6899 68.3799 57.6899Z" fill="#850027"/>
<path d="M62.6799 66.0001C61.8334 66.6591 60.8355 67.0958 59.777 67.2704C58.7186 67.4451 57.6332 67.3522 56.6199 67.0001C52.7599 65.7101 52.2399 61.5801 52.6199 57.8501C52.6199 57.8501 60.0799 59.2801 62.6199 65.9401L62.6799 66.0001Z" fill="#FF0000"/>
<path d="M53.29 54.3899C53.5611 53.2851 53.895 52.1966 54.29 51.1299C64.74 51.7799 68.39 57.6899 68.39 57.6899C68.39 57.6899 64.17 61.0699 54.7 55.2999L53.29 54.3899Z" fill="white"/>
<path d="M75.7702 42.5402C75.7702 42.5402 70.7002 43.4202 70.7002 46.0002C70.7002 48.5802 72.5502 48.0702 75.7702 47.4502C78.9902 46.8302 82.0502 47.5302 82.4002 45.0002C82.7502 42.4702 80.4902 41.7202 75.7702 42.5402Z" fill="#62361A"/>
<path d="M49.7001 36.4101C49.7001 36.4101 46.6001 32.7701 42.2401 32.2301C37.8801 31.6901 36.0001 34.8701 37.4001 36.1201C38.8001 37.3701 43.7901 39.1901 47.0801 41.9501C50.3701 44.7101 52.7201 41.6201 52.0101 39.8301C51.4356 38.5696 50.6549 37.4138 49.7001 36.4101Z" fill="#62361A"/>
<path fill-rule="evenodd" clip-rule="evenodd" d="M84.7402 23.6601C84.7402 23.6601 93.7402 16.4601 99.4902 25.9801C103.49 32.6201 99.2602 36.1701 97.9902 37.0301C96.8991 37.7515 95.7672 38.4092 94.6002 39.0001L84.7402 23.6601Z" fill="url(#paint1_radial_586_985)"/>
<path fill-rule="evenodd" clip-rule="evenodd" d="M5.19004 4.32983C18.93 -8.22017 29.88 10.5198 29.88 10.5198L6.49004 25.9998C6.49004 25.9998 -5.53996 14.1198 5.19004 4.32983Z" fill="url(#paint2_radial_586_985)"/>
<path fill-rule="evenodd" clip-rule="evenodd" d="M9.89001 8.69983C17.95 1.53983 24.07 11.6998 24.07 11.6998L10.17 21.5798C10.17 21.5798 4.71001 13.2998 9.89001 8.69983Z" fill="#520F6D"/>
<path fill-rule="evenodd" clip-rule="evenodd" d="M87.48 26.9398C87.48 26.9398 91.55 24.1198 94.48 28.1398C94.9073 28.671 95.2215 29.284 95.4032 29.9411C95.5849 30.5981 95.6303 31.2854 95.5367 31.9607C95.443 32.636 95.2122 33.285 94.8586 33.8678C94.5049 34.4506 94.0357 34.9549 93.48 35.3498L87.48 26.9398Z" fill="#520F6D"/>
<path fill-rule="evenodd" clip-rule="evenodd" d="M35.9298 69.0699C16.9398 68.0899 -2.00021 49.6299 0.169786 34.6399C0.879786 29.6399 4.16979 24.5599 8.78979 20.0799C14.6554 14.4853 21.8849 10.5256 29.7577 8.5956C37.6305 6.66557 45.8716 6.83256 53.6598 9.07993L74.0598 14.8099C86.2298 18.3799 97.1598 33.1899 94.6598 48.1299C90.9998 69.9999 74.2298 71.9999 66.7698 71.7399C69.994 71.4077 73.0483 70.131 75.5498 68.0699C78.4471 65.4608 80.6266 62.152 81.8798 58.4599C85.3798 47.1599 84.5898 42.2199 79.2998 39.2299C73.7298 36.0799 53.6098 29.7599 44.3798 29.2899C36.5898 28.8899 27.6598 34.4799 26.3798 40.6899C25.2801 45.6428 25.246 50.7729 26.2798 55.7399C26.9198 59.2299 27.9298 66.0599 35.9598 69.0699H35.9298Z" fill="url(#paint3_radial_586_985)"/>
<path fill-rule="evenodd" clip-rule="evenodd" d="M8.78979 20.0801C4.16979 24.5601 0.879786 29.6501 0.169786 34.6401C-2.00021 49.6301 16.9398 68.0901 35.9298 69.0701C33.2971 68.1496 31.0014 66.46 29.3398 64.2201C29.3398 64.2201 8.63979 56.2201 3.82979 43.0501C-0.980214 29.8801 8.78979 20.0801 8.78979 20.0801Z" fill="#00688C"/>
<path fill-rule="evenodd" clip-rule="evenodd" d="M66.7699 71.74C69.9941 71.4078 73.0484 70.1311 75.5499 68.07C78.4472 65.4609 80.6267 62.1521 81.8799 58.46C85.3799 47.16 84.5899 42.22 79.2999 39.23C73.7299 36.08 53.6099 29.76 44.3799 29.29C44.3799 29.29 63.0599 30.04 79.9499 38.03C79.9499 38.03 90.0999 41.8 82.8799 58.68C82.8799 58.68 77.9999 71.85 66.7699 71.74Z" fill="#00688C"/>
<path d="M84.3001 26.4336C84.4471 25.3945 83.6751 24.4263 82.576 24.2708C81.4768 24.1154 80.4667 24.8317 80.3198 25.8707C80.1728 26.9097 80.9448 27.878 82.0439 28.0334C83.1431 28.1888 84.1532 27.4726 84.3001 26.4336Z" fill="#085953"/>
<path d="M43.9868 16.2482C44.176 14.9251 43.2347 13.696 41.8843 13.5028C40.5339 13.3097 39.2858 14.2257 39.0966 15.5487C38.9073 16.8718 39.8486 18.1009 41.199 18.2941C42.5494 18.4872 43.7975 17.5712 43.9868 16.2482Z" fill="#085953"/>
<path fill-rule="evenodd" clip-rule="evenodd" d="M63 22.1901C63 24.1001 69.67 27.6801 69.67 27.6801C69.67 27.6801 72.83 25.5101 73.38 23.6801C74.17 21.0901 70.18 19.0701 67.79 18.7301C65.4 18.3901 63 19.8901 63 22.1901Z" fill="#085953"/>
<path d="M69.6401 27.6802C69.6401 27.6802 71.0601 33.3502 75.9401 34.9702C78.9401 35.9702 79.9401 33.6402 79.9401 33.6402" stroke="#00756F" stroke-width="0.5" stroke-miterlimit="10" stroke-linecap="round"/>
<path d="M69.6401 27.6802C68.1841 29.1667 66.3057 30.1688 64.2601 30.5502C57.7901 31.5502 52.1401 26.2002 52.1401 26.2002" stroke="#00756F" stroke-width="0.5" stroke-miterlimit="10" stroke-linecap="round"/>
<path fill-rule="evenodd" clip-rule="evenodd" d="M8.79004 20.0802C11.9732 16.9892 15.5998 14.3906 19.55 12.3702C30.1094 7.04618 42.2834 5.88268 53.66 9.11015L74.06 14.8402C86.23 18.4102 97.16 33.2202 94.66 48.1602C91 70.0002 74.23 72.0002 66.77 71.7402C66.77 71.7402 90.77 72.6301 92.96 47.9402C95.15 23.2502 74 16.5002 74 16.5002L53.29 10.6302C53.29 10.6302 29.88 3.33015 8.79004 20.0802Z" fill="#00BDFF"/>
</g>
<defs>
<radialGradient id="paint0_radial_586_985" cx="0" cy="0" r="1" gradientUnits="userSpaceOnUse" gradientTransform="translate(52.7699 61.7202) scale(37.85 37.85)">
<stop stop-color="#FFE098"/>
<stop offset="0.39" stop-color="#FFC882"/>
<stop offset="0.66" stop-color="#FFB470"/>
</radialGradient>
<radialGradient id="paint1_radial_586_985" cx="0" cy="0" r="1" gradientUnits="userSpaceOnUse" gradientTransform="translate(92.9602 30.0001) scale(8.59)">
<stop stop-color="#2FBEBE"/>
<stop offset="0.29" stop-color="#1EA9BE"/>
<stop offset="0.74" stop-color="#088DBE"/>
<stop offset="1" stop-color="#0083BE"/>
</radialGradient>
<radialGradient id="paint2_radial_586_985" cx="0" cy="0" r="1" gradientUnits="userSpaceOnUse" gradientTransform="translate(15.31 12.9898) scale(13.8 13.8)">
<stop stop-color="#2FBEBE"/>
<stop offset="0.29" stop-color="#1EA9BE"/>
<stop offset="0.74" stop-color="#088DBE"/>
<stop offset="1" stop-color="#0083BE"/>
</radialGradient>
<radialGradient id="paint3_radial_586_985" cx="0" cy="0" r="1" gradientUnits="userSpaceOnUse" gradientTransform="translate(47.5098 39.5399) scale(56.22)">
<stop stop-color="#2FBEBE"/>
<stop offset="0.29" stop-color="#1EA9BE"/>
<stop offset="0.74" stop-color="#088DBE"/>
<stop offset="1" stop-color="#0083BE"/>
</radialGradient>
<clipPath id="clip0_586_985">
<rect width="101.17" height="71.85" fill="white"/>
</clipPath>
</defs>
</svg>
