<svg width="30" height="25" viewBox="0 0 30 25" fill="none" xmlns="http://www.w3.org/2000/svg">
<g clip-path="url(#clip0_586_1040)">
<path d="M3.88001 24.2701C3.88001 24.2701 -2.91999 16.5601 1.49001 11.1101C5.90001 5.66006 17.32 -3.99994 26.82 1.79006C26.82 1.79006 17.73 19.4601 3.88001 24.2701Z" fill="#821898"/>
<path d="M26.8199 1.79014C18.4799 -3.29986 8.6599 3.53014 3.3999 9.00014C3.3999 9.00014 15.6199 -2.48986 25.1299 2.46014L26.8199 1.79014Z" fill="#A832C7"/>
<path d="M7.30007 22.78C7.30007 22.78 4.76007 18.08 5.57007 13.51C5.6032 13.3166 5.68102 13.1336 5.79734 12.9756C5.91365 12.8176 6.06526 12.689 6.24007 12.6H6.31007C6.503 12.4999 6.71851 12.4515 6.93569 12.4593C7.15287 12.4672 7.36432 12.5311 7.54951 12.6448C7.7347 12.7585 7.88732 12.9182 7.99255 13.1084C8.09778 13.2985 8.15205 13.5126 8.15007 13.73C8.0152 16.388 8.53365 19.0386 9.66007 21.45L7.30007 22.78Z" fill="#FF9A00"/>
<path d="M11.9998 19.7698C11.9998 19.7698 9.24983 15.0798 10.1798 10.5098C10.2396 10.2083 10.4111 9.94044 10.6598 9.75984C10.8465 9.62435 11.0668 9.5427 11.2966 9.52378C11.5265 9.50486 11.7572 9.5494 11.9635 9.65255C12.1698 9.7557 12.3438 9.9135 12.4666 10.1088C12.5894 10.304 12.6562 10.5292 12.6598 10.7598C12.6598 12.9198 13.0598 15.8298 14.5398 17.6898L11.9998 19.7698Z" fill="#FF9A00"/>
<path opacity="0.35" d="M26.82 1.79004C26.82 1.79004 17.73 19.46 3.88001 24.27C3.88001 24.27 -2.91999 16.56 1.49001 11.11C1.49001 11.11 6.77001 20.8 21.97 9.38004L26.82 1.79004Z" fill="#400454"/>
<path d="M15.1798 15.3901C15.1798 15.3901 9.52977 21.0001 3.25977 23.4901C3.25977 23.4901 3.52977 25.6201 6.34977 24.6201C9.16977 23.6201 20.8798 15.7301 26.0998 7.89012C31.3198 0.0501227 25.8998 1.28012 25.8998 1.28012C25.8998 1.28012 24.3898 3.28012 20.0898 5.64012C15.7898 8.00012 15.9198 9.88012 16.3798 11.7601C16.8398 13.6401 15.1798 15.3901 15.1798 15.3901Z" fill="#DFCAE5"/>
<path d="M24.9999 2.24994C25.3356 1.94445 25.6434 1.60981 25.9199 1.24994C25.9199 1.24994 30.1999 0.249944 27.4799 5.56994C27.0085 4.29237 26.1701 3.18257 25.0699 2.37994L24.9399 2.27994L24.9999 2.24994Z" fill="#F4EAF7"/>
<path d="M26.0998 7.89014C20.8798 15.7301 9.16977 23.6301 6.34977 24.6201C3.52977 25.6101 3.25977 23.4901 3.25977 23.4901C9.52977 20.9601 15.1798 15.3901 15.1798 15.3901C15.8161 14.6834 16.2451 13.8149 16.4198 12.8801C18.2148 11.8488 19.9417 10.7031 21.5898 9.45014C22.8932 8.47173 24.4704 7.92619 26.0998 7.89014Z" fill="#BFB4C4"/>
</g>
<defs>
<clipPath id="clip0_586_1040">
<rect width="29.37" height="24.89" fill="white"/>
</clipPath>
</defs>
</svg>
