<svg width="166" height="172" viewBox="0 0 166 172" fill="none" xmlns="http://www.w3.org/2000/svg">
<path d="M114.724 129.116C114.693 129.955 114.913 130.784 115.357 131.497C115.801 132.21 116.448 132.774 117.214 133.116L144.044 141.406L164.724 95.646L140.864 96.896L114.724 129.116Z" fill="#C43A00"/>
<path fill-rule="evenodd" clip-rule="evenodd" d="M160.644 82.5762L141.924 130.706L117.534 126.966C117.534 126.966 113.424 126.966 117.284 132.396L143.554 139.446L163.074 94.6562C163.074 94.6562 157.544 94.5262 160.644 82.5762Z" fill="#DCEFDA"/>
<path fill-rule="evenodd" clip-rule="evenodd" d="M140.194 130.636L117.534 126.966C117.534 126.966 113.424 126.966 117.284 132.396L143.554 139.446C143.554 139.446 137.644 136.076 140.194 130.636Z" fill="#BECCBC"/>
<path fill-rule="evenodd" clip-rule="evenodd" d="M160.644 82.5859L130.144 93.4759L114.694 129.116L141.924 130.706L160.644 82.5859Z" fill="#C43A00"/>
<path d="M136.724 111.016C136.724 111.016 135.984 124.456 115.804 126.466L120.144 116.466C120.144 116.466 136.554 103.656 136.724 111.016Z" fill="#912600"/>
<path d="M160.914 83.9459L160.644 82.5859L141.504 129.306L114.694 129.116L114.984 129.576L141.924 130.706L160.914 83.9459Z" fill="#912600"/>
<path d="M165.034 96.596L164.674 95.646L143.824 140.136L117.294 132.726C117.294 132.726 114.924 131.226 115.424 129.156H114.694C114.646 129.998 114.86 130.834 115.305 131.551C115.751 132.267 116.407 132.827 117.184 133.156L144.124 141.576L165.034 96.596Z" fill="#912600"/>
<path d="M42.1141 71.2158C42.1141 71.2158 18.4641 72.5358 12.7441 87.2158C7.02413 101.896 16.4541 112.056 23.2641 112.056C30.0741 112.056 33.8941 108.586 34.1241 97.3558C34.3541 86.1258 50.0041 84.4458 50.0041 84.4458L103.884 106.636C103.884 106.636 115.354 114.896 127.304 114.896C139.254 114.896 136.494 108.676 136.494 108.676C136.494 108.676 136.254 103.306 125.144 102.356C114.034 101.406 99.7241 91.6058 99.7241 91.6058L42.1141 71.2158Z" fill="#FFB470"/>
<path d="M42.1141 71.2158C42.1141 71.2158 18.4641 72.5358 12.7441 87.2158C7.02413 101.896 16.4541 112.056 23.2641 112.056C30.0741 112.056 33.8941 108.586 34.1241 97.3558C34.3541 86.1258 50.0041 84.4458 50.0041 84.4458L103.884 106.636C103.884 106.636 115.354 114.896 127.304 114.896C139.254 114.896 136.494 108.676 136.494 108.676C136.494 108.676 136.254 103.306 125.144 102.356C114.034 101.406 99.7241 91.6058 99.7241 91.6058L42.1141 71.2158Z" fill="url(#paint0_radial_597_440)"/>
<path d="M23.324 76.9862C13.904 83.9262 15.224 97.4462 18.074 104.576C20.924 111.706 31.934 110.116 33.184 103.396C34.434 96.6762 31.724 93.5262 37.724 87.1862C43.724 80.8462 40.954 71.5962 40.954 71.5962L42.424 72.8662L43.884 72.5262L49.984 84.4662C49.984 84.4662 34.344 86.1462 34.104 97.3762C33.864 108.606 30.054 112.076 23.244 112.076C16.434 112.076 7.01403 101.896 12.724 87.2362C15.294 80.6262 21.504 76.7162 27.544 74.4262L23.324 76.9862Z" fill="#F99C5F"/>
<path d="M103.884 106.656C103.884 106.656 115.354 114.896 127.304 114.896C139.254 114.896 136.494 108.676 136.494 108.676C136.494 108.676 136.744 114.836 127.284 113.676C117.824 112.516 103.884 101.936 103.884 101.936V106.656Z" fill="#F99C5F"/>
<path d="M103.174 108.806C103.174 108.806 105.684 115.616 97.444 118.366C89.204 121.116 52.774 124.596 46.444 110.866C44.5951 106.969 43.7665 102.667 44.0359 98.3619C44.3052 94.0572 45.6638 89.8916 47.984 86.2558L43.334 87.3358C44.0449 84.6397 44.188 81.8254 43.7542 79.0711C43.3204 76.3169 42.3192 73.6828 40.814 71.3358C40.814 71.3358 55.624 69.6658 67.814 74.3358C80.004 79.0058 86.574 83.5258 93.144 87.5758C97.9622 90.4296 102.975 92.9424 108.144 95.0958C108.144 95.0958 110.514 108.426 106.964 110.386L103.174 108.806Z" fill="url(#paint1_radial_597_440)"/>
<path d="M108.724 106.996C109.504 102.406 108.194 95.0661 108.194 95.0661C103.025 92.9128 98.0125 90.4 93.1943 87.5461C86.6243 83.4961 80.0543 78.9562 67.8643 74.3062C67.8643 74.3062 80.0743 79.8361 87.3343 85.5161C94.5943 91.1961 96.2643 92.4461 99.4543 97.4361C98.2661 94.6952 96.6752 92.1471 94.7343 89.8761C94.7343 89.8761 105.624 95.2761 108.324 104.766L108.724 106.996Z" fill="#A832C7"/>
<path opacity="0.35" d="M106.994 110.356L103.174 108.806C103.174 108.806 105.684 115.616 97.444 118.366C89.204 121.116 52.774 124.596 46.444 110.866C44.5951 106.969 43.7665 102.667 44.0359 98.3621C44.3052 94.0574 45.6638 89.8918 47.984 86.2559L43.334 87.3359C44.0449 84.6399 44.188 81.8255 43.7542 79.0713C43.3204 76.317 42.3192 73.6829 40.814 71.3359C40.814 71.3359 44.884 74.6559 45.874 77.9859C46.616 80.1901 47.7811 82.2282 49.304 83.9859L52.964 78.4259C52.964 78.4259 47.714 101.826 67.804 110.426C78.034 114.826 108.064 121.426 102.074 104.766C102.884 106.216 103.872 107.56 105.014 108.766L106.994 110.356Z" fill="#400454"/>
<path d="M106.664 170.896C106.664 170.896 99.8642 163.186 104.274 157.746C108.684 152.306 120.104 142.616 129.614 148.426C129.614 148.416 120.514 166.076 106.664 170.896Z" fill="#821898"/>
<path d="M129.614 148.416C121.264 143.316 111.454 150.156 106.194 155.586C106.194 155.586 118.404 144.086 127.924 149.046L129.614 148.416Z" fill="#A832C7"/>
<path d="M110.094 169.406C110.094 169.406 107.554 164.696 108.364 160.126C108.397 159.934 108.473 159.752 108.588 159.594C108.702 159.436 108.852 159.307 109.024 159.216H109.104C109.297 159.115 109.513 159.066 109.731 159.074C109.949 159.082 110.16 159.147 110.345 159.262C110.53 159.377 110.682 159.539 110.785 159.731C110.888 159.923 110.94 160.138 110.934 160.356C110.8 163.014 111.318 165.665 112.444 168.076L110.094 169.406Z" fill="#FF9A00"/>
<path d="M114.784 166.386C114.784 166.386 112.034 161.696 112.964 157.136C113.029 156.832 113.204 156.561 113.454 156.376C113.641 156.241 113.861 156.159 114.091 156.14C114.321 156.121 114.551 156.166 114.758 156.269C114.964 156.372 115.138 156.53 115.261 156.725C115.384 156.92 115.45 157.145 115.454 157.376C115.454 159.536 115.854 162.436 117.334 164.306L114.784 166.386Z" fill="#FF9A00"/>
<path opacity="0.35" d="M129.614 148.416C129.614 148.416 120.514 166.076 106.664 170.886C106.664 170.886 99.8642 163.176 104.274 157.736C104.274 157.736 109.564 167.426 124.754 155.996L129.614 148.416Z" fill="#400454"/>
<path d="M117.974 162.006C117.974 162.006 112.324 167.576 106.044 170.116C106.044 170.116 106.314 172.236 109.144 171.246C111.974 170.256 123.674 162.356 128.884 154.516C134.094 146.676 128.724 147.896 128.724 147.896C128.724 147.896 127.204 149.896 122.904 152.256C118.604 154.616 118.734 156.486 119.194 158.366C119.654 160.246 117.974 162.006 117.974 162.006Z" fill="#DFCAE5"/>
<path d="M127.724 148.896C128.057 148.585 128.368 148.251 128.654 147.896C128.654 147.896 132.924 146.896 130.214 152.216C129.737 150.936 128.896 149.824 127.794 149.016L127.724 148.896Z" fill="#F4EAF7"/>
<path d="M128.884 154.516C123.674 162.356 111.964 170.246 109.144 171.246C106.324 172.246 106.044 170.116 106.044 170.116C112.324 167.576 117.974 162.006 117.974 162.006C118.607 161.301 119.036 160.437 119.214 159.506C121.008 158.47 122.735 157.321 124.384 156.066C125.686 155.094 127.259 154.552 128.884 154.516Z" fill="#BFB4C4"/>
<path d="M78.024 116.656L100.344 136.076L71.254 140.996L64.124 138.186L66.314 114.516L78.024 116.656Z" fill="url(#paint2_radial_597_440)"/>
<path d="M87.3842 138.266L100.384 136.076L90.3142 127.326C90.3142 127.326 85.4642 132.176 87.3842 138.266Z" fill="url(#paint3_linear_597_440)"/>
<path d="M88.2441 130.236C88.6229 129.514 89.061 128.825 89.5541 128.176L100.344 136.076L88.2441 130.236Z" fill="white"/>
<path d="M3.72412 110.486C3.74697 111.955 4.08815 113.401 4.72412 114.726L71.3141 140.996C70.5604 140.589 69.8965 140.034 69.3622 139.364C68.8279 138.695 68.4342 137.924 68.2045 137.099C67.9749 136.274 67.9141 135.41 68.0257 134.561C68.1373 133.712 68.419 132.894 68.8541 132.156L3.72412 110.486Z" fill="#C43A00"/>
<path d="M71.8043 123.176C71.8043 123.176 64.1743 126.546 68.8043 132.176L3.72429 110.516C3.71297 109.013 4.26611 107.56 5.27429 106.446L71.8043 123.176Z" fill="#FF5900"/>
<path d="M71.8039 123.176C70.2739 117.096 78.0239 116.656 78.0239 116.656L9.25391 104.036C7.72746 104.464 6.34524 105.296 5.25391 106.446L71.8039 123.176Z" fill="#FF8337"/>
<path opacity="0.35" d="M34.724 108.716C34.724 108.716 27.154 117.936 19.784 111.276C12.414 104.616 22.394 106.446 22.394 106.446L34.724 108.716Z" fill="#541700"/>
<path d="M27.5642 74.4258C21.5642 76.7158 15.3142 80.6258 12.7442 87.2358C7.01421 101.926 16.4542 112.076 23.2642 112.076C30.0742 112.076 33.8942 108.606 34.1242 97.3758C34.1533 95.7454 34.5539 94.1432 35.2956 92.6911C36.0373 91.2389 37.1005 89.9751 38.4042 88.9958" fill="url(#paint4_radial_597_440)"/>
<path d="M40.084 87.8158C36.934 89.7558 34.224 92.7558 34.084 97.3758C33.854 108.606 30.034 112.076 23.224 112.076C16.414 112.076 7.01399 101.896 12.724 87.2358C15.294 80.6258 21.504 76.7158 27.544 74.4258L23.304 76.9858C13.884 83.9258 15.204 97.4458 18.054 104.576C20.904 111.706 31.914 110.116 33.164 103.396C34.414 96.6758 31.724 93.5258 37.724 87.1858" fill="#F99C5F"/>
<path d="M58.4342 47.7958C58.4342 47.7958 55.3442 62.7258 70.6342 67.1358C85.9242 71.5458 113.634 74.1358 121.274 69.0258C128.914 63.9158 130.574 46.2058 125.204 40.3558C119.834 34.5058 96.4042 19.2258 76.5842 25.3558C56.7642 31.4858 58.4342 47.7958 58.4342 47.7958Z" fill="#FFB470"/>
<path d="M58.4342 47.7958C58.4342 47.7958 55.3442 62.7258 70.6342 67.1358C85.9242 71.5458 113.634 74.1358 121.274 69.0258C128.914 63.9158 130.574 46.2058 125.204 40.3558C119.834 34.5058 96.4042 19.2258 76.5842 25.3558C56.7642 31.4858 58.4342 47.7958 58.4342 47.7958Z" fill="url(#paint5_radial_597_440)"/>
<path d="M58.4342 47.7959C58.4342 47.7959 55.3442 62.7259 70.6342 67.1359C85.9242 71.5459 113.634 74.1359 121.274 69.0259C121.274 69.0259 109.204 74.1659 84.6642 69.0259C60.1242 63.8859 58.4342 47.8459 58.4342 47.8459V47.7959Z" fill="#F99C5F"/>
<path d="M84.6644 45.9561C86.0175 45.9561 87.1143 44.8592 87.1143 43.5061C87.1143 42.1531 86.0175 41.0562 84.6644 41.0562C83.3113 41.0562 82.2144 42.1531 82.2144 43.5061C82.2144 44.8592 83.3113 45.9561 84.6644 45.9561Z" fill="#003438"/>
<path d="M120.004 52.7861C121.125 52.7861 122.034 51.8772 122.034 50.7561C122.034 49.6349 121.125 48.7261 120.004 48.7261C118.883 48.7261 117.974 49.6349 117.974 50.7561C117.974 51.8772 118.883 52.7861 120.004 52.7861Z" fill="#003438"/>
<path d="M111.104 57.696C111.104 57.696 107.464 51.786 97.0143 51.126C97.0143 51.126 91.8243 64.506 99.3543 67.016C106.884 69.526 111.104 57.696 111.104 57.696Z" fill="#850027"/>
<path d="M105.414 65.9662C104.571 66.6311 103.575 67.0753 102.517 67.2587C101.459 67.442 100.372 67.3587 99.3543 67.0162C95.4943 65.7362 94.9743 61.5962 95.3543 57.8662C95.3543 57.8662 102.814 59.3062 105.354 65.9662H105.414Z" fill="#FF0000"/>
<path d="M96.0142 54.396C96.2869 53.2884 96.6208 52.1967 97.0142 51.126C107.464 51.786 111.104 57.696 111.104 57.696C111.104 57.696 106.894 61.066 97.4342 55.306L96.0142 54.396Z" fill="white"/>
<path d="M118.504 42.5362C118.504 42.5362 113.434 43.4162 113.434 45.9862C113.434 48.5562 115.274 48.0562 118.504 47.4362C121.734 46.8162 124.784 47.5262 125.134 44.9862C125.484 42.4462 123.224 41.7262 118.504 42.5362Z" fill="#62361A"/>
<path d="M92.4343 36.4061C92.4343 36.4061 89.3343 32.7661 84.9743 32.2361C80.6143 31.7061 78.7043 34.8661 80.1343 36.1161C81.5643 37.3661 86.5243 39.1861 89.8143 41.9461C93.1043 44.7061 95.4543 41.6161 94.7443 39.8261C94.1698 38.5656 93.3891 37.4098 92.4343 36.4061Z" fill="#62361A"/>
<path d="M42.8041 159.486C43.736 157.495 44.2191 155.324 44.2191 153.126C44.2191 150.928 43.736 148.757 42.8041 146.766C40.4895 142.027 36.8713 138.047 32.374 135.293C27.8767 132.539 22.687 131.124 17.4141 131.216C3.85407 131.426 0.664062 138.516 0.664062 138.516L34.0441 169.326C34.0441 169.326 40.1841 164.666 42.8041 159.486Z" fill="#821898"/>
<path d="M34.7243 148.386C34.7243 148.386 38.0743 143.496 37.1043 140.246L32.3043 136.536C32.3043 136.536 31.5043 141.726 29.6343 143.536L34.7243 148.386Z" fill="#FFC600"/>
<path d="M39.5539 143.336C39.4055 145.919 38.4389 148.388 36.7939 150.386L39.3539 155.136C40.9182 153.067 42.0012 150.676 42.5239 148.136C41.6974 146.44 40.7024 144.832 39.5539 143.336Z" fill="#FFC600"/>
<path opacity="0.35" d="M42.724 146.766C43.656 148.756 44.1391 150.928 44.1391 153.126C44.1391 155.324 43.656 157.495 42.724 159.486C40.104 164.666 33.924 169.326 33.924 169.326L0.624023 138.516C0.624023 138.516 23.694 126.916 41.474 145.516L42.724 146.766Z" fill="#2A0055"/>
<path d="M36.5943 148.056C32.0197 141.883 25.9958 136.93 19.0543 133.636C7.4243 128.086 1.4043 137.246 1.4043 137.246L34.0043 169.326C34.0043 169.326 47.2043 163.706 36.5943 148.056Z" fill="#DCEFDA"/>
<path d="M1.4043 137.246L34.0043 169.326C34.0043 169.326 47.2043 163.706 36.5943 148.056C32.7577 142.86 27.8765 138.523 22.2643 135.326C22.2643 135.326 11.0543 134.776 8.39429 136.246C5.73429 137.716 1.4043 137.246 1.4043 137.246Z" fill="#AFB4AF"/>
<path d="M17.524 168.066C17.524 168.066 32.004 175.546 36.734 165.806C41.464 156.066 31.734 147.676 23.824 140.346C15.914 133.016 3.36402 132.346 0.624023 138.516C-2.11598 144.686 4.28403 160.576 17.524 168.066Z" fill="#984432"/>
<path d="M35.314 152.626L2.31396 151.216C3.195 153.146 4.23526 154.999 5.42396 156.756L37.544 157.526C37.0535 155.789 36.3016 154.137 35.314 152.626Z" fill="#7C3629"/>
<path d="M36.724 165.806C37.105 165.022 37.4033 164.201 37.614 163.356L10.064 162.356C11.6791 163.969 13.4436 165.426 15.334 166.706L35.604 167.566C36.0382 167.02 36.4136 166.43 36.724 165.806Z" fill="#7C3629"/>
<path d="M23.824 140.346L23.534 140.086L0.283964 139.536C-0.0699149 141.245 -0.0699149 143.008 0.283964 144.716L29.104 145.276C27.354 143.576 25.544 141.896 23.824 140.346Z" fill="#7C3629"/>
<path fill-rule="evenodd" clip-rule="evenodd" d="M127.474 23.6662C127.474 23.6662 136.474 16.4562 142.214 25.9762C146.214 32.6162 141.994 36.1762 140.724 37.0362C139.63 37.7347 138.498 38.3723 137.334 38.9462L127.474 23.6662Z" fill="url(#paint6_radial_597_440)"/>
<path fill-rule="evenodd" clip-rule="evenodd" d="M47.9141 4.32581C61.6641 -8.22419 72.6141 10.5258 72.6141 10.5258L49.2141 25.9758C49.2141 25.9758 37.1941 14.1158 47.9141 4.32581Z" fill="url(#paint7_radial_597_440)"/>
<path fill-rule="evenodd" clip-rule="evenodd" d="M52.6239 8.69593C60.6239 1.53593 66.8039 11.6959 66.8039 11.6959L52.9039 21.5659C52.9039 21.5659 47.4439 13.2959 52.6239 8.69593Z" fill="#520F6D"/>
<path fill-rule="evenodd" clip-rule="evenodd" d="M130.214 26.8959C130.214 26.8959 134.284 24.0759 137.214 28.0959C137.646 28.6242 137.965 29.2352 138.151 29.8913C138.338 30.5474 138.388 31.2348 138.299 31.9111C138.21 32.5874 137.984 33.2384 137.634 33.8239C137.284 34.4094 136.818 34.9172 136.264 35.3159L130.214 26.8959Z" fill="#520F6D"/>
<path fill-rule="evenodd" clip-rule="evenodd" d="M78.6641 69.0661C59.6641 68.0661 40.7541 49.6361 42.8941 34.6461C43.6141 29.6461 46.8941 24.5561 51.5141 20.0761C57.3834 14.4841 64.6147 10.5263 72.4884 8.59647C80.3622 6.66663 88.604 6.832 96.3941 9.07615L116.794 14.8062C128.964 18.3862 139.894 33.1862 137.394 48.1262C133.744 69.9762 116.964 71.9661 109.494 71.7061C112.721 71.3817 115.78 70.108 118.284 68.0461C121.181 65.4331 123.361 62.121 124.614 58.4261C128.104 47.1261 127.314 42.1861 122.034 39.1961C116.464 36.0462 96.3341 29.7261 87.1141 29.2561C79.3241 28.8661 70.3841 34.4462 69.1141 40.6562C68.0215 45.593 67.9874 50.7052 69.0141 55.6562C69.6441 59.1562 70.6641 65.9761 78.6941 68.9861L78.6641 69.0661Z" fill="url(#paint8_radial_597_440)"/>
<path fill-rule="evenodd" clip-rule="evenodd" d="M51.514 20.0762C46.904 24.5562 43.614 29.6462 42.894 34.6462C40.754 49.6462 59.674 68.0862 78.664 69.0662C76.0262 68.1502 73.7261 66.4599 72.064 64.2162C72.064 64.2162 51.374 56.2162 46.564 43.0462C41.754 29.8762 51.514 20.0762 51.514 20.0762Z" fill="#00688C"/>
<path fill-rule="evenodd" clip-rule="evenodd" d="M109.494 71.7361C112.722 71.4117 115.78 70.138 118.284 68.0761C121.182 65.463 123.361 62.151 124.614 58.4561C128.104 47.1561 127.314 42.2161 122.034 39.2261C116.464 36.0761 96.3343 29.7561 87.1143 29.2861C87.1143 29.2861 105.794 30.0361 122.684 38.0361C122.684 38.0361 132.834 41.7961 125.614 58.6761C125.614 58.6761 120.724 71.8961 109.494 71.7361Z" fill="#00688C"/>
<path d="M126.875 26.3237C127.022 25.2847 126.25 24.3164 125.151 24.161C124.052 24.0055 123.041 24.7218 122.894 25.7608C122.748 26.7998 123.519 27.7681 124.619 27.9235C125.718 28.079 126.728 27.3627 126.875 26.3237Z" fill="#085953"/>
<path d="M86.73 16.2457C86.9192 14.9227 85.9779 13.6935 84.6275 13.5004C83.2771 13.3072 82.029 14.2232 81.8397 15.5463C81.6505 16.8693 82.5918 18.0985 83.9422 18.2916C85.2926 18.4848 86.5407 17.5688 86.73 16.2457Z" fill="#085953"/>
<path fill-rule="evenodd" clip-rule="evenodd" d="M105.724 22.196C105.724 24.106 112.404 27.676 112.404 27.676C112.404 27.676 115.554 25.506 116.114 23.676C116.904 21.076 112.914 19.056 110.524 18.676C108.134 18.296 105.724 19.896 105.724 22.196Z" fill="#085953"/>
<path d="M112.374 27.6758C112.374 27.6758 113.794 33.3558 118.674 34.9658C121.674 35.9658 122.674 33.6358 122.674 33.6358" stroke="#00756F" stroke-width="0.5" stroke-miterlimit="10" stroke-linecap="round"/>
<path d="M112.374 27.6758C110.918 29.1623 109.04 30.1644 106.994 30.5458C100.524 31.5458 94.8643 26.1958 94.8643 26.1958" stroke="#00756F" stroke-width="0.5" stroke-miterlimit="10" stroke-linecap="round"/>
<path fill-rule="evenodd" clip-rule="evenodd" d="M51.5142 20.0761C54.7004 16.9871 58.3305 14.3917 62.2842 12.3761C72.8409 7.04398 85.0167 5.87672 96.3942 9.10607L116.794 14.8361C128.964 18.4161 139.894 33.2161 137.394 48.1561C133.744 70.0061 116.964 71.9961 109.494 71.7361C109.494 71.7361 133.494 72.6261 135.694 47.9361C137.894 23.2461 116.724 16.4961 116.724 16.4961L96.0542 10.6361C96.0542 10.6361 72.6542 3.33607 51.5542 20.0761H51.5142Z" fill="#00BDFF"/>
<path fill-rule="evenodd" clip-rule="evenodd" d="M129.414 108.146C129.306 108.474 129.216 108.808 129.144 109.146C128.817 111.489 129.225 113.876 130.314 115.976L133.644 115.826C128.224 106.136 137.984 102.606 137.984 102.606L133.144 103.606C132.519 103.987 131.939 104.436 131.414 104.946C131.414 104.946 132.664 105.876 132.164 107.076C131.664 108.276 129.414 108.146 129.414 108.146Z" fill="#C43A00"/>
<path fill-rule="evenodd" clip-rule="evenodd" d="M129.144 109.176C129.216 108.838 129.306 108.504 129.414 108.176C129.414 108.176 131.674 108.396 132.164 107.176C131.885 107.744 131.46 108.228 130.933 108.58C130.406 108.931 129.796 109.137 129.164 109.176H129.144Z" fill="#912600"/>
<defs>
<radialGradient id="paint0_radial_597_440" cx="0" cy="0" r="1" gradientUnits="userSpaceOnUse" gradientTransform="translate(126.174 105.762) rotate(4.15) scale(14.47 13.023)">
<stop stop-color="#FFE098"/>
<stop offset="0.4" stop-color="#FFC882"/>
<stop offset="0.68" stop-color="#FFB470"/>
</radialGradient>
<radialGradient id="paint1_radial_597_440" cx="0" cy="0" r="1" gradientUnits="userSpaceOnUse" gradientTransform="translate(74.874 95.9658) scale(34.77 34.77)">
<stop stop-color="#A22498"/>
<stop offset="0.48" stop-color="#8A1B98"/>
<stop offset="0.61" stop-color="#821898"/>
</radialGradient>
<radialGradient id="paint2_radial_597_440" cx="0" cy="0" r="1" gradientUnits="userSpaceOnUse" gradientTransform="translate(81.9456 127.727) rotate(-80.62) scale(17.13 33.7461)">
<stop stop-color="#FF9A00"/>
<stop offset="1" stop-color="#FFF49D"/>
</radialGradient>
<linearGradient id="paint3_linear_597_440" x1="91.8642" y1="138.746" x2="95.1142" y2="131.206" gradientUnits="userSpaceOnUse">
<stop offset="0.26" stop-color="#003438"/>
<stop offset="1" stop-color="#0C2217"/>
</linearGradient>
<radialGradient id="paint4_radial_597_440" cx="0" cy="0" r="1" gradientUnits="userSpaceOnUse" gradientTransform="translate(25.2863 95.4052) rotate(0.572939) scale(14.7507 15.9307)">
<stop stop-color="#FFE098"/>
<stop offset="0.59" stop-color="#FFC882"/>
<stop offset="1" stop-color="#FFB470"/>
</radialGradient>
<radialGradient id="paint5_radial_597_440" cx="0" cy="0" r="1" gradientUnits="userSpaceOnUse" gradientTransform="translate(95.5042 61.7158) scale(37.85 37.85)">
<stop stop-color="#FFE098"/>
<stop offset="0.39" stop-color="#FFC882"/>
<stop offset="0.66" stop-color="#FFB470"/>
</radialGradient>
<radialGradient id="paint6_radial_597_440" cx="0" cy="0" r="1" gradientUnits="userSpaceOnUse" gradientTransform="translate(135.694 29.9962) scale(8.59)">
<stop stop-color="#2FBEBE"/>
<stop offset="0.29" stop-color="#1EA9BE"/>
<stop offset="0.74" stop-color="#088DBE"/>
<stop offset="1" stop-color="#0083BE"/>
</radialGradient>
<radialGradient id="paint7_radial_597_440" cx="0" cy="0" r="1" gradientUnits="userSpaceOnUse" gradientTransform="translate(58.0341 12.9858) scale(13.8 13.8)">
<stop stop-color="#2FBEBE"/>
<stop offset="0.29" stop-color="#1EA9BE"/>
<stop offset="0.74" stop-color="#088DBE"/>
<stop offset="1" stop-color="#0083BE"/>
</radialGradient>
<radialGradient id="paint8_radial_597_440" cx="0" cy="0" r="1" gradientUnits="userSpaceOnUse" gradientTransform="translate(90.2441 39.5461) scale(56.22)">
<stop stop-color="#2FBEBE"/>
<stop offset="0.29" stop-color="#1EA9BE"/>
<stop offset="0.74" stop-color="#088DBE"/>
<stop offset="1" stop-color="#0083BE"/>
</radialGradient>
</defs>
</svg>
