<svg width="58" height="63" viewBox="0 0 58 63" fill="none" xmlns="http://www.w3.org/2000/svg">
<g clip-path="url(#clip0_586_1098)">
<path d="M41.6501 60.1599L13.6501 61.1599C11.9978 61.2211 10.3503 60.9457 8.80768 60.3505C7.26508 59.7554 5.85955 58.8529 4.67645 57.6979C3.49336 56.5428 2.5574 55.1594 1.92541 53.6315C1.29342 52.1036 0.978592 50.4632 1.00005 48.8099L1.31005 21.3599C1.33901 18.7046 2.23354 16.1312 3.85784 14.0305C5.48214 11.9297 7.74751 10.4163 10.3101 9.71992L40.8 1.44992C42.689 0.938997 44.673 0.889542 46.585 1.30573C48.4971 1.72191 50.2811 2.59155 51.7867 3.84136C53.2924 5.09118 54.4756 6.68456 55.2367 8.48728C55.9978 10.29 56.3145 12.2492 56.16 14.1999L53.39 48.9299C53.1515 51.916 51.8235 54.7102 49.6588 56.7808C47.4941 58.8515 44.6438 60.0541 41.6501 60.1599Z" fill="url(#paint0_radial_586_1098)"/>
<path d="M14.4194 49.0503C15.1072 48.3556 14.6815 46.8191 13.4687 45.6185C12.2559 44.4179 10.7152 44.0078 10.0275 44.7026C9.33973 45.3973 9.76541 46.9337 10.9782 48.1343C12.191 49.3349 13.7317 49.745 14.4194 49.0503Z" fill="#54220F"/>
<path d="M14.3499 48.0001L38.9299 22.8201C39.1038 22.6481 39.2418 22.4433 39.336 22.2176C39.4301 21.9919 39.4786 21.7497 39.4786 21.5051C39.4786 21.2606 39.4301 21.0184 39.336 20.7927C39.2418 20.567 39.1038 20.3622 38.9299 20.1901L38.6099 19.8701C38.2594 19.5208 37.7847 19.3247 37.2899 19.3247C36.7951 19.3247 36.3204 19.5208 35.9699 19.8701L11.1499 44.7101C11.4826 45.4612 11.9581 46.1405 12.5499 46.7101C13.0606 47.2527 13.672 47.6908 14.3499 48.0001Z" fill="#873E00"/>
<path d="M40.3498 34.3957L41.8905 32.8393C43.5496 31.1633 43.5359 28.4597 41.8599 26.8007L31.9886 17.0288C30.3127 15.3697 27.6091 15.3834 25.95 17.0594L24.4093 18.6157C22.7502 20.2917 22.7639 22.9953 24.4399 24.6543L34.3112 34.4262C35.9871 36.0853 38.6907 36.0716 40.3498 34.3957Z" fill="#003565"/>
<path d="M39.857 27.1625C40.2903 26.5831 40.43 25.9552 40.169 25.76C39.9081 25.5649 39.3453 25.8764 38.912 26.4558C38.4787 27.0352 38.339 27.6631 38.5999 27.8582C38.8609 28.0534 39.4237 27.7419 39.857 27.1625Z" fill="#D2CED0"/>
<path d="M37.3862 29.9675C37.8952 29.4534 38.1201 28.8507 37.8885 28.6215C37.6569 28.3922 37.0566 28.6232 36.5476 29.1374C36.0386 29.6515 35.8137 30.2542 36.0453 30.4834C36.2768 30.7127 36.8772 30.4817 37.3862 29.9675Z" fill="#D2CED0"/>
<path d="M38.665 31.2312C39.174 30.717 39.3989 30.1144 39.1673 29.8851C38.9357 29.6559 38.3354 29.8869 37.8264 30.401C37.3174 30.9152 37.0925 31.5179 37.3241 31.7471C37.5557 31.9763 38.156 31.7454 38.665 31.2312Z" fill="#D2CED0"/>
<path d="M39.9334 32.5195C40.3802 32.0681 40.5801 31.5415 40.38 31.3434C40.1798 31.1452 39.6553 31.3505 39.2085 31.8019C38.7616 32.2532 38.5617 32.7798 38.7619 32.9779C38.962 33.1761 39.4865 32.9708 39.9334 32.5195Z" fill="#D2CED0"/>
<path d="M34.8603 32.2118C35.4354 31.7728 35.7413 31.2069 35.5435 30.9479C35.3458 30.6889 34.7193 30.8349 34.1443 31.2739C33.5692 31.7129 33.2633 32.2788 33.4611 32.5378C33.6588 32.7968 34.2853 32.6509 34.8603 32.2118Z" fill="#D2CED0"/>
<path d="M40.829 28.7138C41.2193 28.1919 41.3457 27.6267 41.1112 27.4514C40.8768 27.2761 40.3704 27.557 39.9801 28.0789C39.5898 28.6008 39.4635 29.166 39.6979 29.3413C39.9323 29.5166 40.4387 29.2357 40.829 28.7138Z" fill="#D2CED0"/>
<path d="M36.3316 33.2622C36.8496 32.8668 37.1255 32.3576 36.9479 32.1249C36.7703 31.8923 36.2064 32.0242 35.6884 32.4197C35.1704 32.8152 34.8945 33.3243 35.0721 33.557C35.2497 33.7897 35.8136 33.6577 36.3316 33.2622Z" fill="#D2CED0"/>
<path d="M41.9089 30.1616C42.2728 29.675 42.392 29.1493 42.1753 28.9872C41.9586 28.8251 41.4879 29.0881 41.1241 29.5746C40.7603 30.0612 40.641 30.587 40.8577 30.749C41.0745 30.9111 41.5451 30.6481 41.9089 30.1616Z" fill="#D2CED0"/>
<path d="M37.6431 34.1169C38.123 33.7463 38.3782 33.2726 38.2132 33.0588C38.0481 32.845 37.5252 32.9721 37.0453 33.3427C36.5653 33.7133 36.3101 34.187 36.4752 34.4008C36.6402 34.6146 37.1631 34.4875 37.6431 34.1169Z" fill="#D2CED0"/>
<path d="M34.8637 27.491C35.9361 26.4077 36.5381 25.2649 36.2084 24.9385C35.8787 24.6122 34.7421 25.2258 33.6697 26.309C32.5974 27.3923 31.9953 28.5351 32.325 28.8615C32.6547 29.1878 33.7913 28.5742 34.8637 27.491Z" fill="#B5B8BA"/>
<path d="M23.3299 21.1302C23.442 20.8552 23.5723 20.5879 23.7199 20.3302C23.4699 20.9302 23.0499 22.2302 23.6499 23.0502C23.7299 23.1602 23.9099 23.3702 23.9099 23.3702L28.3499 27.7102C30.0099 29.3602 32.3499 28.9002 33.9699 27.3202L34.7699 26.5102C36.3399 24.9302 36.8399 22.5102 35.1699 20.8902L30.7699 16.5902C30.6408 16.4446 30.4928 16.3168 30.3299 16.2102C29.8895 16.0244 29.411 15.9465 28.9344 15.983C28.4578 16.0196 27.9968 16.1695 27.5899 16.4202C27.5899 16.4202 28.0799 16.0602 28.2199 15.9802C28.6133 15.7475 29.0647 15.6315 29.5215 15.6457C29.9783 15.6599 30.4217 15.8036 30.7999 16.0602C30.8799 16.1302 31.0999 16.3702 31.0999 16.3702L36.1899 21.3702C36.6194 21.7644 36.9655 22.2406 37.2078 22.7708C37.45 23.3011 37.5835 23.8745 37.6003 24.4572C37.6171 25.0399 37.5168 25.6201 37.3055 26.1633C37.0942 26.7066 36.776 27.202 36.3699 27.6202L34.7299 29.3002C33.0499 31.0702 30.5299 30.4302 28.8699 28.7902L23.6699 23.6402C23.5026 23.4947 23.3607 23.3223 23.2499 23.1302C23.1117 22.8124 23.0471 22.4674 23.0609 22.1211C23.0748 21.7747 23.1667 21.436 23.3299 21.1302Z" fill="#E4E5E6"/>
<path d="M37.69 26.9099L38.1 23.7999L37 23.6099C36.9136 23.5928 36.8246 23.5936 36.7386 23.6124C36.6526 23.6312 36.5714 23.6676 36.5 23.7192C36.4287 23.7708 36.3688 23.8366 36.324 23.9124C36.2793 23.9883 36.2507 24.0725 36.24 24.1599L36 25.9299C35.9766 26.1109 36.0238 26.294 36.1318 26.4411C36.2398 26.5882 36.4003 26.688 36.58 26.7199L37.69 26.9099Z" fill="#B5B8BA"/>
<path d="M34.14 30.4399L31.05 30.9999L30.86 30.1299C30.8353 30.02 30.8333 29.9063 30.854 29.7956C30.8746 29.6849 30.9176 29.5796 30.9803 29.4861C31.043 29.3925 31.124 29.3127 31.2185 29.2515C31.313 29.1902 31.419 29.1489 31.53 29.1299L32.91 28.8899C33.1358 28.8672 33.3622 28.9279 33.5464 29.0605C33.7306 29.1931 33.8599 29.3885 33.91 29.6099L34.14 30.4399Z" fill="#B5B8BA"/>
<path d="M31.0141 27.0791L34.6724 23.3836C35.2435 22.8066 35.2388 21.8759 34.6618 21.3047L32.7572 19.4193C32.1803 18.8481 31.2495 18.8528 30.6784 19.4298L27.0201 23.1253C26.4489 23.7023 26.4536 24.633 27.0306 25.2042L28.9352 27.0896C29.5122 27.6608 30.4429 27.656 31.0141 27.0791Z" fill="#787859"/>
<path d="M31.3104 26.7783L34.3848 23.6726C34.9559 23.0957 34.9512 22.1649 34.3743 21.5938L32.8747 20.1093C32.2978 19.5382 31.367 19.5429 30.7959 20.1199L27.7215 23.2255C27.1503 23.8025 27.155 24.7332 27.732 25.3044L29.2315 26.7888C29.8085 27.36 30.7392 27.3553 31.3104 26.7783Z" fill="#828365"/>
<path d="M41.6502 60.1399L13.6502 61.1399C11.9975 61.2024 10.3494 60.928 8.80618 60.3334C7.26294 59.7388 5.85683 58.8363 4.67344 57.681C3.49005 56.5257 2.55413 55.1416 1.92264 53.6131C1.29115 52.0846 0.9773 50.4435 1.00019 48.7899L1.31019 21.3499C1.33915 18.6945 2.23368 16.1212 3.85798 14.0204C5.48228 11.9197 7.74765 10.4062 10.3102 9.70986L40.7902 1.42986C42.6793 0.916521 44.6642 0.865311 46.5772 1.28055C48.4903 1.6958 50.2753 2.56529 51.7816 3.81562C53.2878 5.06595 54.4711 6.66038 55.2315 8.46427C55.9918 10.2682 56.3069 12.2285 56.1502 14.1799L53.3802 48.9199C53.1438 51.9041 51.8175 54.6969 49.6543 56.7662C47.491 58.8354 44.642 60.0362 41.6502 60.1399Z" stroke="#00FF24" stroke-width="2" stroke-miterlimit="10"/>
<path d="M53.1498 48.0802L53.4498 42.6602L35.8198 60.3502L40.8198 60.1702C44.0147 60.0622 47.0531 58.7607 49.3357 56.5226C51.6182 54.2846 52.9791 51.2723 53.1498 48.0802Z" fill="#00FF24"/>
</g>
<defs>
<radialGradient id="paint0_radial_586_1098" cx="0" cy="0" r="1" gradientUnits="userSpaceOnUse" gradientTransform="translate(29.5797 33.9885) rotate(-18.68) scale(30.89)">
<stop stop-color="#00B1E5"/>
<stop offset="0.41" stop-color="#0099E5"/>
<stop offset="0.65" stop-color="#0089E5"/>
</radialGradient>
<clipPath id="clip0_586_1098">
<rect width="57.19" height="62.13" fill="white"/>
</clipPath>
</defs>
</svg>
