<svg width="97" height="37" viewBox="0 0 97 37" fill="none" xmlns="http://www.w3.org/2000/svg">
<g clip-path="url(#clip0_586_1018)">
<path d="M74.3402 12.6202L96.6602 32.0402L67.5702 36.9602L60.4502 34.1502L62.6302 10.4702L74.3402 12.6202Z" fill="url(#paint0_radial_586_1018)"/>
<path d="M83.7002 34.23L96.7002 32.04L86.5902 23.29C86.5902 23.29 81.7802 28.14 83.7002 34.23Z" fill="url(#paint1_linear_586_1018)"/>
<path d="M84.5698 26.2001C84.9419 25.4767 85.3769 24.7873 85.8698 24.1401L96.6598 32.0001L84.5698 26.2001Z" fill="white"/>
<path d="M0 6.4502C0.0329602 7.91793 0.373639 9.36241 1 10.6902L67.57 37.0002C66.8161 36.5933 66.1522 36.0382 65.6181 35.3684C65.084 34.6985 64.6908 33.9277 64.462 33.1021C64.2331 32.2765 64.1735 31.4132 64.2866 30.564C64.3996 29.7148 64.6831 28.8971 65.12 28.1602L0 6.4502Z" fill="#C43A00"/>
<path d="M68.1302 19.1402C68.1302 19.1402 60.4902 22.5102 65.1302 28.1402L0.000170442 6.48016C-0.0111518 4.97724 0.541986 3.52481 1.55017 2.41016L68.1302 19.1402Z" fill="#FF5900"/>
<path d="M68.1298 19.14C66.5898 13.06 74.3398 12.62 74.3398 12.62L5.56982 0C4.04338 0.427515 2.66115 1.26031 1.56982 2.41L68.1298 19.14Z" fill="#FF8337"/>
<path opacity="0.35" d="M30.9999 4.67986C30.9999 4.67986 23.4699 13.8999 16.0999 7.23986C8.72991 0.57986 18.7099 2.40986 18.7099 2.40986L30.9999 4.67986Z" fill="#541700"/>
</g>
<defs>
<radialGradient id="paint0_radial_586_1018" cx="0" cy="0" r="1" gradientUnits="userSpaceOnUse" gradientTransform="translate(78.526 23.7164) rotate(-80.62) scale(17.13 33.7461)">
<stop stop-color="#FF9A00"/>
<stop offset="1" stop-color="#FFF49D"/>
</radialGradient>
<linearGradient id="paint1_linear_586_1018" x1="88.1802" y1="34.71" x2="91.4402" y2="27.17" gradientUnits="userSpaceOnUse">
<stop offset="0.26" stop-color="#003438"/>
<stop offset="1" stop-color="#0C2217"/>
</linearGradient>
<clipPath id="clip0_586_1018">
<rect width="96.66" height="36.96" fill="white"/>
</clipPath>
</defs>
</svg>
