<svg width="50" height="40" viewBox="0 0 50 40" fill="none" xmlns="http://www.w3.org/2000/svg">
<g clip-path="url(#clip0_586_1030)">
<path d="M42.8001 28.2702C43.7321 26.2795 44.2152 24.1083 44.2152 21.9102C44.2152 19.7121 43.7321 17.5409 42.8001 15.5502C40.482 10.8037 36.8559 6.81842 32.3489 4.06353C27.8418 1.30863 22.6415 -0.101135 17.3601 0.000222358C3.81012 0.220222 0.620117 7.30022 0.620117 7.30022L34.0001 38.1102C34.0001 38.1102 40.1801 33.4602 42.8001 28.2702Z" fill="#821898"/>
<path d="M34.6999 17.1698C34.6999 17.1698 38.0499 12.2898 37.0799 8.99978L32.2799 5.27979C32.2799 5.27979 31.4799 10.4698 29.6099 12.2798L34.6999 17.1698Z" fill="#FFC600"/>
<path d="M39.55 12.1201C39.403 14.7038 38.4362 17.1733 36.79 19.1701L39.35 23.9201C40.9143 21.8517 41.9973 19.4602 42.52 16.9201C41.6935 15.2246 40.6985 13.6165 39.55 12.1201Z" fill="#FFC600"/>
<path opacity="0.35" d="M42.7601 15.55C43.6921 17.5407 44.1752 19.7119 44.1752 21.91C44.1752 24.108 43.6921 26.2792 42.7601 28.27C40.1801 33.46 34.0001 38.11 34.0001 38.11L0.620117 7.29996C0.620117 7.29996 23.6901 -4.30004 41.4701 14.3L42.7601 15.55Z" fill="#2A0055"/>
<path d="M36.5799 16.8401C32.0105 10.6657 25.9896 5.71298 19.0499 2.42011C7.4199 -3.12989 1.3999 6.00011 1.3999 6.00011L33.9999 38.1101C33.9999 38.1101 47.1999 32.4901 36.5799 16.8401Z" fill="#DCEFDA"/>
<path d="M1.3999 5.99999L33.9999 38.11C33.9999 38.11 47.2099 32.49 36.5899 16.84C32.7559 11.6413 27.8741 7.30464 22.2599 4.10999C22.2599 4.10999 11.0499 3.55999 8.3899 4.99999C5.7299 6.43999 1.3999 5.99999 1.3999 5.99999Z" fill="#AFB4AF"/>
<path d="M17.5198 36.8601C17.5198 36.8601 31.9998 44.3401 36.7298 34.5901C41.4598 24.8401 31.7298 16.4601 23.8198 9.13008C15.9098 1.80008 3.34976 1.11008 0.619758 7.30008C-2.11024 13.4901 4.27976 29.3601 17.5198 36.8601Z" fill="#984432"/>
<path d="M35.3098 21.42L2.31982 20C3.19868 21.9309 4.23904 23.7842 5.42982 25.54L37.5498 26.31C37.058 24.5749 36.3025 22.9257 35.3098 21.42Z" fill="#7C3629"/>
<path d="M36.7298 34.5901C37.1124 33.8073 37.4108 32.986 37.6198 32.1401L10.0698 31.1401C11.6801 32.7588 13.4452 34.2158 15.3398 35.4901L35.6098 36.3601C36.0441 35.811 36.4195 35.2177 36.7298 34.5901Z" fill="#7C3629"/>
<path d="M23.82 9.12982L23.53 8.86982L0.280033 8.31982C-0.073813 10.0317 -0.073813 11.7979 0.280033 13.5098L29.1 14.0598C27.34 12.3698 25.54 10.7298 23.82 9.12982Z" fill="#7C3629"/>
</g>
<defs>
<clipPath id="clip0_586_1030">
<rect width="49.37" height="39.6" fill="white"/>
</clipPath>
</defs>
</svg>
