<svg width="2115" height="1076" viewBox="0 0 2115 1076" fill="none" xmlns="http://www.w3.org/2000/svg">
<path d="M1189.27 121.12C1189.27 121.12 1151.5 279 1098.6 368.8C1045.7 458.6 821.73 827.61 480 1075.77H1668.47C1668.47 1075.77 1263.24 559.93 1210.79 312.77L1199.87 203.77C1199.87 203.77 1203.34 192.52 1191.38 179.61C1191.38 179.61 1189.99 131.95 1194.5 114.19C1192.6 116.381 1190.86 118.696 1189.27 121.12Z" fill="#38BDE3"/>
<path d="M1191.38 179.55C1191.38 179.55 1112.05 451.71 1026.18 1040.49L1021.87 1075.77H1668.47C1668.47 1075.77 1274.25 561.35 1221.81 314.18L1206.7 243.34L1202.2 189L1191.38 179.55Z" fill="#009CB3"/>
<path d="M1171 274.28C1179.65 233.78 1185.26 213.86 1185.26 213.86L1205.26 226.08L1206.04 235.42L1273.34 1075.77H1084.14C1086.97 1005.22 1090.5 939.147 1094.75 877.54L1205.07 890.43L1201.73 708.25L1111.16 680.58C1118.39 608.39 1126.16 544.81 1133.91 489.68L1191.45 503.62L1192.7 421L1146.7 405.4C1151.82 373.95 1156.7 346.4 1161.25 322.84L1192.78 334.33L1194.08 285.91L1171 274.28Z" fill="#3CBED2"/>
<path opacity="0.3" d="M1188 268.62L1176.7 263.79C1176.7 263.79 1102.99 650.28 1107.7 1075.79H1558.53L1188 268.62Z" fill="#1D597F"/>
<path d="M1202 233.12L1181 253.12C1181 253.12 1107.22 657.06 1133.65 1075.73H1570.06L1202 233.12Z" fill="#6BA1CE"/>
<path d="M1343.82 1075.77H1996.82C1293.29 578.37 1229 248.61 1229 248.61L1202 233.12C1202 233.12 1188.49 700 1343.82 1075.77Z" fill="#5081B3"/>
<path d="M1343.82 1075.77H1996.82C1293.29 578.37 1229 248.61 1229 248.61L1202 233.12C1202 233.12 1188.49 700 1343.82 1075.77Z" fill="url(#paint0_radial_586_356)"/>
<path d="M1206.7 243.34C1206.7 243.34 1221 781.25 1442 1075.77H1570.16C1570.16 1075.77 1295.16 834.24 1211.29 245.54L1206.7 243.34Z" fill="url(#paint1_radial_586_356)"/>
<path d="M1214.52 246.83C1214.52 246.83 1315.18 830.39 1601.1 1075.77H1766.57C1766.57 1075.77 1382.4 885 1219.32 249L1214.52 246.83Z" fill="url(#paint2_radial_586_356)"/>
<path d="M1222.46 250.15L1226.17 251.53C1226.17 251.53 1328.73 663 1973.94 1075.77H1810.49C1810.49 1075.77 1427.93 891 1222.46 250.15Z" fill="url(#paint3_radial_586_356)"/>
<path d="M1309.23 1075.77H1243.35C1146.35 734.89 1192.9 249.59 1192.9 249.59L1197.83 245.71C1197.83 245.71 1181.72 698 1309.23 1075.77Z" fill="#88D6FF"/>
<path d="M1228.5 1075.77H1162.63C1112.38 725 1184.32 255.85 1184.32 255.85L1189.24 251.97C1189.24 251.97 1133.09 698 1228.5 1075.77Z" fill="#88D6FF"/>
<path opacity="0.3" d="M0 1044.65C249 981.94 767 806.34 1068.71 378.55C1068.71 378.55 1089.09 352.03 1114.81 354.48C1140.53 356.93 1137.95 390.08 1133.81 406.26C1133.81 406.26 1059.05 745.62 908.11 1075.77H0" fill="#007382"/>
<path d="M1065.49 345.49C1065.49 345.49 1086.84 317.71 1113.79 320.28C1140.74 322.85 1138.02 357.56 1133.79 374.52C1133.79 374.52 1040.79 740.38 860.79 1075.77" fill="#3CA3AF"/>
<path d="M30.6299 1020C158.58 982.59 325 923 495.05 831.58C571.76 790.36 649.22 742.69 724.24 687.67C755.007 665.11 785.287 641.293 815.08 616.22C849.55 587.13 883.16 556.29 915.58 523.62C932.147 506.953 948.39 489.776 964.31 472.09C982.363 452.03 999.927 431.333 1017 410C1025.87 398.9 1034.59 387.63 1043.17 376.19C1043.17 376.19 1078.73 341.83 1106.97 354.61C1135.21 367.39 1123.68 411.49 1123.68 411.49C1120.54 422.66 1116.68 436.16 1112.05 451.69C1105.05 475.32 1096.33 503.69 1085.94 535.76C1078.94 557.3 1071.25 580.52 1062.77 605.12C1046.15 653.32 1026.65 706.81 1004.31 763.3C987.74 805.2 969.6 848.74 949.91 893.02C923.07 953.36 893.35 1015.02 860.78 1075.75" fill="#007CC0"/>
<path d="M30.6299 1020C158.58 982.59 325 923 495.05 831.58C571.76 790.36 649.22 742.69 724.24 687.67C755.007 665.11 785.287 641.293 815.08 616.22C849.55 587.13 883.16 556.29 915.58 523.62C932.147 506.953 948.39 489.776 964.31 472.09C982.363 452.03 999.927 431.333 1017 410C1025.87 398.9 1032.23 390.78 1040.8 379.33C1040.8 379.33 1078.13 345.25 1106.38 358.03C1134.63 370.81 1121.29 419.93 1121.29 419.93C1118.15 431.1 1116.66 436.16 1112.05 451.69C1105.05 475.32 1096.33 503.69 1085.94 535.76C1078.94 557.3 1071.25 580.52 1062.77 605.12C1046.15 653.32 1026.65 706.81 1004.31 763.3C987.74 805.2 969.6 848.74 949.91 893.02C923.07 953.36 893.35 1015.02 860.78 1075.75" fill="#008EE5"/>
<path d="M30.6299 1020C158.58 982.59 325 923 495.05 831.58C571.76 790.36 649.22 742.69 724.24 687.67C755.007 665.11 785.287 641.293 815.08 616.22C849.55 587.13 883.16 556.29 915.58 523.62C932.147 506.953 948.39 489.777 964.31 472.09C982.363 452.03 999.927 431.333 1017 410C1017 410 1066.73 371.55 1091 385.09C1115.27 398.63 1112.1 451.69 1112.1 451.69C1105.1 475.32 1096.38 503.69 1085.99 535.76C1078.99 557.3 1071.3 580.52 1062.82 605.12C1046.2 653.32 1026.7 706.81 1004.36 763.3C987.79 805.2 969.65 848.74 949.96 893.02C923.12 953.36 893.4 1015.02 860.83 1075.75" fill="#3CA3AF"/>
<path d="M30.6299 1020C158.58 982.59 325 923 495.05 831.58C571.76 790.36 649.22 742.69 724.24 687.67C755.007 665.11 785.287 641.294 815.08 616.22C849.55 587.13 883.16 556.29 915.58 523.62C932.147 506.954 948.39 489.777 964.31 472.09C964.31 472.09 1029.96 423.59 1061.61 439.09C1093.26 454.59 1094.36 510.09 1085.94 535.79C1078.77 557.71 1071.25 580.55 1062.77 605.15C1046.15 653.35 1026.65 706.84 1004.31 763.33C987.74 805.23 969.6 848.77 949.91 893.05C923.07 953.39 893.35 1015.05 860.78 1075.78" fill="#007CC0"/>
<path d="M30.6299 1020C158.58 982.59 325 923 495.05 831.58C571.76 790.36 649.22 742.69 724.24 687.67C755.007 665.11 785.287 641.293 815.08 616.22C849.55 587.13 883.16 556.29 915.58 523.62C932.15 506.93 940.14 498.9 956.03 481.24C956.03 481.24 1028.76 431.84 1060.41 447.32C1092.06 462.8 1086.61 533.65 1078.16 559.38C1070.99 581.23 1071.25 580.54 1062.77 605.14C1046.15 653.34 1026.65 706.83 1004.31 763.32C987.74 805.22 969.6 848.76 949.91 893.04C923.07 953.38 893.35 1015.04 860.78 1075.77" fill="#008EE5"/>
<path d="M30.6299 1020C158.58 982.59 325 923 495.05 831.58C571.76 790.36 649.22 742.69 724.24 687.67C755.007 665.11 785.287 641.294 815.08 616.22C849.55 587.13 883.16 556.29 915.58 523.62C915.58 523.62 989.31 475.28 1036.46 493.98C1083.61 512.68 1062.77 605.14 1062.77 605.14C1046.15 653.34 1026.65 706.83 1004.31 763.32C987.74 805.22 969.6 848.76 949.91 893.04C923.07 953.38 893.35 1015.04 860.78 1075.77" fill="#3CA3AF"/>
<path d="M30.6299 1020C158.58 982.59 325 923 495.05 831.58C571.76 790.36 649.22 742.69 724.24 687.67C755.007 665.11 785.287 641.293 815.08 616.22C815.08 616.22 931.23 551.39 995.18 586C1059.13 620.61 1004.31 763.36 1004.31 763.36C987.74 805.26 969.6 848.8 949.91 893.08C923.07 953.42 893.35 1015.08 860.78 1075.81" fill="#007CC0"/>
<path d="M30.6299 1020C158.58 982.59 325 923 495.05 831.58C571.76 790.36 649.22 742.69 724.24 687.67C755.01 665.11 773.24 652.15 802.94 627.06C802.94 627.06 924.41 560.37 988.36 594.95C1052.31 629.53 996.12 783.95 996.12 783.95C979.55 825.84 969.6 848.75 949.91 893.03C923.07 953.37 893.35 1015.03 860.78 1075.76" fill="#008EE5"/>
<path d="M30.6299 1020C158.58 982.59 325 923 495.05 831.58C571.76 790.36 649.22 742.69 724.24 687.67C724.24 687.67 878.84 632.61 942.8 681.73C1006.76 730.85 949.91 893 949.91 893C923.07 953.34 893.35 1015 860.78 1075.73" fill="#3CA3AF"/>
<path d="M30.6299 1020C158.58 982.59 325 923 495.05 831.58C495.05 831.58 688.12 824.58 744.33 877.52C800.54 930.46 802.55 1075.77 802.55 1075.77" fill="#007CC0"/>
<path d="M30.63 1020C158.63 982.56 284.42 938.43 457.95 851C457.95 851 658.95 845.07 715.15 898.05C771.35 951.03 783.05 1075.72 783.05 1075.72H0V1028.72L30.63 1020Z" fill="#008EE5"/>
<path d="M0 1075.77H112.9C96.53 1038.77 30.63 1020.03 30.63 1020.03C20.1633 1023.1 9.95333 1026.02 0 1028.79L0 1075.77Z" fill="#3CA3AF"/>
<path opacity="0.2" d="M0 1028.79C277.84 951.27 772 761.66 1065.49 345.49C1069.6 340.429 1074.3 335.877 1079.49 331.93C1079.49 331.93 802.49 809.3 37.49 1075.77H0V1028.79Z" fill="white"/>
<path opacity="0.25" d="M860.78 1075.77C1040.78 740.38 1133.78 374.52 1133.78 374.52C1136.51 363.73 1138.6 345.76 1132.78 333.45C1132.78 333.45 997.85 831.27 615.78 1075.77H860.78Z" fill="#006469"/>
<path d="M1394.59 388.72C1394.59 388.72 1387.81 383.64 1382.73 386.55C1377.65 389.46 1385.86 400.11 1394.59 403.98C1403.32 407.85 1404.53 401.31 1402.1 397.92C1399.67 394.53 1394.59 388.72 1394.59 388.72Z" fill="#5081B3"/>
<path d="M1394.59 404C1391.2 402.417 1388.14 400.193 1385.59 397.45C1385.59 397.45 1381.91 392.81 1383.68 390.96C1385.45 389.11 1392.56 392.46 1396.12 397.48C1399.68 402.5 1398.67 403.34 1397.49 404C1396.56 404.363 1395.52 404.363 1394.59 404Z" fill="#6199C8"/>
<path d="M991.93 276.7C991.93 276.7 997.37 270.21 1002.99 271.88C1008.61 273.55 1002.99 285.8 995.41 291.56C987.83 297.32 985.13 291.23 986.71 287.37C988.29 283.51 991.93 276.7 991.93 276.7Z" fill="#5081B3"/>
<path d="M995.41 291.56C998.362 289.243 1000.84 286.377 1002.7 283.12C1002.7 283.12 1005.23 277.77 1003.08 276.37C1000.93 274.97 994.77 279.86 992.46 285.55C990.15 291.24 991.31 291.85 992.6 292.22C993.586 292.357 994.588 292.122 995.41 291.56Z" fill="#6199C8"/>
<path d="M1145.54 152.24C1145.54 152.24 1148.28 148.97 1151.1 149.81C1153.92 150.65 1151.1 156.81 1147.29 159.72C1143.48 162.63 1142.11 159.55 1142.91 157.61C1143.71 155.67 1145.54 152.24 1145.54 152.24Z" fill="#6199C8"/>
<path d="M1213.91 170.91C1213.91 170.91 1214.7 172.77 1216.1 172.78C1217.5 172.79 1217.1 169.6 1215.74 167.78C1214.38 165.96 1213.36 167.14 1213.46 168.13C1213.56 169.12 1213.91 170.91 1213.91 170.91Z" fill="#6199C8"/>
<path d="M1149.09 145.19C1149.09 145.19 1149.79 144.36 1150.51 144.57C1151.23 144.78 1150.51 146.36 1149.51 147.1C1148.51 147.84 1148.19 147.1 1148.4 146.56C1148.61 146.02 1149.09 145.19 1149.09 145.19Z" fill="#6199C8"/>
<path d="M1147.29 159.72C1148.77 158.55 1150.02 157.108 1150.96 155.47C1150.96 155.47 1152.23 152.78 1151.15 152.07C1150.07 151.36 1146.97 153.83 1145.8 156.7C1144.63 159.57 1145.23 159.86 1145.88 160.05C1146.37 160.12 1146.88 160.003 1147.29 159.72Z" fill="#71AEDA"/>
<path d="M1391.24 462.58C1391.24 462.58 1396.33 472.75 1402.14 472.75C1407.95 472.75 1410.41 430.12 1402.14 422.13C1393.87 414.14 1368.21 407.38 1369.43 424.57C1370.65 441.76 1385.91 449.75 1391.24 462.58Z" fill="#6199C8"/>
<path d="M1406.59 434.32C1405.65 432.14 1404.08 430.289 1402.08 429.001C1400.08 427.714 1397.75 427.049 1395.37 427.09C1390.95 427.09 1386.31 431.4 1387.86 436.46C1387.75 436.24 1378.74 418.54 1370.51 430.68L1371.21 432.75C1371.21 432.75 1376.06 417.04 1388.98 439.91C1390.28 443.8 1395.45 452.48 1395.71 456.55C1396.45 467.69 1391.24 462.55 1391.24 462.55C1391.24 462.55 1396.33 472.72 1402.14 472.72C1406.42 472.74 1408.88 449.7 1406.59 434.32Z" fill="#5081B3"/>
<path d="M1378.55 444.91C1378.55 444.91 1377.61 439.19 1381.17 435.41L1382.3 436.7C1382.3 436.7 1379.79 438.94 1379.47 446.05L1378.55 444.91Z" fill="#5081B3"/>
<path d="M980.59 262.65C980.59 262.65 986.17 264.35 993.42 253.44C1000.67 242.53 1025.13 220.74 1018.83 209.84C1012.53 198.94 990.49 203.08 983.96 214.7C977.43 226.32 974.78 259.27 980.59 262.65Z" fill="#5081B3"/>
<path d="M977.5 244.13C977.03 253.26 977.92 261.13 980.59 262.65C980.59 262.65 986.17 264.35 993.42 253.44C1000.67 242.53 1025.13 220.74 1018.83 209.84C1018.83 209.84 1005.29 204.41 996.46 225.84C987.63 247.27 986.12 250.63 982.91 252.36C978.24 254.91 977.5 244.13 977.5 244.13Z" fill="#6199C8"/>
<path d="M1004.38 223C1004.38 223 1012.26 225.85 1012.04 230.59L1010.42 232.71C1010.42 232.71 1010.84 227.25 1003.57 225.39C1003.57 225.35 1002.44 223.55 1004.38 223Z" fill="#5081B3"/>
<path d="M1008.45 235.14C1008.45 235.14 1007.05 229.39 1001.96 228.74C1001.96 228.74 1000.02 228.83 1000.91 230.74C1002.43 231.016 1003.83 231.748 1004.92 232.84C1006.02 233.932 1006.75 235.33 1007.03 236.85L1008.45 235.14Z" fill="#5081B3"/>
<path d="M1180.46 154.83C1179.06 152.435 1178.17 149.78 1177.84 147.029C1177.51 144.277 1177.75 141.487 1178.54 138.83C1179.24 136.102 1180.57 133.58 1182.44 131.472C1184.31 129.365 1186.65 127.732 1189.27 126.71C1176.27 134.92 1179.77 146.71 1181.56 150.88L1180.46 154.83Z" fill="#538EB0"/>
<path d="M1191 156.87C1195 156.78 1202.08 155.48 1202.08 147.46C1202.08 147.46 1202.15 137.22 1190.61 137.22C1185.95 137.145 1181.36 138.29 1177.28 140.543C1173.2 142.795 1169.79 146.077 1167.37 150.06C1163.37 156.5 1158.5 175.06 1171.76 185.4L1172.55 182.7C1170.31 180.52 1159.55 168.7 1169.86 151.26C1172 147.646 1175.04 144.655 1178.7 142.586C1182.35 140.517 1186.48 139.443 1190.68 139.47C1190.68 139.47 1199.57 139.62 1199.57 147.54C1199.57 152.9 1194.37 153.96 1191.02 154.09L1191 156.87Z" fill="#4C80A1"/>
<path d="M1200.81 192.48C1206.16 190.88 1211.64 187.21 1211.64 178.85C1211.64 178.85 1211.39 168.42 1199.76 162.26C1199.76 162.26 1165.3 144 1133.76 185.07C1104.41 223.26 1125.09 255.07 1143.51 270.45L1145.7 264.51C1133.34 252.83 1112.2 225 1138.48 187.58C1138.48 187.58 1163.32 150.76 1198.2 165.92C1198.2 165.92 1207.57 170.11 1207.57 178.83C1207.57 184.56 1203.67 187.37 1198.51 188.62L1200.81 192.48Z" fill="#447194"/>
<path d="M1058 238.19C1058 238.19 1064.81 213.67 1080.31 217.94C1095.81 222.21 1077 241.8 1077 241.8L1074.8 241.35C1074.8 241.35 1094 223.26 1079.95 218.83C1065.9 214.4 1060.43 238.37 1060.43 238.37L1058 238.19Z" fill="#FF6DDD"/>
<path d="M1052.35 359.78C1052.35 359.78 1053.41 345.25 1047.71 345.25C1042.01 345.25 1035.26 351.3 1033.71 374.43H1036.25C1036.25 374.43 1036.84 346.83 1047.37 346.71C1047.37 346.71 1051.09 345.81 1050.37 361.23" fill="#FF6DDD"/>
<path d="M1185 192.47C1185 192.47 1182.84 184.04 1179.77 188.97C1176.7 193.9 1181.77 206.59 1181.77 206.59L1182.6 205.27C1182.6 205.27 1177.87 193.33 1180.45 189.37C1183.03 185.41 1184.45 194.05 1184.45 194.05L1185 192.47Z" fill="#FF6DDD"/>
<path d="M1252.42 226.34C1252.42 226.34 1250.51 214.7 1244.7 215.92C1238.89 217.14 1252.42 226.34 1252.42 226.34Z" fill="#FF6DDD"/>
<path d="M1241 269.09C1241 269.09 1236.82 260.09 1242.47 259.59C1248.12 259.09 1252.41 269.09 1252.41 269.09L1250.23 268.71C1250.23 268.71 1247.23 260.64 1242.8 260.48C1238.37 260.32 1242 269.09 1242 269.09H1241Z" fill="#FF6DDD"/>
<path d="M1240 283.29C1249.77 275.17 1257 264.58 1257 251.01C1257 208.63 1222.1 195.35 1185.53 195.35C1148.96 195.35 1049.77 208.94 1017.2 295.82C1000.28 340.95 1019 365.82 1040.89 379.35L1054.32 361.22C1038.98 349.95 1024.42 330.12 1035.81 297.69C1056.44 238.91 1122.29 206.55 1185.58 206.55C1248.87 206.55 1248.89 243.97 1248.89 251.08C1248.89 254.92 1247.06 265 1236.47 273.45L1240 283.29Z" fill="#385D80"/>
<path d="M1017.11 295.82C1049.68 208.94 1148.88 195.35 1185.44 195.35C1222 195.35 1256.91 208.63 1256.91 251.01C1256.91 251.01 1258.47 222.58 1237.91 206.94C1217.35 191.3 1175.69 188.08 1136.98 198.43C1098.27 208.78 1068.98 220.05 1038.68 255.67C1038.68 255.67 1020.68 279.39 1017.76 292.23L1017.11 295.82Z" fill="#5894BE"/>
<path d="M866 459.46C866 459.46 868.59 397.17 897.65 397.17C916.49 397.17 898.83 461.22 898.83 461.22H896.75C896.75 461.22 914.19 401.39 897.49 400.61C872.79 399.45 868.62 459.29 868.62 459.29L866 459.46Z" fill="#FF6DDD"/>
<path d="M982.34 351.3C982.34 351.3 990.34 303.68 1003.85 307.06C1015.55 309.98 1004.62 357.12 1004.62 357.12L999.23 363.65C999.23 363.65 1012.11 310.78 1004.03 308.59C992.4 305.45 984.49 352.27 984.49 352.27L982.34 351.3Z" fill="#FF6DDD"/>
<path d="M1155.92 276.21C1155.92 276.21 1161.85 251.33 1166.92 251.97C1171.99 252.61 1159.14 301.25 1159.14 301.25L1157.14 301.57C1157.14 301.57 1168.14 256.66 1166.56 254.36C1165.16 252.3 1158.69 275.83 1158.69 275.83L1155.92 276.21Z" fill="#FF6DDD"/>
<path d="M1342.66 387.22C1342.66 387.22 1336.77 368.65 1345.98 369.3C1355.19 369.95 1367.2 392.3 1367.2 392.3L1364.96 392.75C1364.96 392.75 1351.39 370.75 1346.46 370.64C1341.53 370.53 1341.31 376.9 1343.89 386.24C1346.47 395.58 1342.66 387.22 1342.66 387.22Z" fill="#FF6DDD"/>
<path d="M1331.77 285.54C1331.77 285.54 1322.01 265.4 1306.57 265.08C1291.13 264.76 1312.2 300.25 1312.2 300.25C1312.2 300.25 1295.91 266.87 1306.57 266.99C1317.23 267.11 1328.38 284.17 1328.38 284.17L1331.77 288.56V285.56" fill="#FF6DDD"/>
<path d="M1315.85 427.12C1381.37 408.89 1397.06 341.44 1364.13 308.5C1331.2 275.56 1243.03 269.82 1162.63 280.5C1082.23 291.18 967 337.78 892.45 422.07C817.9 506.36 901.34 537.78 901.34 537.78L922.17 517C893.76 508.87 873.66 485.6 915.03 439.23C958.27 390.77 1035.47 324.34 1142.03 304.23C1248.59 284.12 1321.88 302.23 1321.88 302.23C1366.44 316.09 1375.5 349.66 1358.08 375.82C1345.53 394.67 1319.08 405.76 1305.23 410.49L1315.85 427.12Z" fill="#2D516E"/>
<path d="M861.85 479.38C863.65 463.87 872.25 444.92 892.45 422.07C966.99 337.78 1082.24 291.19 1162.63 280.51C1243.02 269.83 1331.2 275.57 1364.13 308.51C1374.42 318.8 1379.97 332.51 1380.72 346.95C1380.72 346.95 1382.91 314.95 1351.79 295.84C1321.1 276.97 1273.35 262.34 1163.06 275.31C1080.43 285.03 982.55 325.19 897.35 411.45C897.35 411.45 861.85 450.15 861.85 479.39V479.38Z" fill="#4F80AA"/>
<path d="M892.77 475.59C892.77 475.59 887.63 508.09 927.35 511.3L922.17 517C922.17 517 883.74 508.49 892.77 475.59Z" fill="#4F80AA"/>
<path d="M1366 355.13C1366 355.13 1366 390.62 1305.18 410.44L1302.29 405.8C1302.29 405.8 1354 395.11 1366 355.13Z" fill="#4F80AA"/>
<path d="M2107.91 654.45C2107.91 654.45 2173.69 820.29 1879.75 1075.77H1766.57L2107.91 654.45Z" fill="#2D516E"/>
<path d="M1795.36 584.39C1795.36 584.39 1808.5 543 1650.94 546C1501.76 548.76 1416.3 562.22 1416.3 562.22L1400 542.09L1718.72 513L1833.06 579.78L1795.36 584.39Z" fill="#2D516E"/>
<path d="M0.39 916.42C1104.07 975.74 1809 663.94 1795.69 577.54C1785.58 512 1488.78 545 1409.2 553.59L1382.82 520.66C1470.01 502.91 1920.15 420.55 2070.44 577.66C2237.14 751.93 1810.44 1075.77 1810.44 1075.77H0L0.39 916.42Z" fill="url(#paint4_radial_586_356)"/>
<path d="M1810.49 1075.77C1810.49 1075.77 2237.14 751.93 2070.49 577.66C2070.49 577.66 2256.29 725 1789.58 1075.77H1810.49Z" fill="#6FA8D8"/>
<path d="M1809.36 596.71C1806.02 596.71 1797.68 593.97 1797.74 590.64C1798.46 551.86 1758.93 345.44 1880.2 350.52C1999.57 355.52 2069.57 541.77 2072.67 582.23C2072.74 583.184 2072.62 584.143 2072.3 585.046C2071.99 585.95 2071.49 586.778 2070.84 587.48C2070.19 588.181 2069.4 588.741 2068.52 589.123C2067.64 589.505 2066.7 589.701 2065.74 589.7C2063.99 589.703 2062.31 589.045 2061.02 587.858C2059.74 586.672 2058.95 585.044 2058.81 583.3C2055.93 546.23 1987.26 361.06 1879.29 359.84C1780.04 358.72 1815.92 554.23 1815.17 591.61C1815.11 594.86 1806.94 596.71 1803.7 596.71H1809.36Z" fill="#FF00BA"/>
<path d="M1528.92 499.37C1528.92 499.37 1503.83 437.81 1468.31 441.05C1432.79 444.29 1481.31 548.05 1481.31 548.05L1487.71 547.43C1487.71 547.43 1439.56 448.51 1468.62 444.3C1497.68 440.09 1526.06 499.79 1526.06 499.79L1528.92 499.37Z" fill="#FF00BA"/>
<path d="M1179.73 83.8099C1182.55 86.7645 1186.17 88.8178 1190.16 89.7103C1194.14 90.6027 1198.3 90.2942 1202.11 88.8238C1205.91 87.3534 1209.2 84.7871 1211.55 81.4492C1213.9 78.1114 1215.21 74.152 1215.3 70.0716C1215.4 65.9911 1214.29 61.9729 1212.11 58.5248C1209.92 55.0767 1206.77 52.3537 1203.03 50.6999C1199.3 49.0461 1195.16 48.5358 1191.14 49.2335C1187.12 49.9313 1183.4 51.8057 1180.44 54.6199C1178.48 56.4895 1176.9 58.7277 1175.8 61.2068C1174.7 63.6858 1174.1 66.357 1174.04 69.0678C1173.97 71.7786 1174.44 74.4758 1175.42 77.0053C1176.39 79.5348 1177.86 81.8471 1179.73 83.8099Z" fill="white"/>
<path d="M1144.29 117.54C1153.78 127.506 1166.01 134.434 1179.43 137.449C1192.86 140.464 1206.88 139.431 1219.71 134.479C1232.55 129.528 1243.63 120.881 1251.55 109.632C1259.48 98.3826 1263.89 85.0365 1264.23 71.2812C1264.56 57.5259 1260.82 43.9791 1253.46 32.3539C1246.1 20.7287 1235.45 11.5472 1222.87 5.97044C1210.3 0.393653 1196.35 -1.32794 1182.79 1.02336C1169.23 3.37466 1156.68 9.69325 1146.71 19.1801C1140.09 25.4795 1134.78 33.0206 1131.08 41.373C1127.37 49.7253 1125.35 58.7252 1125.13 67.8589C1124.9 76.9925 1126.48 86.081 1129.77 94.6053C1133.06 103.13 1137.99 110.923 1144.29 117.54Z" fill="url(#paint5_radial_586_356)"/>
<path d="M1157.34 72.1801C1156.21 56.5401 1183.34 41.0801 1183.34 41.0801C1183.34 41.0801 1166.34 41.1701 1153.25 49.4101C1140.16 57.6501 1143.06 81.4101 1157.41 91.8201C1166.08 98.0951 1176.16 102.15 1186.76 103.63C1186.76 103.63 1158.47 87.8201 1157.34 72.1801Z" fill="white"/>
<path d="M1234.82 51.4201C1222.1 42.5401 1205.17 41.6201 1205.17 41.6201C1205.17 41.6201 1231.45 58.3901 1229.56 73.9501C1227.67 89.5101 1198.68 103.95 1198.68 103.95C1209.34 102.995 1219.6 99.4448 1228.57 93.6101C1243.42 83.8701 1247.53 60.2901 1234.82 51.4201Z" fill="white"/>
<defs>
<radialGradient id="paint0_radial_586_356" cx="0" cy="0" r="1" gradientUnits="userSpaceOnUse" gradientTransform="translate(1347.47 690.59) scale(586.23 586.23)">
<stop stop-color="#2B97B2"/>
<stop offset="0.08" stop-color="#3392B2"/>
<stop offset="0.3" stop-color="#4389B3"/>
<stop offset="0.55" stop-color="#4D83B3"/>
<stop offset="0.88" stop-color="#5081B3"/>
</radialGradient>
<radialGradient id="paint1_radial_586_356" cx="0" cy="0" r="1" gradientUnits="userSpaceOnUse" gradientTransform="translate(1388.42 659.55) scale(496.49 496.49)">
<stop stop-color="#00C1E2"/>
<stop offset="0.12" stop-color="#00ABE3"/>
<stop offset="0.25" stop-color="#009BE4"/>
<stop offset="0.4" stop-color="#0091E5"/>
<stop offset="0.59" stop-color="#008EE5"/>
</radialGradient>
<radialGradient id="paint2_radial_586_356" cx="0" cy="0" r="1" gradientUnits="userSpaceOnUse" gradientTransform="translate(1387.59 667.85) scale(535.73 535.73)">
<stop stop-color="#00C1E2"/>
<stop offset="0.12" stop-color="#00ABE3"/>
<stop offset="0.26" stop-color="#009BE4"/>
<stop offset="0.42" stop-color="#0091E5"/>
<stop offset="0.62" stop-color="#008EE5"/>
</radialGradient>
<radialGradient id="paint3_radial_586_356" cx="0" cy="0" r="1" gradientUnits="userSpaceOnUse" gradientTransform="translate(1502.46 690.76) scale(566.78 566.78)">
<stop stop-color="#00C1E2"/>
<stop offset="0.19" stop-color="#00ABE3"/>
<stop offset="0.41" stop-color="#009BE4"/>
<stop offset="0.65" stop-color="#0091E5"/>
<stop offset="0.96" stop-color="#008EE5"/>
</radialGradient>
<radialGradient id="paint4_radial_586_356" cx="0" cy="0" r="1" gradientUnits="userSpaceOnUse" gradientTransform="translate(1054.54 779.52) scale(1023.47 1023.47)">
<stop offset="0.12" stop-color="#53769A"/>
<stop offset="0.31" stop-color="#4B6F93"/>
<stop offset="0.88" stop-color="#385D80"/>
</radialGradient>
<radialGradient id="paint5_radial_586_356" cx="0" cy="0" r="1" gradientUnits="userSpaceOnUse" gradientTransform="translate(1194.68 69.5701) scale(147.58 147.58)">
<stop stop-color="white"/>
<stop offset="0.09" stop-color="white" stop-opacity="0.99"/>
<stop offset="0.12" stop-color="white" stop-opacity="0.97"/>
<stop offset="0.14" stop-color="white" stop-opacity="0.92"/>
<stop offset="0.16" stop-color="white" stop-opacity="0.85"/>
<stop offset="0.17" stop-color="white" stop-opacity="0.77"/>
<stop offset="0.19" stop-color="white" stop-opacity="0.66"/>
<stop offset="0.2" stop-color="white" stop-opacity="0.53"/>
<stop offset="0.21" stop-color="white" stop-opacity="0.39"/>
<stop offset="0.22" stop-color="white" stop-opacity="0.22"/>
<stop offset="0.23" stop-color="white" stop-opacity="0"/>
</radialGradient>
</defs>
</svg>
