<svg width="1728" height="1112" viewBox="0 0 1728 1112" fill="none" xmlns="http://www.w3.org/2000/svg">
<g opacity="0.5" clip-path="url(#clip0_0_1)">
<path d="M1728 51H0V1112H1728V51Z" fill="url(#paint0_radial_0_1)"/>
<path d="M1300.09 51C1300.09 51 1278.74 65.9123 1292.99 107.441C1292.99 107.441 1254.73 103.102 1224.48 134.823C1194.22 166.543 1204.94 219.01 1204.94 219.01C1204.94 219.01 1185.35 233.229 1190.72 258.351C1190.72 258.351 1155.1 282.451 1189.77 326.131C1189.77 326.131 1172.38 342.283 1183.36 369.592C1183.36 369.592 1154.89 377.285 1165.87 418.084C1165.87 418.084 1144.83 439.231 1134.14 444.7C1134.14 444.7 1280.73 402.37 1459.54 202.202C1457.91 206.336 1457.14 210.894 1457.27 215.481C1457.41 220.068 1458.45 224.546 1460.31 228.526C1460.31 228.526 1435.79 238.808 1435.4 265.716C1435.4 265.716 1402.48 269.726 1405.72 326.568C1405.72 326.568 1375.41 378.816 1292.67 441.2C1292.67 441.2 1486.61 339.512 1702.62 51.0729L1300.09 51Z" fill="#D9ECD7"/>
<path d="M1292.73 441.127C1375.47 378.743 1405.78 326.495 1405.78 326.495C1402.48 269.654 1435.46 265.643 1435.46 265.643C1435.85 238.735 1460.37 228.453 1460.37 228.453C1458.51 224.473 1457.46 219.996 1457.33 215.408C1457.2 210.821 1457.97 206.263 1459.6 202.129C1459.6 202.129 1457.28 217.953 1470.37 231.479C1470.37 231.479 1443.66 230.823 1442.05 269.836C1442.05 269.836 1402.48 276.545 1414.74 325.037C1414.74 325.037 1371.58 394.057 1292.79 441.127H1292.73Z" fill="white"/>
<g opacity="0.82">
<path d="M951.988 841.159C951.988 841.159 949.324 838.738 947.352 840.129C945.381 841.52 948.569 846.647 951.988 848.502C955.408 850.357 955.869 847.214 954.925 845.591C953.981 843.967 951.988 841.159 951.988 841.159Z" fill="#5082B4"/>
<path d="M951.988 848.476C950.661 847.713 949.465 846.646 948.464 845.333C948.464 845.333 947.017 843.092 947.709 842.216C948.401 841.34 951.191 842.937 952.576 845.333C953.96 847.729 953.562 848.167 953.1 848.476C952.742 848.645 952.346 848.645 951.988 848.476V848.476Z" fill="#619AC9"/>
<path d="M794.617 787.391C794.617 787.391 796.715 784.274 798.938 785.073C801.162 785.871 798.938 791.745 795.981 794.502C793.023 797.259 791.953 794.347 792.582 792.492C793.212 790.637 794.617 787.391 794.617 787.391Z" fill="#5082B4"/>
<path d="M795.981 794.502C797.136 793.393 798.105 792.019 798.834 790.457C798.834 790.457 799.819 787.881 798.98 787.211C798.141 786.541 795.729 788.886 794.785 791.616C793.841 794.347 794.323 794.656 794.785 794.837C795.204 794.923 795.633 794.802 795.981 794.502V794.502Z" fill="#619AC9"/>
<path d="M854.654 727.646C854.654 727.646 855.724 726.075 856.752 726.461C857.78 726.847 856.752 729.836 855.262 731.227C853.773 732.618 853.165 731.227 853.563 730.222C853.962 729.218 854.654 727.646 854.654 727.646Z" fill="#619AC9"/>
<path d="M881.379 736.612C881.379 736.612 881.673 737.488 882.218 737.488C882.763 737.488 882.617 735.968 882.092 735.092C881.568 734.216 881.148 734.783 881.19 735.246C881.232 735.71 881.379 736.612 881.379 736.612Z" fill="#619AC9"/>
<path d="M855.975 724.245C855.975 724.245 856.248 723.859 856.521 723.962C856.794 724.065 856.521 724.812 856.143 725.173C855.766 725.534 855.64 725.173 855.703 724.915L855.975 724.245Z" fill="#619AC9"/>
<path d="M855.325 731.227C855.915 730.676 856.407 729.984 856.773 729.192C856.773 729.192 857.255 727.904 856.773 727.569C856.29 727.234 855.136 728.393 854.675 729.784C854.213 731.176 854.444 731.305 854.675 731.382C854.785 731.423 854.902 731.43 855.016 731.403C855.129 731.376 855.235 731.316 855.325 731.227V731.227Z" fill="#71AFDB"/>
<path d="M950.667 876.61C950.667 876.61 952.66 881.479 954.862 881.479C957.065 881.479 958.093 861.023 954.862 857.184C951.632 853.345 941.584 850.099 942.066 858.343C942.549 866.588 948.59 870.452 950.667 876.61Z" fill="#619AC9"/>
<path d="M956.666 863.032C956.297 861.985 955.684 861.096 954.903 860.477C954.123 859.858 953.211 859.537 952.282 859.554C951.829 859.547 951.38 859.667 950.97 859.905C950.56 860.142 950.2 860.492 949.916 860.927C949.633 861.362 949.434 861.87 949.335 862.414C949.236 862.957 949.24 863.521 949.345 864.063C949.345 864.063 945.8 855.458 942.57 861.28L942.842 862.285C942.842 862.285 944.751 854.737 949.786 865.712C950.844 868.28 951.728 870.952 952.429 873.698C952.702 879.057 950.667 876.61 950.667 876.61C950.667 876.61 952.66 881.479 954.862 881.479C956.666 881.479 957.568 870.426 956.666 863.032Z" fill="#5082B4"/>
<path d="M945.716 868.108C945.619 867.302 945.661 866.48 945.838 865.694C946.015 864.909 946.323 864.178 946.744 863.548L947.184 864.166C946.373 865.448 945.977 867.055 946.073 868.674L945.716 868.108Z" fill="#5082B4"/>
<path d="M772.549 814.7C772.549 814.7 774.647 815.525 777.563 810.269C780.478 805.013 789.939 794.579 787.485 789.349C785.031 784.119 776.409 786.103 773.85 791.694C771.29 797.284 770.263 813.077 772.549 814.7Z" fill="#5082B4"/>
<path d="M771.332 805.812C771.144 810.192 771.5 813.953 772.549 814.7C772.549 814.7 774.647 815.525 777.563 810.269C780.479 805.013 789.939 794.579 787.485 789.349C787.485 789.349 782.199 786.773 778.737 797.078C775.276 807.384 774.71 808.981 773.451 809.805C771.626 810.99 771.332 805.812 771.332 805.812Z" fill="#619AC9"/>
<path d="M781.842 795.635C781.842 795.635 784.926 797.027 784.821 799.294L784.191 800.299C784.191 800.299 784.359 797.722 781.527 796.795C781.527 796.795 781.087 795.919 781.842 795.635Z" fill="#5082B4"/>
<path d="M783.436 801.484C783.436 801.484 782.87 798.727 780.898 798.418C780.898 798.418 780.143 798.418 780.479 799.397C781.074 799.528 781.622 799.879 782.05 800.404C782.477 800.929 782.764 801.603 782.87 802.334L783.436 801.484Z" fill="#5082B4"/>
<path d="M871.75 712.703C871.75 712.703 857.066 788.499 836.299 831.575C815.531 874.652 728.014 1051.8 594.536 1170.93H1059.01C1059.01 1170.93 900.657 923.318 880.162 804.678L875.967 752.353C875.967 752.353 877.33 746.943 872.652 740.734C872.652 740.734 872.107 717.882 873.869 709.354C873.1 710.408 872.392 711.527 871.75 712.703V712.703Z" fill="#38BEE4"/>
<path d="M872.569 740.682C872.569 740.682 841.564 871.328 808.001 1153.95L806.323 1170.88H1059.01C1059.01 1170.88 904.957 923.963 884.463 805.322L878.547 771.315L876.785 745.242L872.569 740.682Z" fill="#009DB4"/>
<path d="M864.597 786.206C867.974 766.781 870.177 757.222 870.177 757.222L878.002 763.071L878.295 767.553L904.601 1170.93H830.656C831.761 1137.06 833.159 1105.34 834.851 1075.79L877.96 1081.97L876.659 994.528L841.291 981.234C844.123 946.583 847.165 916.079 850.186 889.594L872.673 896.293L873.156 856.617L855.178 849.12C857.171 834.023 859.101 820.78 860.863 809.496L873.177 815.009L873.68 791.823L864.597 786.206Z" fill="#3CBFD3"/>
<path opacity="0.3" d="M871.247 783.501L866.821 781.182C866.821 781.182 838.019 966.678 839.844 1170.93H1016.05L871.247 783.501Z" fill="#1D597F"/>
<path d="M876.722 766.446L868.541 776.055C868.541 776.055 839.718 969.976 850.039 1170.93H1020.6L876.722 766.446Z" fill="#6BA2CF"/>
<path d="M932.144 1170.93H1187.42C912.467 932.181 887.441 773.891 887.441 773.891L876.953 766.471C876.953 766.471 871.436 990.587 932.144 1170.93Z" fill="#5082B4"/>
<path d="M932.144 1170.93H1187.42C912.467 932.181 887.441 773.891 887.441 773.891L876.953 766.471C876.953 766.471 871.436 990.587 932.144 1170.93Z" fill="url(#paint1_radial_0_1)"/>
<path d="M878.547 771.366C878.547 771.366 884.127 1029.57 970.511 1170.93H1020.6C1020.6 1170.93 913.139 1054.99 880.351 772.423L878.547 771.366Z" fill="url(#paint2_radial_0_1)"/>
<path d="M881.61 773.041C881.61 773.041 921.005 1053.14 1032.69 1170.93H1097.36C1097.36 1170.93 947.226 1079.37 883.393 774.175L881.61 773.041Z" fill="url(#paint3_radial_0_1)"/>
<path d="M884.714 774.638L886.162 775.282C886.162 775.282 926.249 972.784 1178.42 1170.93H1114.52C1114.52 1170.93 965.057 1082.25 884.714 774.638Z" fill="url(#paint4_radial_0_1)"/>
<path d="M918.613 1170.93H892.874C854.948 1007.31 873.156 774.355 873.156 774.355L875.086 772.5C875.086 772.5 868.793 989.582 918.613 1170.93Z" fill="#89D7FF"/>
<path d="M887.064 1170.93H861.325C841.69 1002.57 869.715 777.369 869.715 777.369L871.645 775.514C871.645 775.514 849.787 989.582 887.064 1170.93Z" fill="#89D7FF"/>
<path opacity="0.3" d="M407.063 1155.99C504.355 1125.9 706.807 1041.6 824.719 836.264C824.719 836.264 832.691 823.537 842.739 824.722C852.787 825.907 851.78 841.803 850.186 849.558C850.186 849.558 820.965 1012.46 761.977 1170.93H407.063" fill="#007383"/>
<path d="M823.356 820.394C823.356 820.394 831.747 807.074 842.236 808.311C852.724 809.548 851.717 826.191 850.039 834.332C850.039 834.332 813.706 1009.93 743.349 1170.93" fill="#3CA4B0"/>
<path d="M418.915 1144.16C481.792 1121.75 542.619 1091.44 600.431 1053.71C631.558 1033.27 661.489 1010.19 690.004 984.635C702.031 973.815 713.862 962.384 725.497 950.344C738.964 936.381 752.117 921.592 764.787 905.903C771.248 897.899 777.591 889.654 783.814 881.17C790.89 871.534 797.757 861.598 804.413 851.362C807.868 846.054 811.28 840.644 814.65 835.131C814.65 835.131 828.537 818.642 839.571 824.825C850.605 831.009 846.116 852.134 846.116 852.134C844.878 857.493 843.368 863.986 841.564 871.431C838.816 882.767 835.418 896.396 831.348 911.777C828.642 922.082 825.621 933.263 822.307 945.088C815.804 968.275 808.189 993.884 799.463 1021.01C792.981 1041.11 785.891 1062 778.192 1083.26C767.703 1112.24 756.082 1141.84 743.349 1170.98" fill="#007CC1"/>
<path d="M418.915 1144.16C481.792 1121.75 542.619 1091.44 600.431 1053.71C631.558 1033.27 661.489 1010.19 690.004 984.635C702.031 973.815 713.862 962.384 725.497 950.344C738.964 936.38 752.117 921.592 764.787 905.902C771.248 897.899 777.591 889.654 783.814 881.17C790.89 871.534 797.757 861.598 804.413 851.362C807.875 846.054 810.371 842.138 813.706 836.651C813.706 836.651 828.39 820.291 839.34 826.345C850.291 832.4 845.172 856.05 845.172 856.05C843.934 861.435 843.368 863.779 841.564 871.302C838.816 882.638 835.418 896.267 831.348 911.648C828.642 921.953 825.621 933.134 822.307 944.96C815.804 968.147 808.189 993.755 799.463 1020.88C792.981 1040.98 785.891 1061.87 778.192 1083.13C767.703 1112.11 756.082 1141.71 743.349 1170.85" fill="#008FE6"/>
<path d="M418.915 1144.16C481.792 1121.75 542.619 1091.44 600.431 1053.71C631.558 1033.27 661.489 1010.19 690.004 984.635C702.031 973.815 713.862 962.384 725.497 950.344C738.964 936.381 752.117 921.592 764.787 905.903C771.248 897.899 777.591 889.654 783.814 881.17C790.89 871.534 797.757 861.598 804.413 851.362C804.413 851.362 823.838 832.915 833.32 839.407C842.802 845.9 841.564 871.38 841.564 871.38C838.816 882.715 835.418 896.344 831.348 911.725C828.642 922.03 825.621 933.212 822.307 945.037C815.804 968.224 808.189 993.833 799.463 1020.96C792.981 1041.06 785.891 1061.95 778.192 1083.21C767.703 1112.19 756.082 1141.79 743.349 1170.93" fill="#3CA4B0"/>
<path d="M418.915 1144.16C481.792 1121.75 542.619 1091.44 600.431 1053.71C631.558 1033.27 661.489 1010.19 690.004 984.635C702.031 973.815 713.862 962.384 725.497 950.344C738.964 936.38 752.117 921.592 764.787 905.902C771.248 897.899 777.591 889.654 783.814 881.17C783.814 881.17 809.469 857.983 821.846 865.325C834.222 872.668 834.642 899.384 831.348 911.699C828.558 922.236 825.621 933.186 822.307 945.011C815.804 968.198 808.189 993.807 799.463 1020.94C792.981 1041.03 785.891 1061.93 778.192 1083.18C767.703 1112.16 756.082 1141.77 743.349 1170.9" fill="#007CC1"/>
<path d="M418.915 1144.16C481.792 1121.75 542.619 1091.44 600.431 1053.71C631.558 1033.27 661.489 1010.19 690.004 984.635C702.031 973.815 713.862 962.384 725.497 950.344C738.964 936.38 752.117 921.592 764.787 905.902C771.248 897.89 774.374 894.026 780.583 885.549C780.583 885.549 809.007 861.847 821.384 869.267C833.761 876.687 831.621 910.72 828.306 923.061C825.517 933.546 825.621 933.212 822.307 945.037C815.804 968.224 808.189 993.833 799.463 1020.96C792.981 1041.06 785.891 1061.95 778.192 1083.21C767.703 1112.19 756.082 1141.79 743.349 1170.93" fill="#008FE6"/>
<path d="M418.915 1144.16C481.792 1121.75 542.619 1091.44 600.431 1053.71C631.558 1033.27 661.489 1010.19 690.004 984.635C702.031 973.815 713.862 962.384 725.497 950.344C738.964 936.38 752.117 921.592 764.787 905.902C764.787 905.902 793.589 882.715 812.028 891.681C830.467 900.647 822.307 945.037 822.307 945.037C815.804 968.224 808.189 993.833 799.463 1020.96C792.981 1041.06 785.891 1061.95 778.192 1083.21C767.703 1112.19 756.082 1141.79 743.349 1170.93" fill="#3CA4B0"/>
<path d="M418.915 1144.16C481.792 1121.75 542.619 1091.44 600.431 1053.71C631.558 1033.27 661.489 1010.19 690.004 984.635C702.031 973.815 713.862 962.384 725.497 950.344C725.497 950.344 770.892 919.222 795.876 935.814C820.86 952.405 799.463 1020.83 799.463 1020.83C792.981 1040.93 785.891 1061.82 778.192 1083.08C767.703 1112.06 756.082 1141.66 743.349 1170.8" fill="#007CC1"/>
<path d="M418.915 1144.16C481.792 1121.75 542.619 1091.44 600.431 1053.71C631.558 1033.27 661.489 1010.19 690.004 984.635C702.024 973.815 709.135 967.58 720.756 955.548C720.756 955.548 768.228 923.55 793.212 940.09C818.195 956.63 796.253 1030.8 796.253 1030.8C789.771 1050.92 785.891 1061.9 778.192 1083.15C767.703 1112.14 756.082 1141.74 743.349 1170.88" fill="#008FE6"/>
<path d="M418.915 1144.16C481.792 1121.75 542.619 1091.44 600.431 1053.71C631.558 1033.27 661.489 1010.19 690.004 984.635C690.004 984.635 750.418 958.202 775.423 981.775C800.428 1005.35 778.192 1083.33 778.192 1083.33C767.703 1112.32 756.082 1141.92 743.349 1171.06" fill="#3CA4B0"/>
<path d="M418.915 1144.16C481.792 1121.75 542.619 1091.44 600.431 1053.71C600.431 1053.71 675.949 1050.33 697.849 1075.76C719.749 1101.19 720.609 1170.93 720.609 1170.93" fill="#007CC1"/>
<path d="M418.915 1144.16C468.925 1126.13 518.116 1105.03 585.915 1063.06C585.915 1063.06 664.474 1060.22 686.438 1085.65C708.401 1111.08 712.974 1170.93 712.974 1170.93H407.063V1148.36L419.02 1144.16" fill="#008FE6"/>
<path opacity="0.2" d="M407.063 1148.36C515.641 1111.16 708.757 1020.16 823.461 820.394C825.081 817.967 826.925 815.78 828.957 813.876C828.957 813.876 720.61 1043.01 421.621 1170.93H407.063V1148.36Z" fill="white"/>
<path opacity="0.25" d="M743.349 1170.93C813.706 1009.93 850.039 834.332 850.039 834.332C851.109 829.179 851.927 820.523 849.661 814.623C849.661 814.623 796.924 1053.58 647.588 1170.93H743.349Z" fill="#006469"/>
<path d="M868.289 728.883C867.741 727.726 867.392 726.442 867.266 725.112C867.14 723.782 867.238 722.435 867.555 721.154C867.83 719.845 868.354 718.635 869.083 717.623C869.812 716.611 870.726 715.826 871.75 715.331C870.124 716.416 868.901 718.23 868.338 720.395C867.775 722.56 867.916 724.909 868.73 726.95L868.289 728.883Z" fill="#538FB1"/>
<path d="M872.401 729.862C873.974 729.862 876.722 729.192 876.722 725.353C876.719 724.659 876.598 723.973 876.366 723.34C876.134 722.706 875.797 722.14 875.376 721.676C874.955 721.212 874.46 720.862 873.922 720.648C873.385 720.434 872.816 720.36 872.254 720.432C870.435 720.403 868.641 720.956 867.049 722.035C865.457 723.115 864.12 724.684 863.171 726.59C861.618 729.681 859.709 738.57 864.87 743.542L865.185 742.254C863.592 740.296 862.614 737.71 862.422 734.953C862.23 732.196 862.837 729.444 864.136 727.182C864.968 725.443 866.158 724.004 867.587 723.009C869.016 722.014 870.632 721.499 872.275 721.514C872.275 721.514 875.757 721.514 875.757 725.379C875.757 727.955 873.659 728.471 872.401 728.522V729.862Z" fill="#4C80A2"/>
<path d="M876.26 746.943C877.472 746.635 878.556 745.813 879.323 744.621C880.09 743.429 880.491 741.943 880.456 740.425C880.309 738.716 879.805 737.082 878.993 735.683C878.18 734.283 877.087 733.166 875.82 732.438C875.82 732.438 862.352 723.679 850.018 743.387C838.543 761.731 846.641 776.88 853.836 784.377L854.675 781.517C849.85 775.927 841.585 762.555 851.864 744.598C851.864 744.598 861.576 726.925 875.212 734.293C876.204 734.847 877.062 735.708 877.702 736.792C878.342 737.876 878.741 739.146 878.862 740.476C878.862 743.233 877.33 744.573 875.316 745.165L876.26 746.943Z" fill="#447195"/>
<path d="M820.44 769.022C820.44 769.022 823.104 757.248 829.166 759.309C835.229 761.37 827.887 770.748 827.887 770.748L827.027 770.542C827.027 770.542 834.516 761.86 829.125 759.721C823.733 757.583 821.489 769.099 821.489 769.099L820.44 769.022Z" fill="#FF6DDE"/>
<path d="M818.216 827.247C818.216 827.247 818.615 820.291 816.391 820.291C814.168 820.291 811.525 823.177 810.916 834.281H811.923C811.923 834.281 812.154 821.038 816.265 820.987C816.265 820.987 817.734 820.549 817.461 827.943" fill="#FF6DDE"/>
<path d="M870.072 746.943C870.072 746.943 869.212 742.898 867.974 745.268C866.737 747.638 868.751 753.719 868.751 753.719L869.065 753.1C869.065 753.1 867.219 747.355 868.226 745.371C869.233 743.388 869.778 747.638 869.778 747.638L870.072 746.943Z" fill="#FF6DDE"/>
<path d="M896.419 763.199C896.419 763.199 895.664 757.609 893.399 758.201C891.133 758.794 896.419 763.199 896.419 763.199Z" fill="#FF6DDE"/>
<path d="M891.951 783.733C891.951 783.733 890.336 779.405 892.539 779.173C894.741 778.941 896.42 783.733 896.42 783.733L895.56 783.553C895.56 783.553 894.406 779.662 892.665 779.585C890.924 779.508 892.35 783.733 892.35 783.733H891.951Z" fill="#FF6DDE"/>
<path d="M891.637 790.534C893.622 788.742 895.25 786.419 896.399 783.742C897.547 781.064 898.185 778.101 898.265 775.076C898.265 754.723 884.609 748.36 870.324 748.36C856.038 748.36 817.272 754.878 804.539 796.589C797.931 818.256 805.252 830.081 813.79 836.676L819.055 827.968C813.056 822.558 807.371 813.052 811.818 797.49C819.874 769.151 845.613 753.693 870.345 753.693C895.077 753.693 895.098 771.727 895.098 775.051C894.977 777.17 894.478 779.23 893.637 781.087C892.796 782.943 891.633 784.55 890.231 785.794L891.637 790.534Z" fill="#385D80"/>
<path d="M804.455 796.563C817.188 754.852 855.975 748.411 870.24 748.411C884.504 748.411 898.182 754.775 898.182 775.128C898.182 775.128 898.79 761.473 890.777 753.976C882.763 746.479 866.443 744.908 851.318 749.88C836.194 754.852 824.74 760.185 812.909 777.369C812.909 777.369 805.861 788.757 804.728 794.914L804.455 796.563Z" fill="#5895BF"/>
<path d="M745.384 875.115C745.384 875.115 746.39 845.204 757.76 845.204C765.123 845.204 758.222 875.94 758.222 875.94H757.383C757.383 875.94 764.2 847.239 757.676 846.853C748.027 846.286 746.39 875.012 746.39 875.012L745.384 875.115Z" fill="#FF6DDE"/>
<path d="M790.946 823.125C790.946 823.125 794.072 800.273 799.337 801.896C803.91 803.313 799.631 825.933 799.631 825.933L797.533 829.051C797.533 829.051 802.567 803.674 799.4 802.643C794.869 801.123 791.764 823.589 791.764 823.589L790.946 823.125Z" fill="#FF6DDE"/>
<path d="M858.702 787.056C858.702 787.056 861.031 775.128 863.024 775.437C865.017 775.746 859.982 799.088 859.982 799.088L859.206 799.242C859.206 799.242 863.401 777.678 862.877 776.571C862.352 775.463 859.793 786.876 859.793 786.876L858.702 787.056Z" fill="#FF6DDE"/>
<path d="M931.682 840.438C931.682 840.438 929.396 831.524 932.983 831.833C936.57 832.142 941.374 842.885 941.374 842.885L940.493 843.092C940.493 843.092 935.185 832.529 933.256 832.477C931.326 832.426 931.158 835.491 932.249 839.974C933.339 844.457 931.682 840.438 931.682 840.438Z" fill="#FF6DDE"/>
<path d="M927.424 791.616C927.424 791.616 923.627 781.955 917.585 781.801C911.544 781.646 919.788 798.676 919.788 798.676C919.788 798.676 913.495 782.651 917.585 782.728C921.676 782.805 926.102 790.972 926.102 790.972L927.424 793.059V791.616Z" fill="#FF6DDE"/>
<path d="M921.215 859.58C946.828 850.82 952.953 818.359 940.094 802.643C927.235 786.927 892.77 784.068 861.346 789.195C829.922 794.322 784.884 816.684 755.767 857.158C726.651 897.632 759.229 912.704 759.229 912.704L767.368 902.708C756.271 898.792 748.488 887.611 764.578 865.377C781.485 842.19 811.651 810.218 853.291 800.582C894.93 790.947 923.585 799.603 923.585 799.603C940.996 806.25 944.562 822.378 937.724 834.925C932.836 843.967 922.473 849.3 917.082 851.568L921.215 859.58Z" fill="#2D516E"/>
<path d="M743.768 884.674C744.482 877.228 747.838 868.108 755.746 857.158C784.863 816.684 829.901 794.322 861.325 789.195C892.748 784.068 927.214 786.824 940.073 802.643C944.029 807.586 946.34 814.164 946.555 821.09C946.576 816.145 945.544 811.28 943.56 806.978C941.577 802.675 938.711 799.085 935.248 796.563C923.27 787.494 904.601 780.487 861.492 786.696C829.209 791.359 790.946 810.656 757.655 852.057C757.655 852.057 743.768 870.633 743.768 884.674V884.674Z" fill="#4F81AB"/>
<path d="M755.872 882.844C755.872 882.844 753.774 898.457 769.381 899.977L767.284 902.708C767.284 902.708 752.327 898.637 755.872 882.844Z" fill="#4F81AB"/>
<path d="M940.828 825.031C940.828 825.031 940.828 842.061 917.061 851.568L915.928 849.352C915.928 849.352 936.129 844.199 940.828 825.031Z" fill="#4F81AB"/>
<path d="M1120.04 941.636C1120.04 941.636 1171.12 1023.28 1067.72 1170.93H1023.48L1120.04 941.636Z" fill="#2D516E"/>
<path d="M1084.92 995.945C1084.92 995.945 1083.83 927.673 1020.6 913.863C991.698 907.551 957.002 919.222 957.002 919.222L949.576 907.912L985.783 897.607L1097.36 924.529L1084.92 995.945Z" fill="#2D516E"/>
<path d="M855.409 1170.93C1057.67 1127.7 1093.4 1001.85 1085.74 971.187C1068.26 901.239 1000.24 901.883 955.68 917.084L947.457 904.434C989.537 891.784 1076.84 873.518 1114.58 931.795C1173.32 1022.38 1053.75 1170.88 1053.75 1170.88L855.409 1170.93Z" fill="url(#paint5_radial_0_1)"/>
<path d="M1054.19 1170.93C1054.19 1170.93 1182.93 1006.04 1107.01 921.927C1107.01 921.927 1185.02 990.999 1046.01 1170.93H1054.19Z" fill="#6FA9D9"/>
<path d="M868.016 694.798C869.118 696.219 870.538 697.207 872.097 697.636C873.656 698.066 875.284 697.918 876.775 697.211C878.265 696.504 879.551 695.27 880.471 693.665C881.39 692.06 881.901 690.157 881.939 688.195C881.977 686.233 881.541 684.302 880.685 682.645C879.829 680.988 878.592 679.68 877.131 678.886C875.67 678.093 874.05 677.849 872.476 678.187C870.902 678.524 869.445 679.428 868.289 680.783C867.52 681.679 866.903 682.754 866.473 683.945C866.042 685.135 865.808 686.419 865.783 687.721C865.757 689.023 865.942 690.318 866.325 691.533C866.708 692.747 867.283 693.857 868.016 694.798V694.798Z" fill="white"/>
<path d="M854.15 710.977C857.86 715.799 862.652 719.158 867.918 720.631C873.184 722.104 878.688 721.622 883.731 719.248C888.774 716.875 893.13 712.715 896.246 707.297C899.362 701.879 901.098 695.446 901.233 688.815C901.369 682.184 899.898 675.653 897.008 670.049C894.117 664.446 889.937 660.023 884.997 657.341C880.057 654.66 874.58 653.84 869.26 654.986C863.94 656.132 859.017 659.192 855.115 663.779C849.912 669.895 846.891 678.291 846.71 687.134C846.529 695.976 849.204 704.548 854.15 710.977V710.977Z" fill="url(#paint6_radial_0_1)"/>
<path d="M859.269 689.156C858.828 681.659 869.401 674.239 869.401 674.239C865.278 674.368 861.244 675.739 857.654 678.232C852.514 682.174 853.668 693.69 859.269 698.585C862.661 701.594 866.6 703.54 870.743 704.253C870.743 704.253 859.709 696.73 859.269 689.156Z" fill="white"/>
<path d="M889.539 679.237C886.046 676.543 882.072 674.933 877.96 674.548C877.96 674.548 888.217 682.586 887.483 690.006C886.749 697.426 875.421 704.408 875.421 704.408C879.588 703.946 883.6 702.239 887.106 699.435C892.895 694.824 894.511 683.514 889.539 679.237Z" fill="white"/>
</g>
<path d="M1134.05 444.773C1144.74 439.304 1165.78 418.157 1165.78 418.157C1154.8 377.358 1183.27 369.665 1183.27 369.665C1172.29 342.356 1189.68 326.204 1189.68 326.204C1154.89 282.451 1190.63 258.424 1190.63 258.424C1185.26 233.302 1204.85 219.083 1204.85 219.083C1204.85 219.083 1194.23 166.543 1224.48 134.859C1254.73 103.175 1292.99 107.477 1292.99 107.477C1278.74 65.9123 1300.09 51 1300.09 51H1335.71C1335.71 51 1290.86 57.5629 1306.23 114.222C1306.23 114.222 1204.53 123.812 1220.82 215.874C1220.82 215.874 1189.56 219.994 1196.57 259.882C1196.57 259.882 1159.73 275.159 1194.7 327.735C1194.7 327.735 1175.91 335.282 1189.5 371.123C1189.5 371.123 1157.89 372.436 1170.8 418.522C1170.8 418.522 1148.89 438.393 1134.17 444.81L1134.05 444.773Z" fill="white"/>
<path d="M1616.09 145.447C1616.09 145.447 1524.45 230.254 1631.26 280.351C1631.26 280.351 1600.12 306.603 1626.84 351.413C1626.84 351.413 1572.54 347.074 1553.9 401.728C1535.25 456.382 1596.65 493.645 1596.65 493.645C1596.65 493.645 1563.72 522.084 1585.1 571.269C1585.1 571.269 1561.97 577.832 1558.38 594.239C1558.38 594.239 1503.19 563.649 1454.27 609.626C1405.34 655.602 1421.37 758.312 1421.37 758.312C1421.37 758.312 1361.82 726.627 1290.57 772.568C1219.32 818.508 1193.64 954.104 1193.64 954.104C1193.64 954.104 970.991 942.619 989.041 1206.41H1815.47V145.447H1616.09Z" fill="#B1B7C2"/>
<path d="M989.041 1206.45C971.229 942.656 1193.64 954.141 1193.64 954.141C1193.64 954.141 1219.32 818.544 1290.57 772.568C1361.82 726.591 1421.4 758.275 1421.4 758.275C1421.4 758.275 1405.34 655.53 1454.3 609.589C1503.25 563.649 1558.41 594.203 1558.41 594.203C1561.97 577.796 1585.13 571.233 1585.13 571.233C1563.7 522.084 1596.65 493.645 1596.65 493.645C1596.65 493.645 1535.23 456.528 1553.9 401.837C1572.57 347.147 1626.84 351.522 1626.84 351.522C1600.12 306.712 1631.26 280.461 1631.26 280.461C1524.39 230.254 1616.09 145.557 1616.09 145.557H1686.18C1686.18 145.557 1527.03 189.309 1653.91 280.242C1653.91 280.242 1600.12 304.926 1640.44 356.408C1640.44 356.408 1582.07 353.965 1565.54 402.53C1549 451.096 1615.53 494.192 1615.53 494.192C1615.53 494.192 1563.46 508.193 1595.82 573.493C1595.82 573.493 1570.29 574.15 1566.66 599.016L1582.16 609.152C1582.16 609.152 1515.63 569.045 1461.1 616.225C1406.56 663.405 1432.45 766.442 1432.45 766.442C1432.45 766.442 1370.11 731.112 1301.23 786.97C1232.36 842.827 1218.11 983.856 1218.11 983.856C1218.11 983.856 1023.39 994.977 1039 1206.45H989.041Z" fill="#D2D2D2"/>
<path d="M1079.1 51C1079.1 51 1036.97 75.2098 1039.97 105.435C1042.97 135.661 1090.44 125.088 1090.44 125.088C1090.44 125.088 1055.44 149.881 1115.08 161.147C1115.08 161.147 1104.09 169.168 1116.56 177.554C1116.56 177.554 1051.01 205.264 1091.66 219.447C1091.66 219.447 1060.22 246.428 1035.61 256.674C1035.61 256.674 1142.75 239.938 1284.21 51L1079.1 51Z" fill="#D9ECD7"/>
<path d="M1035.58 256.674C1060.19 246.428 1091.63 219.447 1091.63 219.447C1050.93 205.264 1116.53 177.554 1116.53 177.554C1104.07 169.168 1115.05 161.147 1115.05 161.147C1055.41 149.881 1090.41 125.088 1090.41 125.088C1090.41 125.088 1042.91 135.698 1039.94 105.435C1036.97 75.1733 1079.1 51 1079.1 51H1115.76C1115.76 51 1070.01 70.9074 1059.36 96.0287C1048.7 121.15 1101.39 122.353 1101.39 122.353C1101.39 122.353 1071.71 145.542 1120.33 161.84C1120.33 161.84 1108.13 167.017 1120.33 177.19C1120.33 177.19 1064.76 204.025 1096.35 219.01C1096.35 219.01 1060.72 246.173 1035.64 256.674H1035.58Z" fill="white"/>
<path d="M604.541 51C604.541 51 615.911 160.783 718.747 196.842C718.747 196.842 675.345 176.351 653.97 142.771C653.97 142.771 677.898 138.177 657.74 126.911C657.74 126.911 667.507 128.734 667.507 114.514C667.507 100.295 651.179 94.1328 651.179 94.1328C651.179 94.1328 672.851 91.0336 668.992 51.0365L604.541 51Z" fill="#D9ECD7"/>
<path d="M655.217 51H668.962C672.851 91.1065 651.15 94.0963 651.15 94.0963C651.15 94.0963 667.478 100.258 667.478 114.478C667.478 128.697 657.711 126.874 657.711 126.874C677.868 138.141 653.94 142.735 653.94 142.735C675.345 176.315 718.747 196.842 718.747 196.842C718.747 196.842 667.953 177.299 649.843 141.167C649.843 141.167 673.86 138.906 652.812 127.202C652.812 127.202 665.459 125.27 662.639 114.186C659.818 103.102 641.858 93.5858 641.858 93.5858C641.858 93.5858 655.543 82.4654 655.781 55.193L655.217 51Z" fill="white"/>
<path d="M589.282 51C589.282 51 616.891 111.67 518.982 134.859C518.982 134.859 592.814 141.386 555.943 182.95C555.943 182.95 606.233 178.539 603.591 218.973C603.591 218.973 618.613 208.509 625.53 229C625.53 229 681.935 253.283 721.449 256.273C721.449 256.273 480.686 271.586 356 51.1823L589.282 51Z" fill="#D9ECD7"/>
<path d="M544.81 51H589.341C589.341 51 616.95 111.67 519.042 134.859C519.042 134.859 592.874 141.386 556.002 182.95C556.002 182.95 606.292 178.539 603.65 218.973C603.65 218.973 618.672 208.509 625.589 229C625.589 229 681.995 253.283 721.508 256.272C721.508 256.272 667.715 253.83 620.275 234.396C620.275 234.396 622.947 212.812 596.525 224.88C596.525 224.88 606.945 183.424 546.413 186.852C546.413 186.852 586.699 144.959 509.215 137.411C509.215 137.411 599.583 107.514 553.063 58.6932L544.81 51Z" fill="white"/>
<path d="M471.611 51C471.611 51 473.422 133.875 420.015 153.819C420.015 153.819 480.072 186.633 445.813 224.187C445.813 224.187 517.893 224.187 537.071 276.581C556.249 328.975 510.353 354.205 481.467 353.695C481.467 353.695 507.295 378.816 484.614 401.786C484.614 401.786 521.931 443.315 480.814 461.363C480.814 461.363 518.487 515.47 563.938 536.727C563.938 536.727 371.239 555.467 120.056 196.805C120.056 196.805 121.303 239.829 80.9578 239.865C80.9578 239.865 110.942 269.69 84.55 293.936C84.55 293.936 116.018 341.517 133.831 353.877C133.831 353.877 -45.0344 321.063 -184 51H471.611Z" fill="#B1B7C2"/>
<path d="M133.771 353.877C115.959 341.517 84.4907 293.936 84.4907 293.936C110.883 269.763 80.8985 239.865 80.8985 239.865C121.243 239.865 119.997 196.805 119.997 196.805C119.997 196.805 112.753 240.558 72.4971 230.458C72.4971 230.458 102.184 270.893 77.9298 286.608C77.9298 286.608 100.433 331.819 133.801 353.877H133.771Z" fill="#D2D2D2"/>
<path d="M419.629 51H471.611C471.611 51 473.422 133.875 420.015 153.819C420.015 153.819 480.072 186.633 445.813 224.187C445.813 224.187 517.893 224.187 537.071 276.581C556.249 328.975 510.353 354.205 481.467 353.695C481.467 353.695 507.295 378.816 484.614 401.786C484.614 401.786 521.931 443.315 480.814 461.363C480.814 461.363 518.487 515.47 563.938 536.727C563.938 536.727 504.564 522.398 474.877 461.8C474.877 461.8 511.303 444.955 477.697 400.729C477.697 400.729 507.206 386.874 469.919 347.606C469.919 347.606 550.519 343.741 530.332 279.68C510.145 215.619 424.527 231.552 424.527 231.552C424.527 231.552 466.238 188.383 407.338 153.527C407.338 153.527 446.941 109.082 424.527 59.6411L419.629 51Z" fill="#D2D2D2"/>
<path d="M1 1673C1 1673 182.703 1601 30.8653 1538.44C30.8653 1538.44 82.3725 1509.97 30.8653 1468.95C30.8653 1468.95 146.259 1384.14 30.8653 1295.5C30.8653 1295.5 218.963 1217.71 30.8653 1066.11C30.8653 1066.11 80.2053 1046.52 93.9208 1005.53C93.9208 1005.53 280.089 1018.08 267.739 863H1V1728V1673Z" fill="#CCCCCC"/>
<path d="M93.8021 1728H142.756C142.756 1728 215.727 1583.12 30.8653 1538.44C30.8653 1538.44 82.3725 1509.97 30.8653 1468.95C30.8653 1468.95 146.259 1384.14 30.8653 1295.5C30.8653 1295.5 218.963 1217.71 30.8653 1066.11C30.8653 1066.11 80.2054 1046.52 93.9208 1005.53C93.9208 1005.53 280.089 1018.08 267.739 863C267.739 863 225.316 1000.6 87.2115 992.364C87.2115 992.364 95.3161 1030.77 12.9937 1067.98C12.9937 1067.98 197.707 1193.78 12.9937 1295.5C12.9937 1295.5 151.365 1360.15 12.9937 1471.8C12.9937 1471.8 81.7491 1491.6 12.9937 1539.28C12.9937 1539.28 168.228 1580.09 100.838 1718.55L93.8021 1728Z" fill="white"/>
</g>
<path d="M141.756 0C141.756 0 214.727 144.88 29.8653 189.557C29.8653 189.557 81.3725 218.034 29.8653 259.054C29.8653 259.054 145.259 343.86 29.8653 432.5C29.8653 432.5 217.963 510.291 29.8653 661.888C29.8653 661.888 79.2053 681.477 92.9208 722.468C92.9208 722.468 279.089 709.924 266.739 865H0V0H141.756Z" fill="#CCCCCC"/>
<path d="M92.8021 0H141.756C141.756 0 214.727 144.88 29.8653 189.557C29.8653 189.557 81.3725 218.034 29.8653 259.054C29.8653 259.054 145.259 343.86 29.8653 432.5C29.8653 432.5 217.963 510.291 29.8653 661.888C29.8653 661.888 79.2054 681.477 92.9208 722.468C92.9208 722.468 279.089 709.924 266.739 865C266.739 865 224.316 727.403 86.2115 735.636C86.2115 735.636 94.3161 697.232 11.9937 660.016C11.9937 660.016 196.707 534.219 11.9937 432.5C11.9937 432.5 150.365 367.848 11.9937 256.201C11.9937 256.201 80.7491 236.404 11.9937 188.725C11.9937 188.725 167.228 147.912 99.8379 9.45258L92.8021 0Z" fill="white"/>
<defs>
<radialGradient id="paint0_radial_0_1" cx="0" cy="0" r="1" gradientUnits="userSpaceOnUse" gradientTransform="translate(863.57 581.5) scale(754.386 1158.13)">
<stop stop-color="#00FFFF"/>
<stop offset="0.16" stop-color="#00E7FA"/>
<stop offset="0.49" stop-color="#00A8EC"/>
<stop offset="0.65" stop-color="#008AE6"/>
</radialGradient>
<radialGradient id="paint1_radial_0_1" cx="0" cy="0" r="1" gradientUnits="userSpaceOnUse" gradientTransform="translate(933.57 986.052) scale(229.113 281.387)">
<stop stop-color="#2B98B3"/>
<stop offset="0.08" stop-color="#3393B3"/>
<stop offset="0.3" stop-color="#438AB4"/>
<stop offset="0.55" stop-color="#4D84B4"/>
<stop offset="0.88" stop-color="#5082B4"/>
</radialGradient>
<radialGradient id="paint2_radial_0_1" cx="0" cy="0" r="1" gradientUnits="userSpaceOnUse" gradientTransform="translate(949.576 971.135) scale(194.039 238.311)">
<stop stop-color="#00C2E3"/>
<stop offset="0.12" stop-color="#00ACE4"/>
<stop offset="0.25" stop-color="#009CE5"/>
<stop offset="0.4" stop-color="#0092E6"/>
<stop offset="0.59" stop-color="#008FE6"/>
</radialGradient>
<radialGradient id="paint3_radial_0_1" cx="0" cy="0" r="1" gradientUnits="userSpaceOnUse" gradientTransform="translate(949.24 975.129) scale(209.374 257.144)">
<stop stop-color="#00C2E3"/>
<stop offset="0.12" stop-color="#00ACE4"/>
<stop offset="0.26" stop-color="#009CE5"/>
<stop offset="0.42" stop-color="#0092E6"/>
<stop offset="0.62" stop-color="#008FE6"/>
</radialGradient>
<radialGradient id="paint4_radial_0_1" cx="0" cy="0" r="1" gradientUnits="userSpaceOnUse" gradientTransform="translate(994.131 986.129) scale(221.519 272.061)">
<stop stop-color="#00C2E3"/>
<stop offset="0.19" stop-color="#00ACE4"/>
<stop offset="0.41" stop-color="#009CE5"/>
<stop offset="0.65" stop-color="#0092E6"/>
<stop offset="0.96" stop-color="#008FE6"/>
</radialGradient>
<radialGradient id="paint5_radial_0_1" cx="0" cy="0" r="1" gradientUnits="userSpaceOnUse" gradientTransform="translate(993.062 1031.19) scale(166.874 204.947)">
<stop offset="0.12" stop-color="#53769B"/>
<stop offset="0.31" stop-color="#4B6F93"/>
<stop offset="0.88" stop-color="#385D80"/>
</radialGradient>
<radialGradient id="paint6_radial_0_1" cx="0" cy="0" r="1" gradientUnits="userSpaceOnUse" gradientTransform="translate(873.848 687.971) scale(57.6664 70.8234)">
<stop stop-color="white"/>
<stop offset="0.09" stop-color="white" stop-opacity="0.99"/>
<stop offset="0.12" stop-color="white" stop-opacity="0.97"/>
<stop offset="0.14" stop-color="white" stop-opacity="0.92"/>
<stop offset="0.16" stop-color="white" stop-opacity="0.85"/>
<stop offset="0.17" stop-color="white" stop-opacity="0.77"/>
<stop offset="0.19" stop-color="white" stop-opacity="0.66"/>
<stop offset="0.2" stop-color="white" stop-opacity="0.53"/>
<stop offset="0.21" stop-color="white" stop-opacity="0.39"/>
<stop offset="0.22" stop-color="white" stop-opacity="0.22"/>
<stop offset="0.23" stop-color="white" stop-opacity="0"/>
</radialGradient>
<clipPath id="clip0_0_1">
<rect width="1728" height="1061" fill="white" transform="translate(0 51)"/>
</clipPath>
</defs>
</svg>
