<svg width="123" height="103" viewBox="0 0 123 103" fill="none" xmlns="http://www.w3.org/2000/svg">
<path d="M120.011 59.9561C120.011 59.9561 112.297 69.6287 120.073 80.3947L72.5083 99.3606C72.5083 99.3606 44.0499 93.0015 68.4708 81.0529L120.011 59.9561Z" fill="#AEA597"/>
<path d="M9.14328 52.1011C9.14328 52.1011 -6.53303 57.5008 8.53562 75.1949L70.8084 102.908C70.8084 102.908 52.691 91.7511 67.327 78.1291L9.14328 52.1011Z" fill="#BE7855"/>
<path d="M63.0013 91.8727C64.7856 96.1521 67.4572 99.9279 70.8085 102.906L8.53579 75.1938C6.91276 73.3316 5.47012 71.2942 4.23047 69.1135L63.0013 91.8727Z" fill="#986041"/>
<path d="M4.23052 69.1137C1.98516 65.0305 1.65556 61.8174 3.00484 62.3529L62.5687 87.8119C61.0237 91.5047 63.8253 92.6092 65.6587 96.9491L4.23052 69.1137Z" fill="#AF7148"/>
<path d="M70.8088 102.908L121.381 83.0388V80.5397L76.4943 96.7612C74.9868 97.8055 73.2629 98.4267 71.4783 98.5686C64.8143 99.0594 57.0585 86.7873 68.5016 81.0083L121.535 60.168V57.8586L67.3274 78.1188C67.3274 78.1188 47.2016 84.8907 70.8088 102.908Z" fill="#7F4C30"/>
<path d="M120.227 40.8105C120.227 40.8105 113.182 43.6889 121.71 56.2845L68.3673 75.6075L61.0544 68.5009L62.5891 56.0056L65.4319 55.0239L120.227 40.8105Z" fill="#AEA597"/>
<path d="M7.89742 35.345C7.89742 35.345 -5.5851 45.6424 9.14366 52.0797L67.3274 78.1077C67.3274 78.1077 55.2869 69.8965 64.392 51.823L26.5195 23.2737L7.89742 35.345Z" fill="#70CDEE"/>
<path d="M2.19141 46.8794C3.15959 49.7689 2.61372 51.0296 7.42374 53.1493L67.3275 78.1286C67.3275 78.1286 67.101 77.0799 62.0849 68.5898L2.19141 46.8794Z" fill="#5DAAC5"/>
<path d="M62.5485 68.9246C62.8472 65.1984 60.4885 66.3921 61.2507 61.4721L3.01541 41.8479C1.98542 44.6928 1.90303 44.704 3.4686 47.4261L62.5485 68.9246Z" fill="#68BCE0"/>
<path d="M67.3271 78.1294L122.771 58.0478V55.8946L68.3674 75.6081C68.3674 75.6081 58.8091 68.2448 65.4319 55.0244L121.824 41.2462L122.349 39.3719L119.897 38.4236L64.3916 51.8113C64.3916 51.8113 54.957 61.8633 67.3271 78.1294Z" fill="#48889F"/>
<path d="M117.57 23.563C117.57 23.563 113.007 25.058 121.535 37.6424L65.4219 49.2786L63.5267 48.8212L60.5913 43.4661L61.2505 33.5369L64.0933 32.5551L117.57 23.563Z" fill="#AEA597"/>
<path d="M1.76934 21.0417C1.76934 21.0417 -2.79347 31.3057 7.89775 35.2997L64.3923 51.8001C64.3923 51.8001 53.9689 43.6782 64.6807 33.2692L30.6913 24.7345L1.76934 21.0417Z" fill="#FF9191"/>
<path d="M1.71729 30.6809C3.16956 33.4142 4.16865 33.9051 7.89718 35.3443L64.3917 51.8001C64.3917 51.8001 63.8046 50.1601 60.9722 42.5737L1.71729 30.6809Z" fill="#CD7878"/>
<path d="M0.862466 24.7349L60.1792 37.4086C60.1792 37.4086 59.417 37.4755 61.9301 46.5123L1.16114 30.4916C1.16114 30.4916 1.41868 31.6072 0.821289 27.457L0.862466 24.7349Z" fill="#E98885"/>
<path d="M64.3921 51.7989L122.947 39.5268V37.3736L65.4221 49.2775C65.4221 49.2775 57.2955 37.0054 64.6599 35.1534L119.136 23.997L119.671 22.1338L117.21 21.1855L64.6805 33.2791C64.6805 33.2791 52.1971 31.416 64.3921 51.7989Z" fill="#A95C5C"/>
<path d="M62.4244 6.30371L117.24 0.0114746C117.24 0.0114746 123.585 1.7742 122.895 10.7217C122.205 19.6692 117.23 21.1753 117.23 21.1753L64.7007 33.2689L58.7886 16.6681L62.4244 6.30371Z" fill="#AC64AE"/>
<path d="M62.4246 11.5245L115.16 2.48779C115.16 2.48779 121.34 2.64398 120.207 11.4799C119.074 20.3158 112.76 20.2154 112.76 20.2154L64.6802 29.9661L62.4246 11.5245Z" fill="#AEA597"/>
<path d="M67.6877 18.4628L117.261 7.33984L67.3271 14.9485L67.6877 18.4628Z" fill="#7C6C59"/>
<path d="M0.852295 4.46216C0.852295 4.46216 7.89739 10.7432 3.18007 17.9726L2.26337 19.8804L21.2459 23.2273L64.6804 29.9658C64.6804 29.9658 76.2265 15.9979 62.4247 11.5019L58.2121 9.10325L18.3414 5.75631L0.852295 4.46216Z" fill="#D1C6B3"/>
<path d="M0.141859 4.1167C0.141859 4.1167 38.6118 8.35615 62.425 6.34799V11.5692C62.425 11.5692 45.9452 8.13302 0.759824 5.45547C0.759824 5.422 -0.393732 5.70092 0.141859 4.1167Z" fill="#E383E1"/>
<path d="M1.15137 19.7913C1.15137 19.7913 42.3508 26.8979 64.6808 29.9883V33.3129C64.6808 33.3129 28.9713 24.3877 1.7694 21.0408C1.7694 21.0408 0.615784 21.3755 1.15137 19.7913Z" fill="#E383E1"/>
<path d="M67.7396 14.8825L3.97339 8.09937L69.1198 18.1402C68.9901 16.9233 68.5068 15.7825 67.7396 14.8825V14.8825Z" fill="#9A8B78"/>
<path d="M18.6917 23.9653C18.6917 23.9653 18.5578 23.6194 18.3312 26.5759L18.0325 26.799L18.4754 22.7046L18.6917 23.9653Z" fill="#E98885"/>
<path d="M18.3309 26.6192C18.2678 29.0082 18.7081 31.3814 19.6184 33.5585L18.3618 34.306C17.2283 33.9365 16.2718 33.1045 15.6941 31.9854C15.6941 31.9854 13.6341 34.3841 13.9019 36.66C13.9019 36.66 11.4918 35.1427 13.0368 30.4012C14.5817 25.6597 18.3309 26.6192 18.3309 26.6192Z" fill="#CD7878"/>
<path d="M19.6187 33.5134C19.9221 34.0803 20.337 34.5679 20.834 34.9415C19.9908 34.8063 19.1625 34.5783 18.3621 34.2609L19.6187 33.5134Z" fill="#CD7878"/>
<path d="M21.1635 10.744L18.3619 8.76929L17.8469 10.1081L21.1635 10.744Z" fill="#9F6422"/>
<path d="M18.3616 8.76876L10.0188 8.09937C10.0188 8.09937 13.4692 14.7932 12.0788 22.0003C11.3681 25.6596 8.35018 33.5473 11.3268 36.7157C11.3268 36.7157 12.6246 32.6659 14.4168 31.7287C14.4168 31.7287 16.8166 33.7592 18.5367 33.9043C18.5367 33.9043 16.8682 29.5086 19.0826 19.1554C19.1238 19.1554 19.9375 11.9149 18.3616 8.76876Z" fill="#FFA201"/>
<path d="M18.3616 8.76876L10.0188 8.09937C10.0188 8.09937 13.6031 15.9089 12.0788 22.0003C11.296 25.0795 8.46348 34.384 11.3268 36.7157C11.3268 36.7157 9.26689 32.3981 12.7688 21.833C12.7688 21.833 14.0357 16.4556 10.8118 8.76876H18.3616Z" fill="#FFBA4D"/>
<path d="M18.5784 33.9052C18.5784 33.9052 14.2937 33.5036 13.4285 29.7773C14.5989 31.8117 16.4401 33.2875 18.5784 33.9052V33.9052Z" fill="#FFBA4D"/>
<path d="M0.852295 4.46258L52.1558 0H117.24L62.4247 6.29224C62.4247 6.29224 47.0676 8.45659 0.852295 4.46258Z" fill="#FF93FF"/>
</svg>
