<svg width="129" height="111" viewBox="0 0 129 111" fill="none" xmlns="http://www.w3.org/2000/svg">
<g clip-path="url(#clip0_600_1158)">
<path d="M44.353 56.2775L51.6792 58.0977L50.9202 70.7726C53.8696 71.2967 56.8434 71.6722 59.8304 71.8978L60.1604 59.7193L76.0007 59.9179L75.6707 72.1295C88.64 71.4014 98.2763 68.4892 98.3093 64.8819L98.6393 54.2588L37.9509 53.5308L37.6208 64.1208C37.6208 65.8086 39.6999 67.4302 43.264 68.7208L44.353 56.2775Z" fill="#FB6D4D"/>
<path d="M60.1603 59.7192L59.8303 71.8978C62.4044 72.1294 65.0774 72.2618 67.8825 72.2949C70.6876 72.328 73.1626 72.2949 75.6707 72.1294L76.0007 59.9178L60.1603 59.7192Z" fill="#C54B40"/>
<path d="M44.3529 56.2776L43.2639 68.7209C45.7511 69.6286 48.313 70.3151 50.9201 70.7727L51.6791 58.0978L44.3529 56.2776Z" fill="#C54B40"/>
<path d="M68.3776 46.0846C51.6132 45.886 37.9839 49.2285 37.9509 53.5307C37.9509 55.3509 40.327 57.0386 44.3531 58.3955L80.2249 46.8457C76.2912 46.3916 72.337 46.1376 68.3776 46.0846Z" fill="#FFD100"/>
<path d="M68.1796 61.7051C84.944 61.9036 98.5733 58.3957 98.6393 54.259C98.6393 52.0086 94.9762 49.9568 89.0361 48.4675L51.6792 60.2158C57.129 61.1674 62.6479 61.6656 68.1796 61.7051Z" fill="#FFD100"/>
<path d="M51.6792 60.2159L89.1021 48.4675C86.2007 47.7473 83.2582 47.2057 80.2909 46.8459L44.353 58.3957C46.7419 59.2004 49.192 59.8091 51.6792 60.2159Z" fill="#FFF3DA"/>
<path d="M57.7513 59.0245C54.6154 59.0645 51.4907 58.6408 48.478 57.7669C45.871 56.9065 44.881 55.8806 45.739 54.8216C46.597 53.7626 49.6001 52.7036 54.0882 52.3726C54.9591 52.335 55.8273 52.4933 56.6292 52.8359C56.9262 52.8359 57.1573 53.5309 56.6292 53.6302C55.6722 53.8288 55.7712 53.1669 55.0782 53.2C53.0707 53.1173 51.0744 53.5382 49.2701 54.4244C46.927 55.682 49.2701 57.4029 54.1212 57.9655C58.002 58.5683 61.9714 58.193 65.6714 56.8734C67.8495 55.7151 66.2985 54.2259 62.1734 53.564C58.7083 52.9683 56.4642 52.141 55.8372 51.0158C55.2102 49.8906 56.7282 48.6661 60.3253 47.8719C64.8338 47.0759 69.4462 47.0759 73.9546 47.8719C78.5417 48.6992 80.8188 50.1222 79.7628 51.5453C79.4988 51.81 79.4988 51.81 78.5088 51.81C77.5187 51.81 78.1787 52.0417 77.6507 52.0417C77.1227 52.0417 76.2647 52.4057 76.4297 52.2733C77.2877 51.6115 77.8487 50.6187 76.0997 49.6258C71.8841 48.0536 67.3232 47.6534 62.8994 48.4676C58.1473 49.2949 57.2563 50.9827 60.9193 52.2403C64.5632 53.2279 68.369 53.4643 72.1066 52.9352C74.5106 52.588 76.9383 52.4331 79.3668 52.4719C85.0099 52.4719 89.993 53.8949 90.785 55.4834C91.5771 57.0719 89.993 57.8 86.5279 58.5612C81.4306 59.5872 76.1809 59.5872 71.0836 58.5612C69.6975 58.2302 71.0836 58.9914 69.9945 58.8259C69.7635 58.8259 70.1926 57.9986 70.2916 57.9324C70.6916 57.6385 71.1831 57.4976 71.6776 57.5353C73.2214 58.0183 74.8163 58.3182 76.4297 58.4288C80.1379 58.9793 83.9258 58.4629 87.353 56.9396C88.97 55.6489 86.4949 54.2259 82.1718 53.6302C78.6895 53.1659 75.1509 53.368 71.7436 54.2259C70.3246 54.6892 69.5985 55.2518 69.6645 55.8806C69.8295 57.5353 65.4074 58.9914 59.1373 59.19L57.7513 59.0245Z" fill="#D47B33"/>
<path d="M57.7513 59.62C54.6154 59.66 51.4907 59.2363 48.478 58.3624C45.871 57.502 44.881 56.4761 45.739 55.4171C46.597 54.3581 49.6001 53.3322 54.0882 52.9681C54.5688 52.7991 55.0925 52.7991 55.5732 52.9681L56.4972 53.3322C56.9262 53.5307 56.8932 53.5307 56.1672 53.5638C53.9005 53.5522 51.655 54.0025 49.5671 54.8876C47.224 56.1451 49.5671 57.866 54.4182 58.4286C58.299 59.0314 62.2684 58.6561 65.9685 57.3365C68.1465 56.2113 66.5955 54.689 62.4704 54.0271C58.9723 53.4315 56.7282 52.6041 56.1342 51.4789C55.5402 50.3537 56.9923 49.1293 60.6223 48.335C65.1308 47.539 69.7432 47.539 74.2516 48.335C78.8388 49.1623 81.0828 50.5854 80.0598 52.0084C79.7958 52.2732 79.7958 52.2732 78.8057 52.2732H77.2217C76.7597 52.2732 76.5947 52.2732 76.7927 52.1077C77.6507 51.4458 77.4857 50.7839 76.3967 50.1221C72.1776 48.5658 67.6209 48.1659 63.1964 48.9638C58.4443 49.7911 57.5533 51.4789 61.2163 52.7365C64.8599 53.726 68.6661 53.9624 72.4036 53.4315C74.8068 53.0785 77.2359 52.9346 79.6638 53.0012C85.3069 53.0012 90.29 54.4243 91.082 55.9797C91.8741 57.5351 90.29 58.2962 86.8249 59.0574C81.7277 60.0835 76.4779 60.0835 71.3806 59.0574C69.9945 58.7265 70.0275 58.7265 70.8526 58.2962L71.2156 58.0646C71.4136 57.8991 71.5786 57.8991 71.9746 58.0646C73.5184 58.5476 75.1133 58.8475 76.7267 58.9581C80.4135 59.4109 84.153 58.8145 87.518 57.2372C89.135 55.9466 86.6599 54.5235 82.3368 53.9279C78.8545 53.4636 75.3159 53.6657 71.9086 54.5235C70.4896 54.9869 69.7305 55.5495 69.7965 56.1782C69.9945 57.8329 65.5724 59.2891 59.3023 59.4876L57.7513 59.62Z" fill="#FF9400"/>
<path d="M39.106 41.7164L46.4981 43.338L46.2011 55.9798C49.1645 56.4349 52.1497 56.7332 55.1443 56.8734V44.6948L70.9847 44.397V56.6086C83.954 55.4834 93.4912 52.2733 93.4252 48.6661V38.043L32.7368 39.1682V49.7582C32.7368 51.446 34.9149 53.0676 38.512 54.1928L39.106 41.7164Z" fill="#FB6D4D"/>
<path d="M55.0122 44.6948V56.8733C57.5863 56.8733 60.2593 57.0719 63.0644 56.8733C65.8695 56.6748 68.3445 56.6748 70.8196 56.4762V44.397L55.0122 44.6948Z" fill="#C54B40"/>
<path d="M39.1059 41.7163L38.3799 54.1927C40.8973 55.0121 43.4811 55.6101 46.1021 55.9798L46.4981 43.3379L39.1059 41.7163Z" fill="#C54B40"/>
<path d="M62.7016 30.7623C45.9372 31.0932 32.4399 34.8328 32.5059 39.135C32.5059 40.9552 34.9809 42.4444 39.106 43.8013L74.6808 31.2256C70.6987 30.8591 66.7 30.7044 62.7016 30.7623Z" fill="#FFD100"/>
<path d="M63.0974 46.4156C79.8618 46.1178 93.3921 42.3782 93.2931 38.0429C93.2931 35.7925 89.498 33.84 83.3929 32.5493L46.531 45.4559C52.0195 46.2111 57.5587 46.532 63.0974 46.4156Z" fill="#FFD100"/>
<path d="M46.5311 45.4559L83.5249 32.5493C80.6099 31.9091 77.6551 31.4668 74.6807 31.2256L39.1389 43.9998C41.5629 44.671 44.034 45.1578 46.5311 45.4559Z" fill="#FFF3DA"/>
<path d="M52.5701 43.9998C49.4364 44.125 46.3012 43.7906 43.2639 43.007C40.6239 42.2128 39.6008 41.2531 40.4589 40.1279C41.3169 39.0027 44.2209 37.9437 48.709 37.4473C49.575 37.3876 50.4433 37.5233 51.2501 37.8444C51.5801 37.8444 51.8111 38.5394 51.4151 38.6056C50.4581 38.8372 50.5571 38.1753 49.8641 38.2415C47.85 38.2187 45.8631 38.7083 44.0889 39.6646C41.7789 40.9883 44.0889 42.6099 49.0391 42.9739C52.9392 43.4579 56.8981 42.9574 60.5563 41.5178C62.7014 40.3264 61.1173 38.8372 56.9592 38.2084C53.4612 37.712 51.1841 36.9509 50.5571 35.8588C49.9301 34.7667 51.3491 33.4429 54.9462 32.5494C59.427 31.5987 64.0378 31.4308 68.5755 32.053C73.1626 32.7148 75.4727 34.0717 74.4826 35.5609C74.2516 35.8257 74.2516 35.8257 73.2286 35.8257C72.2056 35.8257 72.8986 36.0904 72.3706 36.1235C71.8426 36.1566 70.9846 36.4875 71.1496 36.3552C72.0076 35.6933 72.5356 34.6674 70.7536 33.7408C66.5056 32.2813 61.94 32.0181 57.5533 32.9796C52.8671 33.9393 52.0091 35.6602 55.7052 36.8185C59.3733 37.6886 63.1796 37.8012 66.8925 37.1494C69.2907 36.732 71.7187 36.5107 74.1526 36.4875C79.7958 36.4875 84.8119 37.5796 85.6369 39.1351C86.4619 40.6905 84.9439 41.4847 81.5118 42.4444C76.4253 43.58 71.1646 43.6925 66.0344 42.7754C64.6484 42.4775 66.0344 43.2056 64.9784 43.0732C64.7144 43.0732 64.9784 42.2459 65.2424 42.1797C65.6298 41.8792 66.1057 41.7163 66.5955 41.7164C68.1649 42.1644 69.7828 42.4199 71.4136 42.4775C75.1281 42.9133 78.8901 42.2941 82.2708 40.6905C83.8549 39.3336 81.3138 38.0099 76.9907 37.6127C73.4985 37.2397 69.9673 37.5545 66.5955 38.5394C65.1764 39.0358 64.4504 39.5984 64.5494 40.2271C64.7474 41.8818 60.3913 43.5365 54.1212 43.8675L52.5701 43.9998Z" fill="#D47B33"/>
<path d="M52.6033 44.6616C49.4689 44.8077 46.3307 44.4729 43.2971 43.6688C40.657 42.8746 39.634 41.9149 40.459 40.7897C41.2841 39.6645 44.2541 38.6055 48.7092 38.1091C49.2024 37.9473 49.7341 37.9473 50.2273 38.1091L51.1513 38.44C51.5803 38.6055 51.5473 38.6386 50.8543 38.6717C48.5706 38.7264 46.3231 39.256 44.2541 40.2271C41.9441 41.5508 44.2541 43.1724 49.2042 43.5365C53.1043 44.0176 57.0625 43.5172 60.7215 42.0803C62.8666 40.8889 61.2495 39.3997 57.0914 38.7709C53.6263 38.2745 51.3493 37.5134 50.6893 36.4213C50.0293 35.3292 51.5143 34.0054 55.0784 33.1119C59.5592 32.1619 64.1699 31.994 68.7077 32.6155C73.3278 33.2774 75.6049 34.6342 74.6148 36.1234C74.3838 36.3882 74.3838 36.3882 73.3938 36.3882H71.6118C71.1497 36.3882 70.9847 36.3882 71.1497 36.2227C72.0078 35.5277 71.8098 34.899 70.6877 34.2702C66.4376 32.8224 61.8751 32.5593 57.4874 33.509C52.7683 34.4687 51.9103 36.1896 55.6064 37.3479C59.2744 38.2128 63.0774 38.3365 66.7936 37.7119C69.1886 37.2665 71.6181 37.0339 74.0538 37.017C79.6969 37.017 84.7131 38.1091 85.5711 39.6645C86.4291 41.2199 84.8451 42.0141 81.413 42.9739C76.3395 44.1254 71.0865 44.238 65.9686 43.3048C64.5826 43.007 64.6156 43.007 65.4076 42.5767L65.7706 42.312C65.9686 42.312 66.1336 42.1465 66.5296 42.312C68.0929 42.7314 69.6978 42.9756 71.3148 43.04C75.0324 43.4656 78.7945 42.8349 82.172 41.2199C83.756 39.8961 81.248 38.5393 76.9249 38.1422C73.4216 37.7864 69.8829 38.1009 66.4966 39.0688C65.0776 39.5652 64.3516 40.1278 64.4506 40.7566C64.6816 42.4113 60.2925 44.066 54.0224 44.3969L52.6033 44.6616Z" fill="#FF9400"/>
<path d="M47.323 25.2024L54.6162 27.2543L53.4941 39.863C56.1672 40.4256 59.1703 40.8889 62.3713 41.2529L63.0644 29.1075L78.8717 29.7363L78.1787 41.9148C91.214 41.5508 100.883 38.9033 101.048 35.2961L101.675 24.706L40.9868 22.2571L40.3928 32.8471C40.3928 34.568 42.3729 36.1565 45.904 37.6126L47.323 25.2024Z" fill="#FB6D4D"/>
<path d="M63.0644 29.1077L62.3713 41.2531C64.9124 41.551 67.6185 41.7495 70.3905 41.8819C73.1626 42.0143 75.7037 41.8819 78.1787 41.8819L78.8717 29.7034L63.0644 29.1077Z" fill="#C54B40"/>
<path d="M47.3231 25.2024L45.9041 37.6126C48.3614 38.5904 50.9017 39.3436 53.4942 39.863L54.6163 27.2542L47.3231 25.2024Z" fill="#C54B40"/>
<path d="M71.6448 15.7046C54.8804 15.0096 41.1851 17.9549 40.9871 22.3233C40.9871 24.1435 43.2971 25.8975 47.2572 27.3867L83.558 16.8628C79.6121 16.2503 75.6346 15.8636 71.6448 15.7046Z" fill="#FFD100"/>
<path d="M71.0177 31.2918C87.7821 31.9536 101.477 29.0083 101.675 24.673C101.675 22.4226 98.1113 20.2384 92.2372 18.5837L54.5503 29.3723C59.9821 30.4352 65.4875 31.0769 71.0177 31.2918Z" fill="#FFD100"/>
<path d="M54.5503 29.3723L92.4021 18.6168C89.5131 17.8426 86.5822 17.2349 83.6239 16.7966L47.2571 27.4528C49.639 28.2676 52.0764 28.909 54.5503 29.3723Z" fill="#FFF3DA"/>
<path d="M60.6555 28.3133C57.5174 28.2657 54.4036 27.7527 51.4153 26.7909C48.8412 25.8643 47.8842 24.8053 48.7752 23.7794C49.6662 22.7535 52.6693 21.7938 57.1904 21.5621C58.0543 21.5597 58.9089 21.7401 59.6985 22.0916C59.9955 22.0916 60.2265 22.8197 59.6985 22.8859C58.7085 22.8859 58.8405 22.4225 58.1474 22.4225C56.1431 22.287 54.1364 22.6508 52.3063 23.4816C49.9302 24.706 52.3063 26.46 57.0584 27.155C60.9226 27.8697 64.9035 27.6081 68.6417 26.3938C70.8527 25.3017 69.3347 23.7463 65.3416 23.0844C62.0415 22.3895 59.6655 21.4959 59.1045 20.3707C58.5434 19.2455 60.0285 18.0211 63.6916 17.3592C68.199 16.6238 72.7996 16.6798 77.2879 17.5247C81.875 18.4844 84.086 19.9736 82.997 21.3635C82.733 21.6283 82.733 21.6283 81.743 21.5952C80.753 21.5621 81.413 21.8269 80.885 21.7938C80.357 21.7607 79.4659 22.1247 79.6309 21.9923C80.522 21.3635 81.116 20.3707 79.3999 19.3448C75.2171 17.6533 70.6561 17.1273 66.1996 17.8225C61.4475 18.5175 60.4905 20.1722 64.1206 21.529C67.7312 22.624 71.5258 22.973 75.2748 22.5549C77.671 22.2478 80.0899 22.1592 82.502 22.2902C88.1451 22.588 93.0953 24.0111 93.8543 25.5996C94.6133 27.1881 92.9963 27.883 89.4982 28.578C84.3625 29.4226 79.1097 29.22 74.0538 27.9823C72.7008 27.6183 74.0538 28.4456 72.9648 28.214C72.7338 28.214 73.1958 27.4197 73.2948 27.3535C73.6992 27.0713 74.1904 26.9423 74.6808 26.9895C76.222 27.5072 77.8159 27.8512 79.4329 28.0154C83.1239 28.666 86.9231 28.2529 90.3892 26.824C92.0392 25.5665 89.5972 24.1103 85.3071 23.5146C81.8326 22.9494 78.2827 23.0504 74.8458 23.8125C73.4268 24.2427 72.6678 24.7722 72.7008 25.401C72.7008 27.0557 68.3777 28.4125 62.1075 28.4125L60.6555 28.3133Z" fill="#D47B33"/>
<path d="M60.6553 28.909C57.5095 28.8851 54.3846 28.3944 51.3821 27.4529C48.808 26.5263 47.851 25.5004 48.742 24.4414C49.633 23.3823 52.6361 22.4557 57.1572 22.2241C58.0812 22.2241 58.0812 22.2241 58.6422 22.4226L59.5333 22.8198C59.9623 22.8198 59.9293 23.0183 59.2363 23.0183C56.9161 22.9024 54.5981 23.286 52.4381 24.1435C50.029 25.3349 52.4381 27.0889 57.1572 27.7838C61.0214 28.4986 65.0023 28.237 68.7405 27.0227C70.9515 25.9306 69.4335 24.3752 65.4404 23.5478C61.9753 22.8528 59.7643 21.9593 59.1703 20.8341C58.5762 19.7089 60.1273 18.4845 63.7574 17.8226C68.2816 17.1201 72.893 17.2097 77.3867 18.0873C81.9408 19.0471 83.9868 20.5363 83.0628 21.9262C82.8318 22.191 82.8318 22.191 81.8088 22.1579H80.2577C79.7627 22.1579 79.6307 22.1579 79.7957 21.9593C80.6868 21.3305 80.5218 20.6687 79.4657 19.9737C75.2837 18.2789 70.7218 17.7528 66.2654 18.4514C61.5133 19.1463 60.5893 20.801 64.1864 22.1579C67.7973 23.2511 71.5916 23.6 75.3406 23.1838C77.7153 22.8856 80.1106 22.786 82.5018 22.8859C88.1449 23.1838 93.095 24.6068 93.8541 26.1953C94.6131 27.7838 92.996 28.5119 89.531 29.1738C84.3953 30.0193 79.1423 29.8167 74.0866 28.5781C72.7006 28.214 72.7336 28.214 73.5586 27.8169C73.7337 27.7397 73.8827 27.6132 73.9876 27.4529C74.103 27.3861 74.2339 27.3509 74.3671 27.3509C74.5003 27.3509 74.6312 27.3861 74.7466 27.4529C76.2835 27.9861 77.8792 28.3306 79.4987 28.4788C83.1741 29.1818 86.9729 28.8261 90.455 27.4529C92.105 26.2284 89.663 24.7392 85.3729 24.1435C81.9095 23.5776 78.3703 23.6787 74.9446 24.4414C73.4926 24.8716 72.7336 25.4011 72.7996 26.0299C72.7996 27.7176 68.4435 29.0414 62.1733 29.0414L60.6553 28.909Z" fill="#FF9400"/>
<path d="M39.238 12.2297L46.6302 13.752L46.3992 26.3939C49.3646 26.8133 52.3496 27.0784 55.3424 27.1881L55.1774 15.0096L70.9847 14.5132V26.7248C83.9541 25.4341 93.4253 22.1247 93.3263 18.5175V7.92749L32.7039 9.74765V20.3377C32.7039 22.0586 34.9479 23.6471 38.578 24.7061L39.238 12.2297Z" fill="#FB6D4D"/>
<path d="M55.1772 15.0095L55.3423 27.188C57.9163 27.188 60.5894 27.188 63.3944 27.188C66.1995 27.188 68.6746 26.9233 71.1496 26.6916V14.48L55.1772 15.0095Z" fill="#C54B40"/>
<path d="M39.238 12.2297L38.677 24.7061C41.1943 25.504 43.7791 26.0689 46.3992 26.3939L46.6302 13.7521L39.238 12.2297Z" fill="#C54B40"/>
<path d="M62.7015 0.977863C46.2011 1.54046 32.5718 5.44553 32.7038 9.74773C32.7038 11.5679 35.2119 13.0571 39.304 14.3478L74.6808 1.3088C70.6971 0.9733 66.6977 0.862813 62.7015 0.977863Z" fill="#FFD100"/>
<path d="M63.2625 16.6311C80.0269 16.1347 93.4912 12.2296 93.3922 7.92739C93.3922 5.67701 89.5311 3.75757 83.4919 2.5L46.6631 15.7375C52.1649 16.4648 57.7146 16.7635 63.2625 16.6311Z" fill="#FFD100"/>
<path d="M46.6961 15.8701L83.525 2.63259C80.6092 1.99651 77.6547 1.55429 74.6808 1.30884L39.304 14.2154C41.7235 14.9506 44.1945 15.5037 46.6961 15.8701Z" fill="#FFF3DA"/>
<path d="M52.8011 14.3808C49.6625 14.5745 46.5128 14.2843 43.4619 13.5204C40.8218 12.7592 39.7988 11.7995 40.6238 10.7074C41.4488 9.6153 44.3859 8.45701 48.841 7.89442C49.7146 7.84344 50.5896 7.96718 51.4151 8.25845C51.7121 8.25845 51.9761 8.95342 51.4151 9.0527C50.4581 9.28436 50.5571 8.62248 49.831 8.68867C47.8224 8.6917 45.8472 9.20398 44.0889 10.1779C41.8119 11.5347 44.0889 13.1232 49.072 13.4873C52.983 13.9209 56.9402 13.3751 60.5893 11.8988C62.7013 10.6743 61.0843 9.21817 56.9262 8.58939C53.4281 8.12607 51.1511 7.39801 50.5241 6.30591C49.897 5.21382 51.2831 3.92316 54.8802 2.99653C59.3421 2.0049 63.9397 1.78108 68.4765 2.33465C73.0966 2.96344 75.4066 4.28719 74.4166 5.64404C74.1856 5.90879 74.1856 5.90879 73.1956 5.94188C72.2056 5.97498 72.8656 6.20663 72.3376 6.20663C71.8096 6.20663 70.9515 6.63685 71.1165 6.50448C71.9416 5.80951 72.4696 4.7836 70.6875 3.85697C66.419 2.48192 61.8616 2.27625 57.4872 3.26128C52.7681 4.28719 51.9761 6.00807 55.6722 7.13326C59.3638 8.05541 63.2041 8.21306 66.9584 7.59657C69.3426 7.14415 71.7598 6.88957 74.1856 6.83541C79.8287 6.83541 84.8779 7.82823 85.7359 9.35055C86.5939 10.8729 85.0429 11.7002 81.6108 12.6599C76.5531 13.8949 71.2964 14.0751 66.1664 13.1894C64.7804 12.9247 66.1664 13.6197 65.1104 13.4873C64.8464 13.4873 65.1104 12.693 65.3744 12.5937C65.7618 12.2933 66.2377 12.1303 66.7274 12.1304C68.2969 12.5693 69.9164 12.8029 71.5455 12.8254C75.3059 13.2617 79.1117 12.595 82.5018 10.906C84.0858 9.54911 81.5448 8.22536 77.1887 7.89442C73.6879 7.57606 70.1588 7.93558 66.7934 8.95342C65.4074 9.48292 64.6814 10.0455 64.7804 10.6743C65.0114 12.329 60.6553 13.9837 54.4181 14.4139L52.8011 14.3808Z" fill="#D47B33"/>
<path d="M52.8013 15.0097C49.6552 15.217 46.4959 14.9493 43.4291 14.2154C40.7891 13.4543 39.733 12.4945 40.5581 11.4024C41.3831 10.3103 44.3201 9.15206 48.8082 8.58946C49.2898 8.42555 49.8118 8.42555 50.2933 8.58946L51.2173 8.9204C51.6793 8.9204 51.6463 9.08587 50.9203 9.15206C48.6319 9.22751 46.3842 9.77975 44.3201 10.7737C42.0101 12.1305 44.3201 13.719 49.3033 14.083C53.2035 14.5209 57.1511 13.9749 60.7875 12.4945C62.9326 11.2701 61.3155 9.81393 57.1574 9.18515C53.6594 8.72184 51.3823 7.99377 50.7223 6.90167C50.0623 5.80958 51.4813 4.51892 55.0784 3.59229C59.5103 2.61988 64.0758 2.41839 68.5757 2.9966C73.1958 3.62539 75.5389 4.94914 74.5488 6.30599C74.3178 6.57074 74.3178 6.57074 73.2948 6.60383H71.7438C71.2818 6.60383 71.1168 6.60383 71.2818 6.43836C72.1068 5.74339 71.9088 5.11461 70.7868 4.51892C66.5257 3.10846 61.9616 2.89105 57.5865 3.89014C52.8673 4.91604 52.0423 6.63692 55.7384 7.76211C59.4272 8.58372 63.2433 8.65125 66.9587 7.96068C69.3645 7.63762 71.7929 7.51585 74.2188 7.59665C79.862 7.59665 84.9111 8.58946 85.7691 10.1118C86.6271 11.6341 85.0761 12.4614 81.644 13.4212C76.5818 14.6286 71.3285 14.7974 66.1996 13.9176C64.8136 13.6528 64.8466 13.6528 65.6386 13.1895L65.9686 12.9248C66.0917 12.8635 66.2273 12.8317 66.3647 12.8317C66.502 12.8317 66.6376 12.8635 66.7607 12.9248C68.3206 13.3602 69.9273 13.6046 71.5458 13.6528C75.3376 13.9741 79.1415 13.1928 82.502 11.4024C84.0531 10.0456 81.512 8.75493 77.1889 8.3909C73.6882 8.07254 70.159 8.43206 66.7937 9.4499C65.3746 9.9794 64.6486 10.542 64.7476 11.1708C65.0116 12.8255 60.6555 14.4802 54.3854 14.9104L52.8013 15.0097Z" fill="#FF9400"/>
<path opacity="0.75" d="M43.594 20.834C49.9672 21.9867 55.723 25.3771 59.8304 30.3981C66.5955 38.8039 68.1466 55.1523 60.9524 72.1294C60.9524 72.1294 55.9033 71.7985 52.0422 71.0704L43.594 20.834Z" fill="#992B25"/>
<path opacity="0.75" d="M90.224 20.834C90.224 20.834 76.0997 28.6772 90.224 70.1769C90.224 70.1769 98.2102 68.456 98.3092 65.0143L98.6392 54.3911L95.3391 50.7177L93.1941 49.8242C93.3363 49.5003 93.4147 49.152 93.4251 48.7983V41.4184L90.224 20.834Z" fill="#992B25"/>
<path d="M100.916 23.5146L102.302 30.9938L90.3892 35.2629C90.9999 38.212 91.7599 41.1281 92.6662 43.9997L103.985 39.4989L110.058 54.1926L98.7054 58.6934C104.513 70.4086 110.982 78.1525 114.315 76.7626L124.215 72.8906L100.949 16.6311L91.0492 20.5031C89.4981 21.165 88.8711 23.8125 89.0361 27.5521L100.916 23.5146Z" fill="#FB6D4D"/>
<path d="M103.986 39.4658L92.6663 43.9997C93.4913 46.4486 94.4153 48.9968 95.4713 51.5782C96.5274 54.1595 97.5834 56.443 98.7714 58.6933L110.124 54.1926L103.986 39.4658Z" fill="#C54B40"/>
<path d="M100.916 23.5146L89.1021 27.4528C89.2737 30.0965 89.6712 32.7205 90.2901 35.2961L102.302 30.9939L100.916 23.5146Z" fill="#C54B40"/>
<path d="M119.727 41.6831C113.325 26.129 104.876 14.844 100.916 16.4987C99.2333 17.1937 98.6393 20.0728 98.9693 24.3419L123.72 52.935C122.596 49.1135 121.263 45.3572 119.727 41.6831Z" fill="#FFD100"/>
<path d="M105.338 47.6731C111.773 63.2272 120.189 74.5122 124.182 72.8575C126.261 71.997 126.69 67.761 125.733 61.7049L100.157 31.9204C101.46 37.3021 103.193 42.5699 105.338 47.6731Z" fill="#FFD100"/>
<path d="M100.157 31.8212L125.733 61.6057C125.237 58.6448 124.564 55.7163 123.72 52.8358L99.0022 24.342C99.2069 26.8598 99.5929 29.3594 100.157 31.8212Z" fill="#FFF3DA"/>
<path d="M103.688 36.9839C102.421 34.0984 101.576 31.0442 101.18 27.9162C100.949 25.1363 101.477 23.8457 102.83 24.2097C104.183 24.5737 106.131 26.9565 108.375 30.8285C108.724 31.6219 108.915 32.4765 108.936 33.3436C108.936 33.6745 108.474 34.1379 108.243 33.8069C107.682 32.9796 108.243 32.8141 108.012 32.1853C107.28 30.3538 106.113 28.7292 104.613 27.4529C102.533 25.7982 101.873 28.6112 103.292 33.3105C104.279 37.1462 106.208 40.6731 108.903 43.5696C110.817 45.125 111.576 43.0732 110.619 39.0026C109.794 35.6933 109.662 33.145 110.619 32.1522C111.576 31.1594 113.127 32.1522 115.272 35.0645C117.812 38.8934 119.666 43.1381 120.75 47.607C121.806 52.1409 121.377 54.7884 119.661 54.3913C119.331 54.3913 119.331 54.3913 118.935 53.3323C118.737 52.869 118.572 53.1337 118.374 52.6373C118.163 52.2819 117.932 51.9393 117.681 51.6114C118.638 52.1409 119.76 52.2733 119.991 50.2546C119.665 45.7309 118.114 41.3823 115.503 37.6789C112.863 33.6084 110.949 33.476 111.246 37.348C111.781 41.0948 113.06 44.6958 115.008 47.938C116.303 50.0409 117.407 52.256 118.308 54.5568C120.42 59.8187 121.179 64.9482 120.057 66.272C118.935 67.5957 117.615 66.4705 115.536 63.5914C112.613 59.2649 110.593 54.3908 109.596 49.2617C109.332 47.8387 109.134 49.2617 108.903 48.3682C108.903 48.1035 109.728 48.3682 109.827 48.3682C109.926 48.3682 110.718 49.0963 110.751 49.4934C110.973 51.006 111.349 52.4919 111.873 53.928C112.847 57.5619 114.812 60.8512 117.549 63.4259C119.397 64.4187 119.694 61.5396 118.506 57.3697C117.549 53.9686 115.959 50.7797 113.82 47.9711C112.83 46.8128 112.038 46.3495 111.477 46.6804C110.025 47.4747 106.923 43.9667 104.283 38.2746L103.688 36.9839Z" fill="#D47B33"/>
<path d="M103.127 37.3809C101.86 34.4954 101.015 31.4412 100.619 28.3132C100.388 25.5333 100.949 24.2426 102.269 24.6067C103.589 24.9707 105.569 27.3535 107.813 31.2254C108.126 31.6308 108.279 32.1374 108.242 32.6485C108.242 32.9794 108.242 33.3104 108.242 33.6413C108.242 33.9722 108.242 34.1046 107.912 33.4427C107.032 31.2801 105.705 29.3289 104.018 27.7175C101.939 26.0297 101.312 28.8758 102.698 33.5751C103.666 37.4043 105.572 40.9306 108.242 43.8342C110.156 45.3896 110.948 43.3378 109.958 39.2672C109.133 35.9579 109.001 33.4096 109.958 32.4168C110.915 31.424 112.467 32.4168 114.645 35.3291C117.169 39.1626 119.012 43.4064 120.09 47.8716C121.146 52.4055 120.717 55.053 119.001 54.6559C118.671 54.6559 118.671 54.6559 118.308 53.5969C118.11 53.1336 117.912 52.6372 117.681 52.1408C117.45 51.6443 117.483 51.5451 117.681 51.6774C118.638 52.2069 119.166 51.6774 119.331 50.5192C119.117 46.0452 117.703 41.712 115.239 37.9766C112.599 33.906 110.717 33.7737 110.981 37.6126C111.508 41.3768 112.8 44.9925 114.777 48.2357C116.059 50.3459 117.162 52.5598 118.077 54.8544C120.189 60.1164 120.948 65.2459 119.826 66.5697C118.704 67.8934 117.384 66.7682 115.305 63.8891C112.396 59.5553 110.376 54.684 109.364 49.5594C109.133 48.1364 109.133 48.1695 109.859 48.7652L110.189 48.9968C110.42 48.9968 110.486 49.2947 110.519 49.6918C110.701 51.3135 111.055 52.911 111.575 54.4573C112.492 58.0263 114.363 61.2762 116.988 63.856C118.836 64.8488 119.166 61.9696 117.945 57.7998C117.001 54.3934 115.41 51.202 113.259 48.4011C112.269 47.2429 111.476 46.7795 110.948 47.1105C109.463 47.9047 106.394 44.3968 103.754 38.6716L103.127 37.3809Z" fill="#FF9400"/>
<path d="M22.3084 70.8721L30.3606 66.603L47.059 75.3397C49.6463 73.4684 51.9571 71.2402 53.9232 68.721L38.2808 61.0432L45.277 46.7798L60.9523 54.5237C64.2524 41.6502 60.0943 28.876 50.0951 23.9119L38.8418 18.3853L12.0122 72.9901L23.1005 78.5499C27.8264 80.7968 33.2232 81.1749 38.2148 79.6089L22.3084 70.8721Z" fill="#FB6D4D"/>
<path d="M38.281 61.043L53.9234 68.7538C55.6051 66.6257 57.0648 64.3302 58.2795 61.9034C59.4265 59.5444 60.3224 57.0708 60.9525 54.5235L45.2772 46.7795L38.281 61.043Z" fill="#C54B40"/>
<path d="M22.3086 70.8719L38.347 79.6087C41.4759 78.703 44.4239 77.2584 47.0592 75.3396L30.3608 66.6028L22.3086 70.8719Z" fill="#C54B40"/>
<path d="M3.82806 34.9983C-3.56411 50.0891 -2.44267e-05 67.1655 12.0123 72.99C14.5247 74.1788 17.2467 74.858 20.0217 74.9886C22.7967 75.1193 25.5702 74.6987 28.1826 73.7512L10.7912 25.1694C7.95843 28.0491 5.6072 31.368 3.82806 34.9983Z" fill="#FFD100"/>
<path d="M47.0262 56.3439C54.4514 41.2862 50.7883 24.1436 38.842 18.3853C35.6718 16.9302 32.2018 16.2524 28.7187 16.4078C25.2357 16.5631 21.8395 17.5472 18.8105 19.2788L36.301 69.5152C40.8567 66.0291 44.5308 61.5172 47.0262 56.3439Z" fill="#FFD100"/>
<path d="M36.3009 69.515L18.8104 19.2786C15.8432 20.8039 13.1364 22.7922 10.7913 25.1693L28.1827 73.7841C31.094 72.7939 33.8331 71.3535 36.3009 69.515Z" fill="#FFF3DA"/>
<path d="M35.3438 62.2677C34.6477 63.8374 33.6431 65.2502 32.3899 66.4216C31.1368 67.593 29.6609 68.4988 28.0506 69.085C26.5092 69.7106 24.826 69.8995 23.1849 69.631C21.5437 69.3626 20.0076 68.6471 18.7444 67.5627C17.2347 66.2239 16.1265 64.4901 15.5436 62.5555C14.9608 60.6208 14.9264 58.5617 15.4443 56.6086C15.6423 55.6489 16.9623 55.1525 17.7874 54.9208C18.6124 54.6892 19.9984 55.3842 20.0644 55.8475C20.0644 57.0058 18.4474 56.046 18.2494 56.741C17.7621 57.9049 17.5939 59.1782 17.7621 60.4292C17.9304 61.6802 18.429 62.8633 19.2064 63.8562C19.8833 64.7677 20.7567 65.5141 21.7616 66.0396C22.7664 66.5652 23.8766 66.8564 25.0094 66.8914C26.1421 66.9264 27.2681 66.7043 28.3033 66.2418C29.3385 65.7793 30.2561 65.0882 30.9877 64.2202C32.5606 62.6838 33.5795 60.6665 33.8842 58.4859C34.1889 56.3052 33.762 54.0848 32.6707 52.1741C32.1029 51.3123 31.3596 50.5809 30.4896 50.0281C29.6197 49.4752 28.6428 49.1134 27.6233 48.9665C26.6039 48.8195 25.5649 48.8908 24.5749 49.1756C23.5849 49.4603 22.6663 49.9521 21.8795 50.6186C20.5893 51.774 19.0352 52.5928 17.3545 53.0026C15.6738 53.4125 13.9183 53.4007 12.2432 52.9683C10.378 52.4471 8.71683 51.3651 7.48363 49.868C6.25042 48.371 5.50439 46.5308 5.34607 44.5956C5.04856 42.2095 5.37947 39.7869 6.30585 37.5689C7.23223 35.3509 8.72177 33.4149 10.6262 31.9537C12.3557 30.4762 14.5393 29.6402 16.8107 29.586C19.082 29.5318 21.3028 30.2626 23.1005 31.6559C23.7275 32.2516 23.7275 32.2516 23.1005 33.1451C22.4735 34.0386 23.6615 33.7739 23.4635 34.2703C23.2655 34.7667 23.8595 36.0243 23.4635 35.6933C22.6047 34.6881 21.5355 33.8852 20.3319 33.3418C19.1284 32.7984 17.8201 32.5278 16.5003 32.5494C14.0278 32.8791 11.7705 34.1325 10.1797 36.0591C8.58895 37.9857 7.78197 40.4434 7.92013 42.9409C7.88337 44.1194 8.13655 45.2889 8.65731 46.346C9.17807 47.4032 9.95039 48.3155 10.9061 49.0023C11.8617 49.6892 12.9714 50.1296 14.137 50.2845C15.3026 50.4394 16.4883 50.3041 17.5894 49.8906C19.4917 49.1817 21.138 47.9163 22.3148 46.2582C23.4916 44.6002 24.1447 42.6259 24.1895 40.5912C24.1412 38.0726 24.7197 35.5817 25.8725 33.3437C27.015 30.98 28.9104 29.0655 31.2591 27.9029C33.6079 26.7402 36.276 26.3955 38.8418 26.9235C40.66 27.421 42.2855 28.4586 43.5047 29.8998C44.7239 31.341 45.4798 33.1184 45.673 34.9984C46.1113 37.7225 45.715 40.5159 44.5366 43.0095C43.3582 45.503 41.453 47.5793 39.0729 48.964C37.5878 49.7913 40.2609 49.6589 39.3699 50.3208C39.0069 50.3208 37.1918 49.0632 37.0268 48.8647C36.8618 48.6661 35.9708 47.21 36.4658 47.0445C38.1432 46.4358 39.6255 45.3838 40.7559 43.9999C42.1756 42.3307 42.9799 40.2228 43.034 38.0296C43.0881 35.8364 42.3886 33.6912 41.0529 31.9537C40.3176 31.2121 39.4384 30.6296 38.4696 30.2423C37.5009 29.8551 36.4632 29.6713 35.4208 29.7023C34.3783 29.7333 33.3533 29.9785 32.4092 30.4227C31.465 30.8669 30.6218 31.5006 29.9316 32.2847C28.5963 33.6153 27.6503 35.2875 27.1965 37.1196C26.7427 38.9517 26.7984 40.8736 27.3576 42.6761C27.6533 43.5853 28.1347 44.4227 28.7711 45.1349C29.4075 45.8472 30.1848 46.4186 31.0537 46.8129C33.4535 48.1416 35.2814 50.3101 36.1884 52.9044C37.0954 55.4987 37.0179 58.3371 35.9708 60.8777C35.7728 61.4072 35.5088 61.9036 35.3438 62.2677Z" fill="#D47B33"/>
<path d="M37.0268 63.0948C36.3218 64.6606 35.3099 66.0681 34.0513 67.2336C32.7927 68.3992 31.3131 69.2988 29.7006 69.8791C28.1585 70.5194 26.4698 70.7192 24.8214 70.4564C23.1731 70.1935 21.6294 69.4783 20.3614 68.3899C18.8579 67.0464 17.754 65.3124 17.1717 63.3793C16.5893 61.4462 16.5511 59.3893 17.0613 57.4358C17.0613 56.4761 17.0613 56.4761 18.0844 56.2444L19.4704 55.9135C20.1304 55.748 20.1964 55.9135 19.9654 56.5092C19.503 57.8268 19.3459 59.2328 19.506 60.6204C19.6661 62.008 20.1392 63.3409 20.8894 64.5179C21.5663 65.4294 22.4398 66.1758 23.4446 66.7013C24.4494 67.2269 25.5596 67.5181 26.6924 67.5531C27.8251 67.5881 28.9512 67.366 29.9863 66.9035C31.0215 66.4409 31.9391 65.7499 32.6707 64.8819C34.2566 63.3473 35.2866 61.3258 35.5974 59.1378C35.9083 56.9498 35.4822 54.7204 34.3867 52.8027C33.7998 51.9599 33.0431 51.25 32.1655 50.7189C31.2878 50.1879 30.3089 49.8474 29.2918 49.7195C28.2747 49.5916 27.2422 49.6792 26.261 49.9765C25.2798 50.2739 24.3717 50.7744 23.5955 51.4458C22.3078 52.6297 20.7481 53.4759 19.0553 53.909C17.3625 54.342 15.5892 54.3485 13.8933 53.9278C12.0231 53.4046 10.3584 52.3176 9.1247 50.8141C7.89102 49.3106 7.14794 47.4631 6.9961 45.522C6.6668 43.116 6.98588 40.6655 7.9202 38.4249C8.85452 36.1844 10.37 34.2356 12.3092 32.7809C14.0436 31.2866 16.2404 30.4405 18.5263 30.3862C20.8123 30.3319 23.0465 31.0728 24.8495 32.483C25.4765 33.0787 25.4765 33.0787 25.0475 33.9723C24.6185 34.8658 24.5525 34.8989 24.3215 35.3622C24.0905 35.8255 23.9255 35.8586 23.6615 35.5277C22.9726 34.7209 22.1002 34.0923 21.118 33.6948C20.1358 33.2974 19.0727 33.1428 18.0184 33.2442C15.5458 33.5739 13.2885 34.8273 11.6978 36.7539C10.107 38.6805 9.3 41.1382 9.43816 43.6357C9.39038 44.8386 9.64356 46.0345 10.1746 47.1142C10.7057 48.1939 11.4978 49.1232 12.4786 49.8173C13.4595 50.5115 14.598 50.9484 15.7904 51.0883C16.9828 51.2283 18.1912 51.0667 19.3054 50.6185C21.2078 49.9096 22.854 48.6442 24.0308 46.9861C25.2076 45.328 25.8607 43.3538 25.9055 41.3191C25.8211 38.8084 26.3657 36.3166 27.4896 34.0715C28.6328 31.7102 30.5298 29.7993 32.8793 28.6422C35.2289 27.4851 37.8965 27.148 40.4589 27.6844C42.2704 28.1942 43.8887 29.2354 45.1059 30.6742C46.3231 32.113 47.0837 33.8839 47.29 35.7593C47.719 38.4829 47.3185 41.2728 46.141 43.7644C44.9634 46.2561 43.0636 48.3334 40.6899 49.7249C39.2379 50.5523 39.2049 50.5192 38.3798 49.1954L37.8848 48.5335C37.5548 48.1364 37.5878 47.971 38.1158 47.8055C39.8528 47.1905 41.3843 46.1017 42.5379 44.6616C43.9634 42.9952 44.7715 40.8864 44.8256 38.6915C44.8797 36.4967 44.1765 34.3504 42.8349 32.6154C42.0996 31.8738 41.2204 31.2913 40.2517 30.904C39.2829 30.5168 38.2452 30.333 37.2028 30.364C36.1604 30.395 35.1354 30.6402 34.1912 31.0844C33.2471 31.5285 32.4038 32.1623 31.7137 32.9464C30.3809 34.2784 29.439 35.9523 28.9908 37.7849C28.5427 39.6176 28.6056 41.5386 29.1726 43.3378C29.461 44.2458 29.936 45.083 30.5669 45.7956C31.1979 46.5081 31.9707 47.08 32.8357 47.4745C35.2566 48.7993 37.1004 50.9789 38.009 53.5901C38.9176 56.2014 38.8263 59.0581 37.7528 61.6056C37.4228 62.2013 37.1918 62.7308 37.0268 63.0948Z" fill="#FF9400"/>
<path d="M74.7467 90.7283L82.1058 94.0377L81.7098 107.739C84.6306 108.634 87.6227 109.276 90.653 109.658V96.6852H106.493V109.559C119.463 107.871 129.033 102.212 129 95.4938V85.5657L68.3115 85.7973V95.7255C68.4954 97.4951 69.1169 99.1908 70.1196 100.659C71.1223 102.126 72.4745 103.32 74.0537 104.131L74.7467 90.7283Z" fill="#FB6D4D"/>
<path d="M90.6201 96.6851V109.525C93.2909 109.863 95.9804 110.029 98.6723 110.022C101.277 110.017 103.879 109.84 106.46 109.492V96.6189L90.6201 96.6851Z" fill="#C54B40"/>
<path d="M74.7467 90.7283L74.0537 103.966C76.4338 105.489 79.0095 106.68 81.7099 107.507L82.1059 93.806L74.7467 90.7283Z" fill="#C54B40"/>
<path d="M98.5733 71.1697C81.8089 71.1697 68.2456 77.7885 68.2786 85.7641C68.5141 87.6905 69.2468 89.522 70.4043 91.0775C71.5619 92.633 73.1042 93.8586 74.8788 94.6332L110.553 72.2949C106.606 71.5267 102.594 71.1498 98.5733 71.1697Z" fill="#FFD100"/>
<path d="M98.6723 100.259C115.437 100.259 129 93.6406 128.967 85.665C128.967 81.4951 125.205 77.7555 119.265 75.1411L82.1389 97.9759C87.5057 99.5594 93.0785 100.329 98.6723 100.259Z" fill="#FFD100"/>
<path d="M82.139 97.8434L119.265 75.0086C116.442 73.7671 113.485 72.8565 110.454 72.2949L74.7798 94.6333C77.0871 96.0121 79.56 97.0908 82.139 97.8434Z" fill="#FFF3DA"/>
<path d="M88.211 95.4275C84.9799 95.5671 81.7694 94.8479 78.9048 93.3426C76.2647 91.7872 75.2417 90.0332 76.0997 87.9152C76.9577 85.7972 79.9278 83.9439 84.4159 83.1497C85.3333 83.1192 86.2324 83.4119 86.957 83.977C87.254 84.1756 87.518 85.2677 86.957 85.4331C86 85.8303 86.099 84.6389 85.4059 84.7051C84.3307 84.6971 83.265 84.907 82.2726 85.3222C81.2802 85.7373 80.3817 86.3491 79.6308 87.1209C77.3207 89.5368 79.6308 92.6145 84.5479 93.5411C86.5188 94.0359 88.5748 94.0847 90.5668 93.684C92.5588 93.2833 94.437 92.4432 96.0652 91.2246C98.2432 89.0404 96.6262 86.2936 92.5011 85.0691C89.102 84.0432 86.891 82.554 86.264 80.4029C85.6369 78.2518 87.089 76.0014 90.6861 74.446C95.0555 72.8107 99.8329 72.6251 104.315 73.9165C108.902 75.3064 111.213 77.8878 110.19 80.5353C109.959 81.0317 109.926 81.0317 108.935 81.0317C107.945 81.0317 108.605 81.5281 108.077 81.5281C107.549 81.5281 106.691 82.223 106.856 81.9583C107.429 81.2553 107.711 80.3585 107.644 79.4532C107.576 78.5479 107.164 77.7031 106.493 77.0935C104.183 74.5784 97.8142 73.7841 93.2931 75.2402C88.772 76.6964 87.716 80.0719 91.3791 82.3223C94.8682 84.0328 98.8655 84.3865 102.599 83.3151C104.939 82.5912 107.378 82.2449 109.827 82.2892C115.47 82.2892 120.486 84.6389 121.311 87.5511C121.971 89.8677 120.552 91.8533 117.12 93.3757C112.153 95.3115 106.642 95.3115 101.675 93.3757C100.289 92.8131 101.675 94.203 100.586 93.9052C100.355 93.7397 100.751 92.3828 100.85 92.2505C100.949 92.1181 101.84 91.2246 102.236 91.4562C103.715 92.2829 105.34 92.8113 107.021 93.0116C111.543 93.6404 116.427 92.2505 117.912 89.9339C119.397 87.6173 116.988 84.9367 112.665 84.0432C109.139 83.3033 105.468 83.806 102.269 85.4662C101.672 85.7356 101.162 86.166 100.795 86.7095C100.428 87.253 100.218 87.8881 100.19 88.544C100.388 91.6217 95.9992 94.4678 89.729 95.1627L88.211 95.4275Z" fill="#D47B33"/>
<path d="M88.2112 96.5528C84.9755 96.7 81.7602 95.9683 78.9049 94.4348C76.2649 92.9125 75.2749 91.1254 76.0999 89.0405C76.9249 86.9556 79.928 85.0693 84.4161 84.275C85.3071 84.1095 85.3401 84.1095 85.9011 84.5067L86.8251 85.1686C87.2541 85.4995 87.2211 85.5326 86.5281 85.5988C84.0941 85.7136 81.7694 86.6461 79.928 88.2463C77.6179 90.6621 79.928 93.7399 84.8451 94.6665C86.8165 95.1542 88.871 95.1995 90.8619 94.799C92.8528 94.3986 94.731 93.5623 96.3623 92.3499C98.5404 90.1657 96.9564 87.3858 92.7983 86.1945C89.3332 85.1686 87.0561 83.6793 86.4291 81.6275C85.8021 79.5757 87.2541 77.226 90.8512 75.6706C95.2173 74.0189 100 73.8331 104.481 75.1411C109.068 76.498 111.378 79.1124 110.355 81.7599C110.355 81.7599 110.124 82.2563 109.101 82.2563H107.55C107.055 82.2563 106.923 82.2563 107.088 81.9254C107.49 81.3774 107.67 80.6962 107.591 80.0202C107.511 79.3441 107.178 78.7238 106.659 78.285C104.349 75.803 97.9794 74.9756 93.4583 76.4649C88.9372 77.9541 87.8811 81.2966 91.5442 83.547C95.0375 85.2422 99.0291 85.5954 102.764 84.5398C105.062 83.9002 107.444 83.6211 109.827 83.7124C115.47 83.7124 120.486 86.0952 121.311 88.9743C121.971 91.324 120.585 93.3096 117.12 94.832C112.147 96.7361 106.648 96.7361 101.675 94.832C100.289 94.2363 100.322 94.2363 101.114 93.442C101.255 93.3045 101.378 93.1486 101.477 92.9787C101.675 92.7139 101.84 92.6808 102.236 92.9787C103.715 93.8054 105.341 94.3338 107.022 94.5341C111.543 95.1298 116.427 93.7399 117.912 91.4564C119.397 89.1729 117.021 86.4592 112.698 85.5657C109.169 84.8414 105.499 85.3555 102.302 87.0218C101.707 87.3028 101.2 87.7406 100.833 88.2886C100.467 88.8365 100.256 89.4739 100.223 90.1326C100.421 93.2104 96.0323 96.0564 89.7622 96.5528C89.1022 96.5528 88.6072 96.5197 88.2112 96.5528Z" fill="#FF9400"/>
</g>
<defs>
<clipPath id="clip0_600_1158">
<rect width="129" height="109.044" fill="white" transform="translate(0 0.977783)"/>
</clipPath>
</defs>
</svg>
