<svg width="34" height="35" viewBox="0 0 34 35" fill="none" xmlns="http://www.w3.org/2000/svg">
<path d="M26.2929 8.66868C24.5224 7.85632 22.6239 7.25781 20.6388 6.91501C20.6027 6.9084 20.5666 6.92493 20.5479 6.958C20.3038 7.39227 20.0333 7.95882 19.8439 8.40413C17.7089 8.08449 15.5848 8.08449 13.4935 8.40413C13.304 7.94892 13.0238 7.39227 12.7785 6.958C12.7599 6.92603 12.7238 6.9095 12.6876 6.91501C10.7037 7.25671 8.8051 7.85522 7.03354 8.66868C7.01821 8.67529 7.00506 8.68633 6.99634 8.70065C3.39518 14.0807 2.40868 19.3285 2.89262 24.5112C2.89481 24.5366 2.90905 24.5609 2.92876 24.5763C5.30469 26.3211 7.6062 27.3804 9.86496 28.0825C9.90111 28.0935 9.93941 28.0803 9.96242 28.0505C10.4967 27.3209 10.973 26.5515 11.3814 25.7424C11.4055 25.695 11.3825 25.6388 11.3332 25.6201C10.5778 25.3335 9.85839 24.9841 9.16641 24.5873C9.11167 24.5553 9.10729 24.4771 9.15764 24.4396C9.30326 24.3305 9.44892 24.2169 9.58796 24.1023C9.61312 24.0814 9.64818 24.0769 9.67775 24.0902C14.2238 26.1657 19.1454 26.1657 23.6377 24.0902C23.6673 24.0758 23.7024 24.0803 23.7286 24.1012C23.8677 24.2158 24.0133 24.3305 24.16 24.4396C24.2104 24.4771 24.2071 24.5553 24.1524 24.5873C23.4604 24.9918 22.741 25.3335 21.9844 25.619C21.9352 25.6377 21.9133 25.695 21.9374 25.7424C22.3545 26.5504 22.8308 27.3197 23.3553 28.0494C23.3772 28.0803 23.4166 28.0935 23.4527 28.0825C25.7224 27.3804 28.0239 26.3211 30.3999 24.5763C30.4207 24.5609 30.4338 24.5377 30.436 24.5123C31.0152 18.5205 29.4659 13.3157 26.329 8.70174C26.3213 8.68633 26.3082 8.67529 26.2929 8.66868ZM12.0603 21.3555C10.6916 21.3555 9.56386 20.099 9.56386 18.5558C9.56386 17.0127 10.6697 15.7561 12.0603 15.7561C13.4617 15.7561 14.5785 17.0237 14.5566 18.5558C14.5566 20.099 13.4508 21.3555 12.0603 21.3555ZM21.2903 21.3555C19.9216 21.3555 18.7939 20.099 18.7939 18.5558C18.7939 17.0127 19.8997 15.7561 21.2903 15.7561C22.6918 15.7561 23.8085 17.0237 23.7867 18.5558C23.7867 20.099 22.6918 21.3555 21.2903 21.3555Z" fill="white"/>
</svg>
