<svg width="235" height="51" viewBox="0 0 235 51" fill="none" xmlns="http://www.w3.org/2000/svg">
<path d="M89.032 28.128C89.032 29.088 88.968 29.952 88.84 30.72H69.4C69.56 32.64 70.232 34.144 71.416 35.232C72.6 36.32 74.056 36.864 75.784 36.864C78.28 36.864 80.056 35.792 81.112 33.648H88.36C87.592 36.208 86.12 38.32 83.944 39.984C81.768 41.616 79.096 42.432 75.928 42.432C73.368 42.432 71.064 41.872 69.016 40.752C67 39.6 65.416 37.984 64.264 35.904C63.144 33.824 62.584 31.424 62.584 28.704C62.584 25.952 63.144 23.536 64.264 21.456C65.384 19.376 66.952 17.776 68.968 16.656C70.984 15.536 73.304 14.976 75.928 14.976C78.456 14.976 80.712 15.52 82.696 16.608C84.712 17.696 86.264 19.248 87.352 21.264C88.472 23.248 89.032 25.536 89.032 28.128ZM82.072 26.208C82.04 24.48 81.416 23.104 80.2 22.08C78.984 21.024 77.496 20.496 75.736 20.496C74.072 20.496 72.664 21.008 71.512 22.032C70.392 23.024 69.704 24.416 69.448 26.208H82.072ZM100.657 6.48V42H93.937V6.48H100.657ZM119.488 20.928H114.832V42H108.016V20.928H104.992V15.408H108.016V14.064C108.016 10.8 108.944 8.4 110.8 6.864C112.656 5.328 115.456 4.608 119.2 4.704V10.368C117.568 10.336 116.432 10.608 115.792 11.184C115.152 11.76 114.832 12.8 114.832 14.304V15.408H119.488V20.928ZM126.819 42.336C125.603 42.336 124.595 41.968 123.795 41.232C123.027 40.464 122.643 39.52 122.643 38.4C122.643 37.28 123.027 36.352 123.795 35.616C124.595 34.848 125.603 34.464 126.819 34.464C128.003 34.464 128.979 34.848 129.747 35.616C130.515 36.352 130.899 37.28 130.899 38.4C130.899 39.52 130.515 40.464 129.747 41.232C128.979 41.968 128.003 42.336 126.819 42.336ZM134.584 28.704C134.584 25.952 135.144 23.552 136.264 21.504C137.384 19.424 138.936 17.824 140.92 16.704C142.904 15.552 145.176 14.976 147.736 14.976C151.032 14.976 153.752 15.808 155.896 17.472C158.072 19.104 159.528 21.408 160.264 24.384H153.016C152.632 23.232 151.976 22.336 151.048 21.696C150.152 21.024 149.032 20.688 147.688 20.688C145.768 20.688 144.248 21.392 143.128 22.8C142.008 24.176 141.448 26.144 141.448 28.704C141.448 31.232 142.008 33.2 143.128 34.608C144.248 35.984 145.768 36.672 147.688 36.672C150.408 36.672 152.184 35.456 153.016 33.024H160.264C159.528 35.904 158.072 38.192 155.896 39.888C153.72 41.584 151 42.432 147.736 42.432C145.176 42.432 142.904 41.872 140.92 40.752C138.936 39.6 137.384 38 136.264 35.952C135.144 33.872 134.584 31.456 134.584 28.704ZM176.995 42.432C174.435 42.432 172.131 41.872 170.083 40.752C168.035 39.6 166.419 37.984 165.235 35.904C164.083 33.824 163.507 31.424 163.507 28.704C163.507 25.984 164.099 23.584 165.283 21.504C166.499 19.424 168.147 17.824 170.227 16.704C172.307 15.552 174.627 14.976 177.187 14.976C179.747 14.976 182.067 15.552 184.147 16.704C186.227 17.824 187.859 19.424 189.043 21.504C190.259 23.584 190.867 25.984 190.867 28.704C190.867 31.424 190.243 33.824 188.995 35.904C187.779 37.984 186.115 39.6 184.003 40.752C181.923 41.872 179.587 42.432 176.995 42.432ZM176.995 36.576C178.211 36.576 179.347 36.288 180.403 35.712C181.491 35.104 182.355 34.208 182.995 33.024C183.635 31.84 183.955 30.4 183.955 28.704C183.955 26.176 183.283 24.24 181.939 22.896C180.627 21.52 179.011 20.832 177.091 20.832C175.171 20.832 173.555 21.52 172.243 22.896C170.963 24.24 170.323 26.176 170.323 28.704C170.323 31.232 170.947 33.184 172.195 34.56C173.475 35.904 175.075 36.576 176.995 36.576ZM199.204 12.24C198.02 12.24 197.028 11.872 196.228 11.136C195.46 10.368 195.076 9.424 195.076 8.304C195.076 7.184 195.46 6.256 196.228 5.52C197.028 4.752 198.02 4.368 199.204 4.368C200.388 4.368 201.364 4.752 202.132 5.52C202.932 6.256 203.332 7.184 203.332 8.304C203.332 9.424 202.932 10.368 202.132 11.136C201.364 11.872 200.388 12.24 199.204 12.24ZM202.516 15.408V42H195.796V15.408H202.516ZM223.892 15.024C227.06 15.024 229.62 16.032 231.572 18.048C233.524 20.032 234.5 22.816 234.5 26.4V42H227.78V27.312C227.78 25.2 227.252 23.584 226.196 22.464C225.14 21.312 223.7 20.736 221.876 20.736C220.02 20.736 218.548 21.312 217.46 22.464C216.404 23.584 215.876 25.2 215.876 27.312V42H209.156V15.408H215.876V18.72C216.772 17.568 217.908 16.672 219.284 16.032C220.692 15.36 222.228 15.024 223.892 15.024Z" fill="#7851A2"/>
<path d="M33.121 25.3249C30.5464 24.8789 28.1928 23.6003 26.427 21.6883C24.6612 19.7764 23.5826 17.3386 23.3591 14.7548C23.1355 12.171 23.7798 9.58649 25.1914 7.40398C26.6029 5.22146 28.7025 3.56359 31.1629 2.68877C33.6233 1.81394 36.3063 1.77131 38.7936 2.56751C41.281 3.36372 43.433 4.95402 44.9143 7.09057C46.3956 9.22712 47.1229 11.7899 46.9829 14.3794C46.8429 16.969 45.8434 19.4398 44.1403 21.4069" stroke="#7851A2" stroke-width="4" stroke-linecap="round" stroke-linejoin="round"/>
<path d="M25.3929 20.5595C25.9556 23.0302 25.6987 25.6151 24.6604 27.9291C23.6221 30.243 21.8579 32.1621 19.6309 33.4003C17.4039 34.6385 14.8333 35.1295 12.3021 34.8001C9.77102 34.4707 7.41492 33.3386 5.58503 31.5725C3.75514 29.8063 2.54944 27.5008 2.14762 24.9994C1.7458 22.498 2.16938 19.9348 3.35524 17.6917C4.54109 15.4486 6.42572 13.6458 8.72822 12.552C11.0307 11.4582 13.6278 11.1319 16.1324 11.6218" stroke="#7851A2" stroke-width="4" stroke-linecap="round" stroke-linejoin="round"/>
<path d="M23.453 30.0219C25.0735 27.9611 27.3403 26.4953 29.8948 25.8564C32.4492 25.2175 35.1454 25.442 37.5568 26.4943C39.9683 27.5466 41.9572 29.3666 43.209 31.6665C44.4608 33.9664 44.904 36.6147 44.4685 39.1926C44.033 41.7705 42.7436 44.1307 40.8043 45.8998C38.865 47.6689 36.3866 48.7459 33.7612 48.9604C31.1357 49.1749 28.5131 48.5146 26.3083 47.0841C24.1035 45.6536 22.4424 43.5344 21.5878 41.062" stroke="#7851A2" stroke-width="4" stroke-linecap="round" stroke-linejoin="round"/>
</svg>
