<svg width="53" height="22" viewBox="0 0 53 22" fill="none" xmlns="http://www.w3.org/2000/svg">
<path d="M35.9589 11.87C35.9589 12.1127 35.9449 12.3693 35.9169 12.64H29.7849C29.8315 13.396 30.0882 13.9887 30.5549 14.418C31.0309 14.838 31.6049 15.048 32.2769 15.048C32.8275 15.048 33.2849 14.922 33.6489 14.67C34.0222 14.4087 34.2835 14.0633 34.4329 13.634H35.8049C35.5995 14.3713 35.1889 14.9733 34.5729 15.44C33.9569 15.8973 33.1915 16.126 32.2769 16.126C31.5489 16.126 30.8955 15.9627 30.3169 15.636C29.7475 15.3093 29.2995 14.8473 28.9729 14.25C28.6462 13.6433 28.4829 12.9433 28.4829 12.15C28.4829 11.3567 28.6415 10.6613 28.9589 10.064C29.2762 9.46667 29.7195 9.00933 30.2889 8.692C30.8675 8.36533 31.5302 8.202 32.2769 8.202C33.0049 8.202 33.6489 8.36067 34.2089 8.678C34.7689 8.99533 35.1982 9.434 35.4969 9.994C35.8049 10.5447 35.9589 11.17 35.9589 11.87ZM34.6429 11.604C34.6429 11.1187 34.5355 10.7033 34.3209 10.358C34.1062 10.0033 33.8122 9.73733 33.4389 9.56C33.0749 9.37333 32.6689 9.28 32.2209 9.28C31.5769 9.28 31.0262 9.48533 30.5689 9.896C30.1209 10.3067 29.8642 10.876 29.7989 11.604H34.6429ZM38.9145 5.64V16H37.6405V5.64H38.9145ZM44.2078 9.378H42.5978V16H41.3238V9.378H40.3298V8.328H41.3238V7.782C41.3238 6.92333 41.5431 6.298 41.9818 5.906C42.4298 5.50467 43.1438 5.304 44.1238 5.304V6.368C43.5638 6.368 43.1671 6.48 42.9338 6.704C42.7098 6.91867 42.5978 7.278 42.5978 7.782V8.328H44.2078V9.378ZM45.2172 12.15C45.2172 11.3567 45.3759 10.666 45.6932 10.078C46.0106 9.48067 46.4492 9.01867 47.0092 8.692C47.5786 8.36533 48.2272 8.202 48.9552 8.202C49.8979 8.202 50.6726 8.43067 51.2792 8.888C51.8952 9.34533 52.3012 9.98 52.4972 10.792H51.1252C50.9946 10.3253 50.7379 9.95667 50.3552 9.686C49.9819 9.41533 49.5152 9.28 48.9552 9.28C48.2272 9.28 47.6392 9.532 47.1912 10.036C46.7432 10.5307 46.5192 11.2353 46.5192 12.15C46.5192 13.074 46.7432 13.788 47.1912 14.292C47.6392 14.796 48.2272 15.048 48.9552 15.048C49.5152 15.048 49.9819 14.9173 50.3552 14.656C50.7286 14.3947 50.9852 14.0213 51.1252 13.536H52.4972C52.2919 14.32 51.8812 14.95 51.2652 15.426C50.6492 15.8927 49.8792 16.126 48.9552 16.126C48.2272 16.126 47.5786 15.9627 47.0092 15.636C46.4492 15.3093 46.0106 14.8473 45.6932 14.25C45.3759 13.6527 45.2172 12.9527 45.2172 12.15Z" fill="white"/>
<path d="M14.2552 10.9255C13.1586 10.7357 12.1561 10.1916 11.4041 9.37801C10.652 8.56443 10.1925 7.52706 10.0973 6.42758C10.0021 5.3281 10.2765 4.2283 10.8778 3.29956C11.479 2.37083 12.3733 1.66536 13.4212 1.29309C14.4691 0.920828 15.6119 0.902686 16.6713 1.2415C17.7307 1.5803 18.6474 2.25703 19.2783 3.1662C19.9092 4.07537 20.219 5.1659 20.1593 6.26784C20.0997 7.36977 19.674 8.4212 18.9486 9.25824" stroke="white" stroke-width="1.5" stroke-linecap="round" stroke-linejoin="round"/>
<path d="M10.9636 8.89772C11.2033 9.94905 11.0939 11.049 10.6517 12.0337C10.2094 13.0184 9.45801 13.835 8.50947 14.3619C7.56093 14.8888 6.46603 15.0977 5.38795 14.9575C4.30988 14.8174 3.30636 14.3356 2.52696 13.5841C1.74756 12.8325 1.23402 11.8514 1.06287 10.787C0.891729 9.7226 1.07214 8.63186 1.57723 7.67735C2.08232 6.72285 2.88503 5.9557 3.86572 5.49025C4.84642 5.02479 5.95259 4.88594 7.01937 5.09441" stroke="white" stroke-width="1.5" stroke-linecap="round" stroke-linejoin="round"/>
<path d="M10.1373 12.9242C10.8276 12.0473 11.793 11.4235 12.881 11.1517C13.969 10.8798 15.1174 10.9753 16.1445 11.4231C17.1716 11.8709 18.0188 12.6454 18.5519 13.624C19.0851 14.6027 19.2739 15.7297 19.0884 16.8266C18.9029 17.9236 18.3537 18.928 17.5277 19.6808C16.7017 20.4336 15.6461 20.8919 14.5278 20.9831C13.4096 21.0744 12.2926 20.7935 11.3535 20.1847C10.4144 19.576 9.70689 18.6742 9.34288 17.6221" stroke="white" stroke-width="1.5" stroke-linecap="round" stroke-linejoin="round"/>
</svg>
