<svg width="142" height="159" viewBox="0 0 142 159" fill="none" xmlns="http://www.w3.org/2000/svg">
<g clip-path="url(#clip0_600_1148)">
<path d="M41.7312 110.568C41.7312 110.568 0.270993 89.7683 0.270992 76.0646C0.270992 62.3609 49.4788 47.2612 49.4788 47.2612C49.4788 47.2612 49.8743 1.79922 67.3936 0.72898C84.913 -0.341261 93.7309 39.5136 93.7309 39.5136C93.7309 39.5136 133.283 22.9248 139.612 32.7897C145.94 42.6545 138.634 55.0088 110.133 81.0203C110.133 81.0203 134.447 110.522 133.051 128.111C131.655 145.7 88.2866 130.973 81.5394 126.412C81.5394 126.412 62.4845 160.102 47.3616 158.682C32.2386 157.263 41.7312 110.568 41.7312 110.568Z" fill="url(#paint0_radial_600_1148)"/>
<path d="M41.7312 110.568C41.7312 110.568 0.270993 89.7683 0.270992 76.0646C0.270992 62.3609 49.4788 47.2612 49.4788 47.2612C49.4788 47.2612 49.8743 1.79922 67.3936 0.72898C84.913 -0.341261 93.7309 39.5136 93.7309 39.5136C93.7309 39.5136 133.283 22.9248 139.612 32.7897C145.94 42.6545 138.634 55.0088 110.133 81.0203C110.133 81.0203 134.447 110.522 133.051 128.111C131.655 145.7 88.2866 130.973 81.5394 126.412C81.5394 126.412 62.4845 160.102 47.3616 158.682C32.2386 157.263 41.7312 110.568 41.7312 110.568Z" fill="url(#paint1_radial_600_1148)"/>
<path d="M41.7312 110.568C41.7312 110.568 0.270995 89.7682 0.270995 76.0645C0.270995 76.0645 44.1043 72.4117 70.4415 81.0202C70.4415 81.0202 64.4156 94.9566 41.7312 110.568Z" fill="#FF8B00"/>
<path d="M81.5395 126.412C81.5395 126.412 62.4845 160.102 47.3616 158.729C47.3616 158.729 73.6988 114.407 70.4415 81.0667C70.4415 81.0202 81.2603 105.775 81.5395 126.412Z" fill="#FF8B00"/>
<path d="M133.05 128.111C131.631 145.7 88.2865 130.973 81.5393 126.412C81.5393 126.412 77.049 97.3763 70.4414 81.0203C95.5412 90.1204 117.345 106.52 133.05 128.111V128.111Z" fill="#FFC600"/>
<path d="M139.611 32.7897C145.94 42.6312 138.634 55.0088 110.133 81.0203L70.4414 81.0203C70.4414 81.0203 98.3607 41.8634 139.611 32.7897V32.7897Z" fill="#FFC600"/>
<path d="M93.7308 39.5136C93.7308 39.5136 84.9362 -0.317976 67.3936 0.752265C67.3936 0.752265 80.9111 42.6312 70.4414 81.0203C70.4414 81.0203 84.0288 48.8433 93.7308 39.5136Z" fill="#FF8B00"/>
<path d="M49.4788 47.2612C49.4788 47.2612 49.8743 1.79929 67.3936 0.729052C67.3936 0.729052 83.9824 48.9597 70.4415 80.9971C70.4415 81.0203 59.8322 51.1932 49.4788 47.2612Z" fill="#FFC600"/>
</g>
<defs>
<radialGradient id="paint0_radial_600_1148" cx="0" cy="0" r="1" gradientUnits="userSpaceOnUse" gradientTransform="translate(70.9999 79.7174) rotate(-90) scale(74.9866 74.9866)">
<stop offset="0.18" stop-color="#FFC600"/>
<stop offset="0.44" stop-color="#FFAE00"/>
<stop offset="0.75" stop-color="#FF8B00"/>
</radialGradient>
<radialGradient id="paint1_radial_600_1148" cx="0" cy="0" r="1" gradientUnits="userSpaceOnUse" gradientTransform="translate(70.9999 79.7174) rotate(-90) scale(74.9866 74.9866)">
<stop offset="0.18" stop-color="#FFC600"/>
<stop offset="0.44" stop-color="#FFAE00"/>
<stop offset="0.75" stop-color="#FF8B00"/>
</radialGradient>
<clipPath id="clip0_600_1148">
<rect width="158" height="141.458" fill="white" transform="translate(0.270996 158.729) rotate(-90)"/>
</clipPath>
</defs>
</svg>
