<svg width="79" height="71" viewBox="0 0 79 71" fill="none" xmlns="http://www.w3.org/2000/svg">
<g clip-path="url(#clip0_589_1931)">
<path d="M24.0804 20.7301C24.0804 20.7301 34.4803 0 41.3322 0C48.1841 0 55.7339 24.6039 55.7339 24.6039C55.7339 24.6039 78.4649 24.8016 79 33.5613C79.5351 42.321 59.6077 46.7299 59.6077 46.7299C59.6077 46.7299 67.9021 66.5061 62.9697 69.6703C58.0373 72.8345 51.8601 69.1817 38.8544 54.9312C38.8544 54.9312 24.1037 67.0878 15.3091 66.3898C6.51451 65.6918 13.8782 44.0078 16.1583 40.6342C16.1583 40.6342 -0.686344 31.1068 0.0232719 23.5453C0.732888 15.9838 24.0804 20.7301 24.0804 20.7301Z" fill="url(#paint0_radial_589_1931)"/>
<path d="M24.0804 20.7301C24.0804 20.7301 34.4803 0 41.3322 0C48.1841 0 55.7339 24.6039 55.7339 24.6039C55.7339 24.6039 78.4649 24.8016 79 33.5613C79.5351 42.321 59.6077 46.7299 59.6077 46.7299C59.6077 46.7299 67.9021 66.5061 62.9697 69.6703C58.0373 72.8345 51.8601 69.1817 38.8544 54.9312C38.8544 54.9312 24.1037 67.0878 15.3091 66.3898C6.51451 65.6918 13.8782 44.0078 16.1583 40.6342C16.1583 40.6342 -0.686344 31.1068 0.0232719 23.5453C0.732888 15.9838 24.0804 20.7301 24.0804 20.7301Z" fill="url(#paint1_radial_589_1931)"/>
<path d="M24.0803 20.7301C24.0803 20.7301 34.4803 0 41.3321 0C41.3321 0 43.1585 21.9167 38.8543 35.0853C38.8543 35.0853 31.8861 32.0723 24.0803 20.7301Z" fill="#FF8B00"/>
<path d="M16.1582 40.6341C16.1582 40.6341 -0.686438 31.1066 -8.89733e-05 23.5452C-8.89733e-05 23.5452 22.1609 36.7138 38.831 35.0851C38.8543 35.0851 26.4767 40.4945 16.1582 40.6341Z" fill="#FF8B00"/>
<path d="M15.3091 66.3897C6.5145 65.6801 13.8782 44.0077 16.1583 40.6342C16.1583 40.6342 30.6763 38.389 38.8544 35.0852C34.3043 47.6351 26.1044 58.5372 15.3091 66.3897V66.3897Z" fill="#FFC600"/>
<path d="M62.9695 69.6702C58.0488 72.8344 51.86 69.1817 38.8542 54.9312V35.0852C38.8542 35.0852 58.4327 49.0449 62.9695 69.6702V69.6702Z" fill="#FFC600"/>
<path d="M59.6076 46.7299C59.6076 46.7299 79.5234 42.3326 78.9882 33.5613C78.9882 33.5613 58.0488 40.3201 38.8542 35.0852C38.8542 35.0852 54.9427 41.8789 59.6076 46.7299Z" fill="#FF8B00"/>
<path d="M55.7339 24.604C55.7339 24.604 78.4649 24.8018 79 33.5614C79 33.5614 54.8847 41.8558 38.866 35.0854C38.8543 35.0854 53.7679 29.7807 55.7339 24.604Z" fill="#FFC600"/>
</g>
<defs>
<radialGradient id="paint0_radial_589_1931" cx="0" cy="0" r="1" gradientUnits="userSpaceOnUse" gradientTransform="translate(39.5058 35.3645) scale(37.4933 37.4933)">
<stop offset="0.18" stop-color="#FFC600"/>
<stop offset="0.44" stop-color="#FFAE00"/>
<stop offset="0.75" stop-color="#FF8B00"/>
</radialGradient>
<radialGradient id="paint1_radial_589_1931" cx="0" cy="0" r="1" gradientUnits="userSpaceOnUse" gradientTransform="translate(39.5058 35.3645) scale(37.4933 37.4933)">
<stop offset="0.18" stop-color="#FFC600"/>
<stop offset="0.44" stop-color="#FFAE00"/>
<stop offset="0.75" stop-color="#FF8B00"/>
</radialGradient>
<clipPath id="clip0_589_1931">
<rect width="79" height="70.7289" fill="white"/>
</clipPath>
</defs>
</svg>
