<svg width="120" height="120" viewBox="0 0 120 120" fill="none" xmlns="http://www.w3.org/2000/svg">
<circle cx="60" cy="59.9995" r="59.5" fill="white" stroke="url(#paint0_linear_0_1)"/>
<g clip-path="url(#clip0_0_1)">
<path d="M42.0433 36.1414C42.0433 36.1414 54.1546 12 62.134 12C70.1133 12 78.9056 40.6526 78.9056 40.6526C78.9056 40.6526 105.377 40.8829 106 51.0841C106.623 61.2852 83.4168 66.4197 83.4168 66.4197C83.4168 66.4197 93.0761 89.4501 87.332 93.135C81.5879 96.8199 74.3943 92.566 59.2484 75.9706C59.2484 75.9706 42.0703 90.1275 31.8286 89.3147C21.5868 88.5018 30.1622 63.2496 32.8175 59.3209C32.8175 59.3209 13.201 48.2256 14.0273 39.4198C14.8537 30.614 42.0433 36.1414 42.0433 36.1414Z" fill="url(#paint1_radial_0_1)"/>
<path d="M42.0433 36.1414C42.0433 36.1414 54.1546 12 62.134 12C70.1133 12 78.9056 40.6526 78.9056 40.6526C78.9056 40.6526 105.377 40.8829 106 51.0841C106.623 61.2852 83.4168 66.4197 83.4168 66.4197C83.4168 66.4197 93.0761 89.4501 87.332 93.135C81.5879 96.8199 74.3943 92.566 59.2484 75.9706C59.2484 75.9706 42.0703 90.1275 31.8286 89.3147C21.5868 88.5018 30.1622 63.2496 32.8175 59.3209C32.8175 59.3209 13.201 48.2256 14.0273 39.4198C14.8537 30.614 42.0433 36.1414 42.0433 36.1414Z" fill="url(#paint2_radial_0_1)"/>
<path d="M42.043 36.1414C42.043 36.1414 54.1543 12 62.1337 12C62.1337 12 64.2606 37.5232 59.2481 52.8588C59.2481 52.8588 51.1332 49.35 42.043 36.1414Z" fill="#FF8B00"/>
<path d="M32.8174 59.321C32.8174 59.321 13.2008 48.2257 14.0001 39.4199C14.0001 39.4199 39.8078 54.7555 59.2211 52.8589C59.2482 52.8589 44.8338 59.1584 32.8174 59.321Z" fill="#FF8B00"/>
<path d="M31.8284 89.3148C21.5866 88.4884 30.162 63.2497 32.8173 59.321C32.8173 59.321 49.7244 56.7063 59.2482 52.8589C53.9494 67.4739 44.4002 80.17 31.8284 89.3148Z" fill="#FFC600"/>
<path d="M87.3317 93.1351C81.6012 96.82 74.394 92.5661 59.248 75.9707V52.8589C59.248 52.8589 82.0482 69.1157 87.3317 93.1351Z" fill="#FFC600"/>
<path d="M83.4165 66.4196C83.4165 66.4196 106.61 61.2987 105.986 51.084C105.986 51.084 81.6012 58.955 59.248 52.8587C59.248 52.8587 77.984 60.7703 83.4165 66.4196Z" fill="#FF8B00"/>
<path d="M78.9054 40.6528C78.9054 40.6528 105.377 40.8831 106 51.0843C106 51.0843 77.9164 60.7435 59.2617 52.859C59.2482 52.859 76.6159 46.6814 78.9054 40.6528Z" fill="#FFC600"/>
</g>
<defs>
<linearGradient id="paint0_linear_0_1" x1="6.6899" y1="-42.6486" x2="0.969593" y2="87.1605" gradientUnits="userSpaceOnUse">
<stop stop-color="#EF518B"/>
<stop offset="1" stop-color="#7852A1"/>
</linearGradient>
<radialGradient id="paint1_radial_0_1" cx="0" cy="0" r="1" gradientUnits="userSpaceOnUse" gradientTransform="translate(60.007 53.1839) scale(43.6631 43.6631)">
<stop offset="0.18" stop-color="#FFC600"/>
<stop offset="0.44" stop-color="#FFAE00"/>
<stop offset="0.75" stop-color="#FF8B00"/>
</radialGradient>
<radialGradient id="paint2_radial_0_1" cx="0" cy="0" r="1" gradientUnits="userSpaceOnUse" gradientTransform="translate(60.007 53.1839) scale(43.6631 43.6631)">
<stop offset="0.18" stop-color="#FFC600"/>
<stop offset="0.44" stop-color="#FFAE00"/>
<stop offset="0.75" stop-color="#FF8B00"/>
</radialGradient>
<clipPath id="clip0_0_1">
<rect width="92" height="82.3678" fill="white" transform="translate(14 12)"/>
</clipPath>
</defs>
</svg>
