<svg width="104" height="94" viewBox="0 0 104 94" fill="none" xmlns="http://www.w3.org/2000/svg">
<g clip-path="url(#clip0_589_1912)">
<path d="M31.7008 27.2902C31.7008 27.2902 45.3919 0 54.412 0C63.4322 0 73.3713 32.3899 73.3713 32.3899C73.3713 32.3899 103.296 32.6503 104 44.182C104.704 55.7137 78.4709 61.5179 78.4709 61.5179C78.4709 61.5179 89.3901 87.5523 82.8968 91.7179C76.4035 95.8834 68.2716 91.0747 51.1501 72.3145C51.1501 72.3145 31.7314 88.3181 20.1538 87.3992C8.57609 86.4803 18.2701 57.9343 21.2717 53.4932C21.2717 53.4932 -0.903516 40.9507 0.0306611 30.9963C0.964839 21.042 31.7008 27.2902 31.7008 27.2902Z" fill="url(#paint0_radial_589_1912)"/>
<path d="M31.7008 27.2902C31.7008 27.2902 45.3919 0 54.412 0C63.4322 0 73.3713 32.3899 73.3713 32.3899C73.3713 32.3899 103.296 32.6503 104 44.182C104.704 55.7137 78.4709 61.5179 78.4709 61.5179C78.4709 61.5179 89.3901 87.5523 82.8968 91.7179C76.4035 95.8834 68.2716 91.0747 51.1501 72.3145C51.1501 72.3145 31.7314 88.3181 20.1538 87.3992C8.57609 86.4803 18.2701 57.9343 21.2717 53.4932C21.2717 53.4932 -0.903516 40.9507 0.0306611 30.9963C0.964839 21.042 31.7008 27.2902 31.7008 27.2902Z" fill="url(#paint1_radial_589_1912)"/>
<path d="M31.7007 27.2902C31.7007 27.2902 45.3917 0 54.4119 0C54.4119 0 56.8163 28.8523 51.15 46.1882C51.15 46.1882 41.9766 42.2218 31.7007 27.2902Z" fill="#FF8B00"/>
<path d="M21.2717 53.4932C21.2717 53.4932 -0.903524 40.9507 2.50281e-05 30.9963C2.50281e-05 30.9963 29.1739 48.3322 51.1194 46.1882C51.1501 46.1882 34.8556 53.3094 21.2717 53.4932Z" fill="#FF8B00"/>
<path d="M20.1538 87.3992C8.57608 86.4651 18.2701 57.9344 21.2717 53.4932C21.2717 53.4932 40.3841 50.5375 51.1501 46.1882C45.1601 62.7096 34.3654 77.0617 20.1538 87.3992V87.3992Z" fill="#FFC600"/>
<path d="M82.8969 91.7179C76.4189 95.8834 68.2716 91.0747 51.1501 72.3146V46.1882C51.1501 46.1882 76.9243 64.5655 82.8969 91.7179V91.7179Z" fill="#FFC600"/>
<path d="M78.471 61.518C78.471 61.518 104.689 55.7292 103.985 44.1821C103.985 44.1821 76.4189 53.0798 51.1501 46.1883C51.1501 46.1883 72.3299 55.1319 78.471 61.518Z" fill="#FF8B00"/>
<path d="M73.3712 32.3899C73.3712 32.3899 103.295 32.6502 104 44.182C104 44.182 72.2532 55.1011 51.1653 46.1882C51.15 46.1882 70.783 39.2048 73.3712 32.3899Z" fill="#FFC600"/>
</g>
<defs>
<radialGradient id="paint0_radial_589_1912" cx="0" cy="0" r="1" gradientUnits="userSpaceOnUse" gradientTransform="translate(52.0077 46.5557) scale(49.3583 49.3583)">
<stop offset="0.18" stop-color="#FFC600"/>
<stop offset="0.44" stop-color="#FFAE00"/>
<stop offset="0.75" stop-color="#FF8B00"/>
</radialGradient>
<radialGradient id="paint1_radial_589_1912" cx="0" cy="0" r="1" gradientUnits="userSpaceOnUse" gradientTransform="translate(52.0077 46.5557) scale(49.3583 49.3583)">
<stop offset="0.18" stop-color="#FFC600"/>
<stop offset="0.44" stop-color="#FFAE00"/>
<stop offset="0.75" stop-color="#FF8B00"/>
</radialGradient>
<clipPath id="clip0_589_1912">
<rect width="104" height="93.1115" fill="white"/>
</clipPath>
</defs>
</svg>
