<svg width="56" height="56" viewBox="0 0 56 56" fill="none" xmlns="http://www.w3.org/2000/svg">
<g clip-path="url(#clip0_589_1921)">
<path d="M17.0698 16.4132C17.0698 16.4132 24.4419 0 29.299 0C34.156 0 39.5078 19.4803 39.5078 19.4803C39.5078 19.4803 55.6209 19.6368 56.0002 26.5724C56.3795 33.5079 42.2538 36.9987 42.2538 36.9987C42.2538 36.9987 48.1333 52.6566 44.6369 55.1618C41.1405 57.6671 36.7618 54.775 27.5425 43.4921C27.5425 43.4921 17.0863 53.1171 10.8522 52.5645C4.61806 52.0118 9.83791 34.8434 11.4542 32.1724C11.4542 32.1724 -0.48634 24.6289 0.0166788 18.6421C0.519698 12.6553 17.0698 16.4132 17.0698 16.4132Z" fill="url(#paint0_radial_589_1921)"/>
<path d="M17.0698 16.4132C17.0698 16.4132 24.4419 0 29.299 0C34.156 0 39.5078 19.4803 39.5078 19.4803C39.5078 19.4803 55.6209 19.6368 56.0002 26.5724C56.3795 33.5079 42.2538 36.9987 42.2538 36.9987C42.2538 36.9987 48.1333 52.6566 44.6369 55.1618C41.1405 57.6671 36.7618 54.775 27.5425 43.4921C27.5425 43.4921 17.0863 53.1171 10.8522 52.5645C4.61806 52.0118 9.83791 34.8434 11.4542 32.1724C11.4542 32.1724 -0.48634 24.6289 0.0166788 18.6421C0.519698 12.6553 17.0698 16.4132 17.0698 16.4132Z" fill="url(#paint1_radial_589_1921)"/>
<path d="M17.0696 16.4132C17.0696 16.4132 24.4417 0 29.2987 0C29.2987 0 30.5934 17.3526 27.5423 27.7789C27.5423 27.7789 22.6028 25.3934 17.0696 16.4132Z" fill="#FF8B00"/>
<path d="M11.4541 32.1724C11.4541 32.1724 -0.486456 24.6289 6.98169e-05 18.6421C6.98169e-05 18.6421 15.7091 29.0684 27.5259 27.7789C27.5424 27.7789 18.7684 32.0618 11.4541 32.1724Z" fill="#FF8B00"/>
<path d="M10.8519 52.5646C4.6178 52.0027 9.83765 34.8435 11.4539 32.1725C11.4539 32.1725 21.7452 30.3948 27.5423 27.7791C24.3169 37.7155 18.5043 46.3473 10.8519 52.5646V52.5646Z" fill="#FFC600"/>
<path d="M44.6366 55.1619C41.1485 57.6672 36.7615 54.7751 27.5422 43.4922V27.7791C27.5422 27.7791 41.4206 38.8317 44.6366 55.1619V55.1619Z" fill="#FFC600"/>
<path d="M42.2535 36.9986C42.2535 36.9986 56.371 33.517 55.9917 26.5723C55.9917 26.5723 41.1485 31.9236 27.5422 27.7788C27.5422 27.7788 38.9467 33.1578 42.2535 36.9986Z" fill="#FF8B00"/>
<path d="M39.5075 19.4802C39.5075 19.4802 55.6206 19.6368 56 26.5723C56 26.5723 38.9056 33.1394 27.5505 27.7789C27.5423 27.7789 38.1139 23.5789 39.5075 19.4802Z" fill="#FFC600"/>
</g>
<defs>
<radialGradient id="paint0_radial_589_1921" cx="0" cy="0" r="1" gradientUnits="userSpaceOnUse" gradientTransform="translate(28.0043 28) scale(26.5775 29.6855)">
<stop offset="0.18" stop-color="#FFC600"/>
<stop offset="0.44" stop-color="#FFAE00"/>
<stop offset="0.75" stop-color="#FF8B00"/>
</radialGradient>
<radialGradient id="paint1_radial_589_1921" cx="0" cy="0" r="1" gradientUnits="userSpaceOnUse" gradientTransform="translate(28.0043 28) scale(26.5775 29.6855)">
<stop offset="0.18" stop-color="#FFC600"/>
<stop offset="0.44" stop-color="#FFAE00"/>
<stop offset="0.75" stop-color="#FF8B00"/>
</radialGradient>
<clipPath id="clip0_589_1921">
<rect width="56" height="56" fill="white"/>
</clipPath>
</defs>
</svg>
