<svg width="225" height="240" viewBox="0 0 225 240" fill="none" xmlns="http://www.w3.org/2000/svg">
<g clip-path="url(#clip0_573_1784)">
<path d="M58.7199 188C58.9782 188.805 58.9886 189.67 58.7497 190.481C58.5107 191.292 58.0335 192.013 57.3799 192.55L33.6699 207.62L1.66992 168.88L24.9999 163.82L58.7199 188Z" fill="#C43A00"/>
<path fill-rule="evenodd" clip-rule="evenodd" d="M2.14014 155.22L32.8601 196.72L55.4201 186.72C55.4201 186.72 59.4201 185.65 57.0801 191.9L33.6001 205.57L3.00014 167.5C3.00014 167.5 8.27014 165.92 2.14014 155.22Z" fill="#DCEFDA"/>
<path fill-rule="evenodd" clip-rule="evenodd" d="M34.5101 196.19L55.4201 186.69C55.4201 186.69 59.4201 185.62 57.0801 191.87L33.6001 205.57C33.6001 205.57 38.4101 200.77 34.5101 196.19Z" fill="#BECCBC"/>
<path fill-rule="evenodd" clip-rule="evenodd" d="M2.14014 155.22L34.4301 157.7L58.7201 188.01L32.8601 196.72L2.14014 155.22Z" fill="#C43A00"/>
<path d="M32.6599 176.36C32.6599 176.36 36.9098 189.14 56.9198 185.76L50.0799 177.24C50.0799 177.24 30.9299 169.21 32.6599 176.36Z" fill="#912600"/>
<path d="M2.25014 156.6L2.14014 155.22L32.9101 195.25L58.7201 188.01L58.5601 188.54L32.8601 196.72L2.25014 156.6Z" fill="#912600"/>
<path d="M1.6001 169.89L1.7001 168.89L33.5201 206.33L57.1601 192.2C57.1601 192.2 59.0501 190.13 58.0201 188.26L58.7201 188.02C58.9943 188.824 59.0126 189.693 58.7727 190.508C58.5327 191.323 58.0462 192.043 57.3801 192.57L33.6001 207.77L1.6001 169.89Z" fill="#912600"/>
<path d="M32.7498 177C32.7498 177 26.9198 164.89 44.0998 151C51.6898 144.87 64.0998 136.09 103.66 137.68C143.22 139.27 138.96 144.16 160.06 137.05C181.16 129.94 189.19 136.51 190.49 140.41C191.79 144.31 188.81 158.84 158.38 158.41C127.95 157.98 133.73 155.01 113.93 154.25C94.1298 153.49 81.3798 149.48 71.7298 157.25C62.5998 164.72 42.2298 194.21 32.7498 177Z" fill="url(#paint0_radial_573_1784)"/>
<path d="M32.75 177C42.23 194.23 62.6 164.74 71.75 157.34C81.4 149.52 94.16 153.52 113.95 154.34C133.74 155.16 127.95 158.05 158.4 158.5C188.85 158.95 191.82 144.42 190.51 140.5C190.51 140.5 186.59 153.79 155.78 152.27C155.78 152.27 154.04 144.58 148.86 141.4L79 146.15L63.52 141C63.52 141 62.3 146.62 64.26 155.64C64.26 155.64 43.21 184.77 32.75 176.97V177Z" fill="#F99C5F"/>
<path d="M63.52 141C63.52 141 65.38 156.87 70.43 161.53L74 159.4C72.5685 164.321 71.6865 169.385 71.37 174.5C71.37 174.5 82.47 180.42 111.28 180.98C140.09 181.54 150.34 175.85 150.34 175.85C150.34 175.85 149.18 165 146.8 159.3L151.94 159.96C151.94 159.96 153.86 146.15 147.99 140.4C147.99 140.4 132.33 139.25 117.48 137.72C93.28 135.23 73.48 137.23 63.52 141Z" fill="url(#paint1_radial_573_1784)"/>
<path d="M63.52 141C63.52 141 65.38 156.87 70.43 161.53L74 159.4C72.5685 164.321 71.6865 169.385 71.37 174.5C71.37 174.5 82.47 180.42 111.28 180.98C140.09 181.54 150.34 175.85 150.34 175.85C150.34 175.85 149.18 165 146.8 159.3L151.94 159.96C151.94 159.96 153.86 146.15 147.99 140.4C147.99 140.4 154.22 154.83 145.99 157.32L142.07 149.82C142.07 149.82 158.13 181.29 111.77 178.69C65.41 176.09 76.91 151 76.91 151C76.91 151 74.6 156.75 74.39 157.52C74.39 157.52 67.88 157.8 63.52 140.97V141Z" fill="#D00000"/>
<path d="M59.87 90.6899H58.27C54.277 90.6899 51.04 93.9269 51.04 97.9199V99.5199C51.04 103.513 54.277 106.75 58.27 106.75H59.87C63.8631 106.75 67.1 103.513 67.1 99.5199V97.9199C67.1 93.9269 63.8631 90.6899 59.87 90.6899Z" fill="#FF6F67"/>
<path fill-rule="evenodd" clip-rule="evenodd" d="M67.1001 98.7197C67.1001 100.841 66.2572 102.876 64.757 104.377C63.2567 105.877 61.2218 106.72 59.1001 106.72C56.9784 106.72 54.9435 105.877 53.4432 104.377C51.943 102.876 51.1001 100.841 51.1001 98.7197C51.1001 98.7197 53.1001 104.32 59.1001 104.16C65.1001 104 64.2501 98.4897 64.2501 98.4897L67.1001 98.7197Z" fill="#EB5E5C"/>
<path d="M58.7901 100.28H59.3401C60.7153 100.28 61.8301 99.165 61.8301 97.7898V97.2398C61.8301 95.8646 60.7153 94.7498 59.3401 94.7498H58.7901C57.4149 94.7498 56.3001 95.8646 56.3001 97.2398V97.7898C56.3001 99.165 57.4149 100.28 58.7901 100.28Z" fill="#EB5E5C"/>
<path d="M158.33 90.6899H156.73C152.737 90.6899 149.5 93.9269 149.5 97.9199V99.5199C149.5 103.513 152.737 106.75 156.73 106.75H158.33C162.323 106.75 165.56 103.513 165.56 99.5199V97.9199C165.56 93.9269 162.323 90.6899 158.33 90.6899Z" fill="#FF6F67"/>
<path d="M157.26 100.28H157.81C159.185 100.28 160.3 99.165 160.3 97.7898V97.2398C160.3 95.8646 159.185 94.7498 157.81 94.7498H157.26C155.885 94.7498 154.77 95.8646 154.77 97.2398V97.7898C154.77 99.165 155.885 100.28 157.26 100.28Z" fill="#EB5E5C"/>
<path fill-rule="evenodd" clip-rule="evenodd" d="M149.5 98.7197C149.516 100.837 150.364 102.862 151.861 104.359C153.357 105.856 155.383 106.704 157.5 106.72C159.617 106.704 161.643 105.856 163.139 104.359C164.636 102.862 165.484 100.837 165.5 98.7197C165.5 98.7197 163.5 104.32 157.5 104.16C151.5 104 152.34 98.4897 152.34 98.4897L149.5 98.7197Z" fill="#EB5E5C"/>
<path fill-rule="evenodd" clip-rule="evenodd" d="M98.6901 2.12012L37.5801 57.0101L104.59 82.4801L171.5 49.5801L98.6901 2.12012Z" fill="#82179B"/>
<path opacity="0.35" fill-rule="evenodd" clip-rule="evenodd" d="M98.6901 2.12012L37.5801 57.0001L104.58 82.4701L171.49 49.5701C171.49 49.5701 40.4801 59.8201 98.6901 2.12012Z" fill="#400454"/>
<path fill-rule="evenodd" clip-rule="evenodd" d="M159.45 85.7198C159.45 85.7198 158.74 54.3298 114.54 52.0798C70.34 49.8298 59 73.1298 58.23 82.9998C57 99.1098 66.78 119.19 108.82 119.2C136.17 119.2 159.69 110.09 159.45 85.7198Z" fill="url(#paint2_radial_573_1784)"/>
<path fill-rule="evenodd" clip-rule="evenodd" d="M108.82 119.2C66.8199 119.2 57.0399 99.11 58.2299 83.04C58.9599 73.13 70.3499 49.83 114.54 52.04C158.73 54.25 159.45 85.68 159.45 85.68C159.45 85.68 150.3 70.29 135.18 65.87C120.06 61.45 102.63 61.7 88.9999 64.07C75.3699 66.44 64.7799 71.44 62.2899 81.85C59.7999 92.26 71.4999 117.24 108.82 119.2Z" fill="#F99C5F"/>
<path d="M84.2802 72C84.2802 72 79.0002 71.18 75.0002 73.87C71.0002 76.56 71.6102 80.62 73.7202 80.64C75.8302 80.66 81.3402 78.64 86.1002 78.58C90.8602 78.52 90.6302 74.22 88.7302 73.23C87.328 72.5688 85.8229 72.1528 84.2802 72Z" fill="#62361A"/>
<path d="M133.25 72.0802C133.25 72.0802 138.49 71.1902 142.59 73.8402C146.69 76.4902 146.07 80.5402 143.95 80.5902C141.83 80.6402 136.31 78.6602 131.54 78.6802C126.77 78.7002 126.97 74.3702 128.85 73.3602C130.235 72.691 131.722 72.2583 133.25 72.0802Z" fill="#62361A"/>
<path fill-rule="evenodd" clip-rule="evenodd" d="M59.21 78.2199C59.21 78.2199 52.79 30.6099 103.3 30.6099C143.85 30.6099 149.94 49.0499 157.59 77.3899C157.59 77.3899 142.93 60.4699 104.4 61.7599C65.87 63.0499 59.21 78.2199 59.21 78.2199Z" fill="#550B6B"/>
<path fill-rule="evenodd" clip-rule="evenodd" d="M74.55 66.9999C62.06 71.7999 59.21 78.2299 59.21 78.2299C59.21 78.2299 52.79 30.6099 103.3 30.6099C128.64 30.6099 140.63 37.7799 147.72 50.0999C147.72 50.0999 136.61 27.9099 97.58 34.2999C68.51 39.0599 74.55 66.9999 74.55 66.9999Z" fill="#420759"/>
<path fill-rule="evenodd" clip-rule="evenodd" d="M136.61 91.8601C135.584 91.8601 134.599 91.4544 133.87 90.7314C133.141 90.0083 132.728 89.0266 132.72 88.0001C132.723 86.9702 133.134 85.9833 133.863 85.2559C134.592 84.5286 135.58 84.1201 136.61 84.1201C137.64 84.1201 138.628 84.5286 139.357 85.2559C140.087 85.9833 140.498 86.9702 140.5 88.0001C140.492 89.0266 140.079 90.0083 139.35 90.7314C138.622 91.4544 137.637 91.8601 136.61 91.8601Z" fill="#003338"/>
<path fill-rule="evenodd" clip-rule="evenodd" d="M80.9999 91.8599C79.9699 91.8652 78.9799 91.4619 78.2469 90.7382C77.5139 90.0146 77.0978 89.0299 77.0899 87.9999C77.0872 87.4857 77.1866 86.9761 77.3821 86.5005C77.5777 86.0249 77.8656 85.5928 78.2292 85.2292C78.5928 84.8656 79.0249 84.5777 79.5005 84.3821C79.9761 84.1866 80.4857 84.0872 80.9999 84.0899C81.5107 84.0925 82.0161 84.1957 82.487 84.3936C82.958 84.5916 83.3853 84.8803 83.7447 85.2434C84.1041 85.6065 84.3884 86.0368 84.5815 86.5097C84.7745 86.9827 84.8725 87.4891 84.8699 87.9999C84.862 89.0229 84.4515 90.0017 83.7271 90.7241C83.0028 91.4466 82.0229 91.8547 80.9999 91.8599Z" fill="#003338"/>
<path d="M90.36 97.1599C90.36 97.1599 99.07 94.0899 116.24 99.6399C116.24 99.6399 113.61 113.5 103.24 115.58C92.87 117.66 88.74 102.76 90.36 97.1599Z" fill="#850027"/>
<path d="M108.82 113C107.216 114.316 105.314 115.219 103.28 115.63C97.5202 116.79 93.6702 112.63 91.6602 107.84C97.806 107.514 103.874 109.338 108.82 113Z" fill="#FF0000"/>
<path d="M90.2298 102.59C89.9056 100.79 89.9499 98.9425 90.3598 97.1599C90.3598 97.1599 99.0698 94.0899 116.24 99.6399C116.107 100.315 115.94 100.982 115.74 101.64C115.74 101.64 103.84 106.53 91.1798 102.87L90.2298 102.59Z" fill="white"/>
<path fill-rule="evenodd" clip-rule="evenodd" d="M37.5801 57.01L98.6901 2.12L171.5 49.58L98.4401 0L37.5801 57.01Z" fill="#A832C7"/>
<path fill-rule="evenodd" clip-rule="evenodd" d="M42.4701 56.8898C42.4701 56.8898 42.7201 74.2798 25.9101 70.2898C9.10005 66.2998 4.23005 74.4998 4.23005 74.4998C4.23005 74.4998 9.54005 75.4998 8.55005 81.0798C8.55005 81.0798 7.55005 82.8998 6.97005 81.0798C6.39005 79.2598 6.64005 76.3498 3.82005 75.6898C4.86652 76.8856 5.44333 78.4207 5.44333 80.0098C5.44333 81.5989 4.86652 83.1339 3.82005 84.3298C3.82005 84.3298 2.91005 85.5098 2.49005 84.3298C2.07005 83.1498 6.81005 79.3298 2.49005 76.0998C2.92666 77.0202 3.04176 78.0605 2.81694 79.054C2.59211 80.0476 2.04036 80.937 1.25005 81.5798C1.25005 81.5798 -0.0799484 82.3998 5.1582e-05 80.9998C0.0800516 79.5998 2.41005 78.5198 1.17005 76.2798C-0.0699484 74.0398 6.06005 67.0698 15.9301 67.7298C25.8001 68.3898 40.2401 75.6698 40.6101 56.8998C40.6101 56.8898 41.2201 55.4198 42.4701 56.8898Z" fill="#FF8E00"/>
<path d="M100.73 219.6C100.73 219.6 103.82 205.02 89.73 202.23C75.64 199.44 62.38 208.11 60.19 222.14C60.19 222.14 58.8399 235.9 80.1299 233.14C97.27 231 100.73 219.6 100.73 219.6Z" fill="url(#paint3_radial_573_1784)"/>
<path d="M100.73 219.6C100.937 218.334 101.031 217.052 101.01 215.77C89.8099 224.93 92.1399 216.9 84.0099 217.63C75.8799 218.36 75.2199 224.86 70.0699 225.63C64.9199 226.4 64.2699 223.02 65.0699 219.17C65.3388 218.123 65.316 217.023 65.004 215.988C64.692 214.953 64.1026 214.023 63.2999 213.3C61.6156 215.98 60.5276 218.992 60.1099 222.13C60.1099 222.13 58.7599 235.89 80.0499 233.13C97.2699 231 100.73 219.6 100.73 219.6Z" fill="#605551"/>
<path d="M88.7402 215.36C90.0208 214.451 91.2008 213.409 92.2602 212.25C94.9232 215.321 96.5993 219.123 97.0702 223.16L93.5502 226.68C93.5502 226.68 93.0002 219.51 88.7402 215.36Z" fill="#821898"/>
<path d="M93.0898 211.3C94.0236 209.937 94.6732 208.399 94.9998 206.78C97.918 210.02 99.8171 214.047 100.46 218.36L97.8998 222.62C97.8998 222.62 97.3598 215.44 93.0898 211.3Z" fill="#821898"/>
<path opacity="0.35" d="M64.48 228.19C97.7 228.59 90.63 202.45 90.63 202.45C90.63 202.45 101.84 204.13 100.97 217.62L99.97 220.62L91.97 228.69L79.09 232.4L65.32 230.85L64.48 228.19Z" fill="#2A0055"/>
<path d="M101 217.62C100.969 218.292 100.889 218.96 100.76 219.62C100.76 219.62 97.2701 231 80.0801 233.16C58.7901 235.9 60.1401 222.16 60.1401 222.16C60.324 221.001 60.5846 219.855 60.9201 218.73C60.9201 218.73 58.2901 225.73 66.7501 229.47C75.2101 233.21 92.5801 229.86 100.21 218.74L101 217.62Z" fill="#DCEFDA"/>
<path d="M68.4998 208.75C68.4998 208.75 72.8598 206.68 81.4198 210.91C81.4198 210.91 83.3398 212.65 80.7698 213.32C76.8631 211.167 72.4597 210.077 67.9998 210.16C67.9998 210.16 67.4198 209.67 68.4998 208.75Z" fill="#821898"/>
<path d="M72.0001 205.81C72.0001 205.81 75.8601 203.74 83.4501 207.97C83.4501 207.97 85.1501 209.71 82.8801 210.38C79.4906 208.257 75.5593 207.159 71.5601 207.22C71.5601 207.22 71.0001 206.73 72.0001 205.81Z" fill="#821898"/>
<path d="M123.91 225.4C123.91 225.4 120.82 210.82 135 208C149.18 205.18 162.35 213.87 164.54 227.91C164.54 227.91 165.89 241.67 144.6 238.91C127.37 236.75 123.91 225.4 123.91 225.4Z" fill="url(#paint4_radial_573_1784)"/>
<path d="M123.91 225.4C123.703 224.134 123.609 222.853 123.63 221.57C134.84 230.72 132.51 222.69 140.63 223.43C148.75 224.17 149.42 230.66 154.56 231.43C159.7 232.2 160.37 228.82 159.56 224.97C159.287 223.924 159.308 222.824 159.618 221.789C159.928 220.754 160.517 219.824 161.32 219.1C163.009 221.778 164.098 224.791 164.51 227.93C164.51 227.93 165.86 241.69 144.57 238.93C127.37 236.75 123.91 225.4 123.91 225.4Z" fill="#605551"/>
<path d="M135.91 221.16C134.625 220.252 133.442 219.21 132.38 218.05C129.71 221.132 128.033 224.948 127.57 229L131.1 232.52C131.1 232.52 131.64 225.31 135.91 221.16Z" fill="#821898"/>
<path d="M131.55 217.09C130.621 215.725 129.975 214.188 129.65 212.57C126.733 215.814 124.834 219.845 124.19 224.16L126.74 228.42C126.74 228.42 127.28 221.24 131.55 217.09Z" fill="#821898"/>
<path opacity="0.35" d="M160.17 234C126.94 234.4 134.01 208.25 134.01 208.25C134.01 208.25 122.81 209.94 123.68 223.43L124.68 226.43L132.68 234.5L145.57 238.21L159.34 236.66L160.17 234Z" fill="#2A0055"/>
<path d="M123.68 223.42C123.703 224.092 123.78 224.76 123.91 225.42C123.91 225.42 127.37 236.77 144.56 238.98C165.85 241.72 164.5 227.98 164.5 227.98C164.319 226.821 164.062 225.675 163.73 224.55C163.73 224.55 166.35 231.55 157.89 235.29C149.43 239.03 132.06 235.67 124.43 224.56L123.68 223.42Z" fill="#DCEFDA"/>
<path d="M156.15 214.55C156.15 214.55 151.79 212.48 143.22 216.71C143.22 216.71 141.3 218.45 143.87 219.11C147.785 216.976 152.191 215.903 156.65 216C156.65 216 157.23 215.46 156.15 214.55Z" fill="#821898"/>
<path d="M152.66 211.61C152.66 211.61 148.79 209.54 141.2 213.77C141.2 213.77 139.5 215.51 141.78 216.17C145.168 214.043 149.1 212.942 153.1 213C153.1 213 153.61 212.52 152.66 211.61Z" fill="#821898"/>
<path d="M202.01 88.9702L224.89 70.2002L224.87 99.7002L220.91 106.26L197.94 100.15L202.01 88.9702Z" fill="url(#paint5_radial_573_1784)"/>
<path d="M224.88 83.3402V70.2002L214.56 78.6602C214.56 78.6602 218.55 84.2202 224.88 83.3402Z" fill="url(#paint6_linear_573_1784)"/>
<path d="M217.1 81.1502C216.451 80.6598 215.845 80.1145 215.29 79.5202L224.89 70.2002L217.1 81.1502Z" fill="white"/>
<path d="M183.51 161.23C184.962 161.455 186.445 161.366 187.86 160.97L224.86 99.7002C224.337 100.379 223.683 100.946 222.936 101.366C222.189 101.785 221.365 102.05 220.513 102.143C219.661 102.237 218.799 102.157 217.979 101.909C217.159 101.661 216.397 101.25 215.74 100.7L183.51 161.23Z" fill="#C43A00"/>
<path d="M207.4 96.1802C207.4 96.1802 209.4 104.27 215.75 100.65L183.54 161.24C182.057 160.999 180.719 160.21 179.79 159.03L207.4 96.1802Z" fill="#FF5900"/>
<path d="M182.36 142.92L178.08 154.66C178.245 156.244 178.836 157.754 179.79 159.03L207.4 96.18C201.15 96.68 202 89 202 89L184.26 137.7C184.26 137.7 186.95 138.57 187.26 139.96C187.67 142.06 185.18 143.34 182.36 142.92Z" fill="#FF8337"/>
<path fill-rule="evenodd" clip-rule="evenodd" d="M41.4598 169.94C41.9342 170.319 42.3819 170.73 42.7998 171.17C47.0598 175.63 47.4798 182.06 47.4798 182.06L42.5598 184.94C41.3298 166 24.0498 170 24.0498 170L31.9998 167C33.251 166.972 34.5016 167.079 35.7298 167.32C35.7298 167.32 34.7898 169.82 36.6298 171.08C38.4698 172.34 41.4598 169.94 41.4598 169.94Z" fill="#C43A00"/>
<path fill-rule="evenodd" clip-rule="evenodd" d="M42.8001 171.17C42.3822 170.73 41.9345 170.319 41.4601 169.94C41.4601 169.94 38.4601 172.35 36.6001 171.08C37.5322 171.645 38.5981 171.951 39.6879 171.967C40.7777 171.982 41.852 171.707 42.8001 171.17Z" fill="#912600"/>
<path d="M182.36 142.92C184.49 143.23 186.43 142.59 187.07 141.33C187.07 141.33 186.19 144.28 181.84 144.33L182.36 142.92Z" fill="#C43A00"/>
</g>
<defs>
<radialGradient id="paint0_radial_573_1784" cx="0" cy="0" r="1" gradientUnits="userSpaceOnUse" gradientTransform="translate(111.27 158.11) scale(81.18 81.18)">
<stop stop-color="#FFE098"/>
<stop offset="0.43" stop-color="#FFC882"/>
<stop offset="0.72" stop-color="#FFB470"/>
</radialGradient>
<radialGradient id="paint1_radial_573_1784" cx="0" cy="0" r="1" gradientUnits="userSpaceOnUse" gradientTransform="translate(107.88 158.82) scale(59.46 59.46)">
<stop offset="0.13" stop-color="#FF7800"/>
<stop offset="0.23" stop-color="#FF6000"/>
<stop offset="0.44" stop-color="#FF2100"/>
<stop offset="0.55" stop-color="#FF0000"/>
</radialGradient>
<radialGradient id="paint2_radial_573_1784" cx="0" cy="0" r="1" gradientUnits="userSpaceOnUse" gradientTransform="translate(108.8 85.5598) scale(43)">
<stop stop-color="#FFE098"/>
<stop offset="0.41" stop-color="#FFC882"/>
<stop offset="0.7" stop-color="#FFB470"/>
</radialGradient>
<radialGradient id="paint3_radial_573_1784" cx="0" cy="0" r="1" gradientUnits="userSpaceOnUse" gradientTransform="translate(80.57 218.276) scale(23.2 25.288)">
<stop offset="0.13" stop-color="#FFC600"/>
<stop offset="0.32" stop-color="#FFAE00"/>
<stop offset="0.55" stop-color="#FF8B00"/>
</radialGradient>
<radialGradient id="paint4_radial_573_1784" cx="0" cy="0" r="1" gradientUnits="userSpaceOnUse" gradientTransform="translate(144.07 224.482) scale(25.82 28.402)">
<stop offset="0.18" stop-color="#FFC600"/>
<stop offset="0.35" stop-color="#FFAE00"/>
<stop offset="0.55" stop-color="#FF8B00"/>
</radialGradient>
<radialGradient id="paint5_radial_573_1784" cx="0" cy="0" r="1" gradientUnits="userSpaceOnUse" gradientTransform="translate(212.304 86.1148) rotate(-160.844) scale(17.2274 33.6951)">
<stop stop-color="#FF9A00"/>
<stop offset="1" stop-color="#FFF49D"/>
</radialGradient>
<linearGradient id="paint6_linear_573_1784" x1="226.09" y1="78.9902" x2="219.198" y2="74.5271" gradientUnits="userSpaceOnUse">
<stop offset="0.26" stop-color="#003438"/>
<stop offset="1" stop-color="#0C2217"/>
</linearGradient>
<clipPath id="clip0_573_1784">
<rect width="224.89" height="239.32" fill="white"/>
</clipPath>
</defs>
</svg>
