<svg width="120" height="120" viewBox="0 0 120 120" fill="none" xmlns="http://www.w3.org/2000/svg">
<circle cx="60" cy="59.9995" r="59.5" fill="white" stroke="url(#paint0_linear_0_1)"/>
<g clip-path="url(#clip0_0_1)">
<path fill-rule="evenodd" clip-rule="evenodd" d="M18.9999 81.5861L26.7458 75.3657L36.3167 86.664L28.6982 92.8209C27.3403 92.8523 25.9939 92.5663 24.7668 91.9858C23.5396 91.4053 22.4659 90.5464 21.6314 89.478C20.6808 88.408 19.9575 87.1571 19.5052 85.8007C19.0529 84.4443 18.881 83.0106 18.9999 81.5861Z" fill="#DB5656"/>
<path fill-rule="evenodd" clip-rule="evenodd" d="M85.0202 28.776L101 25.1157L94.0818 39.9262L37.9509 84.8865C36.6291 85.1587 35.2562 85.0369 34.0034 84.5366C32.7505 84.0362 31.6731 83.1792 30.9053 82.0725C29.9244 80.9827 29.2198 79.6743 28.8505 78.257C28.4813 76.8397 28.4582 75.3548 28.7832 73.9268L85.0202 28.776Z" fill="#F2CCAE"/>
<path fill-rule="evenodd" clip-rule="evenodd" d="M101 25.1157L93.2754 26.8507C93.6884 28.2121 94.4152 29.4584 95.3975 30.4898C96.9679 32.3305 97.7107 32.3094 97.7107 32.3094L101 25.1157Z" fill="black"/>
<path fill-rule="evenodd" clip-rule="evenodd" d="M26.7883 75.3656L29.7381 73.0171L39.118 84.4635L36.3592 86.5792C33.8057 86.1398 31.523 84.7289 29.9928 82.6439C28.1429 80.6403 27.0154 78.0794 26.7883 75.3656Z" fill="#E4E5E6"/>
<path fill-rule="evenodd" clip-rule="evenodd" d="M33.0062 77.0791L87.3546 32.3939C86.5804 32.1507 85.9184 31.6406 85.4871 30.9551C85.1184 30.314 84.9554 29.5756 85.0202 28.8394L29.8442 73.0803L33.0062 77.0791Z" fill="#FF8D31"/>
<path fill-rule="evenodd" clip-rule="evenodd" d="M36.0834 80.9935L91.1533 37.0064C90.5802 37.1927 89.9618 37.1882 89.3915 36.9935C88.8212 36.7989 88.3298 36.4247 87.9913 35.9274C87.6058 35.4337 87.3528 34.8502 87.2562 34.232C87.1597 33.6138 87.2228 32.9812 87.4395 32.394L32.4121 76.36L36.0834 80.9935Z" fill="#E77118"/>
<path fill-rule="evenodd" clip-rule="evenodd" d="M39.1179 84.4633L94.0817 39.9261C93.3774 39.7974 92.7232 39.4749 92.193 38.9952C91.8681 38.74 91.6003 38.42 91.4066 38.0556C91.2129 37.6913 91.0977 37.2907 91.0682 36.8794L36.0833 80.9934L39.1179 84.4633Z" fill="#C55C14"/>
<path d="M24.2842 23L43.7443 25.3908L78.6325 66.9871L67.7034 79.4913L24.9845 44.8772L24.2842 23Z" fill="#B6DAEF"/>
<path d="M24.2842 23L73.3271 73.0805L78.6325 66.9871L43.7443 25.3908L24.2842 23Z" fill="#85BFDD"/>
<path d="M61.6978 46.8027L63.6077 63.1577L73.3272 73.0807L78.6325 66.9873L61.6978 46.8027Z" fill="#74ADC3"/>
<path d="M63.6077 63.1577L65.1356 77.3969L67.7034 79.4915L73.3271 73.0807L63.6077 63.1577Z" fill="#AACCDC"/>
<path d="M63.2257 82.2418C62.7987 82.4181 62.4258 82.7033 62.1444 83.0688C61.8631 83.4343 61.6833 83.8672 61.623 84.324C61.5628 84.7809 61.6243 85.2454 61.8013 85.671C61.9784 86.0966 62.2647 86.4682 62.6315 86.7485C65.4327 89.3932 69.3587 84.0403 69.3587 84.0403L85.6144 67.4314C85.6144 67.4314 89.0735 64.3635 86.1662 62.3958C83.2588 60.4282 77.3592 66.8178 77.3592 66.8178L63.2257 82.2418Z" fill="#D8A98D"/>
<path d="M87.1424 90.2818C87.1424 90.2818 86.4209 93.8575 88.352 94.7038C90.2832 95.5501 91.705 94.7038 94.0606 91.784C96.4162 88.8642 94.3153 86.0079 90.0073 87.1293C85.6993 88.2506 87.1424 90.2818 87.1424 90.2818Z" fill="#D9AF96"/>
<path d="M72.0537 78.5604C72.0537 78.5604 85.6567 94.3442 88.5853 93.5613C91.5139 92.7785 93.2752 88.9489 93.2752 88.9489C93.2752 88.9489 96.8617 87.0659 77.1469 73.2075L72.0537 78.5604Z" fill="#FCE0CC"/>
<path d="M49.8137 49.0664L52.3603 67.0505L56.7532 70.6262L54.7796 54.1443L49.8137 49.0664Z" fill="white"/>
<path d="M47.3945 29.7495L49.8138 49.0666L54.7796 54.1445L52.4877 35.8006L47.3945 29.7495Z" fill="#D3F4FF"/>
</g>
<defs>
<linearGradient id="paint0_linear_0_1" x1="6.6899" y1="-42.6486" x2="0.969593" y2="87.1605" gradientUnits="userSpaceOnUse">
<stop stop-color="#EF518B"/>
<stop offset="1" stop-color="#7852A1"/>
</linearGradient>
<clipPath id="clip0_0_1">
<rect width="82" height="72" fill="white" transform="translate(19 23)"/>
</clipPath>
</defs>
</svg>
