<svg width="108" height="96" viewBox="0 0 108 96" fill="none" xmlns="http://www.w3.org/2000/svg">
<g clip-path="url(#clip0_599_639)">
<path fill-rule="evenodd" clip-rule="evenodd" d="M4.21345e-05 78.1147L10.2019 69.8208L22.8075 84.8852L12.7733 93.0944C10.9849 93.1362 9.2116 92.7549 7.59538 91.9809C5.97917 91.2069 4.56493 90.0618 3.46588 88.6371C2.21382 87.2105 1.26119 85.5426 0.665513 83.7341C0.0698315 81.9255 -0.156548 80.0139 4.21345e-05 78.1147V78.1147Z" fill="#DB5656"/>
<path fill-rule="evenodd" clip-rule="evenodd" d="M86.9535 7.70144L108 2.82104L98.8883 22.5683L24.9597 82.5154C23.2188 82.8783 21.4107 82.716 19.7606 82.0488C18.1105 81.3816 16.6914 80.239 15.6802 78.7635C14.3882 77.3103 13.4602 75.5658 12.9739 73.6761C12.4876 71.7863 12.4572 69.8065 12.8852 67.9024L86.9535 7.70144Z" fill="#F2CCAE"/>
<path fill-rule="evenodd" clip-rule="evenodd" d="M108 2.82104L97.8262 5.1343C98.3702 6.94957 99.3273 8.61124 100.621 9.98649C102.69 12.4408 103.668 12.4126 103.668 12.4126L108 2.82104Z" fill="black"/>
<path fill-rule="evenodd" clip-rule="evenodd" d="M10.2578 69.8208L14.1429 66.6895L26.4969 81.9513L22.8634 84.7723C19.5001 84.1865 16.4938 82.3052 14.4783 79.5252C12.0419 76.8538 10.5569 73.4391 10.2578 69.8208V69.8208Z" fill="#E4E5E6"/>
<path fill-rule="evenodd" clip-rule="evenodd" d="M18.4473 72.1057L90.0281 12.5254C89.0084 12.2011 88.1365 11.5211 87.5684 10.6071C87.0828 9.75217 86.8682 8.76768 86.9535 7.78601L14.2827 66.774L18.4473 72.1057Z" fill="#FF8D31"/>
<path fill-rule="evenodd" clip-rule="evenodd" d="M22.5 77.3247L95.031 18.6753C94.2761 18.9236 93.4618 18.9176 92.7106 18.658C91.9594 18.3985 91.3122 17.8996 90.8664 17.2365C90.3586 16.5783 90.0254 15.8003 89.8983 14.976C89.7711 14.1517 89.8542 13.3083 90.1397 12.5254L17.6646 71.1466L22.5 77.3247Z" fill="#E77118"/>
<path fill-rule="evenodd" clip-rule="evenodd" d="M26.4969 81.9512L98.8882 22.5683C97.9606 22.3966 97.099 21.9667 96.4006 21.327C95.9728 20.9868 95.62 20.5601 95.3649 20.0743C95.1098 19.5885 94.958 19.0544 94.9193 18.506L22.5 77.3247L26.4969 81.9512Z" fill="#C55C14"/>
<path d="M6.95972 0L32.5902 3.18778L78.5405 58.6494L64.1461 75.3218L7.88208 29.1696L6.95972 0Z" fill="#B6DAEF"/>
<path d="M6.95972 0L71.5529 66.774L78.5405 58.6494L32.5902 3.18778L6.95972 0Z" fill="#85BFDD"/>
<path d="M56.2361 31.7367L58.7516 53.5433L71.5529 66.774L78.5404 58.6494L56.2361 31.7367Z" fill="#74ADC3"/>
<path d="M58.7515 53.5433L60.7639 72.5289L64.1459 75.3218L71.5527 66.774L58.7515 53.5433Z" fill="#AACCDC"/>
<path d="M58.2486 78.9891C57.6862 79.224 57.195 79.6043 56.8244 80.0917C56.4539 80.579 56.217 81.1563 56.1377 81.7654C56.0584 82.3744 56.1394 82.9939 56.3725 83.5613C56.6057 84.1288 56.9828 84.6243 57.4659 84.9979C61.1554 88.5242 66.3262 81.387 66.3262 81.387L87.7361 59.2418C87.7361 59.2418 92.292 55.1513 88.4628 52.5277C84.6336 49.9042 76.8635 58.4237 76.8635 58.4237L58.2486 78.9891Z" fill="#D8A98D"/>
<path d="M89.7485 89.7091C89.7485 89.7091 88.7982 94.4766 91.3417 95.6051C93.8852 96.7335 95.7578 95.6051 98.8603 91.712C101.963 87.819 99.1957 84.0106 93.5218 85.5057C87.8479 87.0009 89.7485 89.7091 89.7485 89.7091Z" fill="#D9AF96"/>
<path d="M69.8757 74.0805C69.8757 74.0805 87.7919 95.1254 91.649 94.0816C95.5062 93.0379 97.826 87.9318 97.826 87.9318C97.826 87.9318 102.55 85.4211 76.5838 66.9432L69.8757 74.0805Z" fill="#FCE0CC"/>
<path d="M40.5837 34.7552L43.9378 58.7341L49.7235 63.5017L47.1241 41.5257L40.5837 34.7552Z" fill="white"/>
<path d="M37.3975 8.99915L40.5838 34.7552L47.1242 41.5257L44.1055 17.0673L37.3975 8.99915Z" fill="#D3F4FF"/>
</g>
<defs>
<clipPath id="clip0_599_639">
<rect width="108" height="96" fill="white"/>
</clipPath>
</defs>
</svg>
