<svg width="37" height="38" viewBox="0 0 37 38" fill="none" xmlns="http://www.w3.org/2000/svg">
<g clip-path="url(#clip0_588_803)">
<path d="M27.1094 35.8896C19.9221 38.7501 6.93109 37.6949 2.7673 30.6772C-1.39648 23.6594 0.538081 4.41152 7.1617 1.46204C13.7853 -1.48744 36.3594 3.73771 36.3594 11.6327C36.3594 19.5276 33.3102 33.3978 27.1094 35.8896Z" fill="#6E2B90" stroke="white" stroke-miterlimit="10"/>
<path d="M14.6404 21.3656L14.6474 21.3763C16.074 23.5462 19.0032 24.1577 21.1899 22.742L21.2006 22.7351C23.3873 21.3194 24.0035 18.4128 22.5769 16.2428L22.5699 16.2322C21.1433 14.0622 18.2142 13.4508 16.0275 14.8664L16.0167 14.8733C13.83 16.289 13.2138 19.1957 14.6404 21.3656Z" fill="white"/>
<path d="M15.3739 26.1004C15.3739 26.1004 9.68553 21.3964 10.0827 17.7986C10.4799 14.2007 17.2316 11.9123 17.2316 11.9123C14.8374 11.5374 12.387 11.7513 10.0955 12.5353C6.7901 13.8066 6.46981 19.2606 9.26275 22.1847C10.9452 23.9676 13.044 25.3124 15.3739 26.1004Z" fill="white"/>
<path d="M18.0771 26.6979C18.0771 26.6979 25.2132 24.6765 26.2894 21.2693C27.3656 17.8622 22.1384 13.0311 22.1384 13.0311C24.4786 13.6445 26.6332 14.8138 28.4161 16.4383C30.9016 18.9809 28.9927 24.0663 25.2517 25.6173C22.9836 26.5487 20.5216 26.9195 18.0771 26.6979Z" fill="white"/>
</g>
<defs>
<clipPath id="clip0_588_803">
<rect width="37" height="38" fill="white"/>
</clipPath>
</defs>
</svg>
