<svg width="87" height="69" viewBox="0 0 87 69" fill="none" xmlns="http://www.w3.org/2000/svg">
<g clip-path="url(#clip0_0_1)">
<path d="M39.48 37.2102C36.4893 39.5343 34.0679 42.5097 32.4 45.9102C29.29 51.9102 29.28 54.4002 24.94 57.7002C20.6 61.0002 19.4 65.3002 23.6 67.6002C27.8 69.9002 35.6 63.6002 38.6 53.9002C41.6 44.2002 59 34.0002 59 34.0002C61.1181 32.8839 63.5664 32.5645 65.9 33.1002C69.76 34.0002 74 35.4402 76.35 32.0002C78.7 28.5602 73.45 24.0802 66.35 24.0002C59.25 23.9202 48 30.5102 48 30.5102L39.48 37.2102Z" fill="#FFB870"/>
<path d="M39.48 37.2102C36.4893 39.5343 34.0679 42.5097 32.4 45.9102C29.29 51.9102 29.28 54.4002 24.94 57.7002C20.6 61.0002 19.4 65.3002 23.6 67.6002C27.8 69.9002 35.6 63.6002 38.6 53.9002C41.6 44.2002 59 34.0002 59 34.0002C61.1181 32.8839 63.5664 32.5645 65.9 33.1002C69.76 34.0002 74 35.4402 76.35 32.0002C78.7 28.5602 73.45 24.0802 66.35 24.0002C59.25 23.9202 48 30.5102 48 30.5102L39.48 37.2102Z" fill="url(#paint0_radial_0_1)"/>
<path d="M21.4999 61.6801C20.4599 64.0001 20.9999 66.1601 23.5999 67.6001C27.7999 69.8901 35.5999 63.6001 38.5999 53.9001C41.5999 44.2001 58.9999 34.0001 58.9999 34.0001C61.118 32.8837 63.5663 32.5644 65.8999 33.1001C69.7599 34.0001 73.9999 35.4401 76.3499 32.0001C77.7499 30.0001 76.5399 27.6501 73.8799 26.0001C73.8799 26.0001 77.0999 29.7401 74.6699 31.3101C72.2399 32.8801 67.5299 30.7001 64.2199 30.4501C64.2199 30.4501 62.7999 26.7301 60.1199 25.0601L46.7399 36.9301L30.5999 49.6801C30.5999 49.6801 30.9199 54.6801 35.0499 56.7701C35.0499 56.7701 29.9099 66.2501 25.6199 65.7701C21.3299 65.2901 21.4999 61.6801 21.4999 61.6801Z" fill="#F99C5F"/>
<path d="M63.56 33.5998C63.5451 30.4274 62.3139 27.3815 60.12 25.0898C60.12 25.0898 52.56 26.2098 43.47 32.9098C37.9557 37.0132 33.4428 42.3125 30.27 48.4098C30.614 50.4677 31.6835 52.3343 33.285 53.6716C34.8864 55.0089 36.9138 55.7284 39 55.6998L40 54.1998C40.6577 55.5237 41.4736 56.7627 42.43 57.8898C42.43 57.8898 59.27 52.5898 64.86 41.9998C64.3451 39.3075 63.1389 36.7953 61.36 34.7098L63.56 33.5998Z" fill="#FF0000"/>
<path d="M63.56 33.5998C63.5451 30.4274 62.3139 27.3815 60.12 25.0898C60.12 25.0898 52.56 26.2098 43.47 32.9098C37.9557 37.0132 33.4428 42.3125 30.27 48.4098C30.614 50.4677 31.6835 52.3343 33.285 53.6716C34.8864 55.0089 36.9138 55.7284 39 55.6998L40 54.1998C40.6577 55.5237 41.4736 56.7627 42.43 57.8898C42.43 57.8898 59.27 52.5898 64.86 41.9998C64.3451 39.3075 63.1389 36.7953 61.36 34.7098L63.56 33.5998Z" fill="url(#paint1_radial_0_1)"/>
<path d="M30.27 48.4101C30.614 50.4679 31.6835 52.3345 33.285 53.6718C34.8864 55.0091 36.9138 55.7286 39 55.7001L40 54.2001C40.6577 55.5239 41.4736 56.763 42.43 57.8901C42.43 57.8901 59.27 52.5901 64.86 42.0001C64.3451 39.3078 63.1389 36.7956 61.36 34.7101L63.56 33.6101C63.5451 30.4376 62.3139 27.3917 60.12 25.1001C60.12 25.1001 63.62 31.7901 60.49 33.7501C59.6623 33.0375 58.7361 32.4481 57.74 32.0001C57.74 32.0001 62.35 37.0001 60.15 42.1801C57.95 47.3601 50.32 55.8001 42.23 56.8501C42.23 56.8501 39.68 54.7001 38.63 48.3701C38.63 48.3701 38.9 54.1801 36.68 53.8501C34.46 53.5201 31.82 53.0001 30.27 48.4101Z" fill="#D00000"/>
</g>
<g clip-path="url(#clip1_0_1)">
<path d="M82.5101 0.0800781C82.5101 0.0800781 82.1201 17.5801 76.5601 27.0001L80.5601 29.6801C80.5601 29.6801 92.7501 8.33008 82.5101 0.0800781Z" fill="#4A808F"/>
<path d="M82.3101 3.31C82.4601 1.31 82.4901 0 82.4901 0C92.7801 8.29 80.4901 29.78 80.4901 29.78L78.6201 28.52C78.6201 28.52 85.0801 18.31 84.5001 9.86C84.5001 9.86 84.5001 5.41 82.9501 3.66L82.3101 3.31Z" fill="#A9D8E3"/>
<path d="M75.0002 26.7801L74.9202 26.9001C74.8139 27.0772 74.7765 27.2872 74.8152 27.4902C74.8539 27.6931 74.9661 27.8746 75.1302 28.0001L80.3102 31.4201C80.4676 31.5129 80.6514 31.5505 80.8326 31.527C81.0138 31.5034 81.1819 31.42 81.3102 31.2901C81.3901 31.2042 81.4506 31.1023 81.4876 30.9911C81.5247 30.8799 81.5375 30.762 81.5252 30.6455C81.5129 30.5289 81.4757 30.4163 81.4162 30.3154C81.3567 30.2144 81.2762 30.1273 81.1802 30.0601L76.1202 26.5401C75.9399 26.4234 75.7206 26.3831 75.5105 26.4281C75.3005 26.4731 75.117 26.5997 75.0002 26.7801Z" fill="#BC6D3F"/>
<path d="M76.37 28.8301L73.43 34.2801C73.2815 34.5586 73.2497 34.8846 73.3416 35.1866C73.4335 35.4885 73.6416 35.7416 73.92 35.8901C74.1902 36.0351 74.5063 36.0692 74.8012 35.9852C75.0961 35.9012 75.3468 35.7057 75.5 35.4401L78.5 30.2501L76.37 28.8301Z" fill="#62361A"/>
<path d="M75.5598 28.6602C76.2275 29.1119 76.7792 29.7149 77.1698 30.4202C77.7698 31.5502 76.9098 32.4902 73.9898 31.2102C71.0698 29.9302 75.5598 28.6602 75.5598 28.6602Z" fill="#FFB870"/>
</g>
<g clip-path="url(#clip2_0_1)">
<path d="M0.999796 45C0.999796 45 11.2998 59.87 18.7798 62.31L17.7798 66.17C17.7798 66.17 -4.8902 62.35 0.999796 45Z" fill="#4A808F"/>
<path d="M18.12 64.67L17.72 66.17C17.72 66.17 -4.88996 62.35 1.00004 45C1.00004 45 1.61004 45.93 2.70004 47.36C2.70004 47.36 0.360045 59.21 15.06 63.7L18.12 64.67Z" fill="#C9F4FF"/>
<path d="M19 61.2301L17.2 67.4201C17.1731 67.5108 17.165 67.606 17.1764 67.6999C17.1878 67.7937 17.2183 67.8843 17.2661 67.9659C17.3139 68.0475 17.378 68.1183 17.4544 68.1741C17.5308 68.2299 17.6178 68.2694 17.71 68.2901H17.76C17.9375 68.3302 18.1235 68.3007 18.2798 68.2077C18.4361 68.1147 18.5507 67.9652 18.6 67.7901L20.31 61.5901C20.3368 61.4968 20.3438 61.3989 20.3307 61.3027C20.3175 61.2065 20.2845 61.114 20.2337 61.0313C20.1829 60.9485 20.1155 60.8772 20.0357 60.8219C19.9558 60.7666 19.8654 60.7286 19.77 60.7101C19.6006 60.6898 19.4296 60.7312 19.2882 60.8267C19.1468 60.9222 19.0445 61.0654 19 61.2301Z" fill="#BC6D3F"/>
<path d="M19.8602 63.25L27.2202 66C27.4694 66.0929 27.6745 66.2761 27.7949 66.5132C27.9153 66.7503 27.9422 67.024 27.8702 67.28C27.8304 67.4167 27.7635 67.5439 27.6734 67.6542C27.5833 67.7644 27.472 67.8553 27.346 67.9216C27.22 67.9879 27.0819 68.0281 26.9401 68.0398C26.7982 68.0516 26.6554 68.0346 26.5202 67.99L19.2402 65.5L19.8602 63.25Z" fill="#62361A"/>
<path d="M23.7501 63.7C23.2444 64.3269 22.5965 64.824 21.8601 65.15C20.6801 65.64 19.8601 64.71 21.3601 61.91C22.8601 59.11 23.7501 63.7 23.7501 63.7Z" fill="#FFB870"/>
</g>
<defs>
<radialGradient id="paint0_radial_0_1" cx="0" cy="0" r="1" gradientUnits="userSpaceOnUse" gradientTransform="translate(48.97 46.0402) scale(34.79)">
<stop stop-color="#FFE098"/>
<stop offset="0.43" stop-color="#FFC882"/>
<stop offset="0.72" stop-color="#FFB470"/>
</radialGradient>
<radialGradient id="paint1_radial_0_1" cx="0" cy="0" r="1" gradientUnits="userSpaceOnUse" gradientTransform="translate(47.57 41.4898) scale(28.57 28.57)">
<stop offset="0.11" stop-color="#FF7800"/>
<stop offset="0.22" stop-color="#FF6000"/>
<stop offset="0.44" stop-color="#FF2100"/>
<stop offset="0.55" stop-color="#FF0000"/>
</radialGradient>
<clipPath id="clip0_0_1">
<rect width="55.94" height="44.07" fill="white" transform="translate(21 24)"/>
</clipPath>
<clipPath id="clip1_0_1">
<rect width="13.6" height="36.03" fill="white" transform="translate(73)"/>
</clipPath>
<clipPath id="clip2_0_1">
<rect width="27.91" height="23.33" fill="white" transform="translate(0 45)"/>
</clipPath>
</defs>
</svg>
