<svg width="56" height="45" viewBox="0 0 56 45" fill="none" xmlns="http://www.w3.org/2000/svg">
<g clip-path="url(#clip0_586_596)">
<path d="M18.48 13.2102C15.4893 15.5343 13.0679 18.5097 11.4 21.9102C8.28998 27.9102 8.27998 30.4002 3.93998 33.7002C-0.40002 37.0002 -1.60002 41.3002 2.59998 43.6002C6.79998 45.9002 14.6 39.6002 17.6 29.9002C20.6 20.2002 38 10.0002 38 10.0002C40.1181 8.88388 42.5664 8.56454 44.9 9.10023C48.76 10.0002 53 11.4402 55.35 8.00023C57.7 4.56023 52.45 0.0802342 45.35 0.000234245C38.25 -0.0797658 27 6.51023 27 6.51023L18.48 13.2102Z" fill="#FFB870"/>
<path d="M18.48 13.2102C15.4893 15.5343 13.0679 18.5097 11.4 21.9102C8.28998 27.9102 8.27998 30.4002 3.93998 33.7002C-0.40002 37.0002 -1.60002 41.3002 2.59998 43.6002C6.79998 45.9002 14.6 39.6002 17.6 29.9002C20.6 20.2002 38 10.0002 38 10.0002C40.1181 8.88388 42.5664 8.56454 44.9 9.10023C48.76 10.0002 53 11.4402 55.35 8.00023C57.7 4.56023 52.45 0.0802342 45.35 0.000234245C38.25 -0.0797658 27 6.51023 27 6.51023L18.48 13.2102Z" fill="url(#paint0_radial_586_596)"/>
<path d="M0.499916 37.6801C-0.540084 40.0001 -8.39233e-05 42.1601 2.59992 43.6001C6.79992 45.8901 14.5999 39.6001 17.5999 29.9001C20.5999 20.2001 37.9999 10.0001 37.9999 10.0001C40.118 8.88371 42.5663 8.56436 44.8999 9.10006C48.7599 10.0001 52.9999 11.4401 55.3499 8.00006C56.7499 6.00006 55.5399 3.65006 52.8799 2.00006C52.8799 2.00006 56.0999 5.74006 53.6699 7.31006C51.2399 8.88006 46.5299 6.70006 43.2199 6.45006C43.2199 6.45006 41.7999 2.73006 39.1199 1.06006L25.7399 12.9301L9.59992 25.6801C9.59992 25.6801 9.91992 30.6801 14.0499 32.7701C14.0499 32.7701 8.90992 42.2501 4.61992 41.7701C0.329916 41.2901 0.499916 37.6801 0.499916 37.6801Z" fill="#F99C5F"/>
<path d="M42.56 9.59984C42.5451 6.42738 41.3139 3.38148 39.12 1.08984C39.12 1.08984 31.56 2.20984 22.47 8.90984C16.9557 13.0132 12.4428 18.3125 9.27002 24.4098C9.61397 26.4677 10.6835 28.3343 12.285 29.6716C13.8864 31.0089 15.9138 31.7284 18 31.6998L19 30.1998C19.6577 31.5237 20.4736 32.7627 21.43 33.8898C21.43 33.8898 38.27 28.5898 43.86 17.9998C43.3451 15.3075 42.1389 12.7953 40.36 10.7098L42.56 9.59984Z" fill="#FF0000"/>
<path d="M42.56 9.59984C42.5451 6.42738 41.3139 3.38148 39.12 1.08984C39.12 1.08984 31.56 2.20984 22.47 8.90984C16.9557 13.0132 12.4428 18.3125 9.27002 24.4098C9.61397 26.4677 10.6835 28.3343 12.285 29.6716C13.8864 31.0089 15.9138 31.7284 18 31.6998L19 30.1998C19.6577 31.5237 20.4736 32.7627 21.43 33.8898C21.43 33.8898 38.27 28.5898 43.86 17.9998C43.3451 15.3075 42.1389 12.7953 40.36 10.7098L42.56 9.59984Z" fill="url(#paint1_radial_586_596)"/>
<path d="M9.27002 24.4101C9.61397 26.4679 10.6835 28.3345 12.285 29.6718C13.8864 31.0091 15.9138 31.7286 18 31.7001L19 30.2001C19.6577 31.5239 20.4736 32.763 21.43 33.8901C21.43 33.8901 38.27 28.5901 43.86 18.0001C43.3451 15.3078 42.1389 12.7956 40.36 10.7101L42.56 9.6101C42.5451 6.43763 41.3139 3.39174 39.12 1.1001C39.12 1.1001 42.62 7.7901 39.49 9.7501C38.6623 9.03749 37.7361 8.44808 36.74 8.0001C36.74 8.0001 41.35 13.0001 39.15 18.1801C36.95 23.3601 29.32 31.8001 21.23 32.8501C21.23 32.8501 18.68 30.7001 17.63 24.3701C17.63 24.3701 17.9 30.1801 15.68 29.8501C13.46 29.5201 10.82 29.0001 9.27002 24.4101Z" fill="#D00000"/>
<g clip-path="url(#clip1_586_596)">
<path d="M52.6601 34.21C52.383 33.4017 51.9311 32.6645 51.3365 32.0509C50.7419 31.4373 50.0193 30.9624 49.2201 30.66C47.2939 29.9513 45.2053 29.8073 43.2001 30.2449C41.1948 30.6824 39.3561 31.6833 37.9001 33.13C34.1601 36.85 35.1701 39.69 35.1701 39.69L52.8401 39.35C53.1051 37.6407 53.0441 35.8966 52.6601 34.21Z" fill="#FFC600"/>
<path d="M47.4 33.2799C47.4 33.2799 47 30.9999 45.87 30.3599L43.52 30.6099C44.1034 31.3975 44.4908 32.3127 44.65 33.2799H47.4Z" fill="#821898"/>
<path d="M47.3999 30.5601C48.0553 31.3232 48.4479 32.2767 48.5199 33.2801L50.5199 33.9201C50.4004 32.9174 50.0588 31.954 49.5199 31.1001C48.8333 30.8489 48.123 30.668 47.3999 30.5601Z" fill="#821898"/>
<path opacity="0.35" d="M49.2199 30.6599C50.0191 30.9623 50.7417 31.4372 51.3363 32.0508C51.9309 32.6644 52.3828 33.4016 52.6599 34.2099C53.0439 35.8965 53.1049 37.6406 52.8399 39.3499L35.1699 39.6899C35.1699 39.6899 38.5199 30.2199 48.5299 30.6599H49.2199Z" fill="#2A0055"/>
<path d="M47.8401 32.6799C44.8825 32.1732 41.8454 32.4068 39.0001 33.3599C34.2401 34.9399 35.0001 39.1299 35.0001 39.1299L52.7901 39.3499C52.7901 39.3499 55.0001 34.2099 47.8401 32.6799Z" fill="#DCEFDA"/>
<path d="M35.0498 39.1301L52.8398 39.3501C52.8398 39.3501 55.0298 34.2101 47.8398 32.6801C45.358 32.2657 42.817 32.3747 40.3798 33.0001C40.3798 33.0001 37.0898 35.8401 36.7398 37.0001C36.3666 37.8422 35.785 38.5753 35.0498 39.1301Z" fill="#AFB4AF"/>
<path d="M47.8798 43.4399C47.8798 43.4399 53.9998 41.6299 52.6598 37.6199C51.3198 33.6099 46.3698 33.8799 42.1798 33.9999C37.9898 34.1199 34.2698 37.2199 35.1698 39.6899C36.0698 42.1599 42.1498 44.8999 47.8798 43.4399Z" fill="#984432"/>
<path d="M48.7098 34.3101L39.0698 42.8001C39.838 43.1067 40.6309 43.3476 41.4398 43.5201L50.6598 35.0801C50.0532 34.7249 49.3955 34.4651 48.7098 34.3101Z" fill="#7C3629"/>
<path d="M52.66 37.6202C52.5558 37.3001 52.4184 36.9917 52.25 36.7002L44.25 43.8402C45.1378 43.8624 46.0256 43.7954 46.9 43.6402L52.82 38.4202C52.7977 38.1483 52.744 37.8798 52.66 37.6202Z" fill="#7C3629"/>
<path d="M42.1801 34H42.0001L35.3501 40.07C35.7084 40.6496 36.1814 41.1498 36.7401 41.54L45.0001 33.93C44.0001 33.91 43.0901 33.94 42.1801 34Z" fill="#7C3629"/>
</g>
</g>
<defs>
<radialGradient id="paint0_radial_586_596" cx="0" cy="0" r="1" gradientUnits="userSpaceOnUse" gradientTransform="translate(27.97 22.0402) scale(34.79)">
<stop stop-color="#FFE098"/>
<stop offset="0.43" stop-color="#FFC882"/>
<stop offset="0.72" stop-color="#FFB470"/>
</radialGradient>
<radialGradient id="paint1_radial_586_596" cx="0" cy="0" r="1" gradientUnits="userSpaceOnUse" gradientTransform="translate(26.57 17.4898) scale(28.57 28.57)">
<stop offset="0.11" stop-color="#FF7800"/>
<stop offset="0.22" stop-color="#FF6000"/>
<stop offset="0.44" stop-color="#FF2100"/>
<stop offset="0.55" stop-color="#FF0000"/>
</radialGradient>
<clipPath id="clip0_586_596">
<rect width="55.94" height="44.07" fill="white"/>
</clipPath>
<clipPath id="clip1_586_596">
<rect width="18.16" height="13.85" fill="white" transform="translate(35 30)"/>
</clipPath>
</defs>
</svg>
