<svg width="49" height="35" viewBox="0 0 49 35" fill="none" xmlns="http://www.w3.org/2000/svg">
<g clip-path="url(#clip0_586_588)">
<path d="M35.3798 5.61978C35.3798 5.61978 19.7898 5.39978 9.99982 9.45978C0.209817 13.5198 -5.00018 22.2598 6.99982 24.4598C18.9998 26.6598 35.3798 5.61978 35.3798 5.61978Z" fill="#550B6B"/>
<path d="M42.8799 14.91C43.3654 14.2517 44.0768 13.7958 44.8777 13.6297C45.6786 13.4636 46.5127 13.599 47.2199 14.01C49.7699 15.51 48.4999 18.8 46.5499 19.78C44.5999 20.76 42.1299 19.14 42.1299 19.14L42.8799 14.91Z" fill="#FF6F67"/>
<path d="M42.1299 19.1398C42.1299 19.1398 44.5999 20.7598 46.5499 19.7798C48.4999 18.7998 49.7699 15.5098 47.2199 14.0098C47.2199 14.0098 48.2999 17.0098 46.5599 18.2698C46.1296 18.6467 45.577 18.8545 45.0049 18.8545C44.4328 18.8545 43.8802 18.6467 43.4499 18.2698L42.1299 19.1398Z" fill="#EB5E5C"/>
<path d="M6.82987 22.9999C6.82987 22.9999 6.92987 34.7899 18.7199 34.5899C30.5099 34.3899 47.8999 23.1799 44.3999 14.4799C40.8999 5.77995 38.0999 3.99995 30.7999 3.69995C23.4999 3.39995 6.51987 15.1999 6.82987 22.9999Z" fill="#FFB870"/>
<path d="M6.82987 22.9999C6.82987 22.9999 6.92987 34.7899 18.7199 34.5899C30.5099 34.3899 47.8999 23.1799 44.3999 14.4799C40.8999 5.77995 38.0999 3.99995 30.7999 3.69995C23.4999 3.39995 6.51987 15.1999 6.82987 22.9999Z" fill="url(#paint0_radial_586_588)"/>
<path d="M18.7199 34.5899C30.5199 34.3799 47.8999 23.1799 44.3999 14.4799C40.8999 5.77995 38.0999 3.99995 30.7999 3.69995C23.4999 3.39995 6.51987 15.1999 6.82987 22.9999C6.86389 23.8862 6.98446 24.7671 7.18987 25.6299C7.76743 22.7595 9.02131 20.0682 10.8474 17.7794C12.6736 15.4906 15.0193 13.6705 17.6899 12.4699C17.6899 12.4699 29.4499 13.0499 35.3799 6.69995C35.3799 6.69995 45.0399 14.2799 39.8299 21.8799C34.6199 29.4799 27.2199 32.4799 18.7199 34.5899Z" fill="#F99C5F"/>
<path d="M41.4799 8.64006C41.4799 8.64006 40.0999 -0.0799412 30.9999 5.88299e-05C21.8999 0.0800588 10.4899 4.58006 9.99993 9.46006C9.57993 13.0701 24.4299 7.00006 33.4999 5.63006C36.6599 5.15006 41.4799 8.64006 41.4799 8.64006Z" fill="#82179B"/>
<path d="M33.4999 5.6302C24.4299 7.0002 9.57993 13.0702 9.99993 9.4602C10.4299 5.1502 19.3199 1.1302 27.6899 0.200195C27.6899 0.200195 14.7599 2.7102 14.8699 7.9402L21.3699 7.6202L33.4999 5.6202" fill="#A832C7"/>
<path opacity="0.35" d="M9.99993 9.46006C9.57993 13.0701 24.4299 7.00006 33.4999 5.63006C36.6599 5.15006 41.4999 8.63006 41.4999 8.63006C41.4999 8.63006 40.0999 -0.0799405 30.9999 5.94542e-05C30.9999 5.94542e-05 35.6199 1.12006 35.0999 3.08006C34.5799 5.04006 20.4999 7.70006 20.4999 7.70006L10.9999 10.0001" fill="#400454"/>
<path d="M6.8601 23.6298C6.8601 23.6298 5.7801 17.4798 16.9401 11.5498C28.1001 5.61981 9.44009 10.5498 9.44009 10.5498C9.44009 10.5498 0.600095 14.8798 0.830095 19.1398C1.0601 23.3998 6.8601 23.6298 6.8601 23.6298Z" fill="#A10056"/>
<path d="M6.8601 23.6298C6.8601 23.6298 5.7801 17.4798 16.9401 11.5498C28.1001 5.61981 9.44009 10.5498 9.44009 10.5498C9.44009 10.5498 0.600095 14.8798 0.830095 19.1398C1.0601 23.3998 6.8601 23.6298 6.8601 23.6298Z" fill="url(#paint1_radial_586_588)"/>
<path d="M4.27002 13.5198C4.27002 13.5198 6.27002 11.6298 12.89 11.6998C19.51 11.7698 29.89 9.76982 33.5 5.62982L31.36 5.55982C25.7666 5.38585 20.1859 6.19131 14.87 7.93982L9.05002 9.84982L4.27002 13.5198Z" fill="#550B6B"/>
<path d="M25.2098 5.76008C27.2539 5.5683 29.3077 5.50151 31.3598 5.56008L33.4998 5.63008C29.8998 9.77008 19.4998 11.7701 12.8898 11.7001C11.1964 11.6619 9.5037 11.8027 7.83984 12.1201C10.7552 11.065 13.7709 10.3111 16.8398 9.87008C21.3498 9.31008 25.2098 5.76008 25.2098 5.76008Z" fill="#420759"/>
<path d="M12.2199 20.55C12.2199 20.55 15.5199 20.84 15.9699 20.09C16.4199 19.34 15.3399 17.46 12.2199 17.55C9.09992 17.64 7.99992 19 8.84992 20.6C9.37992 21.6 10.4999 20.5 12.2199 20.55Z" fill="#BC6D3F"/>
<path d="M25.8402 12.8399C25.8402 12.8399 27.8402 9.29987 30.8402 9.56987C33.8402 9.83987 32.0402 11.9899 31.0902 12.4899C30.1402 12.9899 26.9502 15.6899 25.7502 15.3399C24.5502 14.9899 25.8402 12.8399 25.8402 12.8399Z" fill="#BC6D3F"/>
<path d="M11.9301 24.7498C12.8137 24.7498 13.5301 24.0335 13.5301 23.1498C13.5301 22.2661 12.8137 21.5498 11.9301 21.5498C11.0464 21.5498 10.3301 22.2661 10.3301 23.1498C10.3301 24.0335 11.0464 24.7498 11.9301 24.7498Z" fill="#003438"/>
<path d="M30.4301 17.7298C31.3137 17.7298 32.0301 17.0134 32.0301 16.1298C32.0301 15.2461 31.3137 14.5298 30.4301 14.5298C29.5464 14.5298 28.8301 15.2461 28.8301 16.1298C28.8301 17.0134 29.5464 17.7298 30.4301 17.7298Z" fill="#003438"/>
<path d="M27.3701 20.3901C27.3701 20.3901 23.5701 21.0401 18.3701 26.9901C18.3701 26.9901 22.0701 31.9901 26.2601 30.5801C30.4501 29.1701 29.0701 22.2901 27.3701 20.3901Z" fill="#850027"/>
<path d="M23.73 30.7199C24.5735 30.9066 25.4521 30.8582 26.27 30.5799C28.61 29.7999 29.21 27.3099 28.99 24.9399C26.6125 26.1894 24.7505 28.2356 23.73 30.7199Z" fill="#FF0000"/>
<path d="M28.4901 22.5401C28.2554 21.7594 27.8754 21.03 27.3701 20.3901C27.3701 20.3901 23.5701 21.0401 18.3701 26.9901C18.3701 26.9901 18.5701 27.2601 18.9401 27.6701C22.4606 27.106 25.703 25.4146 28.1801 22.8501L28.4901 22.5401Z" fill="white"/>
<path d="M27.6899 0.200195C27.6899 0.200195 36.5899 0.200195 37.6899 6.5002L36.1199 5.9102C36.1199 5.9102 36.1099 1.8602 27.6899 0.200195Z" fill="#420759"/>
<path d="M26.5599 0.350098C26.5599 0.350098 19.7399 2.9101 18.4099 6.9201L16.8599 7.3301C16.8599 7.3301 17.9999 2.8701 26.5599 0.350098Z" fill="#420759"/>
</g>
<defs>
<radialGradient id="paint0_radial_586_588" cx="0" cy="0" r="1" gradientUnits="userSpaceOnUse" gradientTransform="translate(21.0099 26.1399) scale(27.02 28.1008)">
<stop stop-color="#FFE098"/>
<stop offset="0.34" stop-color="#FFC882"/>
<stop offset="0.58" stop-color="#FFB470"/>
</radialGradient>
<radialGradient id="paint1_radial_586_588" cx="0" cy="0" r="1" gradientUnits="userSpaceOnUse" gradientTransform="translate(10.6601 16.1298) scale(16.42)">
<stop offset="0.17" stop-color="#A10056"/>
<stop offset="0.52" stop-color="#890047"/>
<stop offset="0.79" stop-color="#73003A"/>
</radialGradient>
<clipPath id="clip0_586_588">
<rect width="48.65" height="34.59" fill="white"/>
</clipPath>
</defs>
</svg>
