<svg width="14" height="37" viewBox="0 0 14 37" fill="none" xmlns="http://www.w3.org/2000/svg">
<g clip-path="url(#clip0_586_603)">
<path d="M9.51006 0.0800781C9.51006 0.0800781 9.12006 17.5801 3.56006 27.0001L7.56006 29.6801C7.56006 29.6801 19.7501 8.33008 9.51006 0.0800781Z" fill="#4A808F"/>
<path d="M9.31012 3.31C9.46012 1.31 9.49012 0 9.49012 0C19.7801 8.29 7.49012 29.78 7.49012 29.78L5.62012 28.52C5.62012 28.52 12.0801 18.31 11.5001 9.86C11.5001 9.86 11.5001 5.41 9.95012 3.66L9.31012 3.31Z" fill="#A9D8E3"/>
<path d="M2.00024 26.7801L1.92024 26.9001C1.81385 27.0772 1.77646 27.2872 1.8152 27.4902C1.85394 27.6931 1.9661 27.8746 2.13024 28.0001L7.31024 31.4201C7.46759 31.5129 7.65143 31.5505 7.83259 31.527C8.01375 31.5034 8.18186 31.42 8.31024 31.2901C8.39007 31.2042 8.45056 31.1023 8.48764 30.9911C8.52472 30.8799 8.53754 30.762 8.52522 30.6455C8.5129 30.5289 8.47573 30.4163 8.41622 30.3154C8.35671 30.2144 8.27625 30.1273 8.18024 30.0601L3.12024 26.5401C2.93989 26.4234 2.72058 26.3831 2.51054 26.4281C2.30051 26.4731 2.11695 26.5997 2.00024 26.7801V26.7801Z" fill="#BC6D3F"/>
<path d="M3.37004 28.8301L0.430041 34.2801C0.28152 34.5586 0.249706 34.8846 0.341599 35.1866C0.433492 35.4885 0.641564 35.7416 0.920041 35.8901V35.8901C1.19025 36.0351 1.50629 36.0692 1.80121 35.9852C2.09614 35.9012 2.34678 35.7057 2.50004 35.4401L5.50004 30.2501L3.37004 28.8301Z" fill="#62361A"/>
<path d="M2.55978 28.6602C3.22753 29.1119 3.77916 29.7149 4.16978 30.4202C4.76978 31.5502 3.90978 32.4902 0.989779 31.2102C-1.93022 29.9302 2.55978 28.6602 2.55978 28.6602Z" fill="#FFB870"/>
</g>
<defs>
<clipPath id="clip0_586_603">
<rect width="13.6" height="36.03" fill="white"/>
</clipPath>
</defs>
</svg>
