<svg width="19" height="14" viewBox="0 0 19 14" fill="none" xmlns="http://www.w3.org/2000/svg">
<path d="M17.6601 4.20998C17.383 3.40171 16.9311 2.6645 16.3365 2.05088C15.7419 1.43727 15.0193 0.962353 14.2201 0.659983C12.2939 -0.0486593 10.2053 -0.19267 8.20006 0.244878C6.19478 0.682426 4.35609 1.68335 2.90012 3.12998C-0.839885 6.84998 0.170115 9.68998 0.170115 9.68998L17.8401 9.34998C18.1051 7.64065 18.0441 5.89659 17.6601 4.20998V4.20998Z" fill="#FFC600"/>
<path d="M12.4 3.27986C12.4 3.27986 12 0.999863 10.87 0.359863L8.52002 0.609863C9.10341 1.39748 9.49077 2.31274 9.65002 3.27986H12.4Z" fill="#821898"/>
<path d="M12.3999 0.560059C13.0553 1.32316 13.4479 2.27675 13.5199 3.28006L15.5199 3.92006C15.4004 2.9174 15.0588 1.95401 14.5199 1.10006C13.8333 0.848897 13.123 0.667972 12.3999 0.560059V0.560059Z" fill="#821898"/>
<path opacity="0.35" d="M14.2199 0.659891C15.0191 0.962262 15.7417 1.43718 16.3363 2.05079C16.9309 2.66441 17.3828 3.40162 17.6599 4.20989C18.0439 5.8965 18.1049 7.64056 17.8399 9.34989L0.169922 9.68989C0.169922 9.68989 3.51992 0.219891 13.5299 0.659891H14.2199V0.659891Z" fill="#2A0055"/>
<path d="M12.8401 2.67993C9.88248 2.17317 6.8454 2.40679 4.00009 3.35993C-0.759911 4.93993 8.9135e-05 9.12993 8.9135e-05 9.12993L17.7901 9.34993C17.7901 9.34993 20.0001 4.20993 12.8401 2.67993Z" fill="#DCEFDA"/>
<path d="M0.0498047 9.13015L17.8398 9.35015C17.8398 9.35015 20.0298 4.21015 12.8398 2.68015C10.358 2.26569 7.81699 2.37469 5.3798 3.00015C5.3798 3.00015 2.0898 5.84015 1.7398 7.00015C1.36661 7.84221 0.78497 8.57528 0.0498047 9.13015V9.13015Z" fill="#AFB4AF"/>
<path d="M12.8798 13.4399C12.8798 13.4399 18.9998 11.6299 17.6598 7.61988C16.3198 3.60988 11.3698 3.87988 7.17978 3.99988C2.98978 4.11988 -0.730216 7.21988 0.169784 9.68988C1.06978 12.1599 7.14978 14.8999 12.8798 13.4399Z" fill="#984432"/>
<path d="M13.7098 4.31006L4.06982 12.8001C4.83802 13.1067 5.63087 13.3476 6.43982 13.5201L15.6598 5.08006C15.0532 4.72485 14.3955 4.46515 13.7098 4.31006V4.31006Z" fill="#7C3629"/>
<path d="M17.66 7.6202C17.5558 7.30008 17.4184 6.99174 17.25 6.7002L9.25 13.8402C10.1378 13.8624 11.0256 13.7954 11.9 13.6402L17.82 8.4202C17.7977 8.14825 17.744 7.8798 17.66 7.6202V7.6202Z" fill="#7C3629"/>
<path d="M7.1801 4H7.0001L0.350098 10.07C0.708422 10.6496 1.18144 11.1498 1.7401 11.54L10.0001 3.93C9.0001 3.91 8.0901 3.94 7.1801 4Z" fill="#7C3629"/>
</svg>
