<svg width="28" height="24" viewBox="0 0 28 24" fill="none" xmlns="http://www.w3.org/2000/svg">
<g clip-path="url(#clip0_586_622)">
<path d="M0.999796 0C0.999796 0 11.2998 14.87 18.7798 17.31L17.7798 21.17C17.7798 21.17 -4.8902 17.35 0.999796 0Z" fill="#4A808F"/>
<path d="M18.12 19.67L17.72 21.17C17.72 21.17 -4.88996 17.35 1.00004 0C1.00004 0 1.61004 0.93 2.70004 2.36C2.70004 2.36 0.360045 14.21 15.06 18.7L18.12 19.67Z" fill="#C9F4FF"/>
<path d="M19 16.2301L17.2 22.4201C17.1731 22.5108 17.165 22.606 17.1764 22.6999C17.1878 22.7937 17.2183 22.8843 17.2661 22.9659C17.3139 23.0475 17.378 23.1183 17.4544 23.1741C17.5308 23.2299 17.6178 23.2694 17.71 23.2901H17.76C17.9375 23.3302 18.1235 23.3007 18.2798 23.2077C18.4361 23.1147 18.5507 22.9652 18.6 22.7901L20.31 16.5901C20.3368 16.4968 20.3438 16.3989 20.3307 16.3027C20.3175 16.2065 20.2845 16.114 20.2337 16.0313C20.1829 15.9485 20.1155 15.8772 20.0357 15.8219C19.9558 15.7666 19.8654 15.7286 19.77 15.7101C19.6006 15.6898 19.4296 15.7312 19.2882 15.8267C19.1468 15.9222 19.0445 16.0654 19 16.2301Z" fill="#BC6D3F"/>
<path d="M19.8602 18.25L27.2202 21C27.4694 21.0929 27.6745 21.2761 27.7949 21.5132C27.9153 21.7503 27.9422 22.024 27.8702 22.28C27.8304 22.4167 27.7635 22.5439 27.6734 22.6542C27.5833 22.7644 27.472 22.8553 27.346 22.9216C27.22 22.9879 27.0819 23.0281 26.9401 23.0398C26.7982 23.0516 26.6554 23.0346 26.5202 22.99L19.2402 20.5L19.8602 18.25Z" fill="#62361A"/>
<path d="M23.7501 18.7C23.2444 19.3269 22.5965 19.824 21.8601 20.15C20.6801 20.64 19.8601 19.71 21.3601 16.91C22.8601 14.11 23.7501 18.7 23.7501 18.7Z" fill="#FFB870"/>
</g>
<defs>
<clipPath id="clip0_586_622">
<rect width="27.91" height="23.33" fill="white"/>
</clipPath>
</defs>
</svg>
