<svg width="20" height="17" viewBox="0 0 20 17" fill="none" xmlns="http://www.w3.org/2000/svg">
<g clip-path="url(#clip0_586_633)">
<path d="M19.4798 8.10988C19.4798 8.10988 20.6298 0.389876 14.2598 -0.000123633C7.88977 -0.390124 -1.70023 5.79988 0.39977 14.1099C0.39977 14.1099 7.23977 17.7799 19.4798 8.10988Z" fill="#FFC600"/>
<path d="M17.8599 5.82988C17.1732 4.09415 15.9506 2.62279 14.3699 1.62988C13.4554 1.69919 12.5505 1.8634 11.6699 2.11988C11.6699 2.11988 14.5199 4.17988 15.0899 6.19988L17.8599 5.82988Z" fill="#821898"/>
<path d="M12.9101 6.65986C12.2674 5.05957 11.2073 3.66096 9.8401 2.60986C8.9067 2.88542 7.99156 3.21941 7.1001 3.60986C8.46137 4.57826 9.54699 5.88445 10.2501 7.39986L12.9101 6.65986Z" fill="#821898"/>
<path opacity="0.35" d="M0.399902 14.11C0.399902 14.11 7.2399 17.78 19.4799 8.11002C19.4799 8.11002 20.6299 0.39002 14.2599 0.0200195C14.2599 0.0200195 4.4099 4.14002 6.3099 10.02C8.2099 15.9 0.399902 14.11 0.399902 14.11Z" fill="#2A0055"/>
<path d="M0.43005 14.7999C0.43005 14.7999 -0.25995 13.1499 0.11005 12.3999C0.11005 12.3999 1.41005 8.80987 7.67005 6.50987C13.93 4.20987 18.32 3.28987 19.57 5.73987C20.82 8.18987 18.06 11.0899 18.06 11.0899L0.43005 14.7999Z" fill="#DCEFDA"/>
<path d="M8.26992 7.99994C8.26992 7.99994 16.3999 4.51994 18.5699 6.19994C20.7399 7.87994 18.9999 10.5099 16.9999 12.0899C14.9999 13.6699 8.64992 16.8099 2.83992 15.9999C-2.97008 15.1899 2.90992 10.3299 8.26992 7.99994Z" fill="#984432"/>
<path d="M11.35 6.83996L8.20996 15.84C9.03859 15.6796 9.85676 15.4692 10.66 15.21L13.61 6.20996C12.84 6.37996 12.06 6.60996 11.35 6.83996Z" fill="#7C3629"/>
<path d="M5.5701 9.3498L3.3501 16.0898C4.0557 16.1448 4.7645 16.1448 5.4701 16.0898L8.0801 8.0498C7.22146 8.43934 6.38367 8.87326 5.5701 9.3498Z" fill="#7C3629"/>
<path d="M16.12 5.75977L13.23 14.1898C13.9134 13.8909 14.5809 13.5572 15.23 13.1898L17.79 5.88977C17.2432 5.76127 16.68 5.71742 16.12 5.75977Z" fill="#7C3629"/>
</g>
<defs>
<clipPath id="clip0_586_633">
<rect width="19.9" height="16.15" fill="white"/>
</clipPath>
</defs>
</svg>
