<svg width="58" height="42" viewBox="0 0 58 42" fill="none" xmlns="http://www.w3.org/2000/svg">
<g clip-path="url(#clip0_586_563)">
<path d="M54.0699 16.12C54.0699 16.12 42.7699 -1.21997 32.7399 0.0700306C22.7099 1.36003 9.24994 8.44003 3.99994 20.14C-1.25006 31.84 -2.69005 39 8.71994 40.87C20.1299 42.74 41.7699 39 50.5699 33.81C59.3699 28.62 58.9099 22.39 54.0699 16.12Z" fill="url(#paint0_radial_586_563)"/>
<path d="M17.8201 13.8599C17.346 15.1833 17.3015 16.6225 17.6929 17.9727C18.0843 19.3229 18.8917 20.5152 20.0001 21.3799C23.9401 24.6499 23.7201 23.2499 24.4501 28.6199C25.1801 33.9899 27.2501 30.3899 27.2501 30.3899L26.2501 24.3199L21.8501 20.1299L17.8201 13.8599Z" fill="#4470B9"/>
<path d="M27.8701 8.22998C27.8701 8.22998 28.8701 14.23 34.0701 14.86C39.2701 15.49 41.1601 14.86 42.4201 20.1C43.6801 25.34 44.5601 17.19 44.5601 17.19L40.2401 14.34L31.6201 10.63L27.8701 8.22998Z" fill="#4470B9"/>
<path d="M14.7598 41.1002C26.5998 41.2602 43.0898 37.9502 50.4898 33.5502C59.2798 28.3202 58.8298 22.1402 53.9898 15.8602C53.9898 15.8602 48.9198 7.22018 40.5498 2.18018C40.5498 2.18018 52.8398 25.7102 14.7598 41.1002Z" fill="#4470B9"/>
<path d="M8.72003 40.8701C-2.68997 39.0001 -1.35998 31.8401 4.00003 20.1401C6.94003 13.6601 12.39 8.59014 18.37 5.14014C18.37 5.14014 7.17002 10.9401 2.53003 26.0201C2.53003 26.0201 -0.739975 37.5101 8.77003 40.8701H8.72003Z" fill="#88B0FF"/>
<path d="M30.3502 7.50023C31.4135 9.48565 33.2061 10.9807 35.3502 11.6702C39.1202 13.0502 45.6602 11.6702 46.5102 18.1202C46.5942 18.4035 46.6144 18.7018 46.5694 18.9937C46.5244 19.2857 46.4153 19.5641 46.2499 19.8089C46.0845 20.0536 45.8669 20.2587 45.6128 20.4094C45.3586 20.5601 45.0743 20.6526 44.7802 20.6802C42.5002 20.9802 43.2202 14.1502 37.6402 14.6802C32.0602 15.2102 28.7602 10.1402 27.9002 8.28023C27.4202 7.23023 27.8502 6.55023 28.5602 6.49023C28.9182 6.50015 29.2684 6.59734 29.5804 6.77336C29.8923 6.94937 30.1566 7.19889 30.3502 7.50023V7.50023Z" fill="#A5D6ED"/>
<path d="M46.4799 18.1202C46.5639 18.4035 46.5842 18.7018 46.5391 18.9937C46.4941 19.2857 46.385 19.5641 46.2196 19.8089C46.0542 20.0536 45.8366 20.2587 45.5825 20.4094C45.3284 20.5601 45.044 20.6526 44.7499 20.6802C42.4699 20.9802 43.1899 14.1502 37.6099 14.6802C32.0299 15.2102 28.7299 10.1402 27.8699 8.28023C27.3899 7.23023 27.8199 6.55023 28.5299 6.49023C28.3654 7.19484 28.4061 7.93181 28.6471 8.61404C28.8881 9.29627 29.3194 9.89526 29.8899 10.3402C31.8899 12.2702 33.7199 14.2102 37.2999 13.9202C38.5862 13.798 39.8768 14.1044 40.971 14.7916C42.0651 15.4789 42.9015 16.5085 43.3499 17.7202C43.8899 19.2602 44.7899 20.1602 45.6399 19.7202C45.9071 19.5498 46.1252 19.3125 46.2725 19.0319C46.4198 18.7512 46.4913 18.437 46.4799 18.1202V18.1202Z" fill="#69BCDB"/>
<path d="M20.7198 13.5602C20.7198 13.5602 21.5598 19.5602 25.1398 20.6902C28.7198 21.8202 30.3598 28.5602 28.7498 30.5702C27.1398 32.5802 25.5098 31.8602 24.9998 27.4202C24.4898 22.9802 23.6698 23.1302 20.0898 20.6902C16.5098 18.2502 17.6598 13.2302 18.3798 12.0902C19.0998 10.9502 20.9998 11.3202 20.7198 13.5602Z" fill="#A5D6ED"/>
<path d="M28.7498 30.5698C27.1398 32.5698 25.5098 31.8598 25.0398 27.4198C24.5698 22.9798 23.7098 23.1298 20.1298 20.6898C16.5498 18.2498 17.6998 13.2298 18.4198 12.0898C18.4198 12.0898 17.4798 17.4698 20.6298 19.4198C23.7798 21.3698 25.6898 22.7198 26.0198 26.7298C26.3498 30.7398 26.3698 30.5698 27.1198 30.9798C27.8698 31.3898 28.7498 30.5698 28.7498 30.5698Z" fill="#69BCDB"/>
</g>
<defs>
<radialGradient id="paint0_radial_586_563" cx="0" cy="0" r="1" gradientUnits="userSpaceOnUse" gradientTransform="translate(28.7499 20.68) scale(34.27)">
<stop stop-color="#57ADD5"/>
<stop offset="0.22" stop-color="#57A1D5"/>
<stop offset="0.61" stop-color="#5781D5"/>
<stop offset="0.66" stop-color="#577DD5"/>
</radialGradient>
<clipPath id="clip0_586_563">
<rect width="57.5" height="41.36" fill="white"/>
</clipPath>
</defs>
</svg>
