<svg width="75" height="55" viewBox="0 0 75 55" fill="none" xmlns="http://www.w3.org/2000/svg">
<g clip-path="url(#clip0_586_510)">
<path d="M23.7471 8.64495L41.9125 5.30442C44.692 4.79329 47.5449 4.83462 50.3083 5.42605C53.0718 6.01748 55.6917 7.14742 58.0185 8.75136C60.3453 10.3553 62.3334 12.4018 63.8692 14.7741C65.4051 17.1464 66.4587 19.7979 66.9698 22.5774L69.0931 34.1238C69.663 37.2226 68.9785 40.4208 67.1903 43.015C65.402 45.6091 62.6565 47.3866 59.5577 47.9565L22.3909 54.7913C19.297 55.3495 16.108 54.6585 13.5226 52.8699C10.9371 51.0812 9.1661 48.3406 8.59752 45.2486L6.47419 33.7022C5.44193 28.0889 6.68183 22.2954 9.92113 17.5962C13.1604 12.8971 18.1338 9.67721 23.7471 8.64495Z" fill="#F48400"/>
<path d="M9.77981 43.5501C11.101 45.669 12.2097 47.9133 13.0898 50.2501C13.0898 50.2501 14.5198 52.5701 20.3698 51.6301C26.2198 50.6901 49.5798 46.2601 49.5798 46.2601C49.5798 46.2601 53.8598 45.9101 53.8498 43.3201C53.8398 40.7301 54.4998 32.1801 56.7198 29.1701C58.7198 26.4801 63.4298 24.1701 67.0898 23.1701L66.9998 22.5701C66.4873 19.7882 65.4316 17.1346 63.8931 14.7609C62.3546 12.3872 60.3635 10.3399 58.0334 8.7361C55.7033 7.13227 53.0801 6.00331 50.3135 5.41375C47.5469 4.82418 44.6913 4.78557 41.9098 5.30011L23.7498 8.64011C18.1359 9.67317 13.162 12.8933 9.92162 17.5926C6.68125 22.2919 5.43966 28.0857 6.46981 33.7001L7.99981 41.8101C8.7456 42.2103 9.36276 42.8136 9.77981 43.5501Z" fill="url(#paint0_linear_586_510)"/>
<path d="M69.0998 34.1199L67.4898 25.3799C65.7892 25.81 64.2733 26.7787 63.1685 28.1412C62.0637 29.5038 61.4292 31.1871 61.3598 32.9399C61.1798 36.7799 62.9898 41.1799 67.8898 41.8599C69.1612 39.4924 69.588 36.7624 69.0998 34.1199Z" fill="#241F20"/>
<path d="M19.39 16.16C18.49 16.16 14.64 18.23 13.69 21.16C12.74 24.09 13.19 27.62 14.11 27.71C15.46 27.84 15.84 25.31 16.11 23.18C16.38 21.05 19.56 19.37 20.33 18.18C21.1 16.99 20.37 16.14 19.39 16.16Z" fill="white"/>
<path d="M15.9157 35.8667C16.6905 35.7887 17.2226 34.7722 17.1042 33.5962C16.9858 32.4203 16.2617 31.5302 15.4869 31.6082C14.7121 31.6863 14.18 32.7028 14.2984 33.8787C14.4168 35.0547 15.1409 35.9447 15.9157 35.8667Z" fill="white"/>
<path d="M74.1098 32.73C74.5698 36.33 72.0198 40.35 69.0198 39.93C64.9198 39.35 63.5698 37.19 63.4098 33.56C63.2498 29.93 65.2498 27.03 68.2898 26.77C72.3698 26.43 73.4198 27.42 74.1098 32.73Z" fill="#A65C00"/>
<path d="M74.0699 34.0001C73.8999 37.6001 71.1399 40.0001 69.2699 39.8501C66.8699 39.6501 65.8199 35.4301 65.8799 33.0801C65.9699 30.0101 67.9299 26.7901 70.3299 26.7701C72.7299 26.7501 74.2699 29.6901 74.0699 34.0001Z" fill="#F48400"/>
<path d="M72.56 33.5602C72.49 35.1102 71.29 36.1502 70.48 36.0902C69.45 36.0002 69 34.1702 69 33.1602C69 31.8302 69.89 30.4402 70.93 30.4302C71.97 30.4202 72.65 31.6802 72.56 33.5602Z" fill="#241F20"/>
</g>
<defs>
<linearGradient id="paint0_linear_586_510" x1="-0.000184609" y1="28.4001" x2="67.4898" y2="28.4001" gradientUnits="userSpaceOnUse">
<stop offset="0.26" stop-color="#003438"/>
<stop offset="1" stop-color="#223038"/>
</linearGradient>
<clipPath id="clip0_586_510">
<rect width="74.16" height="54.98" fill="white"/>
</clipPath>
</defs>
</svg>
