<svg width="32" height="23" viewBox="0 0 32 23" fill="none" xmlns="http://www.w3.org/2000/svg">
<g clip-path="url(#clip0_586_561)">
<path d="M30.296 9.67789C30.1106 8.31235 29.6265 7.00447 28.8781 5.84738C28.1296 4.69029 27.1352 3.71245 25.9658 2.9835C23.1398 1.26529 19.8819 0.389954 16.5754 0.460494C13.2688 0.531033 10.0512 1.54451 7.30111 3.38168C0.225141 8.09347 0.938545 12.8965 0.938545 12.8965L28.9936 17.8737C28.9936 17.8737 30.6775 13.303 30.296 9.67789Z" fill="#FFC600"/>
<path d="M22.2661 6.56727C22.2661 6.56727 22.3822 2.85094 20.8061 1.4656L16.9736 1.13379C16.9736 1.13379 18.3175 4.14502 17.9193 5.71285L22.2661 6.56727Z" fill="#821898"/>
<path d="M23.1118 2.25391C23.9105 3.66917 24.236 5.30261 24.0409 6.91592L27.0024 8.575C27.1308 6.94136 26.8898 5.29976 26.2972 3.77196C25.2865 3.16506 24.2198 2.6567 23.1118 2.25391V2.25391Z" fill="#821898"/>
<path opacity="0.35" d="M25.9657 2.98364C27.1352 3.71259 28.1295 4.69042 28.878 5.84751C29.6264 7.0046 30.1106 8.31248 30.2959 9.67802C30.6775 13.3031 28.9935 17.8739 28.9935 17.8739L0.938477 12.8966C0.938477 12.8966 9.1924 -1.03134 24.8707 2.76796L25.9657 2.98364Z" fill="#2A0055"/>
<path d="M23.1452 5.75428C18.6514 4.05433 13.8087 3.4846 9.04305 4.0952C0.996517 5.10724 0.896973 11.9758 0.896973 11.9758L28.9935 17.8739C28.9935 17.8739 34.0786 10.408 23.1452 5.75428Z" fill="#DCEFDA"/>
<path d="M0.896973 11.9761L28.9935 17.8742C28.9935 17.8742 34.0537 10.4083 23.1867 5.77118C19.3925 4.31367 15.333 3.67479 11.2745 3.89642C11.2745 3.89642 5.1774 7.40537 4.2732 9.08104C3.369 10.7567 0.896973 11.9761 0.896973 11.9761Z" fill="#AFB4AF"/>
<path d="M19.8686 22.7768C19.8686 22.7768 30.0471 21.8145 29.2424 15.0703C28.4378 8.32618 20.4659 7.19801 13.8047 6.01177C7.1435 4.82552 0.283202 8.74925 0.938539 12.8969C1.59387 17.0446 10.3538 23.3077 19.8686 22.7768Z" fill="#984432"/>
<path d="M24.0245 8.59961L6.13965 19.0352C7.25894 19.7576 8.4385 20.3821 9.66519 20.9017L26.8616 10.408C26.0153 9.6618 25.0582 9.05172 24.0245 8.59961V8.59961Z" fill="#7C3629"/>
<path d="M29.2426 15.0703C29.1736 14.5286 29.0513 13.9951 28.8776 13.4775L14.0122 22.2873C15.4083 22.5938 16.8305 22.766 18.2595 22.8016L29.2509 16.3809C29.2936 15.9449 29.2908 15.5057 29.2426 15.0703V15.0703Z" fill="#7C3629"/>
<path d="M13.8047 6.01172H13.5559L1.10449 13.5605C1.49412 14.5839 2.08668 15.5179 2.84653 16.3063L18.2345 6.83296C16.7579 6.52603 15.2481 6.26058 13.8047 6.01172Z" fill="#7C3629"/>
</g>
<defs>
<clipPath id="clip0_586_561">
<rect width="30.9418" height="22.3561" fill="white" transform="translate(0.896973 0.453613)"/>
</clipPath>
</defs>
</svg>
