<svg width="45" height="21" viewBox="0 0 45 21" fill="none" xmlns="http://www.w3.org/2000/svg">
<g clip-path="url(#clip0_586_560)">
<path d="M37.0897 5.47998C37.0897 5.47998 45.4097 7.85998 43.8297 15.3C42.2497 22.74 31.6797 17.18 31.6797 17.18L37.0897 5.47998Z" fill="url(#paint0_radial_586_560)"/>
<path d="M43.8297 15.3C42.2497 22.75 31.6797 17.18 31.6797 17.18L37.0897 5.47998C37.0897 5.47998 35.7097 22.71 43.8297 15.3V15.3Z" fill="#F99C5F"/>
<path d="M0 11.5698C0 11.5698 4.59 1.54982 23.06 0.11982C41.53 -1.31018 39.38 9.86982 39.24 12.9998C39.1 16.1298 36.08 19.9998 26.35 18.7198C16.62 17.4398 9.74 16.5698 6.35 19.5698C2.96 22.5698 0 11.5698 0 11.5698Z" fill="#577DD5"/>
<path d="M37.85 4.41986C35.96 1.61986 31.85 -0.580141 23.06 0.119859C4.59 1.54986 0 11.5699 0 11.5699C0 11.5699 2.86 22.5699 6.3 19.5699L5.06 8.08986C5.06 8.08986 8.77 2.87986 22.15 0.939859C34.47 -0.850141 37.85 4.41986 37.85 4.41986Z" fill="#88B0FF"/>
<path d="M39.2398 13.0002C39.0898 16.1502 36.0798 20.0002 26.3498 18.7202C16.6198 17.4402 9.7398 16.5702 6.3498 19.5702C2.9598 22.5702 0.0498047 11.5702 0.0498047 11.5702L3.3798 7.41016C7.26906 11.242 12.436 13.5033 17.8898 13.7602C26.7698 14.0102 34.3798 18.5802 38.5398 14.0802L39.2398 13.0002Z" fill="#4470B9"/>
</g>
<defs>
<radialGradient id="paint0_radial_586_560" cx="0" cy="0" r="1" gradientUnits="userSpaceOnUse" gradientTransform="translate(37.8497 12.33) scale(10.71)">
<stop stop-color="#FFE098"/>
<stop offset="0.43" stop-color="#FFC882"/>
<stop offset="0.72" stop-color="#FFB470"/>
</radialGradient>
<clipPath id="clip0_586_560">
<rect width="44.03" height="20.11" fill="white"/>
</clipPath>
</defs>
</svg>
