<svg width="41" height="29" viewBox="0 0 41 29" fill="none" xmlns="http://www.w3.org/2000/svg">
<g clip-path="url(#clip0_586_562)">
<path d="M39.0701 17.9999C39.0701 17.9999 44.1501 3.73989 32.1401 0.649895C20.1301 -2.4401 -0.449947 5.6899 0.440053 22.3299C0.440053 22.3299 12.1001 31.8899 39.0701 17.9999Z" fill="#FFC600"/>
<path d="M36.8199 13.0798C36.1655 9.51542 34.3891 6.25343 31.7499 3.76983C29.9811 3.55517 28.1944 3.52836 26.4199 3.68983C26.4199 3.68983 31.0799 8.68983 31.4199 12.7498L36.8199 13.0798Z" fill="#821898"/>
<path d="M27.0801 12.8002C27.0801 12.8002 26.0001 7.00018 22.7301 3.93018C20.8494 4.11448 18.9823 4.41843 17.1401 4.84018C17.1401 4.84018 21.0301 8.84018 21.7301 13.2202L27.0801 12.8002Z" fill="#821898"/>
<path opacity="0.35" d="M0.439941 22.3301C0.439941 22.3301 12.0999 31.8901 39.0699 18.0001C39.0699 18.0001 44.1499 3.71012 32.1399 0.620117C32.1399 0.620117 11.8099 4.79012 13.2499 16.6201C14.6899 28.4501 0.439941 22.3301 0.439941 22.3301Z" fill="#2A0055"/>
<path d="M0.239773 23.6501C0.239773 23.6501 -0.460227 20.2401 0.519773 18.9501C0.519773 18.9501 4.35977 12.6001 17.1398 10.5501C29.9198 8.50006 38.6498 8.41006 40.1398 13.5501C41.6298 18.6901 35.2598 23.1801 35.2598 23.1801L0.239773 23.6501Z" fill="#DCEFDA"/>
<path d="M17.7301 13.5601C17.7301 13.5601 34.5301 10.0001 38.0001 14.0601C41.4701 18.1201 37.1801 22.4301 32.7301 24.6701C28.2801 26.9101 15.1401 30.5701 4.36011 26.9001C-6.41989 23.2301 6.63011 16.0601 17.7301 13.5601Z" fill="#984432"/>
<path d="M24.0002 12.5599L14.6602 28.4599C16.3043 28.4557 17.9469 28.3589 19.5802 28.1699L28.5802 12.1699C27.0002 12.2399 25.4702 12.3799 24.0002 12.5599Z" fill="#7C3629"/>
<path d="M12.0801 15.1901L5.33008 27.1901C6.64072 27.5785 7.97746 27.8726 9.33008 28.0701L17.3301 13.6401C15.5533 14.0612 13.8007 14.5787 12.0801 15.1901V15.1901Z" fill="#7C3629"/>
<path d="M33.5199 12.2998L24.8599 27.2998C26.4499 26.9398 27.8599 26.5398 29.1599 26.1198L36.7699 13.1198C35.7375 12.6739 34.6402 12.397 33.5199 12.2998V12.2998Z" fill="#7C3629"/>
</g>
<defs>
<clipPath id="clip0_586_562">
<rect width="40.34" height="28.46" fill="white"/>
</clipPath>
</defs>
</svg>
