<svg width="78" height="70" viewBox="0 0 78 70" fill="none" xmlns="http://www.w3.org/2000/svg">
<path d="M36.4398 53.9999C36.0098 53.8499 29.8598 45.3999 22.8398 48.9999C15.8198 52.5999 25.5498 63.5499 30.9998 64.2699C36.4498 64.9899 36.4398 53.9999 36.4398 53.9999Z" fill="url(#paint0_radial_0_1)"/>
<path d="M20.3901 52.7402C20.3901 57.3902 26.9201 63.7402 31.0001 64.2702C36.4401 65.0002 36.4401 54.0002 36.4401 54.0002C36.4401 54.0002 26.6701 64.3402 20.4401 52.7802L20.3901 52.7402Z" fill="#F99C5F"/>
<path d="M76.6802 52.83C76.6802 52.83 60.0702 58.36 47.9002 55.23C35.7302 52.1 36.0202 49.66 31.9002 53.53C27.7802 57.4 26.6102 64.53 31.9002 66.84C37.1902 69.15 54.2502 73.44 67.9002 64.71C81.5502 55.98 76.6802 52.83 76.6802 52.83Z" fill="#577DD5"/>
<path d="M76.6798 52.83C76.6798 52.83 60.0698 58.36 47.8998 55.23C35.7298 52.1 36.0198 49.66 31.8998 53.53C28.4898 56.67 27.0998 62 29.5398 65.09C29.5398 65.09 27.6398 60.57 30.2098 57C32.7798 53.43 34.5998 51.78 37.9998 53.27C45.4505 56.6483 53.7113 57.828 61.8098 56.67C73.2598 54.93 76.6798 52.83 76.6798 52.83Z" fill="#88B0FF"/>
<path d="M31.8599 66.8399C37.1499 69.1399 54.2099 73.4399 67.8599 64.7099C81.5099 55.9799 76.6599 52.8299 76.6599 52.8299C76.6599 52.8299 72.9999 48.4899 68.1599 55.5599C62.1599 64.2999 51.7799 69.8399 31.8599 66.8399Z" fill="#4470B9"/>
<path d="M27.12 47.09L12.45 9.6L0 0L0.12 15.23L21.81 49.6L27.12 47.09Z" fill="#C7EEF7"/>
<path d="M0 0L24.4 48.17L27.12 47.09L12.45 9.6L0 0Z" fill="#B3E2EC"/>
<path d="M32.7199 65.4998C33.9999 64.8898 34.8699 64.0398 34.6599 63.5998C34.5979 63.5102 34.5137 63.4382 34.4155 63.3909C34.3174 63.3436 34.2086 63.3225 34.0999 63.3298C33.9337 63.3113 33.7661 63.3113 33.5999 63.3298C33.0304 63.4203 32.4776 63.5956 31.9599 63.8498C31.3666 64.1369 30.8284 64.5262 30.3699 64.9998C30.2898 65.0876 30.2163 65.1812 30.1499 65.2798C30.0848 65.3537 30.0397 65.443 30.0187 65.5393C29.9977 65.6355 30.0016 65.7355 30.0299 65.8298C30.2399 66.2298 31.4499 66.0998 32.7199 65.4998Z" fill="#343953"/>
<path d="M29.3099 53.6299L29.6999 54.3899C30.1399 55.2399 30.5499 56.0699 30.8799 56.7599C32.2799 59.7599 33.6199 63.3999 33.6199 63.3999C33.1329 63.7265 32.6289 64.0269 32.1099 64.2999C31.5523 64.5477 30.9775 64.755 30.3899 64.9199C29.0735 62.8661 27.9392 60.7012 26.9999 58.4499C24.6899 53.3599 23.4399 49.7999 23.4399 49.7999L26.4899 48.3599L27.4899 50.3599C27.4899 50.3599 25.2599 51.1699 25.9599 52.6999C26.6599 54.2299 29.3099 53.6299 29.3099 53.6299Z" fill="#836F61"/>
<path d="M28.47 47.4899L28.18 46.8699C28.1254 46.7494 28.0253 46.6554 27.9016 46.6086C27.7779 46.5617 27.6407 46.5658 27.52 46.6199L24.16 48.1999L21.22 49.5899C21.1022 49.6499 21.013 49.754 20.9717 49.8795C20.9305 50.0051 20.9407 50.1418 21 50.2599L21.29 50.8799C21.3161 50.9405 21.3539 50.9953 21.4012 51.0411C21.4486 51.087 21.5045 51.1231 21.5659 51.1472C21.6272 51.1714 21.6927 51.1832 21.7586 51.1819C21.8246 51.1807 21.8896 51.1664 21.95 51.1399C21.95 51.1399 24.27 50.1399 25.06 49.7799C25.85 49.4199 28.25 48.1599 28.25 48.1599C28.3677 48.1 28.457 47.9958 28.4982 47.8703C28.5394 47.7448 28.5293 47.608 28.47 47.4899Z" fill="#343953"/>
<path d="M29.6998 54.3899L29.3098 53.6299C29.3098 53.6299 26.7498 54.1799 26.0498 52.6299C26.0498 52.6299 26.6498 54.7199 29.6998 54.3699V54.3899Z" fill="#68564A"/>
<defs>
<radialGradient id="paint0_radial_0_1" cx="0" cy="0" r="1" gradientUnits="userSpaceOnUse" gradientTransform="translate(28.4198 56.1799) scale(13 13)">
<stop stop-color="#FFE098"/>
<stop offset="0.03" stop-color="#FFDD95"/>
<stop offset="0.28" stop-color="#FFC681"/>
<stop offset="0.52" stop-color="#FFB974"/>
<stop offset="0.72" stop-color="#FFB470"/>
</radialGradient>
</defs>
</svg>
