<svg width="55" height="19" viewBox="0 0 55 19" fill="none" xmlns="http://www.w3.org/2000/svg">
<g clip-path="url(#clip0_586_858)">
<path d="M13.7684 0.877009C11.8458 0.558932 9.87988 0.613845 7.97799 1.03875C5.29472 1.73298 2.97944 3.42892 1.50824 5.77785C0.505425 7.79964 0.149589 10.5169 1.73468 11.6977C2.46647 12.2448 3.38278 12.485 4.28888 12.3672C5.19498 12.2494 6.01942 11.7829 6.58699 11.0669C7.26232 10.1887 8.1445 9.49131 9.15486 9.03693C10.1652 8.58256 11.2723 8.38531 12.3774 8.46279C15.4667 8.67306 13.7684 0.877009 13.7684 0.877009Z" fill="#FFB272"/>
<path d="M6.55453 11.1155C5.98095 11.8149 5.15949 12.266 4.26146 12.3744C3.36343 12.4829 2.4582 12.2405 1.73456 11.6978C0.117122 10.4685 0.505307 7.75122 1.52429 5.72943C2.99549 3.3805 5.31078 1.68456 7.99405 0.990332C9.89384 0.583613 11.854 0.545178 13.7683 0.877112C13.7683 0.877112 8.73807 0.197788 5.58406 2.89891C2.43006 5.60003 2.26831 8.70551 2.64033 10.0803C3.01234 11.4552 3.74018 11.6978 5.50319 11.5199C5.83023 11.4592 6.1464 11.3502 6.4413 11.1964L6.55453 11.1155Z" fill="#F99C5F"/>
<path d="M13.1376 0.779785C12.3426 1.87539 11.7816 3.12285 11.4894 4.44458C11.1972 5.7663 11.1802 7.13401 11.4393 8.46262H12.3774C12.9596 8.46262 13.089 8.1553 13.089 8.1553L13.1376 0.779785Z" fill="#F99C5F"/>
<path d="M40.9414 5.616C40.9414 5.616 42.3324 5.79392 45.5026 3.83682C48.6728 1.87972 50.6137 0.60194 52.7972 1.71797C54.9808 2.834 55.6439 7.58927 51.3739 10.3713C48.2449 12.1836 44.7865 13.3547 41.2002 13.8164L40.9414 5.616Z" fill="#FFB272"/>
<path d="M41.0869 11.6974V13.8971C44.6732 13.4354 48.1317 12.2642 51.2606 10.4519C55.6439 7.58907 54.9807 2.84998 52.7972 1.71777C53.6497 2.53252 54.1452 3.65149 54.1755 4.83034C54.2058 6.00918 53.7684 7.15213 52.9589 8.00961C50.6298 10.8401 44.9041 12.3929 41.0869 11.6974Z" fill="#F99C5F"/>
<path d="M41.7016 5.55127C42.7864 7.44726 43.2343 9.64128 42.9794 11.8108L40.5532 12.8297L41.7016 5.55127Z" fill="#F99C5F"/>
<path d="M14.2375 0.375488C18.6809 0.813098 23.0633 1.73512 27.3064 3.12513C31.7141 4.53194 36.3146 5.24139 40.9414 5.2278V5.2278C41.8856 8.11007 41.9866 11.2021 41.2325 14.1399L39.4695 14.5442C39.6623 15.1558 39.7498 15.7957 39.7283 16.4366C39.7283 16.4366 37.7712 19.1216 25.3654 17.8923C12.9597 16.6631 14.0434 14.2855 14.0434 14.2855C14.1227 12.8817 14.4627 11.5049 15.0462 10.2257C14.4737 9.76631 13.8494 9.37547 13.1861 9.06113V9.06113C12.0863 3.12513 14.2375 0.375488 14.2375 0.375488Z" fill="#FF6DDE"/>
<path d="M39.4696 14.5442C39.059 13.164 38.4603 11.8469 37.6904 10.63C37.6904 10.63 41.2003 14.9323 41.7017 9.19043C42.0768 10.848 41.9124 12.5821 41.2326 14.1398L39.4696 14.5442Z" fill="#FF4ADD"/>
<path d="M13.445 0.375488H14.2375C14.2375 0.375488 12.0863 3.12513 13.1377 9.04496C12.9106 8.93292 12.672 8.84614 12.426 8.78617C12.426 8.78617 11.3261 2.65608 13.445 0.375488Z" fill="#FFAC00"/>
<path d="M40.9414 5.22803H41.6207C42.6848 8.03682 42.7928 11.1181 41.928 13.9945L41.2325 14.1401C41.9867 11.2024 41.8856 8.1103 40.9414 5.22803V5.22803Z" fill="#FFBF00"/>
<path d="M41.6206 5.22803C42.6847 8.03682 42.7927 11.1181 41.9279 13.9945L41.2324 14.1401C41.6692 12.529 41.8278 10.8552 41.7015 9.19075C41.781 7.86981 41.754 6.54462 41.6206 5.22803Z" fill="#FFAC00"/>
<path d="M39.6637 16.4366C39.6637 16.4366 37.7066 19.1216 25.3008 17.8923C12.8951 16.6631 13.9788 14.2855 13.9788 14.2855C14.058 12.8817 14.3981 11.5049 14.9816 10.2257C14.4091 9.76631 13.7848 9.37547 13.1215 9.06113V9.06113C12.0864 3.12513 14.2375 0.375488 14.2375 0.375488C14.2375 0.375488 13.5906 7.86423 15.58 9.06113C15.9739 8.35664 16.4823 7.72258 17.0842 7.1849C17.0842 7.1849 14.5449 12.3607 23.4246 15.9191C28.4706 18.0047 34.0926 18.2339 39.2917 16.566L39.6637 16.4366Z" fill="#FF4ADD"/>
</g>
<defs>
<clipPath id="clip0_586_858">
<rect width="53.8607" height="17.8403" fill="white" transform="translate(0.650879 0.375488)"/>
</clipPath>
</defs>
</svg>
