<svg width="81" height="39" viewBox="0 0 81 39" fill="none" xmlns="http://www.w3.org/2000/svg">
<g clip-path="url(#clip0_0_1)">
<path d="M13.7684 20.877C11.8458 20.5589 9.87988 20.6138 7.97799 21.0388C5.29472 21.733 2.97944 23.4289 1.50824 25.7778C0.505425 27.7996 0.149589 30.5169 1.73468 31.6977C2.46647 32.2448 3.38278 32.485 4.28888 32.3672C5.19498 32.2494 6.01942 31.7829 6.58699 31.0669C7.26232 30.1887 8.1445 29.4913 9.15485 29.0369C10.1652 28.5826 11.2723 28.3853 12.3774 28.4628C15.4667 28.6731 13.7684 20.877 13.7684 20.877Z" fill="#FFB272"/>
<path d="M6.55453 31.1155C5.98096 31.8149 5.15949 32.266 4.26146 32.3744C3.36343 32.4829 2.4582 32.2405 1.73456 31.6978C0.117122 30.4685 0.505307 27.7512 1.52429 25.7294C2.99549 23.3805 5.31078 21.6846 7.99405 20.9903C9.89384 20.5836 11.854 20.5452 13.7683 20.8771C13.7683 20.8771 8.73807 20.1978 5.58406 22.8989C2.43006 25.6 2.26831 28.7055 2.64033 30.0803C3.01234 31.4552 3.74018 31.6978 5.50319 31.5199C5.83023 31.4592 6.1464 31.3502 6.4413 31.1964L6.55453 31.1155Z" fill="#F99C5F"/>
<path d="M13.1376 20.7798C12.3426 21.8754 11.7816 23.1229 11.4894 24.4446C11.1972 25.7663 11.1802 27.134 11.4393 28.4626H12.3774C12.9596 28.4626 13.089 28.1553 13.089 28.1553L13.1376 20.7798Z" fill="#F99C5F"/>
<path d="M40.9414 25.616C40.9414 25.616 42.3324 25.7939 45.5026 23.8368C48.6728 21.8797 50.6137 20.6019 52.7972 21.718C54.9808 22.834 55.6439 27.5893 51.3739 30.3713C48.2449 32.1836 44.7865 33.3547 41.2002 33.8164L40.9414 25.616Z" fill="#FFB272"/>
<path d="M41.0869 31.6974V33.8971C44.6732 33.4354 48.1317 32.2642 51.2606 30.4519C55.6439 27.5891 54.9807 22.85 52.7972 21.7178C53.6497 22.5325 54.1452 23.6515 54.1755 24.8303C54.2058 26.0092 53.7684 27.1521 52.9589 28.0096C50.6298 30.8401 44.9041 32.3929 41.0869 31.6974Z" fill="#F99C5F"/>
<path d="M41.7016 25.5513C42.7864 27.4473 43.2343 29.6413 42.9794 31.8108L40.5532 32.8297L41.7016 25.5513Z" fill="#F99C5F"/>
<path d="M14.2375 20.3755C18.6809 20.8131 23.0633 21.7351 27.3064 23.1251C31.7141 24.5319 36.3146 25.2414 40.9414 25.2278C41.8856 28.1101 41.9866 31.2021 41.2325 34.1399L39.4695 34.5442C39.6623 35.1558 39.7498 35.7957 39.7283 36.4366C39.7283 36.4366 37.7712 39.1216 25.3654 37.8923C12.9597 36.6631 14.0434 34.2855 14.0434 34.2855C14.1227 32.8817 14.4627 31.5049 15.0462 30.2257C14.4737 29.7663 13.8494 29.3755 13.1861 29.0611C12.0863 23.1251 14.2375 20.3755 14.2375 20.3755Z" fill="#FF6DDE"/>
<path d="M39.4696 34.5442C39.059 33.164 38.4603 31.8469 37.6904 30.63C37.6904 30.63 41.2003 34.9323 41.7017 29.1904C42.0768 30.848 41.9124 32.5821 41.2326 34.1398L39.4696 34.5442Z" fill="#FF4ADD"/>
<path d="M13.445 20.3755H14.2375C14.2375 20.3755 12.0863 23.1251 13.1377 29.045C12.9106 28.9329 12.672 28.8461 12.426 28.7862C12.426 28.7862 11.3261 22.6561 13.445 20.3755Z" fill="#FFAC00"/>
<path d="M40.9414 25.228H41.6207C42.6848 28.0368 42.7928 31.1181 41.928 33.9945L41.2325 34.1401C41.9867 31.2024 41.8856 28.1103 40.9414 25.228Z" fill="#FFBF00"/>
<path d="M41.6206 25.228C42.6847 28.0368 42.7927 31.1181 41.9279 33.9945L41.2324 34.1401C41.6692 32.529 41.8278 30.8552 41.7015 29.1908C41.781 27.8698 41.754 26.5446 41.6206 25.228Z" fill="#FFAC00"/>
<path d="M39.6637 36.4366C39.6637 36.4366 37.7066 39.1216 25.3008 37.8923C12.8951 36.6631 13.9788 34.2855 13.9788 34.2855C14.058 32.8817 14.3981 31.5049 14.9816 30.2257C14.4091 29.7663 13.7848 29.3755 13.1215 29.0611C12.0864 23.1251 14.2375 20.3755 14.2375 20.3755C14.2375 20.3755 13.5906 27.8642 15.58 29.0611C15.9739 28.3566 16.4823 27.7226 17.0842 27.1849C17.0842 27.1849 14.5449 32.3607 23.4246 35.9191C28.4706 38.0047 34.0926 38.2339 39.2917 36.566L39.6637 36.4366Z" fill="#FF4ADD"/>
</g>
<g clip-path="url(#clip1_0_1)">
<path d="M51.3811 25.8792C51.2318 25.8984 51.0801 25.8869 50.9354 25.8451C50.7907 25.8034 50.6562 25.7324 50.5401 25.6365C50.5026 26.0004 50.3806 26.3504 50.1837 26.6586C49.9869 26.9669 49.7206 27.2248 49.4063 27.4119C49.092 27.5989 48.7383 27.7098 48.3735 27.7357C48.0086 27.7617 47.6428 27.702 47.3052 27.5613L49.2461 24.0029L51.7046 24.4235L51.3811 25.8792Z" fill="#F99C5F"/>
<path d="M43.0352 35.7132L71.5021 10.4327L70.4669 9.25195L42 34.5487C42.1086 34.7597 42.2446 34.9555 42.4044 35.131C42.6002 35.3401 42.811 35.5347 43.0352 35.7132Z" fill="#728F22"/>
<path d="M67.1189 5.25659C68.0181 6.12243 69.1366 6.72641 70.3538 7.00343C70.7743 7.00343 71.3242 6.74464 71.2919 6.34028C71.2656 4.95276 70.7631 3.61646 69.8685 2.55547C69.7116 2.32066 69.5086 2.12015 69.2719 1.9661C69.0351 1.81205 68.7696 1.70767 68.4913 1.65927C68.2131 1.61088 67.9279 1.61949 67.6531 1.68457C67.3782 1.74965 67.1195 1.86985 66.8924 2.03789C66.5111 2.50146 66.3221 3.0936 66.3642 3.69237C66.4063 4.29115 66.6764 4.85098 67.1189 5.25659Z" fill="#ED004D"/>
<path d="M74.5106 13.5702C73.7727 12.5906 73.2992 11.4376 73.1357 10.2221C73.1357 9.81778 73.5239 9.30019 73.9121 9.36489C75.3258 9.57189 76.6237 10.2637 77.5837 11.322C77.8011 11.5029 77.9789 11.7267 78.1058 11.9795C78.2327 12.2322 78.306 12.5085 78.3212 12.7909C78.3364 13.0733 78.2931 13.3559 78.194 13.6208C78.095 13.8857 77.9422 14.1273 77.7454 14.3304C77.4846 14.4979 77.1927 14.6112 76.8872 14.6636C76.5817 14.716 76.2687 14.7064 75.967 14.6355C75.6652 14.5646 75.3808 14.4338 75.1306 14.2508C74.8804 14.0678 74.6696 13.8363 74.5106 13.5702Z" fill="#ED004D"/>
<path d="M75.1253 3.04077C74.2672 3.94564 73.6644 5.06187 73.3784 6.27564C73.3784 6.68 73.6534 7.2461 74.0416 7.21376C75.4276 7.17977 76.7614 6.67816 77.8264 5.79041C78.0649 5.63665 78.2691 5.43511 78.4258 5.19852C78.5826 4.96193 78.6887 4.69541 78.7373 4.41578C78.7859 4.13615 78.7761 3.84948 78.7084 3.57385C78.6407 3.29822 78.5166 3.0396 78.344 2.81432C77.8804 2.433 77.2882 2.24394 76.6895 2.28606C76.0907 2.32818 75.5309 2.59829 75.1253 3.04077Z" fill="#ED004D"/>
<path d="M66.8116 10.4324C67.7913 9.69457 68.9443 9.22112 70.1597 9.05762C70.5641 9.05762 71.0817 9.4458 71.017 9.83399C70.8178 11.2093 70.1561 12.4758 69.1408 13.4247C68.9597 13.6412 68.7362 13.8184 68.4841 13.9454C68.2321 14.0723 67.9567 14.1464 67.6749 14.1631C67.3932 14.1798 67.111 14.1386 66.8457 14.0423C66.5804 13.9459 66.3377 13.7963 66.1323 13.6026C65.8196 13.0873 65.7157 12.4719 65.842 11.8825C65.9683 11.2931 66.3152 10.7743 66.8116 10.4324Z" fill="#ED004D"/>
<path d="M77.891 6.59912C76.643 6.60267 75.4191 6.94358 74.3489 7.58576C74.0577 7.8769 73.8636 8.45917 74.1548 8.71796C75.1654 9.65916 76.4656 10.2294 77.8425 10.3354C79.282 10.4324 80.2525 9.65608 80.3172 8.60474C80.3819 7.55341 79.3306 6.67999 77.891 6.59912Z" fill="#ED004D"/>
<path d="M66.7951 5.93585C68.0065 6.1068 69.1537 6.58574 70.127 7.32685C70.3858 7.65034 70.5152 8.26497 70.127 8.49141C69.012 9.3199 67.6498 9.74738 66.2614 9.70449C64.8218 9.70449 63.9484 8.7502 64.0131 7.69886C64.0778 6.64753 65.3556 5.85498 66.7951 5.93585Z" fill="#ED004D"/>
<path d="M70.6611 2.49085C70.6887 3.71729 71.0342 4.91556 71.6639 5.96835C71.9389 6.25949 72.5374 6.45358 72.7962 6.16244C73.7373 5.15181 74.3076 3.85162 74.4136 2.47468C74.543 1.03516 73.7828 0 72.7315 0C71.6801 0 70.742 1.05133 70.6611 2.49085Z" fill="#ED004D"/>
<path d="M70.0139 13.5867C70.1818 12.3795 70.6612 11.2367 71.4049 10.271C71.7284 9.99601 72.343 9.88279 72.5533 10.271C73.3898 11.3765 73.8235 12.7347 73.7825 14.1205C73.6855 15.56 72.8121 16.4334 71.7607 16.3849C70.7094 16.3364 69.9169 15.0262 70.0139 13.5867Z" fill="#ED004D"/>
<path d="M72.2139 10.7559C73.5717 10.7559 74.6724 9.65517 74.6724 8.29737C74.6724 6.93958 73.5717 5.83887 72.2139 5.83887C70.8561 5.83887 69.7554 6.93958 69.7554 8.29737C69.7554 9.65517 70.8561 10.7559 72.2139 10.7559Z" fill="#FFB400"/>
<path d="M54.0337 19.6359C54.3572 20.9298 56.4922 22.2238 56.4922 22.2238C56.4922 22.2238 58.6272 19.83 58.1096 18.2287C57.5217 16.92 56.7777 15.6872 55.8937 14.5571C55.8937 14.5571 53.5161 17.6141 54.0337 19.6359Z" fill="#728F22"/>
<path d="M63.997 20.3474C62.9457 19.943 62.0723 18.0182 62.0723 18.0182C62.0723 18.0182 64.2882 16.4008 65.5821 17.0478C66.6104 17.6711 67.5607 18.415 68.4126 19.2637C68.4126 19.2637 65.6468 21.0267 63.997 20.3474Z" fill="#728F22"/>
<path d="M51.2841 23.3237C51.2841 23.3237 53.9529 23.3237 53.678 24.9411C53.403 26.5586 50.2813 25.2323 50.2813 25.2323C50.2992 25.5261 50.2562 25.8204 50.1548 26.0968C50.0535 26.3732 49.8962 26.6256 49.6926 26.8383C49.4891 27.0509 49.2438 27.2192 48.9721 27.3325C48.7004 27.4458 48.4083 27.5017 48.114 27.4967C46.7504 27.5971 45.3866 27.3052 44.1836 26.6556L47.8228 23.5825C47.8228 23.5825 50.3622 22.8708 50.4916 22.887C50.621 22.9032 51.2841 23.3237 51.2841 23.3237Z" fill="#FFB272"/>
<path d="M53.031 25.7012C53.1987 25.6629 53.3506 25.5742 53.4663 25.4469C53.5819 25.3197 53.6558 25.16 53.678 24.9895C53.953 23.3721 51.2842 23.3721 51.2842 23.3721C51.2842 23.3721 53.2413 23.7441 53.4192 24.6175C53.4841 24.8156 53.4811 25.0296 53.4109 25.2259C53.3406 25.4221 53.2069 25.5893 53.031 25.7012Z" fill="#FFC094"/>
</g>
<defs>
<clipPath id="clip0_0_1">
<rect width="53.8607" height="17.8403" fill="white" transform="translate(0.650879 20.3755)"/>
</clipPath>
<clipPath id="clip1_0_1">
<rect width="38.3818" height="35.713" fill="white" transform="translate(42)"/>
</clipPath>
</defs>
</svg>
