<svg width="39" height="37" viewBox="0 0 39 37" fill="none" xmlns="http://www.w3.org/2000/svg">
<g clip-path="url(#clip0_586_875)">
<path d="M9.72926 26.4627C9.57993 26.4819 9.42823 26.4704 9.28355 26.4286C9.13888 26.3869 9.00432 26.3159 8.8882 26.22C8.85074 26.5839 8.72871 26.9339 8.53186 27.2421C8.335 27.5504 8.06878 27.8083 7.75446 27.9954C7.44014 28.1824 7.08644 28.2933 6.72161 28.3192C6.35678 28.3452 5.99094 28.2854 5.65332 28.1448L7.59425 24.5864L10.0528 25.007L9.72926 26.4627Z" fill="#F99C5F"/>
<path d="M1.3833 36.2967L29.8502 11.0162L28.8151 9.83545L0.348145 35.1322C0.456765 35.3432 0.592722 35.539 0.752504 35.7145C0.948362 35.9236 1.15919 36.1182 1.3833 36.2967V36.2967Z" fill="#728F22"/>
<path d="M25.467 5.84009C26.3662 6.70593 27.4847 7.30991 28.7019 7.58692C29.1224 7.58692 29.6724 7.32813 29.64 6.92377C29.6138 5.53625 29.1112 4.19995 28.2167 3.13897C28.0597 2.90415 27.8567 2.70364 27.62 2.5496C27.3833 2.39555 27.1178 2.29116 26.8395 2.24277C26.5612 2.19438 26.276 2.20298 26.0012 2.26806C25.7264 2.33314 25.4676 2.45335 25.2406 2.62139C24.8593 3.08496 24.6702 3.67709 24.7123 4.27587C24.7545 4.87464 25.0246 5.43447 25.467 5.84009V5.84009Z" fill="#ED004D"/>
<path d="M32.8587 14.1537C32.1208 13.1741 31.6474 12.0211 31.4839 10.8056C31.4839 10.4013 31.8721 9.88369 32.2603 9.94839C33.674 10.1554 34.9719 10.8472 35.9318 11.9055C36.1493 12.0864 36.327 12.3102 36.4539 12.563C36.5808 12.8157 36.6542 13.092 36.6694 13.3744C36.6846 13.6568 36.6413 13.9393 36.5422 14.2043C36.4431 14.4692 36.2904 14.7108 36.0936 14.9139C35.8327 15.0814 35.5409 15.1946 35.2353 15.2471C34.9298 15.2995 34.6169 15.2899 34.3151 15.219C34.0134 15.1481 33.7289 15.0173 33.4787 14.8343C33.2286 14.6513 33.0177 14.4198 32.8587 14.1537V14.1537Z" fill="#ED004D"/>
<path d="M33.4734 3.62426C32.6153 4.52914 32.0126 5.64536 31.7266 6.85914C31.7266 7.2635 32.0015 7.8296 32.3897 7.79725C33.7757 7.76326 35.1096 7.26165 36.1745 6.37391C36.4131 6.22014 36.6172 6.01861 36.774 5.78202C36.9308 5.54542 37.0368 5.27891 37.0854 4.99928C37.1341 4.71965 37.1242 4.43298 37.0565 4.15734C36.9888 3.88171 36.8647 3.6231 36.6921 3.39782C36.2285 3.0165 35.6364 2.82743 35.0376 2.86956C34.4388 2.91168 33.879 3.18179 33.4734 3.62426V3.62426Z" fill="#ED004D"/>
<path d="M25.1598 11.0159C26.1394 10.2781 27.2924 9.80462 28.5079 9.64111C28.9122 9.64111 29.4298 10.0293 29.3651 10.4175C29.166 11.7928 28.5042 13.0593 27.4889 14.0082C27.3078 14.2247 27.0844 14.4019 26.8323 14.5289C26.5802 14.6558 26.3048 14.7299 26.0231 14.7466C25.7413 14.7633 25.4591 14.7221 25.1939 14.6258C24.9286 14.5294 24.6858 14.3798 24.4805 14.1861C24.1677 13.6708 24.0638 13.0554 24.1901 12.466C24.3164 11.8766 24.6633 11.3578 25.1598 11.0159V11.0159Z" fill="#ED004D"/>
<path d="M36.2392 7.18262C34.9911 7.18617 33.7672 7.52708 32.697 8.16925C32.4059 8.46039 32.2118 9.04267 32.5029 9.30146C33.5135 10.2427 34.8137 10.8129 36.1907 10.9189C37.6302 11.0159 38.6006 10.2396 38.6653 9.18824C38.73 8.13691 37.6787 7.26349 36.2392 7.18262Z" fill="#ED004D"/>
<path d="M25.1433 6.51935C26.3546 6.6903 27.5019 7.16924 28.4752 7.91035C28.734 8.23384 28.8634 8.84846 28.4752 9.0749C27.3602 9.9034 25.998 10.3309 24.6095 10.288C23.17 10.288 22.2966 9.33369 22.3613 8.28236C22.426 7.23102 23.7037 6.43848 25.1433 6.51935Z" fill="#ED004D"/>
<path d="M29.0093 3.07435C29.0368 4.30079 29.3824 5.49905 30.0121 6.55184C30.2871 6.84298 30.8855 7.03707 31.1443 6.74594C32.0855 5.73531 32.6557 4.43512 32.7617 3.05818C32.8911 1.61866 32.1309 0.583496 31.0796 0.583496C30.0283 0.583496 29.0901 1.63483 29.0093 3.07435Z" fill="#ED004D"/>
<path d="M28.362 14.1697C28.53 12.9625 29.0094 11.8197 29.753 10.854C30.0765 10.579 30.6912 10.4658 30.9014 10.854C31.738 11.9595 32.1717 13.3177 32.1307 14.7035C32.0336 16.143 31.1602 17.0164 30.1089 16.9679C29.0575 16.9194 28.265 15.6093 28.362 14.1697Z" fill="#ED004D"/>
<path d="M30.562 11.3394C31.9198 11.3394 33.0205 10.2387 33.0205 8.88087C33.0205 7.52307 31.9198 6.42236 30.562 6.42236C29.2042 6.42236 28.1035 7.52307 28.1035 8.88087C28.1035 10.2387 29.2042 11.3394 30.562 11.3394Z" fill="#FFB400"/>
<path d="M12.3818 20.2194C12.7053 21.5133 14.8403 22.8073 14.8403 22.8073C14.8403 22.8073 16.9753 20.4135 16.4578 18.8122C15.8699 17.5035 15.1258 16.2707 14.2419 15.1406C14.2419 15.1406 11.8642 18.1976 12.3818 20.2194Z" fill="#728F22"/>
<path d="M22.3452 20.9308C21.2938 20.5265 20.4204 18.6017 20.4204 18.6017C20.4204 18.6017 22.6363 16.9843 23.9303 17.6313C24.9586 18.2546 25.9088 18.9985 26.7608 19.8472C26.7608 19.8472 23.9949 21.6102 22.3452 20.9308Z" fill="#728F22"/>
<path d="M9.63229 23.9072C9.63229 23.9072 12.3011 23.9072 12.0261 25.5246C11.7511 27.1421 8.62948 25.8158 8.62948 25.8158C8.64736 26.1096 8.6043 26.4039 8.50299 26.6803C8.40168 26.9567 8.24431 27.2091 8.04078 27.4217C7.83725 27.6344 7.59194 27.8027 7.32027 27.916C7.04859 28.0293 6.75643 28.0852 6.46211 28.0802C5.09858 28.1806 3.73479 27.8887 2.53174 27.2391L6.17097 24.166C6.17097 24.166 8.71035 23.4543 8.83975 23.4705C8.96914 23.4867 9.63229 23.9072 9.63229 23.9072Z" fill="#FFB272"/>
<path d="M11.3792 26.2847C11.5468 26.2464 11.6987 26.1577 11.8144 26.0304C11.9301 25.9032 12.004 25.7435 12.0261 25.573C12.3011 23.9556 9.63232 23.9556 9.63232 23.9556C9.63232 23.9556 11.5894 24.3276 11.7673 25.201C11.8322 25.3991 11.8293 25.6131 11.759 25.8094C11.6887 26.0056 11.5551 26.1728 11.3792 26.2847V26.2847Z" fill="#FFC094"/>
</g>
<defs>
<clipPath id="clip0_586_875">
<rect width="38.3818" height="35.713" fill="white" transform="translate(0.348145 0.583496)"/>
</clipPath>
</defs>
</svg>
