<svg width="73" height="36" viewBox="0 0 73 36" fill="none" xmlns="http://www.w3.org/2000/svg">
<g clip-path="url(#clip0_586_844)">
<path d="M65.2512 9.08989C65.2512 9.08989 75.7807 12.9394 70.7181 25.7495C65.6555 38.5596 48.9797 31.9928 48.9797 31.9928C48.9797 31.9928 41.7821 37.4436 24.2491 33.2382C24.2491 33.2382 16.5663 36.6349 11.4714 34.3057C6.37643 31.9766 11.4714 29.9387 11.4714 29.9387C11.4714 29.9387 2.78571 31.7825 1.00653 28.3212C-0.77265 24.8599 5.03395 21.1722 5.03395 21.1722C5.03395 21.1722 0.941834 19.9591 0.650696 17.2903C0.359557 14.6215 7.12045 11.9851 12.086 11.7425C17.0515 11.4999 18.9763 0.679214 36.3799 -0.000110453C53.7835 -0.679434 64.0381 4.8522 65.2512 9.08989Z" fill="#7C3629"/>
<path d="M22.939 3.60703C27.0359 1.27209 31.6644 0.0300146 36.3799 0.000148357C53.7673 -0.582129 64.0381 4.85246 65.2511 9.09015C67.1549 9.8692 68.8029 11.165 70.0091 12.8313C71.2152 14.4976 71.9314 16.468 72.0767 18.5198C71.7255 16.7216 70.9111 15.0461 69.714 13.659C68.517 12.2718 66.9787 11.2211 65.2511 10.6105C65.2511 10.6105 61.8383 3.62321 48.1548 1.48819C34.4713 -0.646827 27.1281 1.3588 22.939 3.60703V3.60703Z" fill="#AD463B"/>
<path d="M12.086 11.7427C7.12048 11.9853 0.375759 14.557 0.650723 17.2905C0.925688 20.024 5.01781 21.1562 5.01781 21.1562C5.01781 21.1562 -0.788796 24.8277 1.00656 28.3052C2.80192 31.7827 11.4714 29.9227 11.4714 29.9227C11.4714 29.9227 6.36028 31.9607 11.4714 34.2898C16.5825 36.6189 24.2491 33.2223 24.2491 33.2223C41.7822 37.4276 48.9798 31.9768 48.9798 31.9768C48.9798 31.9768 65.6717 38.5598 70.7181 25.7335C71.3021 24.3046 71.7148 22.8116 71.9474 21.2856C71.9474 21.2856 69.2786 29.8903 62.9059 29.6801L25.4137 28.7581C25.4137 28.7581 19.688 32.8017 13.9784 31.993C8.26886 31.1843 14.4636 28.7581 14.4636 28.7581C14.4636 28.7581 4.75902 30.3756 4.22526 27.0275C3.69151 23.6794 7.12047 20.4445 7.12047 20.4445C7.12047 20.4445 3.02836 20.5901 3.27097 17.2096C3.51359 13.8292 12.086 11.7427 12.086 11.7427Z" fill="#66271F"/>
<path d="M21.6773 15.8996C21.6773 15.8996 19.2835 28.6611 32.1098 32.6562C44.9361 36.6513 59.2181 35.2441 61.9515 34.0796C64.685 32.915 67.9846 30.3433 68.7286 22.7575C69.4726 15.1717 63.6013 13.3602 63.6013 13.3602L30.3953 9.52686L21.6773 15.8996Z" fill="#FFB272"/>
<path d="M61.8868 34.0795C59.1534 35.244 44.8876 36.6512 32.0451 32.6561C19.2027 28.6611 21.6773 15.8995 21.6773 15.8995L27.4192 11.7427C27.4192 11.7427 24.4917 23.178 30.46 27.9171C36.1429 32.3885 43.1251 34.8919 50.3545 35.05C54.2258 35.3689 58.1233 35.041 61.8868 34.0795Z" fill="#F99C5F"/>
<path d="M53.0883 27.8686C50.1273 26.5518 46.9569 25.7688 43.7233 25.5557C43.7233 25.5557 42.6234 33.7237 46.3597 34.2575C50.096 34.7912 52.0046 31.6696 53.0883 27.8686Z" fill="#D4003C"/>
<path d="M43.6099 26.8173C43.6099 26.0571 43.7231 25.5557 43.7231 25.5557C46.8113 25.7416 49.8435 26.4641 52.6837 27.6907C52.6837 27.6907 52.5219 29.8904 44.3054 27.1084L43.6099 26.8173Z" fill="white"/>
<path d="M49.3521 33.7722C48.4344 34.2561 47.3835 34.4265 46.3599 34.2575C44.4836 33.9825 43.8367 31.799 43.6426 29.6963C44.7715 29.8712 45.8496 30.2867 46.804 30.9146C47.7584 31.5425 48.5667 32.3681 49.1742 33.3355L49.3521 33.7722Z" fill="#FF004E"/>
<path d="M53.7351 12.1632C53.7351 12.1632 42.1219 15.8995 21.6775 15.8995C1.23311 15.8995 31.2689 6.58301 31.2689 6.58301L53.7351 12.1632Z" fill="#7C3629"/>
<path d="M53.7354 12.1631C53.7354 12.1631 61.9681 19.1666 68.6481 19.9915C75.3282 20.8164 63.5047 10.6104 63.5047 10.6104L53.7354 12.1631Z" fill="#7C3629"/>
<path d="M25.7051 8.08729C25.7051 8.08729 29.5061 -0.646879 32.6924 4.43188C36.1052 9.85029 25.7051 8.08729 25.7051 8.08729Z" fill="#FF4ADD"/>
<path d="M27.1932 7.08421C27.1932 7.08421 23.3922 15.8184 20.222 10.7396C16.8254 5.24033 27.1932 7.08421 27.1932 7.08421Z" fill="#FF4ADD"/>
<path d="M26.4329 9.5591C27.5405 9.5591 28.4385 8.66115 28.4385 7.55347C28.4385 6.4458 27.5405 5.54785 26.4329 5.54785C25.3252 5.54785 24.4272 6.4458 24.4272 7.55347C24.4272 8.66115 25.3252 9.5591 26.4329 9.5591Z" fill="#FF6DDE"/>
<path d="M40.5692 23.4851C41.3374 23.4851 41.9602 22.8623 41.9602 22.0941C41.9602 21.3259 41.3374 20.7031 40.5692 20.7031C39.801 20.7031 39.1782 21.3259 39.1782 22.0941C39.1782 22.8623 39.801 23.4851 40.5692 23.4851Z" fill="#003438"/>
<path d="M60.9975 24.7792C61.6317 24.7792 62.1459 24.265 62.1459 23.6308C62.1459 22.9966 61.6317 22.4824 60.9975 22.4824C60.3633 22.4824 59.8491 22.9966 59.8491 23.6308C59.8491 24.265 60.3633 24.7792 60.9975 24.7792Z" fill="#003438"/>
<path d="M59.5742 19.1179C59.5742 19.1179 56.776 19.9752 56.9539 21.4147C57.1319 22.8542 58.1508 22.4498 59.93 21.8676C61.7092 21.2853 63.456 21.4632 63.4722 20.0075C63.4884 18.5518 62.1136 18.3092 59.5742 19.1179Z" fill="#62361A"/>
<path d="M44.435 17.5493C43.1798 16.4615 41.5973 15.824 39.9386 15.7378C37.4315 15.7378 36.5905 17.6625 37.4962 18.2772C38.402 18.8918 41.3134 19.5388 43.3675 20.8489C45.4217 22.159 46.5215 20.2504 45.9878 19.2315C45.5676 18.5881 45.0428 18.0195 44.435 17.5493V17.5493Z" fill="#62361A"/>
</g>
<defs>
<clipPath id="clip0_586_844">
<rect width="71.4422" height="35.2925" fill="white" transform="translate(0.650879)"/>
</clipPath>
</defs>
</svg>
