<svg width="24" height="17" viewBox="0 0 24 17" fill="none" xmlns="http://www.w3.org/2000/svg">
<g clip-path="url(#clip0_586_898)">
<path d="M1.43203 11.015C1.43203 11.015 -1.47935 2.81459 5.41093 1.03541C12.3012 -0.743776 24.1085 3.89827 23.6071 13.4735C23.6071 13.4735 16.8786 18.9566 1.43203 11.015Z" fill="#DD47AF"/>
<path d="M2.72607 8.16859C3.09977 6.1235 4.12034 4.25246 5.63746 2.83105C6.65351 2.72168 7.67837 2.72168 8.69442 2.83105C8.69442 2.83105 6.00947 5.64539 5.83156 7.9745L2.72607 8.16859Z" fill="#821898"/>
<path d="M8.30615 8.00698C8.67158 6.11998 9.53746 4.36587 10.8132 2.92822C11.9018 3.02887 12.9824 3.20178 14.0481 3.4458C12.7595 4.80445 11.8503 6.47771 11.4116 8.29812L8.30615 8.00698Z" fill="#821898"/>
<path opacity="0.35" d="M23.6071 13.4737C23.6071 13.4737 16.8786 18.9569 1.43203 11.0152C1.43203 11.0152 -1.47935 2.81483 5.41093 1.03564C5.41093 1.03564 17.0727 3.42945 16.2478 10.2065C15.4229 16.9836 23.6071 13.4737 23.6071 13.4737Z" fill="#2A0055"/>
<path d="M23.7204 14.2339C23.7204 14.2339 24.1086 12.2768 23.5587 11.5327C23.5587 11.5327 21.359 7.8935 14.0158 6.68042C6.67264 5.46734 1.67476 5.51586 0.833691 8.44343C-0.00737667 11.371 3.63186 13.9589 3.63186 13.9589L23.7204 14.2339Z" fill="#DCEFDA"/>
<path d="M13.6438 8.4434C13.6438 8.4434 4.03625 6.4216 2.03063 8.75071C0.0250055 11.0798 2.49969 13.603 5.05524 14.8323C7.61079 16.0615 15.1642 18.2127 21.3428 16.1101C27.5215 14.0074 20.1136 9.88292 13.6438 8.4434Z" fill="#984432"/>
<path d="M10.069 7.87732L15.4227 16.9997C14.4822 17.0037 13.5423 16.9497 12.6084 16.8379L7.44873 7.65088C8.33832 7.68323 9.22791 7.7641 10.069 7.87732Z" fill="#7C3629"/>
<path d="M16.8785 9.38178L20.7442 16.2721C20.0097 16.5159 19.2583 16.7051 18.4959 16.8382L13.8862 8.49219C14.8986 8.73585 15.8974 9.03279 16.8785 9.38178V9.38178Z" fill="#7C3629"/>
<path d="M4.61817 7.71582L9.5837 16.3206C8.76864 16.1381 7.96412 15.9113 7.17372 15.6413L2.80664 8.20105C3.38185 7.94686 3.99292 7.78318 4.61817 7.71582V7.71582Z" fill="#7C3629"/>
</g>
<defs>
<clipPath id="clip0_586_898">
<rect width="23.1455" height="16.3361" fill="white" transform="translate(0.704102 0.663574)"/>
</clipPath>
</defs>
</svg>
