<svg width="22" height="17" viewBox="0 0 22 17" fill="none" xmlns="http://www.w3.org/2000/svg">
<g clip-path="url(#clip0_586_887)">
<path d="M1.27505 7.10709C1.38889 6.1462 1.71681 5.22308 2.23467 4.40571C2.75252 3.58835 3.44712 2.89754 4.26731 2.38417C6.22687 1.1944 8.48516 0.588294 10.7771 0.636998C13.0691 0.685702 15.2996 1.38719 17.2068 2.65914C22.0591 5.89401 21.6063 9.25828 21.6063 9.25828L2.19699 12.6711C1.54388 10.8905 1.23114 9.00313 1.27505 7.10709V7.10709Z" fill="#DD47AF"/>
<path d="M6.82296 4.8589C6.82296 4.8589 6.75827 2.25483 7.8743 1.33289L10.4945 1.10645C10.0206 2.11706 9.79332 3.22574 9.8314 4.34132L6.82296 4.8589Z" fill="#821898"/>
<path d="M6.24043 1.88281C5.68754 2.86534 5.46099 3.99809 5.59346 5.11769L3.55549 6.2499C3.47848 5.14908 3.64412 4.04479 4.04072 3.01502C4.73499 2.56628 5.47179 2.18704 6.24043 1.88281V1.88281Z" fill="#821898"/>
<path opacity="0.35" d="M4.26753 2.38411C3.44734 2.89748 2.75274 3.58828 2.23489 4.40565C1.71703 5.22302 1.38911 6.14614 1.27527 7.10702C1.21595 9.02909 1.52335 10.9449 2.18104 12.7519L21.5903 9.33909C21.5903 9.33909 15.8807 -0.381713 5.06008 2.25471L4.26753 2.38411Z" fill="#2A0055"/>
<path d="M6.22434 4.3089C9.31585 3.13508 12.6489 2.74068 15.929 3.16052C17.3727 3.21017 18.746 3.79616 19.7808 4.80406C20.8157 5.81197 21.4376 7.1694 21.5253 8.61129L2.11604 12.6711C2.11604 12.6711 -1.3291 7.5276 6.22434 4.3089Z" fill="#DCEFDA"/>
<path d="M21.5898 8.61096L2.18057 12.6707C2.18057 12.6707 -1.32927 7.52728 6.22417 4.30858C8.84176 3.30501 11.6414 2.86412 14.4408 3.01463C14.4408 3.01463 18.6623 5.44078 19.2931 6.60534C19.8791 7.45526 20.6687 8.1448 21.5898 8.61096V8.61096Z" fill="#AFB4AF"/>
<path d="M8.48899 16.0837C8.48899 16.0837 1.45313 15.4205 2.01923 10.7461C2.58534 6.07172 8.1008 5.29535 12.6943 4.48663C17.2878 3.67791 22.0593 6.36286 21.6064 9.33894C21.1535 12.315 15.072 16.4557 8.48899 16.0837Z" fill="#984432"/>
<path d="M5.60993 6.26611L17.9995 13.5769C17.2249 14.0694 16.4138 14.5019 15.5733 14.8709L3.65283 7.52772C4.23995 7.01368 4.89935 6.58862 5.60993 6.26611Z" fill="#7C3629"/>
<path d="M2.00278 10.7463C2.04503 10.3707 2.13191 10.0015 2.26157 9.64648L12.5485 15.7442C11.5802 15.9527 10.5948 16.0718 9.60474 16.1001L2.00278 11.6521C1.97043 11.3511 1.97043 11.0474 2.00278 10.7463V10.7463Z" fill="#7C3629"/>
<path d="M12.6781 4.48682H12.856L21.4607 9.74349C21.1945 10.4491 20.7873 11.093 20.2638 11.6359L9.62109 5.05292C10.6401 4.84265 11.6914 4.66473 12.6781 4.48682Z" fill="#7C3629"/>
</g>
<defs>
<clipPath id="clip0_586_887">
<rect width="21.3987" height="15.4627" fill="white" transform="translate(0.20752 0.637207)"/>
</clipPath>
</defs>
</svg>
