<svg width="116" height="91" viewBox="0 0 116 91" fill="none" xmlns="http://www.w3.org/2000/svg">
<g clip-path="url(#clip0_0_1)">
<path d="M72.2522 47.0042C76.0933 50.0038 79.2051 53.8345 81.3539 58.2089C85.3626 65.9306 85.379 69.1507 90.965 73.4058C96.5509 77.661 98.0952 83.2633 92.69 86.1548C87.2848 89.0463 77.2138 80.9304 73.3858 68.5099C69.5578 56.0895 47.0992 42.8805 47.0992 42.8805C44.3699 41.4456 41.2181 41.032 38.211 41.714C33.2823 42.8641 27.7949 44.737 24.7063 40.3175C21.6176 35.8981 28.485 30.1315 37.636 30C46.787 29.8686 61.2118 38.3789 61.2118 38.3789L72.2522 47.0042Z" fill="#FFB870"/>
<path d="M72.2522 47.0042C76.0933 50.0038 79.2051 53.8345 81.3539 58.2089C85.3626 65.9306 85.379 69.1507 90.965 73.4058C96.5509 77.661 98.0952 83.2633 92.69 86.1548C87.2848 89.0463 77.2138 80.9304 73.3858 68.5099C69.5578 56.0895 47.0992 42.8805 47.0992 42.8805C44.3699 41.4456 41.2181 41.032 38.211 41.714C33.2823 42.8641 27.7949 44.737 24.7063 40.3175C21.6176 35.8981 28.485 30.1315 37.636 30C46.787 29.8686 61.2118 38.3789 61.2118 38.3789L72.2522 47.0042Z" fill="url(#paint0_radial_0_1)"/>
<path d="M95.4008 78.5318C95.7648 79.2025 95.9836 79.9424 96.0429 80.7032C96.1022 81.464 96.0007 82.2288 95.745 82.9478C95.4893 83.6668 95.0852 84.3239 94.5589 84.8765C94.0325 85.4291 93.3958 85.8646 92.69 86.155C87.2848 89.1451 77.2138 80.9305 73.3858 68.5101C69.5578 56.0896 47.0992 42.8806 47.0992 42.8806C44.3699 41.4457 41.2181 41.0321 38.211 41.7142C33.2823 42.8642 27.7949 44.7371 24.7063 40.3177C22.9484 37.7547 24.5091 34.7318 27.9264 32.6124C27.9264 32.6124 23.7862 37.4426 26.9242 39.4469C30.0622 41.4513 36.1081 38.6748 40.429 38.3462C41.4998 35.5942 43.3143 33.1939 45.6698 31.4131V31.4131L62.8876 46.6593L83.6869 63.0884C83.6869 63.0884 83.2597 69.5287 77.9367 72.223C77.9367 72.223 84.5083 84.4299 90.0942 83.8384C95.6801 83.247 95.4008 78.5318 95.4008 78.5318Z" fill="#F99C5F"/>
<path d="M41.2342 42.3549C41.2489 38.2725 42.8378 34.3532 45.6701 31.4131C45.6701 31.4131 55.3961 32.8424 67.0279 41.4677C74.1533 46.746 79.9895 53.5708 84.0978 61.4291C83.6544 64.0819 82.2756 66.4881 80.2111 68.212C78.1467 69.9358 75.5331 70.8634 72.8438 70.8266L71.4802 68.8879C70.6401 70.5987 69.5916 72.199 68.3587 73.6524C68.3587 73.6524 46.7544 66.8179 39.542 53.1653C40.2157 49.7016 41.7719 46.4704 44.06 43.7842L41.2342 42.3549Z" fill="#FF0000"/>
<path d="M41.2342 42.3549C41.2489 38.2725 42.8378 34.3532 45.6701 31.4131C45.6701 31.4131 55.3961 32.8424 67.0279 41.4677C74.1533 46.746 79.9895 53.5708 84.0978 61.4291C83.6544 64.0819 82.2756 66.4881 80.2111 68.212C78.1467 69.9358 75.5331 70.8634 72.8438 70.8266L71.4802 68.8879C70.6401 70.5987 69.5916 72.199 68.3587 73.6524C68.3587 73.6524 46.7544 66.8179 39.542 53.1653C40.2157 49.7016 41.7719 46.4704 44.06 43.7842L41.2342 42.3549Z" fill="url(#paint1_radial_0_1)"/>
<path d="M84.0978 61.4291C83.6544 64.0819 82.2756 66.4881 80.2111 68.212C78.1467 69.9358 75.5331 70.8634 72.8438 70.8266L71.4802 68.8879C70.6401 70.5987 69.5916 72.199 68.3587 73.6524C68.3587 73.6524 46.7544 66.8179 39.542 53.1653C40.2157 49.7016 41.7719 46.4704 44.06 43.7842L41.2342 42.3549C41.2489 38.2725 42.8378 34.3532 45.6701 31.4131C45.6701 31.4131 41.152 40.022 45.1936 42.552C46.2345 41.6597 47.396 40.9186 48.6437 40.3505C48.6437 40.3505 42.7292 46.8072 45.5551 53.4938C48.3809 60.1805 58.2219 70.9909 68.638 72.3381C68.638 72.3381 71.9238 69.578 73.271 61.4291C73.271 61.4291 72.926 68.9044 75.7847 68.4772C78.6433 68.05 82.1099 67.3436 84.0978 61.4291Z" fill="#0A5589"/>
<g clip-path="url(#clip1_0_1)">
<path d="M27.9265 71.5659C28.2823 70.5247 28.8626 69.5744 29.6263 68.7823C30.39 67.9903 31.3185 67.3757 32.346 66.9822C34.8383 66.0844 37.5351 65.9167 40.1194 66.4988C42.7038 67.0808 45.0683 68.3884 46.935 70.268C51.7488 74.9667 50.4509 78.6304 50.4509 78.6304L27.6965 78.1868C27.3517 75.9853 27.4297 73.7382 27.9265 71.5659V71.5659Z" fill="#821898"/>
<path d="M34.6953 70.3663C34.6953 70.3663 35.1882 67.4419 36.6668 66.604L39.6898 66.9326C38.9433 67.9468 38.4478 69.1235 38.244 70.3663H34.6953Z" fill="#FFC600"/>
<path d="M34.6952 66.8667C33.855 67.8507 33.3488 69.076 33.2495 70.3661L30.6865 71.204C30.8317 69.9068 31.2699 68.6596 31.968 67.5567C32.8509 67.2335 33.7648 67.0023 34.6952 66.8667V66.8667Z" fill="#FFC600"/>
<path opacity="0.35" d="M32.3458 66.982C31.3183 67.3755 30.3898 67.9901 29.6261 68.7822C28.8624 69.5743 28.2822 70.5245 27.9264 71.5657C27.4359 73.7221 27.3578 75.9519 27.6964 78.1374L50.4507 78.6302C50.4507 78.6302 46.1299 66.4234 33.2494 66.982H32.3458Z" fill="#2A0055"/>
<path d="M34.1368 69.594C37.9299 68.9531 41.8222 69.252 45.4729 70.4647C47.099 70.8491 48.5248 71.8228 49.4746 73.1975C50.4244 74.5722 50.8308 76.2502 50.6152 77.9071L27.6966 78.1864C27.6966 78.1864 24.8708 71.5654 34.1368 69.594Z" fill="#DCEFDA"/>
<path d="M50.6152 77.9071L27.6966 78.1864C27.6966 78.1864 24.8708 71.6148 34.1368 69.594C37.3211 69.0522 40.5833 69.1809 43.715 69.9719C43.715 69.9719 47.9537 73.652 48.4137 75.1142C48.8961 76.2184 49.6542 77.1802 50.6152 77.9071V77.9071Z" fill="#AFB4AF"/>
<path d="M34.0873 83.4438C34.0873 83.4438 26.2506 81.1273 27.9264 76.0014C29.6022 70.8755 36.0259 71.0727 41.4311 71.237C46.8363 71.4012 51.6008 75.4428 50.4507 78.6301C49.3007 81.8173 41.464 85.3331 34.0873 83.4438Z" fill="#984432"/>
<path d="M33.0028 71.6973L45.3575 82.5734C44.3735 82.9733 43.3565 83.2866 42.3181 83.5098L30.5713 72.7159C31.3261 72.2563 32.1458 71.9129 33.0028 71.6973V71.6973Z" fill="#7C3629"/>
<path d="M27.9265 76.0016C28.0585 75.5842 28.2347 75.1822 28.4522 74.8022L38.7861 83.9697C37.6309 83.9948 36.4759 83.9123 35.336 83.7233L27.7129 76.9873C27.7485 76.652 27.8201 76.3215 27.9265 76.0016V76.0016Z" fill="#7C3629"/>
<path d="M41.4313 71.237H41.6285L50.2866 79.123C49.7987 79.8468 49.1667 80.462 48.4301 80.9302L37.8169 71.0728C39.0327 71.1878 40.2484 71.2206 41.4313 71.237Z" fill="#7C3629"/>
</g>
</g>
<g clip-path="url(#clip2_0_1)">
<path d="M34.7319 45.6895C36.0674 44.8139 36.7427 43.4828 36.2402 42.7164C35.7378 41.95 34.2478 42.0385 32.9123 42.9141C31.5768 43.7897 30.9015 45.1208 31.4039 45.8872C31.9064 46.6536 33.3964 46.5651 34.7319 45.6895Z" fill="#54220F"/>
<path d="M34.7314 42.8963L8.05052 2.48061C7.52479 1.64272 6.5719 1.31414 6.04616 1.64272L5.79973 1.80701C5.52678 2.0937 5.36651 2.46928 5.3484 2.86471C5.33029 3.26013 5.45555 3.6488 5.70115 3.95923L32.1521 44.4899C32.71 44.4451 33.2472 44.2584 33.7128 43.9477C34.1334 43.686 34.4832 43.3249 34.7314 42.8963Z" fill="#873E00"/>
<path d="M2.2801 7.48121C-0.0494403 9.00852 -0.701791 12.1321 0.823038 14.4578C2.34787 16.7836 5.47245 17.4308 7.802 15.9035L16.9937 9.87716C19.3232 8.34984 19.9756 5.22631 18.4508 2.90056C16.9259 0.574812 13.8013 -0.0724475 11.4718 1.45487L2.2801 7.48121Z" fill="#003565"/>
<path d="M8.22636 15.107C8.45859 14.9039 8.28369 14.324 7.8357 13.8117C7.38772 13.2995 6.83631 13.0488 6.60408 13.2519C6.37185 13.455 6.54675 14.0349 6.99474 14.5472C7.44272 15.0594 7.99413 15.3101 8.22636 15.107Z" fill="#D2CED0"/>
<path d="M6.0493 12.4612C6.30729 12.292 6.21396 11.6936 5.84084 11.1245C5.46772 10.5554 4.95609 10.2311 4.6981 10.4003C4.4401 10.5694 4.53343 11.1679 4.90656 11.737C5.27968 12.3061 5.7913 12.6303 6.0493 12.4612Z" fill="#D2CED0"/>
<path d="M4.63279 13.3811C4.89079 13.212 4.79746 12.6135 4.42433 12.0444C4.05121 11.4753 3.53959 11.151 3.28159 11.3202C3.0236 11.4893 3.11693 12.0878 3.49005 12.6569C3.86317 13.226 4.3748 13.5503 4.63279 13.3811Z" fill="#D2CED0"/>
<path d="M3.06797 14.2169C3.28802 14.0727 3.20023 13.5497 2.87188 13.0489C2.54354 12.5481 2.09897 12.259 1.87891 12.4033C1.65886 12.5476 1.74665 13.0705 2.075 13.5714C2.40334 14.0722 2.84791 14.3612 3.06797 14.2169Z" fill="#D2CED0"/>
<path d="M4.37186 9.85104C4.65073 9.7191 4.64086 9.11347 4.34982 8.49833C4.05878 7.88319 3.59678 7.49147 3.31792 7.62341C3.03905 7.75535 3.04892 8.36098 3.33996 8.97612C3.631 9.59126 4.093 9.98297 4.37186 9.85104Z" fill="#D2CED0"/>
<path d="M6.47895 15.6575C6.68385 15.4783 6.52554 14.962 6.12534 14.5044C5.72515 14.0468 5.23461 13.8211 5.02971 14.0003C4.8248 14.1794 4.98311 14.6957 5.38331 15.1533C5.78351 15.6109 6.27404 15.8366 6.47895 15.6575Z" fill="#D2CED0"/>
<path d="M3.01742 10.8984C3.26348 10.7819 3.25218 10.2421 2.99218 9.69257C2.73219 9.14304 2.32195 8.79194 2.0759 8.90835C1.82984 9.02477 1.84114 9.56462 2.10113 10.1141C2.36113 10.6637 2.77136 11.0148 3.01742 10.8984Z" fill="#D2CED0"/>
<path d="M4.86574 16.3253C5.05698 16.158 4.90696 15.6736 4.53066 15.2433C4.15436 14.813 3.69427 14.5998 3.50302 14.767C3.31177 14.9342 3.46179 15.4187 3.8381 15.849C4.2144 16.2793 4.67449 16.4925 4.86574 16.3253Z" fill="#D2CED0"/>
<path d="M1.62194 11.9108C1.85159 11.8021 1.83958 11.2952 1.5951 10.7785C1.35063 10.2617 0.966277 9.93094 0.736624 10.0396C0.506971 10.1482 0.518985 10.6552 0.763458 11.1719C1.00793 11.6886 1.39229 12.0195 1.62194 11.9108Z" fill="#D2CED0"/>
<path d="M9.75895 11.6593C10.1232 11.4205 9.78122 10.255 8.99518 9.05607C8.20913 7.85715 7.27665 7.07882 6.91242 7.31762C6.5482 7.55642 6.89015 8.72192 7.67619 9.92083C8.46224 11.1198 9.39472 11.8981 9.75895 11.6593Z" fill="#B5B8BA"/>
<path d="M15.7885 0.541945C16.0182 0.703456 16.2376 0.879036 16.4456 1.06768C16.1074 0.781531 15.7067 0.57891 15.2758 0.47617C14.8448 0.373431 14.3958 0.373451 13.9648 0.476229L13.6198 0.64052L8.69108 3.92635C8.28818 4.21205 7.94781 4.57696 7.69079 4.99874C7.43377 5.42053 7.26551 5.89031 7.19631 6.37936C7.1271 6.86841 7.15841 7.36644 7.28831 7.84297C7.4182 8.31951 7.64396 8.76453 7.95177 9.15081L8.54322 10.0544C8.77063 10.5019 9.08836 10.8974 9.47635 11.2159C9.86433 11.5344 10.3141 11.769 10.7974 11.9048C11.2806 12.0407 11.7868 12.0749 12.2839 12.0052C12.781 11.9356 13.2583 11.7636 13.6855 11.5002L18.4993 8.21435C18.6608 8.12463 18.81 8.01417 18.9429 7.88577C19.2066 7.51966 19.3748 7.09351 19.4322 6.64596C19.4895 6.19841 19.4343 5.74362 19.2714 5.32282C19.3769 5.54201 19.4702 5.76689 19.5507 5.99642C19.6933 6.39893 19.7149 6.8344 19.6127 7.24902C19.5105 7.66363 19.289 8.03922 18.9757 8.32935L18.6471 8.55936L13.0119 12.3052C12.5675 12.6241 12.0634 12.8503 11.5297 12.9703C10.996 13.0902 10.4436 13.1015 9.90548 13.0033C9.36733 12.9052 8.85445 12.6997 8.39742 12.3991C7.94039 12.0985 7.54857 11.709 7.24532 11.2537L6.04599 9.43011C4.74809 7.52433 5.83241 5.33925 7.68891 4.13993L13.4062 0.377654C13.5743 0.248147 13.7632 0.148148 13.9648 0.0819294C14.2839 0.0191589 14.6129 0.0278558 14.9282 0.107395C15.2436 0.186934 15.5373 0.33534 15.7885 0.541945Z" fill="#E4E5E6"/>
<path d="M7.65576 12.618L10.4323 13.6037L10.8266 12.6508C10.858 12.5745 10.8735 12.4925 10.8722 12.4099C10.8709 12.3274 10.8528 12.2459 10.819 12.1706C10.7851 12.0953 10.7363 12.0276 10.6755 11.9718C10.6147 11.9159 10.5431 11.8731 10.4651 11.8458L8.82223 11.2872C8.66068 11.2324 8.48434 11.2409 8.32882 11.311C8.1733 11.3812 8.05019 11.5077 7.98434 11.6651L7.65576 12.618Z" fill="#B5B8BA"/>
<path d="M5.10938 8.65833L5.24081 5.71752H6.06226C6.17297 5.71482 6.283 5.73547 6.38519 5.77812C6.48738 5.82077 6.57945 5.88447 6.65539 5.96506C6.73133 6.04565 6.78945 6.14134 6.82596 6.24588C6.86247 6.35042 6.87655 6.46149 6.86729 6.57183V7.88616C6.85091 8.10708 6.75248 8.31387 6.59134 8.46588C6.43021 8.61789 6.21804 8.70413 5.99655 8.70762L5.10938 8.65833Z" fill="#B5B8BA"/>
<path d="M9.37521 7.33154L10.9156 9.68098C11.6469 10.7964 13.144 11.1078 14.2594 10.3765L14.6304 10.1333C15.7459 9.40197 16.0573 7.90487 15.3259 6.78942L13.7856 4.43997C13.0543 3.32453 11.5571 3.01313 10.4417 3.74445L10.0707 3.98766C8.95528 4.71898 8.64389 6.21609 9.37521 7.33154Z" fill="#787859"/>
<path d="M9.57869 7.59721L10.7497 9.38334C11.4661 10.476 12.9327 10.7811 14.0254 10.0647L14.0391 10.0557C15.1318 9.33926 15.4368 7.87271 14.7204 6.78003L13.5494 4.9939C12.833 3.90121 11.3664 3.59617 10.2738 4.31257L10.26 4.32158C9.16734 5.03797 8.86229 6.50452 9.57869 7.59721Z" fill="#828365"/>
<path d="M30.8045 34.6821C29.9367 35.2589 29.2209 36.0367 28.718 36.9493C27.9623 38.3951 29.063 39.5944 32.8253 37.968C36.5876 36.3415 30.8045 34.6821 30.8045 34.6821Z" fill="#FFB870"/>
</g>
<g clip-path="url(#clip3_0_1)">
<path d="M108.482 80.4123L115.516 77.0708L110.483 66.4752L103.449 69.8167L108.482 80.4123Z" fill="#487396"/>
<path d="M103.484 69.863L110.499 66.5279L108.758 65L103.402 67.5465L103.484 69.863Z" fill="#315C7A"/>
<path d="M108.445 80.3122L115.477 76.9771L115.543 79.2936L110.187 81.8401L108.445 80.3122Z" fill="#315C7A"/>
<path d="M106.162 75.4981L107.492 74.8574C107.76 75.3348 108.164 75.7214 108.653 75.9673C109.142 76.2132 109.693 76.3073 110.236 76.2375L111.501 78.9318L112.306 78.554L111.057 75.9089C111.522 75.5499 111.855 75.0484 112.006 74.4814C112.158 73.9145 112.119 73.3135 111.895 72.7709L113.144 72.1795L112.766 71.3744L111.501 71.9823C111.212 71.5319 110.794 71.1784 110.302 70.9676C109.81 70.7567 109.267 70.6982 108.741 70.7994L107.377 67.9243L106.572 68.2858L107.936 71.1609C107.533 71.5074 107.242 71.9652 107.099 72.4767C106.956 72.9883 106.967 73.5307 107.131 74.036L105.784 74.6931L106.162 75.4981ZM108.034 74.151C107.804 73.7413 107.745 73.2569 107.872 72.8041C107.998 72.3513 108.299 71.9671 108.708 71.7359C109.144 71.5689 109.628 71.5805 110.056 71.7681C110.483 71.9557 110.819 72.3042 110.992 72.7381C111.224 73.1482 111.286 73.6336 111.163 74.0889C111.04 74.5441 110.742 74.9324 110.335 75.1696C109.894 75.3362 109.406 75.3228 108.976 75.1321C108.545 74.9415 108.207 74.589 108.034 74.151Z" fill="#D2CED0"/>
<path d="M84.566 86.925L105.535 76.9639L104.364 74.5005L83.3958 84.4616L84.566 86.925Z" fill="#361102"/>
<path d="M77.1973 88.9863C77.3083 89.2205 77.4643 89.4306 77.6565 89.6045C77.8487 89.7784 78.0733 89.9126 78.3175 89.9996C78.5616 90.0866 78.8205 90.1246 79.0794 90.1114C79.3382 90.0982 79.5919 90.0341 79.826 89.9228C80.2972 89.6921 80.6592 89.2859 80.8343 88.7914C81.0093 88.2969 80.9836 87.7534 80.7624 87.2777C80.6715 87.0186 80.5275 86.7814 80.3396 86.5812C80.1517 86.381 79.924 86.2223 79.6712 86.1152C79.4184 86.0081 79.146 85.955 78.8715 85.9592C78.597 85.9635 78.3264 86.025 78.077 86.14C77.8277 86.2549 77.6051 86.4206 77.4235 86.6265C77.2419 86.8324 77.1053 87.074 77.0225 87.3358C76.9397 87.5976 76.9124 87.8738 76.9426 88.1467C76.9727 88.4196 77.0594 88.6832 77.1973 88.9206V88.9863ZM77.9695 88.6084C77.8813 88.3491 77.8915 88.0664 77.9981 87.8141C78.1046 87.5618 78.3002 87.3575 78.5475 87.2399C78.7949 87.1223 79.0768 87.0996 79.3398 87.1763C79.6028 87.2529 79.8284 87.4235 79.9738 87.6555C80.0399 87.7865 80.0788 87.9295 80.088 88.076C80.0972 88.2224 80.0767 88.3692 80.0275 88.5074C79.9784 88.6456 79.9017 88.7725 79.8021 88.8802C79.7025 88.9879 79.5821 89.0743 79.4481 89.1342C79.3167 89.1979 79.1739 89.2349 79.0281 89.243C78.8823 89.251 78.7363 89.23 78.5987 89.1811C78.461 89.1321 78.3345 89.0563 78.2265 88.958C78.1185 88.8597 78.0311 88.7408 77.9695 88.6084Z" fill="#315C7A"/>
<path d="M82.4421 88.8158C82.6095 89.1682 83.031 89.3182 83.3834 89.1508C83.7358 88.9834 83.8858 88.562 83.7184 88.2095L82.0264 84.648C81.859 84.2956 81.4376 84.1456 81.0852 84.313C80.7328 84.4804 80.5828 84.9018 80.7502 85.2543L82.4421 88.8158Z" fill="#54220F"/>
<path d="M83.6765 88.2007L81.9493 84.565C82.2563 84.4192 82.6087 84.4013 82.9289 84.5152C83.2491 84.6292 83.5109 84.8656 83.6567 85.1726L84.2912 86.5082C84.4319 86.8145 84.4463 87.1638 84.3312 87.4806C84.2162 87.7974 83.9809 88.0562 83.6765 88.2007Z" fill="black"/>
<path d="M82.4653 88.752C82.1583 88.8978 81.806 88.9157 81.4858 88.8017C81.1656 88.6878 80.9038 88.4513 80.758 88.1443L80.1023 86.7642C79.9565 86.4572 79.9386 86.1049 80.0526 85.7847C80.1665 85.4645 80.403 85.2027 80.71 85.0568L82.4653 88.752Z" fill="black"/>
<path d="M105.538 77.7644L106.948 77.0947L105.158 73.3254L103.748 73.9951L105.538 77.7644Z" fill="#315C7A"/>
<path d="M87.2847 81.6096C87.9425 82.4132 88.7814 83.0494 89.7326 83.4661C91.2441 84.1068 92.3448 82.9075 90.3733 79.2931C88.4018 75.6787 87.2847 81.6096 87.2847 81.6096Z" fill="#FFB870"/>
</g>
<defs>
<radialGradient id="paint0_radial_0_1" cx="0" cy="0" r="1" gradientUnits="userSpaceOnUse" gradientTransform="translate(60.0289 58.3732) rotate(180) scale(44.8187)">
<stop stop-color="#FFE098"/>
<stop offset="0.43" stop-color="#FFC882"/>
<stop offset="0.72" stop-color="#FFB470"/>
</radialGradient>
<radialGradient id="paint1_radial_0_1" cx="0" cy="0" r="1" gradientUnits="userSpaceOnUse" gradientTransform="translate(61.8199 52.5245) rotate(180) scale(36.8013 36.8013)">
<stop offset="0.11" stop-color="#36A8E0"/>
<stop offset="0.32" stop-color="#2B90CE"/>
<stop offset="0.55" stop-color="#1D71B7"/>
</radialGradient>
<clipPath id="clip0_0_1">
<rect width="72.0417" height="56.7626" fill="white" transform="translate(24 30)"/>
</clipPath>
<clipPath id="clip1_0_1">
<rect width="23.3787" height="17.8256" fill="white" transform="translate(27.2856 66.144)"/>
</clipPath>
<clipPath id="clip2_0_1">
<rect width="36.4234" height="46.4287" fill="white"/>
</clipPath>
<clipPath id="clip3_0_1">
<rect width="38.5427" height="25.1037" fill="white" transform="translate(77 65)"/>
</clipPath>
</defs>
</svg>
