<svg width="63" height="46" viewBox="0 0 63 46" fill="none" xmlns="http://www.w3.org/2000/svg">
<g clip-path="url(#clip0_586_747)">
<path d="M17.105 8.1159C17.105 8.1159 37.1814 7.83661 49.8154 13.0446C62.4494 18.2527 69.1689 29.5723 53.6927 32.3653C38.2164 35.1583 17.105 8.1159 17.105 8.1159Z" fill="#984432"/>
<path d="M7.4447 20.0927C6.81835 19.2425 5.90034 18.6534 4.86657 18.4382C3.8328 18.2229 2.75596 18.3967 1.84236 18.9262C-1.44347 20.8484 0.199448 25.1035 2.69668 26.3522C5.1939 27.6008 8.39758 25.5307 8.39758 25.5307L7.4447 20.0927Z" fill="#FF6F67"/>
<path d="M8.39792 25.5308C8.39792 25.5308 5.21066 27.6173 2.69701 26.3522C0.183349 25.0872 -1.44313 20.8485 1.84269 18.9263C1.84269 18.9263 0.462644 22.7214 2.69701 24.4136C3.25144 24.9 3.96382 25.1682 4.70136 25.1682C5.4389 25.1682 6.15128 24.9 6.70571 24.4136L8.39792 25.5308Z" fill="#EB5E5C"/>
<path d="M53.8733 30.5087C53.8733 30.5087 53.7255 45.6892 38.545 45.4264C23.3644 45.1635 0.971529 30.7387 5.47311 19.5341C9.97469 8.32939 13.5891 6.02931 23.003 5.65144C32.4169 5.27357 54.2183 20.4705 53.8733 30.5087Z" fill="#FFB870"/>
<path d="M53.8733 30.5087C53.8733 30.5087 53.7255 45.6892 38.545 45.4264C23.3644 45.1635 0.971529 30.7387 5.47311 19.5341C9.97469 8.32939 13.5891 6.02931 23.003 5.65144C32.4169 5.27357 54.2183 20.4705 53.8733 30.5087Z" fill="url(#paint0_radial_586_747)"/>
<path d="M38.5453 45.4264C23.3484 45.1635 0.971882 30.7387 5.47346 19.5341C9.97505 8.32941 13.5895 6.02933 23.0033 5.65146C32.4172 5.27359 54.2187 20.4377 53.8901 30.5087C53.8429 31.6498 53.6833 32.7834 53.4137 33.8931C52.6686 30.1962 51.0535 26.73 48.7022 23.7816C46.3509 20.8331 43.3309 18.4873 39.8925 16.9383C39.8925 16.9383 24.7448 17.694 17.1217 9.5123C17.1217 9.5123 4.66844 19.2712 11.3715 29.063C18.0746 38.8547 27.6199 42.7156 38.5617 45.4921L38.5453 45.4264Z" fill="#F99C5F"/>
<path d="M9.23584 12.0096C9.23584 12.0096 11.0266 0.772103 22.7899 0.887107C34.5531 1.00211 49.1422 6.78517 49.8158 13.1432C50.3251 17.7105 31.218 9.85741 19.5205 8.2145C15.4461 7.52448 9.23584 12.0096 9.23584 12.0096Z" fill="#FF8B00"/>
<path d="M19.52 8.21474C31.2176 9.85766 50.3246 17.7108 49.8153 13.1435C49.2896 7.50829 37.7892 2.33312 26.9953 1.13379C26.9953 1.13379 43.6544 4.41962 43.5066 11.1063L35.1277 10.6955L19.52 8.21474Z" fill="#FFC600"/>
<path opacity="0.35" d="M49.8158 13.1432C50.3251 17.7105 31.218 9.85741 19.5205 8.2145C15.4461 7.52448 9.23584 12.0096 9.23584 12.0096C9.23584 12.0096 11.0266 0.772103 22.7899 0.887107C22.7899 0.887107 16.8425 2.33287 17.5161 4.84653C18.1897 7.36018 36.2618 10.7939 36.2618 10.7939L48.4358 13.7183" fill="#2A0055"/>
<path d="M53.8245 31.3141C53.8245 31.3141 55.221 23.3953 40.8455 15.7557C26.47 8.11618 50.4894 14.5071 50.4894 14.5071C50.4894 14.5071 61.8912 20.0437 61.5955 25.5311C61.2997 31.0184 53.8245 31.3141 53.8245 31.3141Z" fill="#A10056"/>
<path d="M53.8245 31.3141C53.8245 31.3141 55.221 23.3953 40.8455 15.7557C26.47 8.11618 50.4894 14.5071 50.4894 14.5071C50.4894 14.5071 61.8912 20.0437 61.5955 25.5311C61.2997 31.0184 53.8245 31.3141 53.8245 31.3141Z" fill="#541D16"/>
<path d="M57.1592 18.2858C57.1592 18.2858 54.5469 15.8708 46.0038 15.9529C37.4606 16.0351 24.1366 13.4721 19.52 8.21478H22.2801C29.4701 7.93302 36.6539 8.91163 43.5066 11.1063L50.9325 13.5707L57.1592 18.2858Z" fill="#984432"/>
<path d="M30.1825 8.3133C27.557 8.0532 24.9172 7.96539 22.2801 8.05043L19.52 8.21472C24.1366 13.472 37.5592 16.0514 46.0038 15.9528C48.205 15.8775 50.4081 16.0372 52.5754 16.4293C48.8508 15.0753 44.9972 14.1064 41.075 13.5378C37.0408 12.8064 33.2781 11.0017 30.1825 8.3133V8.3133Z" fill="#7C3629"/>
<path d="M46.9241 27.3543C46.9241 27.3543 42.669 27.7157 42.094 26.7629C41.5189 25.81 42.899 23.3785 46.9241 23.477C50.9493 23.5756 52.3293 25.3828 51.2614 27.42C50.5878 28.7015 49.1421 27.2722 46.9241 27.3543Z" fill="#BC6D3F"/>
<path d="M29.3779 17.4312C29.3779 17.4312 26.7986 12.8639 23.0034 13.1432C19.2083 13.4225 21.3605 16.2647 22.6749 16.9054C23.9892 17.5462 27.9322 21.0949 29.5751 20.6349C31.218 20.1748 29.3779 17.4312 29.3779 17.4312Z" fill="#BC6D3F"/>
<path d="M47.3017 32.743C48.4359 32.743 49.3553 31.8236 49.3553 30.6894C49.3553 29.5552 48.4359 28.6357 47.3017 28.6357C46.1675 28.6357 45.248 29.5552 45.248 30.6894C45.248 31.8236 46.1675 32.743 47.3017 32.743Z" fill="#003438"/>
<path d="M23.4633 23.7074C24.5975 23.7074 25.517 22.7879 25.517 21.6537C25.517 20.5195 24.5975 19.6001 23.4633 19.6001C22.3291 19.6001 21.4097 20.5195 21.4097 21.6537C21.4097 22.7879 22.3291 23.7074 23.4633 23.7074Z" fill="#003438"/>
<path d="M27.4064 27.1411C27.4064 27.1411 32.3352 27.979 38.989 35.635C38.989 35.635 34.2245 42.0752 28.8194 40.268C23.4142 38.4608 25.2214 29.5726 27.4064 27.1411Z" fill="#850027"/>
<path d="M32.105 40.4487C31.0131 40.6818 29.8789 40.6195 28.8191 40.268C25.8126 39.2658 25.0404 36.0622 25.3197 33.0063C28.3827 34.6167 30.7838 37.2504 32.105 40.4487V40.4487Z" fill="#FF0000"/>
<path d="M25.9771 29.9176C26.2716 28.9092 26.7568 27.9667 27.4064 27.1411C27.4064 27.1411 32.3351 27.979 38.9889 35.635C38.9889 35.635 38.7261 35.9964 38.2496 36.5221C33.6937 35.8074 29.4949 33.6272 26.2892 30.3119L25.9771 29.9176Z" fill="white"/>
<path d="M26.9957 1.13379C26.9957 1.13379 15.4953 1.13379 14.1152 9.24978L16.1524 8.49404C16.1524 8.49404 16.1524 3.28601 26.9957 1.13379Z" fill="#420759"/>
<path d="M28.4575 1.33057C28.4575 1.33057 37.2307 4.61639 38.9393 9.79157L40.9437 10.3173C40.9437 10.3173 39.4322 4.58353 28.4575 1.33057Z" fill="#420759"/>
<path d="M25.8947 1.03485L29.1805 1.42915C29.3013 1.38143 29.4042 1.29723 29.4749 1.18827C29.5455 1.07931 29.5805 0.951024 29.5748 0.821275C29.5748 0.377689 27.5705 0.0819645 27.5705 0.0819645C27.5705 0.0819645 25.7468 -0.21376 25.4347 0.328401C25.1225 0.870563 25.8947 1.03485 25.8947 1.03485Z" fill="#420759"/>
</g>
<defs>
<radialGradient id="paint0_radial_586_747" cx="0" cy="0" r="1" gradientUnits="userSpaceOnUse" gradientTransform="translate(35.6041 34.5411) rotate(180) scale(34.7969 36.1888)">
<stop stop-color="#FFE098"/>
<stop offset="0.34" stop-color="#FFC882"/>
<stop offset="0.58" stop-color="#FFB470"/>
</radialGradient>
<clipPath id="clip0_586_747">
<rect width="62.6607" height="45.4265" fill="white" transform="translate(0.00244141)"/>
</clipPath>
</defs>
</svg>
