<svg width="39" height="26" viewBox="0 0 39 26" fill="none" xmlns="http://www.w3.org/2000/svg">
<g clip-path="url(#clip0_586_825)">
<path d="M31.6998 15.9153L38.7339 12.5737L33.7005 1.97812L26.6664 5.31965L31.6998 15.9153Z" fill="#487396"/>
<path d="M26.7018 5.36595L33.717 2.03084L31.9755 0.50293L26.6196 3.04945L26.7018 5.36595Z" fill="#315C7A"/>
<path d="M31.6631 15.8151L38.6948 12.48L38.7605 14.7965L33.4046 17.343L31.6631 15.8151Z" fill="#315C7A"/>
<path d="M29.3793 11.0011L30.7101 10.3603C30.9776 10.8378 31.3818 11.2243 31.8707 11.4702C32.3597 11.7161 32.911 11.8102 33.4538 11.7404L34.7188 14.4348L35.5238 14.0569L34.2752 11.4118C34.7394 11.0528 35.0728 10.5513 35.2242 9.98435C35.3756 9.41741 35.3365 8.81644 35.1131 8.27384L36.3617 7.68239L35.9838 6.87736L34.7188 7.48524C34.4296 7.03481 34.0121 6.68137 33.5202 6.47052C33.0282 6.25968 32.4843 6.2011 31.9587 6.30234L30.5951 3.42725L29.7901 3.78869L31.1537 6.66379C30.751 7.01028 30.4598 7.46808 30.3165 7.97963C30.1733 8.49119 30.1845 9.03367 30.3487 9.53888L29.0015 10.196L29.3793 11.0011ZM31.2523 9.65389C31.0217 9.24422 30.9632 8.7598 31.0894 8.307C31.2157 7.8542 31.5166 7.47002 31.9258 7.2388C32.3618 7.07186 32.846 7.08344 33.2734 7.27103C33.7009 7.45862 34.0372 7.80712 34.2095 8.24098C34.4422 8.65116 34.5037 9.13656 34.3806 9.5918C34.2576 10.047 33.96 10.4354 33.5523 10.6725C33.112 10.8391 32.6238 10.8257 32.1933 10.6351C31.7629 10.4444 31.4248 10.0919 31.2523 9.65389V9.65389Z" fill="#D2CED0"/>
<path d="M7.78382 22.4279L28.7524 12.4668L27.5822 10.0034L6.61358 19.9645L7.78382 22.4279Z" fill="#361102"/>
<path d="M0.41509 24.4892C0.526029 24.7235 0.682066 24.9335 0.874274 25.1074C1.06648 25.2813 1.29109 25.4155 1.53524 25.5025C1.77939 25.5895 2.0383 25.6275 2.29715 25.6143C2.55599 25.6011 2.8097 25.537 3.04375 25.4257C3.51495 25.1951 3.87695 24.7889 4.05203 24.2943C4.22712 23.7998 4.20133 23.2563 3.98021 22.7806C3.8893 22.5215 3.74528 22.2843 3.55737 22.0841C3.36946 21.8839 3.14182 21.7252 2.88901 21.6181C2.63621 21.511 2.36382 21.4579 2.08929 21.4622C1.81477 21.4664 1.54416 21.528 1.29481 21.6429C1.04545 21.7578 0.822851 21.9235 0.641256 22.1295C0.459662 22.3354 0.323082 22.577 0.240265 22.8387C0.157448 23.1005 0.13022 23.3767 0.160325 23.6496C0.19043 23.9225 0.277205 24.1861 0.41509 24.4235V24.4892ZM1.18726 24.1114C1.09909 23.852 1.10926 23.5694 1.21583 23.3171C1.3224 23.0648 1.51795 22.8604 1.76531 22.7428C2.01267 22.6252 2.29462 22.6026 2.55757 22.6792C2.82052 22.7558 3.04616 22.9264 3.19161 23.1585C3.25772 23.2894 3.29656 23.4325 3.30579 23.5789C3.31501 23.7253 3.29443 23.8721 3.24528 24.0103C3.19613 24.1486 3.11943 24.2754 3.01984 24.3831C2.92025 24.4908 2.79984 24.5773 2.66588 24.6371C2.53448 24.7009 2.39171 24.7379 2.24587 24.7459C2.10003 24.754 1.95405 24.7329 1.81643 24.684C1.67881 24.6351 1.55231 24.5592 1.44429 24.4609C1.33627 24.3626 1.2489 24.2438 1.18726 24.1114V24.1114Z" fill="#315C7A"/>
<path d="M5.6599 24.3187C5.82732 24.6712 6.24873 24.8211 6.60115 24.6537C6.95357 24.4863 7.10354 24.0649 6.93612 23.7125L5.24421 20.1509C5.0768 19.7985 4.65539 19.6485 4.30297 19.8159C3.95055 19.9834 3.80058 20.4048 3.96799 20.7572L5.6599 24.3187Z" fill="#54220F"/>
<path d="M6.89425 23.7037L5.1671 20.0679C5.47409 19.9221 5.82643 19.9042 6.14663 20.0181C6.46682 20.1321 6.72864 20.3686 6.87447 20.6756L7.50894 22.0111C7.64964 22.3174 7.66403 22.6668 7.54898 22.9836C7.43393 23.3004 7.1987 23.5591 6.89425 23.7037V23.7037Z" fill="black"/>
<path d="M5.68311 24.2549C5.37612 24.4007 5.02377 24.4186 4.70357 24.3047C4.38338 24.1907 4.12157 23.9542 3.97573 23.6473L3.32012 22.2672C3.17428 21.9602 3.15637 21.6078 3.27032 21.2876C3.38428 20.9674 3.62076 20.7056 3.92775 20.5598V20.5598L5.68311 24.2549V24.2549Z" fill="black"/>
<path d="M28.7562 13.2674L30.166 12.5977L28.3754 8.82835L26.9656 9.49806L28.7562 13.2674Z" fill="#315C7A"/>
<path d="M10.5024 17.1125C11.1603 17.9161 11.9992 18.5523 12.9504 18.969C14.4619 19.6098 15.5626 18.4105 13.5911 14.796C11.6196 11.1816 10.5024 17.1125 10.5024 17.1125Z" fill="#FFB870"/>
</g>
<defs>
<clipPath id="clip0_586_825">
<rect width="38.5427" height="25.1037" fill="white" transform="translate(0.217773 0.50293)"/>
</clipPath>
</defs>
</svg>
