<svg width="26" height="22" viewBox="0 0 26 22" fill="none" xmlns="http://www.w3.org/2000/svg">
<g clip-path="url(#clip0_586_812)">
<path d="M0.527434 11.31C0.527434 11.31 -0.951187 1.35395 7.26338 0.861074C15.4779 0.3682 27.8162 8.3199 25.1054 19.0317C25.1054 19.0317 16.2994 23.7633 0.527434 11.31Z" fill="#821898"/>
<path d="M2.62988 8.36905C3.51101 6.13557 5.0824 4.24185 7.11504 2.96387C8.29459 3.05016 9.46192 3.25939 10.598 3.58817C10.598 3.58817 6.91789 6.23326 6.195 8.8455L2.62988 8.36905Z" fill="#FFC600"/>
<path d="M8.98828 9.43704C9.82211 7.37565 11.1954 5.57671 12.9641 4.229C14.1465 4.58629 15.3044 5.01984 16.4307 5.52691C14.6685 6.78477 13.2688 8.48475 12.3727 10.4556L8.98828 9.43704Z" fill="#FFC600"/>
<path opacity="0.35" d="M25.1052 19.0316C25.1052 19.0316 16.2992 23.7632 0.461516 11.3099C0.461516 11.3099 -1.01711 1.35389 7.19746 0.877441C7.19746 0.877441 19.8807 6.18405 17.4328 13.6922C14.9849 21.2003 25.1052 19.0316 25.1052 19.0316Z" fill="#2A0055"/>
<path d="M25.0723 19.9185C25.0723 19.9185 25.9595 17.7991 25.4831 16.8298C25.4831 16.8298 23.8401 12.2132 15.757 9.23954C7.67387 6.26587 2.02225 5.0994 0.412195 8.25379C-1.19786 11.4082 2.36726 15.1376 2.36726 15.1376L25.0723 19.9185Z" fill="#DCEFDA"/>
<path d="M14.9847 11.1291C14.9847 11.1291 4.50295 6.67684 1.64428 8.84549C-1.21439 11.0141 1.16784 14.3985 3.78007 16.4357C6.3923 18.473 14.4919 22.5145 21.9671 21.5123C29.4424 20.5102 21.885 14.1685 14.9847 11.1291Z" fill="#984432"/>
<path d="M11.0089 9.66667L15.0504 21.1671C13.9833 20.9574 12.9299 20.6831 11.896 20.3456L8.08447 8.84521C9.10308 9.07522 10.0888 9.37095 11.0089 9.66667Z" fill="#7C3629"/>
<path d="M18.4514 12.9033L21.3593 21.5779C20.4512 21.6353 19.5403 21.6353 18.6321 21.5779L15.2148 11.2275C16.2992 11.7204 17.3999 12.3611 18.4514 12.9033Z" fill="#7C3629"/>
<path d="M4.93002 8.28668L8.65943 19.1463C7.67368 18.7028 6.78651 18.2592 6.01434 17.832L2.72852 8.41812C3.45031 8.25483 4.19392 8.21044 4.93002 8.28668V8.28668Z" fill="#7C3629"/>
</g>
<defs>
<clipPath id="clip0_586_812">
<rect width="25.6294" height="20.7993" fill="white" transform="translate(0.00146484 0.86084)"/>
</clipPath>
</defs>
</svg>
