<svg width="24" height="18" viewBox="0 0 24 18" fill="none" xmlns="http://www.w3.org/2000/svg">
<g clip-path="url(#clip0_586_801)">
<path d="M1.07058 5.42429C1.42636 4.3831 2.00664 3.43283 2.77034 2.64074C3.53404 1.84865 4.46251 1.23409 5.49002 0.840561C7.98233 -0.057202 10.6791 -0.224909 13.2635 0.357149C15.8478 0.939207 18.2123 2.24684 20.0791 4.12639C24.8928 8.82512 23.5949 12.4888 23.5949 12.4888L0.840577 12.0452C0.495725 9.84369 0.573788 7.59659 1.07058 5.42429V5.42429Z" fill="#821898"/>
<path d="M7.83936 4.22467C7.83936 4.22467 8.33223 1.30029 9.81085 0.462402L12.8338 0.790985C12.0873 1.80522 11.5919 2.98194 11.388 4.22467H7.83936Z" fill="#FFC600"/>
<path d="M7.83928 0.725098C6.99907 1.70911 6.49284 2.9344 6.39351 4.2245L3.83057 5.06239C3.9757 3.76521 4.41391 2.51801 5.11204 1.41512C5.99497 1.09193 6.90888 0.860697 7.83928 0.725098V0.725098Z" fill="#FFC600"/>
<path opacity="0.35" d="M5.48985 0.84038C4.46234 1.23391 3.53388 1.84847 2.77017 2.64056C2.00647 3.43265 1.4262 4.38292 1.07042 5.42411C0.579905 7.58054 0.501863 9.81031 0.84041 11.9958L23.5948 12.4886C23.5948 12.4886 19.2739 0.281789 6.39346 0.84038H5.48985Z" fill="#2A0055"/>
<path d="M7.28087 3.45235C11.0739 2.81145 14.9663 3.11043 18.617 4.3231C20.243 4.70754 21.6688 5.68123 22.6186 7.05589C23.5685 8.43056 23.9749 10.1086 23.7593 11.7655L0.840649 12.0448C0.840649 12.0448 -1.98516 5.42385 7.28087 3.45235Z" fill="#DCEFDA"/>
<path d="M23.7593 11.7655L0.840649 12.0448C0.840649 12.0448 -1.98516 5.47319 7.28087 3.4524C10.4651 2.91064 13.7274 3.03934 16.8591 3.83027C16.8591 3.83027 21.0978 7.5104 21.5578 8.97259C22.0402 10.0768 22.7983 11.0386 23.7593 11.7655V11.7655Z" fill="#AFB4AF"/>
<path d="M7.23135 17.3022C7.23135 17.3022 -0.605343 14.9857 1.07043 9.8598C2.7462 4.73391 9.16999 4.93106 14.5752 5.09535C19.9804 5.25964 24.7448 9.30121 23.5948 12.4885C22.4447 15.6757 14.608 19.1915 7.23135 17.3022Z" fill="#984432"/>
<path d="M6.14684 5.55566L18.5016 16.4317C17.5176 16.8317 16.5006 17.145 15.4622 17.3682L3.71533 6.57427C4.47013 6.11465 5.28982 5.77127 6.14684 5.55566V5.55566Z" fill="#7C3629"/>
<path d="M1.07051 9.85997C1.20254 9.44261 1.37878 9.04055 1.59624 8.66064L11.9302 17.8281C10.775 17.8532 9.61995 17.7707 8.48005 17.5817L0.856934 10.8457C0.892552 10.5104 0.964157 10.1799 1.07051 9.85997V9.85997Z" fill="#7C3629"/>
<path d="M14.5753 5.09544H14.7725L23.4306 12.9814C22.9428 13.7052 22.3108 14.3204 21.5742 14.7886L10.9609 4.93115C12.1767 5.04616 13.3924 5.07901 14.5753 5.09544Z" fill="#7C3629"/>
</g>
<defs>
<clipPath id="clip0_586_801">
<rect width="23.3787" height="17.8256" fill="white" transform="translate(0.429688 0.00244141)"/>
</clipPath>
</defs>
</svg>
