<svg width="37" height="48" viewBox="0 0 37 48" fill="none" xmlns="http://www.w3.org/2000/svg">
<g clip-path="url(#clip0_586_769)">
<path d="M34.7319 46.5469C36.0674 45.6713 36.7427 44.3402 36.2402 43.5738C35.7378 42.8074 34.2478 42.8959 32.9123 43.7715C31.5768 44.6471 30.9015 45.9782 31.4039 46.7446C31.9064 47.511 33.3964 47.4225 34.7319 46.5469Z" fill="#54220F"/>
<path d="M34.7314 43.7537L8.05052 3.33803C7.52479 2.50014 6.5719 2.17156 6.04616 2.50014L5.79973 2.66444C5.52678 2.95112 5.36651 3.32671 5.3484 3.72213C5.33029 4.11755 5.45555 4.50622 5.70115 4.81665L32.1521 45.3473C32.71 45.3025 33.2472 45.1159 33.7128 44.8052C34.1334 44.5434 34.4832 44.1823 34.7314 43.7537Z" fill="#873E00"/>
<path d="M2.2801 8.33863C-0.0494403 9.86595 -0.701791 12.9895 0.823038 15.3152C2.34787 17.641 5.47245 18.2882 7.802 16.7609L16.9937 10.7346C19.3232 9.20726 19.9756 6.08373 18.4508 3.75798C16.9259 1.43223 13.8013 0.784974 11.4718 2.31229L2.2801 8.33863Z" fill="#003565"/>
<path d="M8.22636 15.9644C8.45859 15.7613 8.28369 15.1814 7.8357 14.6692C7.38772 14.1569 6.83631 13.9062 6.60408 14.1093C6.37185 14.3124 6.54675 14.8923 6.99474 15.4046C7.44272 15.9169 7.99413 16.1675 8.22636 15.9644Z" fill="#D2CED0"/>
<path d="M6.0493 13.3186C6.30729 13.1495 6.21396 12.551 5.84084 11.9819C5.46772 11.4128 4.95609 11.0885 4.6981 11.2577C4.4401 11.4268 4.53343 12.0253 4.90656 12.5944C5.27968 13.1635 5.7913 13.4878 6.0493 13.3186Z" fill="#D2CED0"/>
<path d="M4.63279 14.2385C4.89079 14.0694 4.79746 13.4709 4.42433 12.9018C4.05121 12.3327 3.53959 12.0085 3.28159 12.1776C3.0236 12.3468 3.11693 12.9452 3.49005 13.5143C3.86317 14.0835 4.3748 14.4077 4.63279 14.2385Z" fill="#D2CED0"/>
<path d="M3.06797 15.0743C3.28802 14.9301 3.20023 14.4071 2.87188 13.9063C2.54354 13.4055 2.09897 13.1165 1.87891 13.2607C1.65886 13.405 1.74665 13.928 2.075 14.4288C2.40334 14.9296 2.84791 15.2186 3.06797 15.0743Z" fill="#D2CED0"/>
<path d="M4.37186 10.7085C4.65073 10.5765 4.64086 9.97089 4.34982 9.35575C4.05878 8.74061 3.59678 8.34889 3.31792 8.48083C3.03905 8.61277 3.04892 9.2184 3.33996 9.83354C3.631 10.4487 4.093 10.8404 4.37186 10.7085Z" fill="#D2CED0"/>
<path d="M6.47895 16.5149C6.68385 16.3357 6.52554 15.8194 6.12534 15.3618C5.72515 14.9042 5.23461 14.6785 5.02971 14.8577C4.8248 15.0369 4.98311 15.5531 5.38331 16.0107C5.78351 16.4684 6.27404 16.6941 6.47895 16.5149Z" fill="#D2CED0"/>
<path d="M3.01742 11.7558C3.26348 11.6394 3.25218 11.0995 2.99218 10.55C2.73219 10.0005 2.32195 9.64936 2.0759 9.76577C1.82984 9.88219 1.84114 10.422 2.10113 10.9716C2.36113 11.5211 2.77136 11.8722 3.01742 11.7558Z" fill="#D2CED0"/>
<path d="M4.86574 17.1827C5.05698 17.0154 4.90696 16.531 4.53066 16.1007C4.15436 15.6704 3.69427 15.4572 3.50302 15.6244C3.31177 15.7917 3.46179 16.2761 3.8381 16.7064C4.2144 17.1367 4.67449 17.3499 4.86574 17.1827Z" fill="#D2CED0"/>
<path d="M1.62194 12.7682C1.85159 12.6596 1.83958 12.1526 1.5951 11.6359C1.35063 11.1192 0.966277 10.7884 0.736624 10.897C0.506971 11.0057 0.518985 11.5126 0.763458 12.0294C1.00793 12.5461 1.39229 12.8769 1.62194 12.7682Z" fill="#D2CED0"/>
<path d="M9.75895 12.5167C10.1232 12.2779 9.78122 11.1124 8.99518 9.91349C8.20913 8.71457 7.27665 7.93624 6.91242 8.17504C6.5482 8.41384 6.89015 9.57934 7.67619 10.7783C8.46224 11.9772 9.39472 12.7555 9.75895 12.5167Z" fill="#B5B8BA"/>
<path d="M15.7885 1.39937C16.0182 1.56088 16.2376 1.73646 16.4456 1.9251C16.1074 1.63895 15.7067 1.43633 15.2758 1.33359C14.8448 1.23085 14.3958 1.23087 13.9648 1.33365L13.6198 1.49794L8.69108 4.78377C8.28818 5.06948 7.94781 5.43438 7.69079 5.85617C7.43377 6.27795 7.26551 6.74774 7.19631 7.23679C7.1271 7.72583 7.15841 8.22386 7.28831 8.7004C7.4182 9.17693 7.64396 9.62195 7.95177 10.0082L8.54322 10.9118C8.77063 11.3593 9.08836 11.7548 9.47635 12.0733C9.86433 12.3918 10.3141 12.6264 10.7974 12.7623C11.2806 12.8981 11.7868 12.9323 12.2839 12.8626C12.781 12.793 13.2583 12.621 13.6855 12.3576L18.4993 9.07177C18.6608 8.98205 18.81 8.87159 18.9429 8.74319C19.2066 8.37708 19.3748 7.95094 19.4322 7.50339C19.4895 7.05584 19.4343 6.60104 19.2714 6.18024C19.3769 6.39943 19.4702 6.62431 19.5507 6.85384C19.6933 7.25635 19.7149 7.69182 19.6127 8.10644C19.5105 8.52105 19.289 8.89664 18.9757 9.18678L18.6471 9.41678L13.0119 13.1626C12.5675 13.4816 12.0634 13.7078 11.5297 13.8277C10.996 13.9476 10.4436 13.9589 9.90548 13.8608C9.36733 13.7626 8.85445 13.5572 8.39742 13.2566C7.94039 12.956 7.54857 12.5664 7.24532 12.1112L6.04599 10.2875C4.74809 8.38175 5.83241 6.19667 7.68891 4.99735L13.4062 1.23508C13.5743 1.10557 13.7632 1.00557 13.9648 0.939351C14.2839 0.876581 14.6129 0.885278 14.9282 0.964817C15.2436 1.04436 15.5373 1.19276 15.7885 1.39937V1.39937Z" fill="#E4E5E6"/>
<path d="M7.65576 13.4754L10.4323 14.4611L10.8266 13.5082C10.858 13.4319 10.8735 13.3499 10.8722 13.2673C10.8709 13.1848 10.8528 13.1033 10.819 13.028C10.7851 12.9527 10.7363 12.885 10.6755 12.8292C10.6147 12.7733 10.5431 12.7305 10.4651 12.7032L8.82223 12.1446C8.66068 12.0898 8.48434 12.0983 8.32882 12.1684C8.1733 12.2386 8.05019 12.3651 7.98434 12.5225L7.65576 13.4754Z" fill="#B5B8BA"/>
<path d="M5.10938 9.51576L5.24081 6.57494H6.06226C6.17297 6.57225 6.283 6.5929 6.38519 6.63555C6.48738 6.6782 6.57945 6.74189 6.65539 6.82248C6.73133 6.90308 6.78945 6.99876 6.82596 7.1033C6.86247 7.20785 6.87655 7.31891 6.86729 7.42926V8.74359C6.85091 8.9645 6.75248 9.17129 6.59134 9.3233C6.43021 9.47532 6.21804 9.56155 5.99655 9.56504L5.10938 9.51576Z" fill="#B5B8BA"/>
<path d="M9.37521 8.18896L10.9156 10.5384C11.6469 11.6539 13.144 11.9653 14.2594 11.2339L14.6304 10.9907C15.7459 10.2594 16.0573 8.76229 15.3259 7.64684L13.7856 5.2974C13.0543 4.18195 11.5571 3.87055 10.4417 4.60187L10.0707 4.84508C8.95528 5.57641 8.64389 7.07351 9.37521 8.18896Z" fill="#787859"/>
<path d="M9.57869 8.45463L10.7497 10.2408C11.4661 11.3334 12.9327 11.6385 14.0254 10.9221L14.0391 10.9131C15.1318 10.1967 15.4368 8.73014 14.7204 7.63745L13.5494 5.85132C12.833 4.75864 11.3664 4.45359 10.2738 5.16999L10.26 5.179C9.16734 5.89539 8.86229 7.36194 9.57869 8.45463Z" fill="#828365"/>
<path d="M30.8045 35.5396C29.9367 36.1163 29.2209 36.8941 28.718 37.8068C27.9623 39.2525 29.063 40.4519 32.8253 38.8254C36.5876 37.1989 30.8045 35.5396 30.8045 35.5396Z" fill="#FFB870"/>
</g>
<defs>
<clipPath id="clip0_586_769">
<rect width="36.4234" height="46.4287" fill="white" transform="translate(0 0.857422)"/>
</clipPath>
</defs>
</svg>
