<svg width="136" height="73" viewBox="0 0 136 73" fill="none" xmlns="http://www.w3.org/2000/svg">
<path d="M39 1.16992C39 1.16992 15 2.50993 9.19995 17.4399C3.39995 32.3699 13 42.6699 19.89 42.6699C26.78 42.6699 30.69 39.1399 30.89 27.7399C31.09 16.3399 47.05 14.6299 47.05 14.6299L101.78 37.1599C101.78 37.1599 113.43 45.5299 125.56 45.5199C137.69 45.5099 134.9 39.2099 134.9 39.2099C134.9 39.2099 134.65 33.7499 123.37 32.7799C112.09 31.8099 97.52 21.8799 97.52 21.8799L39 1.16992Z" fill="#FFB370"/>
<path d="M19.9999 6.9998C10.4299 13.9998 11.7799 27.7798 14.6699 34.9998C17.5599 42.2198 28.6999 40.6798 29.9999 33.8498C31.2999 27.0198 28.5299 23.8498 34.6399 17.3898C40.7499 10.9298 37.9199 1.5498 37.9199 1.5498L39.4199 2.8398L40.8899 2.4998L47.0899 14.6298C47.0899 14.6298 31.1599 16.3398 30.9199 27.7398C30.6799 39.1398 26.8099 42.6698 19.9199 42.6698C13.0299 42.6698 3.38987 32.3598 9.19987 17.4398C11.8199 10.7198 18.1199 6.7598 24.2599 4.4398L19.9999 6.9998Z" fill="#F89B5F"/>
<path d="M101.78 37.1601C101.78 37.1601 113.43 45.5301 125.56 45.5201C137.69 45.5101 134.9 39.2101 134.9 39.2101C134.9 39.2101 135.16 45.4601 125.54 44.3101C115.92 43.1601 101.78 32.3901 101.78 32.3901V37.1601Z" fill="#F89B5F"/>
<path d="M101.05 39.35C101.05 39.35 103.6 46.26 95.2302 49.06C86.8602 51.86 49.8602 55.39 43.4302 41.44C41.5464 37.4832 40.7012 33.1119 40.9741 28.7381C41.247 24.3642 42.6292 20.1319 44.9902 16.44L40.2602 17.53C40.9824 14.7918 41.1278 11.9334 40.6871 9.13609C40.2464 6.33876 39.2293 3.66351 37.7002 1.28C37.7002 1.28 52.7002 -0.420004 65.1202 4.28C77.5402 8.98 84.1202 13.61 90.8502 17.73C95.7614 20.6291 100.871 23.1788 106.14 25.36C106.14 25.36 108.54 38.9 104.93 40.89L101.05 39.35Z" fill="url(#paint0_radial_0_1)"/>
<path d="M106.67 37.5101C107.46 32.8501 106.14 25.3901 106.14 25.3901C100.871 23.2088 95.7613 20.6592 90.8501 17.7601C84.1701 13.6401 77.5001 9.00006 65.1201 4.31006C65.1201 4.31006 77.5201 9.92006 84.9001 15.6901C92.2801 21.4601 93.9601 22.6901 97.2001 27.8001C95.9985 25.0139 94.3837 22.4248 92.4101 20.1201C92.4101 20.1201 103.47 25.6001 106.22 35.2501L106.67 37.5101Z" fill="#A732C6"/>
<path opacity="0.35" d="M104.93 40.9198L101.05 39.3498C101.05 39.3498 103.6 46.2598 95.2302 49.0598C86.8602 51.8598 49.8602 55.3898 43.4302 41.4398C41.5464 37.483 40.7012 33.1117 40.9741 28.7379C41.247 24.364 42.6292 20.1317 44.9902 16.4398L40.2602 17.5298C40.9824 14.7916 41.1278 11.9332 40.6871 9.13588C40.2464 6.33855 39.2293 3.6633 37.7002 1.27979C37.7002 1.27979 41.8402 4.65979 42.8402 8.03979C43.5933 10.2878 44.7789 12.3669 46.3302 14.1598L50.0002 8.50979C50.0002 8.50979 44.6702 32.2798 65.0802 41.0498C75.4702 45.5198 105.98 52.1998 99.8902 35.3098C100.714 36.785 101.722 38.1494 102.89 39.3698L104.93 40.9198Z" fill="#400454"/>
<path d="M75.4999 47.3301L98.1799 67.0501L68.6299 72.0401L61.3999 69.1901L63.6199 45.1401L75.4999 47.3301Z" fill="url(#paint1_radial_0_1)"/>
<path d="M84.9998 69.2702L98.1598 67.0502L87.9998 58.1602C87.9998 58.1602 83.0598 63.0802 84.9998 69.2702Z" fill="url(#paint2_linear_0_1)"/>
<path d="M85.8901 61.11C86.2745 60.3712 86.7194 59.6655 87.2201 59L98.2201 67L85.8901 61.11Z" fill="white"/>
<path d="M0 41.0498C0.0187688 42.5418 0.359896 44.012 1 45.3598L68.63 71.9998C67.8613 71.5867 67.1842 71.0222 66.6397 70.3402C66.0951 69.6582 65.6944 68.873 65.4617 68.0319C65.229 67.1908 65.1692 66.3113 65.2857 65.4464C65.4023 64.5816 65.6929 63.7493 66.14 62.9998L0 41.0498Z" fill="#C33A00"/>
<path d="M69.2 54C69.2 54 61.44 57.42 66.14 63.11L0 41.09C0.00156027 39.578 0.564631 38.1204 1.58 37L69.2 54Z" fill="#FF5900"/>
<path d="M69.2001 54C67.6401 47.82 75.5101 47.38 75.5101 47.38L5.66008 34.5C4.09715 34.9448 2.68603 35.8094 1.58008 37L69.2001 54Z" fill="#FF8237"/>
<path opacity="0.35" d="M31.5301 39.2499C31.5301 39.2499 23.8401 48.6199 16.3501 41.8599C8.8601 35.0999 19.0001 36.9999 19.0001 36.9999L31.5301 39.2499Z" fill="#541700"/>
<path d="M24.26 4.43018C18.12 6.76018 11.82 10.7202 9.20003 17.4302C3.39003 32.3602 13 42.6702 19.89 42.6702C26.78 42.6702 30.69 39.1402 30.89 27.7402C30.9188 26.084 31.3257 24.4563 32.0796 22.9814C32.8335 21.5066 33.9145 20.2235 35.24 19.2302" fill="url(#paint3_radial_0_1)"/>
<path d="M37.0001 17.9999C33.8001 19.9999 31.0501 22.9999 31.0001 27.7099C30.7701 39.1099 26.8901 42.6399 20.0001 42.6399C13.1101 42.6399 3.39015 32.3599 9.20015 17.4399C11.8201 10.7199 18.1201 6.75994 24.2601 4.43994L20.0001 6.99994C10.4301 13.9999 11.7801 27.7799 14.6701 34.9999C17.5601 42.2199 28.7001 40.6799 30.0001 33.8499C31.3001 27.0199 28.5301 23.8499 34.6401 17.3899" fill="#F89B5F"/>
<defs>
<radialGradient id="paint0_radial_0_1" cx="0" cy="0" r="1" gradientUnits="userSpaceOnUse" gradientTransform="translate(72.3102 26.3) scale(30.32)">
<stop stop-color="#A22498"/>
<stop offset="0.48" stop-color="#8A1B98"/>
<stop offset="0.61" stop-color="#821898"/>
</radialGradient>
<radialGradient id="paint1_radial_0_1" cx="0" cy="0" r="1" gradientUnits="userSpaceOnUse" gradientTransform="translate(79.6037 58.5763) rotate(-80.62) scale(17.4 34.278)">
<stop stop-color="#FF9900"/>
<stop offset="1" stop-color="#FFF39C"/>
</radialGradient>
<linearGradient id="paint2_linear_0_1" x1="89.5698" y1="69.7602" x2="92.8698" y2="62.1002" gradientUnits="userSpaceOnUse">
<stop offset="0.26" stop-color="#003438"/>
<stop offset="1" stop-color="#0C2217"/>
</linearGradient>
<radialGradient id="paint3_radial_0_1" cx="0" cy="0" r="1" gradientUnits="userSpaceOnUse" gradientTransform="translate(21.9698 25.8418) rotate(0.572939) scale(14.9807 16.1791)">
<stop stop-color="#FFDF97"/>
<stop offset="0.59" stop-color="#FFC781"/>
<stop offset="1" stop-color="#FFB370"/>
</radialGradient>
</defs>
</svg>
