<svg width="91" height="64" viewBox="0 0 91 64" fill="none" xmlns="http://www.w3.org/2000/svg">
<path d="M13.9198 44.4998C13.9198 44.4998 12.7298 59.9998 28.6998 62.4098C44.6698 64.8198 72.9298 63.9198 79.9698 57.7598C87.0098 51.5998 86.3898 33.5598 80.2098 28.3698C74.0298 23.1798 48.4698 10.8098 29.2898 19.5198C10.1098 28.2298 13.9198 44.4998 13.9198 44.4998Z" fill="#FFB370"/>
<path d="M13.9199 44.5C13.9199 44.5 12.7299 60 28.6999 62.41C44.6699 64.82 72.9299 63.92 79.9699 57.76C79.9699 57.76 68.4799 64.49 43.0799 62.45C17.6799 60.41 19.8799 49.45 19.8799 49.45L13.9199 44.5Z" fill="#F89B5F"/>
<path d="M17.7798 56.6801C13.3898 51.3701 13.9198 44.5001 13.9198 44.5001C13.9198 44.5001 10.1098 28.2401 29.2898 19.5001C48.4698 10.7601 74.0398 23.1501 80.2098 28.3501C82.1082 30.1915 83.4258 32.5485 83.9998 35.1301L82.4298 31.3901C82.4298 31.3901 57.8698 21.3901 33.1898 24.0001C33.1898 24.0001 31.5398 51.6301 23.4698 56.0001C21.8489 56.8 20.0415 57.1456 18.2398 57.0001L17.7798 56.6801Z" fill="#F89B5F"/>
<path d="M31.0499 22.7201C31.0499 22.7201 59.7399 19.5501 82.1599 30.7201C82.1599 30.7201 86.8199 40.2701 83.9699 50.8901C86.0269 49.2667 87.7149 47.2243 88.9218 44.8984C90.1287 42.5726 90.8268 40.0165 90.9699 37.4001C91.5599 24.4001 73.8599 -4.19993 36.9699 0.55007C-6.91006 6.17007 -2.13006 42.6001 6.88994 51.3501C15.9099 60.1001 26.6399 50.8201 28.2699 40.7001C29.8999 30.5801 31.0499 22.7201 31.0499 22.7201Z" fill="white"/>
<path d="M36.9999 0.529785C-6.91006 6.16979 -2.13006 42.5998 6.88994 51.3498C15.9099 60.0998 26.6399 50.8198 28.2699 40.6998C29.8999 30.5798 31.0499 22.6998 31.0499 22.6998C31.0499 22.6998 59.74 19.5298 82.16 30.6998C82.16 30.6998 86.8199 40.2498 83.9699 50.8698C86.0269 49.2464 87.7149 47.204 88.9218 44.8781C90.1287 42.5523 90.8268 39.9962 90.9699 37.3798C90.9699 37.3798 88.81 46.9398 85.27 48.0598L85.66 39.2498L83.3999 28.0898L82.5099 27.3798C82.5099 27.3798 59.9999 13.4898 29.8899 19.0698C29.8899 19.0698 28.0899 46.9498 16.4599 49.2898C4.82994 51.6298 2.99995 31.8498 6.39995 23.3198C9.79995 14.7898 19.9999 6.38979 29.3899 2.56979L36.9999 0.529785Z" fill="#DBDBDB"/>
<path d="M56.92 22.51C52.92 21.8 49.21 21.29 47.68 21.44C47.68 21.44 49.95 9.44 37.28 0.71L37 0.53C39.3444 0.21657 41.7051 0.0396052 44.07 0C44.07 0 56.25 7.56 56.65 20.36L56.92 22.51Z" fill="#00C5C5"/>
<path d="M56.5202 18.6598C56.5902 19.2198 56.6302 19.7798 56.6502 20.3598L56.9202 22.5098C52.9202 21.7998 49.2102 21.2898 47.6802 21.4398C47.8599 20.2418 47.8969 19.0266 47.7902 17.8198C47.7902 17.8198 53.9402 18.1798 56.1002 18.5698L56.5202 18.6598Z" fill="#009791"/>
<path d="M63.4701 23.7502C67.9401 24.6402 71.5601 25.4502 71.5601 25.4502C74.3901 10.4102 59.6701 2.0002 59.6701 2.0002C57.1838 1.28872 54.6462 0.770511 52.0801 0.450195C52.0801 0.450195 63.5401 7.39019 63.4201 21.4502L63.4701 23.7502Z" fill="#FF0000"/>
<path d="M71.9002 22.58C71.8581 23.5438 71.7445 24.5031 71.5602 25.45C71.5602 25.45 67.9402 24.64 63.4702 23.75V21.47C63.4702 20.98 63.4702 20.47 63.4702 20.04C63.4702 20.04 69.6702 21.67 71.4702 22.36L71.9002 22.58Z" fill="#CF0000"/>
<path d="M39.78 39.2798C41.1552 39.2798 42.27 38.165 42.27 36.7898C42.27 35.4146 41.1552 34.2998 39.78 34.2998C38.4048 34.2998 37.29 35.4146 37.29 36.7898C37.29 38.165 38.4048 39.2798 39.78 39.2798Z" fill="#003438"/>
<path d="M76.3198 41.58C77.4575 41.58 78.3798 40.6577 78.3798 39.52C78.3798 38.3823 77.4575 37.46 76.3198 37.46C75.1821 37.46 74.2598 38.3823 74.2598 39.52C74.2598 40.6577 75.1821 41.58 76.3198 41.58Z" fill="#003438"/>
<path d="M68.2599 47.6598C68.2599 47.6598 63.8199 42.1698 53.2099 42.8698C53.2099 42.8698 49.7099 57.0198 57.6199 58.5698C65.5299 60.1198 68.2599 47.6598 68.2599 47.6598Z" fill="#840027"/>
<path d="M63.5901 56.7199C62.8261 57.5076 61.8758 58.09 60.8271 58.4133C59.7784 58.7367 58.6651 58.7905 57.5901 58.5699C53.5401 57.7799 52.4802 53.6799 52.4102 49.8599C52.4102 49.8599 60.1102 50.3499 63.5602 56.7199H63.5901Z" fill="#FF0000"/>
<path d="M52.6299 46.2798C52.7581 45.133 52.9518 43.9945 53.2099 42.8698C63.8199 42.1698 68.2599 47.6598 68.2599 47.6598C68.2599 47.6598 64.4599 51.5998 54.1699 47.0198L52.6299 46.2798Z" fill="white"/>
<path d="M73.7498 31.4301C73.7498 31.4301 68.7498 32.9801 69.0898 35.5601C69.4298 38.1401 71.2198 37.4101 74.3898 36.3701C77.5598 35.3301 80.7198 35.6401 80.7498 33.0401C80.7798 30.4401 78.3998 30.0001 73.7498 31.4301Z" fill="#62361A"/>
<path d="M46.6998 28.6302C46.6998 28.6302 43.0998 25.3702 38.6298 25.3902C34.1598 25.4102 32.6298 28.8502 34.2698 29.9302C35.9098 31.0102 41.0998 32.1902 44.7698 34.5502C48.4398 36.9102 50.4098 33.4902 49.4598 31.7802C48.7185 30.5861 47.7861 29.522 46.6998 28.6302V28.6302Z" fill="#62361A"/>
<path d="M11 54.1C11 54.1 24.59 57.66 28.1 37.3L31.1 20.16C31.1 20.16 59 16.07 83.4 28.09C83.4 28.09 89.4 41.58 83.97 50.87C85.458 44.1206 84.8259 37.0765 82.16 30.7C82.16 30.7 67.33 21.92 32.35 22.7C32.35 22.7 30.41 44.31 24.56 50.2C18.71 56.09 14.05 55.31 11 54.1Z" fill="#811897"/>
</svg>
