<svg width="42" height="20" viewBox="0 0 42 20" fill="none" xmlns="http://www.w3.org/2000/svg">
<path d="M1.1499 13.0698C1.1499 13.0698 2.4699 0.639781 10.9699 0.129781C19.4699 -0.380219 37.5299 1.88977 40.1299 15.1798C40.1299 15.1798 16.8299 21.5298 1.1499 13.0698Z" fill="#811897"/>
<path d="M40.1302 15.1801C37.8502 3.51007 23.6602 0.330078 14.4702 0.0800781C14.4702 0.0800781 34.8102 1.58007 38.1802 14.1801L40.1302 15.1801Z" fill="#A732C6"/>
<path d="M5.29004 14.9202C5.29004 14.9202 7.42004 8.78019 12.19 5.75019C12.3883 5.62293 12.6133 5.54319 12.8475 5.51717C13.0816 5.49115 13.3187 5.51956 13.54 5.60019H13.64C13.8884 5.69125 14.109 5.84515 14.2802 6.04689C14.4513 6.24864 14.5672 6.49132 14.6166 6.75124C14.666 7.01116 14.6471 7.27945 14.5618 7.5299C14.4765 7.78035 14.3278 8.0044 14.13 8.18018C12.19 9.92018 9.50004 12.7502 8.45004 15.8702L5.29004 14.9202Z" fill="#FF9900"/>
<path d="M11.8501 16.65C11.8501 16.65 13.7901 10.34 18.6401 7.41995C18.9639 7.22444 19.349 7.1567 19.7201 7.22995C19.9963 7.28254 20.2527 7.41024 20.4611 7.59902C20.6695 7.78779 20.8219 8.03033 20.9014 8.30002C20.981 8.56971 20.9847 8.85612 20.9121 9.12778C20.8396 9.39944 20.6935 9.64585 20.4901 9.83995C18.5801 11.64 16.2701 14.35 15.8201 17.21L11.8501 16.65Z" fill="#FF9900"/>
<path opacity="0.35" d="M40.1299 15.1799C40.1299 15.1799 16.8299 21.5299 1.12988 13.0699C1.12988 13.0699 2.44988 0.639883 10.9499 0.129883C10.9499 0.129883 6.60989 12.8199 29.3299 17.0499L40.1299 15.1799Z" fill="#400454"/>
<path d="M18.39 15.9098C18.39 15.9098 8.76002 15.4198 1.33002 11.9098C1.33002 11.9098 -0.349979 13.9098 2.86002 15.6098C6.07002 17.3098 22.76 21.3298 34.07 19.5598C45.38 17.7898 39.83 13.9598 39.83 13.9598C39.83 13.9598 36.78 14.2598 31.15 12.3298C25.52 10.3998 23.93 12.0698 22.62 14.0298C21.31 15.9898 18.39 15.9098 18.39 15.9098Z" fill="#DEC9E4"/>
<path d="M38.2102 13.8999C38.7492 13.9464 39.2912 13.9464 39.8302 13.8999C39.8302 13.8999 44.2202 16.8999 37.2402 18.8499C38.0001 17.3751 38.3063 15.7084 38.1202 14.0599V13.8599L38.2102 13.8999Z" fill="#F3E9F6"/>
</svg>
