<svg width="39" height="28" viewBox="0 0 39 28" fill="none" xmlns="http://www.w3.org/2000/svg">
<path d="M2.7402 26.2002C2.7402 26.2002 -4.4298 10.4102 7.0002 4.4702C18.4302 -1.4698 33.1902 -0.339803 37.0002 7.7202C41.7702 17.7602 9.0002 28.5802 2.7402 26.2002Z" fill="#811897"/>
<path d="M8.75001 26.1999C8.75001 26.1999 7.67001 18.4099 9.75001 12.1999C9.83624 11.9339 9.99705 11.6982 10.2133 11.521C10.4296 11.3437 10.6922 11.2323 10.97 11.1999H11.22C11.46 11.1693 11.7038 11.1979 11.9302 11.2833C12.1565 11.3688 12.3585 11.5084 12.5183 11.69C12.6782 11.8716 12.7911 12.0896 12.8472 12.3249C12.9033 12.5603 12.9008 12.8057 12.84 13.0399C12.08 15.9099 11.05 21.1899 12.11 25.5299L8.75001 26.1999Z" fill="#FF9900"/>
<path d="M6.14978 11.6802C5.86177 11.7026 5.58677 11.8095 5.35912 11.9873C5.13147 12.1652 4.96127 12.4061 4.86978 12.6802C4.13978 15.0102 2.55978 21.2002 4.18978 26.4602L6.98978 26.4002C6.48539 22.0974 6.72898 17.7399 7.70978 13.5202C7.76807 13.2914 7.77077 13.0519 7.71765 12.8219C7.66454 12.5918 7.55715 12.3778 7.40447 12.1977C7.25178 12.0176 7.05821 11.8767 6.83994 11.7866C6.62168 11.6966 6.38504 11.6601 6.14978 11.6802V11.6802Z" fill="#FF9900"/>
<path opacity="0.35" d="M36.9999 7.72021C41.7499 17.7202 8.93993 28.5802 2.71993 26.2002C2.71993 26.2002 -4.45008 10.4102 6.98992 4.47021C6.98992 4.47021 -4.84007 30.3602 31.4999 17.5702L36.9999 7.72021Z" fill="#400454"/>
<path d="M14.5602 23.5699C14.5602 23.5699 4.31016 27.1699 2.31016 25.1299C2.31016 25.1299 1.96017 28.4899 7.80017 27.7899C13.6402 27.0899 29.4202 22.0499 35.5902 16.1299C41.7602 10.2099 35.9802 6.12988 35.9802 6.12988C32.6625 9.24225 28.6879 11.5695 24.3502 12.9399C16.8502 15.3899 12.3202 12.5399 14.5602 23.5699Z" fill="#DEC9E4"/>
<path d="M37.13 14.3801C37.622 13.7713 37.9842 13.0684 38.1945 12.3145C38.4048 11.5606 38.4587 10.7716 38.3529 9.99609C38.247 9.22059 37.9837 8.47493 37.5791 7.80493C37.1745 7.13494 36.6371 6.55477 36 6.1001C36 6.1001 35.58 6.54009 34.77 7.22009C34.77 7.22009 37.77 10.4101 37.15 14.3801H37.13Z" fill="#F3E9F6"/>
<path d="M35.59 16.1299C29.42 22.0499 13.65 27.1299 7.79999 27.7899C1.94999 28.4499 2.30999 25.1299 2.30999 25.1299C4.30999 27.1299 14.56 23.5699 14.56 23.5699C14.37 22.6599 14.23 21.8399 14.14 21.0999C14.14 21.0999 26.43 20.7799 34.5 16.6599L35.59 16.1299Z" fill="#BEB3C3"/>
</svg>
