<svg width="1728" height="7129" viewBox="0 0 1728 7129" fill="none" xmlns="http://www.w3.org/2000/svg">
<path d="M142.053 0C142.053 0 215.024 144.88 30.1621 189.557C30.1621 189.557 81.6694 218.034 30.1621 259.054C30.1621 259.054 145.556 343.86 30.1621 432.5C30.1621 432.5 218.26 510.291 30.1621 661.888C30.1621 661.888 79.5022 681.477 93.2177 722.468C93.2177 722.468 279.386 709.924 267.036 865H0.296875V0H142.053Z" fill="#CCCCCC"/>
<path d="M93.099 0H142.053C142.053 0 215.024 144.88 30.1622 189.557C30.1622 189.557 81.6694 218.034 30.1622 259.054C30.1622 259.054 145.556 343.86 30.1622 432.5C30.1622 432.5 218.26 510.291 30.1622 661.888C30.1622 661.888 79.5022 681.477 93.2177 722.468C93.2177 722.468 279.386 709.924 267.036 865C267.036 865 224.613 727.403 86.5084 735.636C86.5084 735.636 94.613 697.232 12.2905 660.016C12.2905 660.016 197.004 534.219 12.2905 432.5C12.2905 432.5 150.662 367.848 12.2905 256.201C12.2905 256.201 81.046 236.404 12.2905 188.725C12.2905 188.725 167.525 147.912 100.135 9.45258L93.099 0Z" fill="white"/>
<path d="M1474.26 0C1474.26 0 1399.57 107.367 1578.47 114.412C1578.47 114.412 1522.42 157.216 1606.1 176.835C1606.1 176.835 1594.5 185.752 1606.1 204.449C1606.1 204.449 1535.81 220.53 1627.51 295.348C1627.51 295.348 1526.93 280.248 1501.16 337.32C1475.39 394.392 1582.32 471.767 1582.32 471.767C1582.32 471.767 1554.75 494.061 1585.95 543.107C1585.95 543.107 1417.68 471.172 1379.62 865.03H1728V0H1474.26Z" fill="#CCCCCC"/>
<path d="M1379.5 865C1417.56 471.143 1585.83 543.077 1585.83 543.077C1554.63 494.061 1582.21 471.737 1582.21 471.737C1582.21 471.737 1475.33 394.274 1501.16 337.231C1526.99 280.189 1627.51 295.259 1627.51 295.259C1535.81 220.471 1606.07 204.39 1606.07 204.39C1594.47 185.693 1606.07 176.775 1606.07 176.775C1522.39 157.216 1578.44 114.352 1578.44 114.352C1399.57 107.367 1474.26 0 1474.26 0H1523.34C1523.34 0 1416.46 86.2027 1599.42 112.509C1599.42 112.509 1526.6 147.466 1618.07 173C1618.07 173 1593.28 184.652 1618.84 207.927C1618.84 207.927 1542.13 213.396 1646.81 298.678C1646.81 298.678 1533.1 287.085 1520.52 339.877C1507.93 392.668 1619.76 475.601 1619.76 475.601C1619.76 475.601 1557.77 461.69 1603.52 550.092C1603.52 550.092 1418.16 492.426 1432.32 865.178L1379.5 865Z" fill="white"/>
<path d="M1728 1749C1728 1749 1455.5 1721.5 1578.47 1567.77C1578.47 1567.77 1522.42 1524.96 1606.1 1505.34C1606.1 1505.34 1594.5 1496.43 1606.1 1477.73C1606.1 1477.73 1535.81 1461.65 1627.51 1386.83C1627.51 1386.83 1526.93 1401.93 1501.16 1344.86C1475.39 1287.79 1582.33 1210.41 1582.33 1210.41C1582.33 1210.41 1554.75 1188.12 1585.95 1139.07C1585.95 1139.07 1365 1147 1423.5 817.149H1728V1682.18L1728 1749Z" fill="#CCCCCC"/>
<path d="M1386 811.5C1338 1162 1585.83 1139.1 1585.83 1139.1C1554.63 1188.12 1582.21 1210.44 1582.21 1210.44C1582.21 1210.44 1475.33 1287.9 1501.16 1344.95C1526.99 1401.99 1627.51 1386.92 1627.51 1386.92C1535.81 1461.71 1606.07 1477.79 1606.07 1477.79C1594.47 1496.49 1606.07 1505.4 1606.07 1505.4C1522.39 1524.96 1578.44 1567.83 1578.44 1567.83C1429 1688.5 1730 1776 1730 1776V1747C1730 1747 1487 1674.5 1599.42 1569.67C1599.42 1569.67 1526.6 1534.71 1618.07 1509.18C1618.07 1509.18 1593.28 1497.53 1618.84 1474.25C1618.84 1474.25 1542.13 1468.78 1646.81 1383.5C1646.81 1383.5 1533.1 1395.09 1520.52 1342.3C1507.93 1289.51 1619.76 1206.58 1619.76 1206.58C1619.76 1206.58 1557.77 1220.49 1603.52 1132.09C1603.52 1132.09 1415.84 1189.93 1430 817.178L1386 811.5Z" fill="white"/>
<path d="M1727.7 1664C1727.7 1664 1455.2 1691.5 1578.17 1845.23C1578.17 1845.23 1522.12 1888.04 1605.81 1907.66C1605.81 1907.66 1594.2 1916.57 1605.81 1935.27C1605.81 1935.27 1535.51 1951.35 1627.21 2026.17C1627.21 2026.17 1526.63 2011.07 1500.86 2068.14C1475.09 2125.21 1582.03 2202.59 1582.03 2202.59C1582.03 2202.59 1554.45 2224.88 1585.65 2273.93C1585.65 2273.93 1412.7 2488 1727.7 2595.85L1727.7 1730.82L1727.7 1664Z" fill="#CCCCCC"/>
<path d="M1727.7 3495C1727.7 3495 1455.2 3522.5 1578.17 3676.23C1578.17 3676.23 1522.12 3719.04 1605.81 3738.66C1605.81 3738.66 1594.2 3747.57 1605.81 3766.27C1605.81 3766.27 1535.51 3782.35 1627.21 3857.17C1627.21 3857.17 1526.63 3842.07 1500.86 3899.14C1475.09 3956.21 1582.03 4033.59 1582.03 4033.59C1582.03 4033.59 1554.45 4055.88 1585.65 4104.93C1585.65 4104.93 1412.7 4319 1727.7 4426.85L1727.7 3561.82L1727.7 3495Z" fill="#CCCCCC"/>
<path d="M0.000106812 2553C0.000106812 2553 272.5 2580.5 149.534 2734.23C149.534 2734.23 205.584 2777.04 121.896 2796.66C121.896 2796.66 133.503 2805.57 121.896 2824.27C121.896 2824.27 192.195 2840.35 100.491 2915.17C100.491 2915.17 201.071 2900.07 226.84 2957.14C252.608 3014.21 145.675 3091.59 145.675 3091.59C145.675 3091.59 173.255 3113.88 142.053 3162.93C142.053 3162.93 315 3377 9.15527e-05 3484.85L0.000137329 2619.82L0.000106812 2553Z" fill="#CCCCCC"/>
<path d="M0.000106812 4384C0.000106812 4384 272.5 4411.5 149.534 4565.23C149.534 4565.23 205.584 4608.04 121.896 4627.66C121.896 4627.66 133.503 4636.57 121.896 4655.27C121.896 4655.27 192.195 4671.35 100.491 4746.17C100.491 4746.17 201.071 4731.07 226.84 4788.14C252.608 4845.21 145.675 4922.59 145.675 4922.59C145.675 4922.59 173.255 4944.88 142.053 4993.93C142.053 4993.93 315 5208 9.15527e-05 5315.85L0.000137329 4450.82L0.000106812 4384Z" fill="#CCCCCC"/>
<path d="M0 2585C0 2585 181.703 2513 29.8653 2450.44C29.8653 2450.44 81.3725 2421.97 29.8653 2380.95C29.8653 2380.95 145.259 2296.14 29.8653 2207.5C29.8653 2207.5 217.963 2129.71 29.8653 1978.11C29.8653 1978.11 79.2053 1958.52 92.9208 1917.53C92.9208 1917.53 191.703 1721.5 0 1654V1775V2640V2585Z" fill="#CCCCCC"/>
<path d="M0 4416C0 4416 181.703 4344 29.8653 4281.44C29.8653 4281.44 81.3725 4252.97 29.8653 4211.95C29.8653 4211.95 145.259 4127.14 29.8653 4038.5C29.8653 4038.5 217.963 3960.71 29.8653 3809.11C29.8653 3809.11 79.2053 3789.52 92.9208 3748.53C92.9208 3748.53 191.703 3552.5 0 3485V3606V4471V4416Z" fill="#CCCCCC"/>
<path d="M0 6209C0 6209 181.703 6137 29.8653 6074.44C29.8653 6074.44 81.3725 6045.97 29.8653 6004.95C29.8653 6004.95 145.259 5920.14 29.8653 5831.5C29.8653 5831.5 217.963 5753.71 29.8653 5602.11C29.8653 5602.11 79.2053 5582.52 92.9208 5541.53C92.9208 5541.53 191.703 5345.5 0 5278V5399V6264V6209Z" fill="#CCCCCC"/>
<path d="M0 7125C0 7125 181.703 7053 29.8653 6990.44C29.8653 6990.44 81.3725 6961.97 29.8653 6920.95C29.8653 6920.95 145.259 6836.14 29.8653 6747.5C29.8653 6747.5 217.963 6669.71 29.8653 6518.11C29.8653 6518.11 79.2053 6498.52 92.9208 6457.53C92.9208 6457.53 191.703 6261.5 0 6194V6315V7180V7125Z" fill="#CCCCCC"/>
<path d="M1727.7 3505C1727.7 3505 1546 3433 1697.84 3370.44C1697.84 3370.44 1646.33 3341.97 1697.84 3300.95C1697.84 3300.95 1582.44 3216.14 1697.84 3127.5C1697.84 3127.5 1509.74 3049.71 1697.84 2898.11C1697.84 2898.11 1648.5 2878.52 1634.78 2837.53C1634.78 2837.53 1536 2641.5 1727.7 2574V2695V3560V3505Z" fill="#CCCCCC"/>
<path d="M1727.7 5336C1727.7 5336 1546 5264 1697.84 5201.44C1697.84 5201.44 1646.33 5172.97 1697.84 5131.95C1697.84 5131.95 1582.44 5047.14 1697.84 4958.5C1697.84 4958.5 1509.74 4880.71 1697.84 4729.11C1697.84 4729.11 1648.5 4709.52 1634.78 4668.53C1634.78 4668.53 1536 4472.5 1727.7 4405V4526V5391V5336Z" fill="#CCCCCC"/>
<path d="M1727.7 6028C1727.7 6028 1546 5956 1697.84 5893.44C1697.84 5893.44 1646.33 5864.97 1697.84 5823.95C1697.84 5823.95 1582.44 5739.14 1697.84 5650.5C1697.84 5650.5 1509.74 5572.71 1697.84 5421.11C1697.84 5421.11 1648.5 5401.52 1634.78 5360.53C1634.78 5360.53 1536 5164.5 1727.7 5097V5218V6083V6028Z" fill="#CCCCCC"/>
<path d="M1735.27 7141.56C1735.27 7141.56 1515.78 7054.6 1699.19 6979.03C1699.19 6979.03 1636.98 6944.63 1699.19 6895.09C1699.19 6895.09 1559.81 6792.65 1699.19 6685.58C1699.19 6685.58 1471.99 6591.61 1699.19 6408.5C1699.19 6408.5 1639.59 6384.84 1623.03 6335.32C1623.03 6335.32 1503.71 6098.53 1735.27 6017V6163.16V7208V7141.56Z" fill="#CCCCCC"/>
<path d="M0.296875 1675C0.296875 1675 182 1603 30.1621 1540.44C30.1621 1540.44 81.6694 1511.97 30.1621 1470.95C30.1621 1470.95 145.556 1386.14 30.1621 1297.5C30.1621 1297.5 218.26 1219.71 30.1621 1068.11C30.1621 1068.11 79.5022 1048.52 93.2177 1007.53C93.2177 1007.53 279.386 1020.08 267.036 865H0.296875V1730V1675Z" fill="#CCCCCC"/>
<path d="M93.099 1730H142.053C142.053 1730 215.024 1585.12 30.1622 1540.44C30.1622 1540.44 81.6694 1511.97 30.1622 1470.95C30.1622 1470.95 145.556 1386.14 30.1622 1297.5C30.1622 1297.5 218.26 1219.71 30.1622 1068.11C30.1622 1068.11 79.5022 1048.52 93.2177 1007.53C93.2177 1007.53 279.386 1020.08 267.036 865C267.036 865 224.613 1002.6 86.5084 994.364C86.5084 994.364 94.613 1032.77 12.2905 1069.98C12.2905 1069.98 197.004 1195.78 12.2905 1297.5C12.2905 1297.5 150.662 1362.15 12.2905 1473.8C12.2905 1473.8 81.046 1493.6 12.2905 1541.28C12.2905 1541.28 167.525 1582.09 100.135 1720.55L93.099 1730Z" fill="white"/>
</svg>
