<svg width="349" height="866" viewBox="0 0 349 866" fill="none" xmlns="http://www.w3.org/2000/svg">
<path d="M95.2637 0C95.2637 0 20.5709 107.367 199.466 114.412C199.466 114.412 143.416 157.216 227.104 176.835C227.104 176.835 215.497 185.752 227.104 204.449C227.104 204.449 156.805 220.53 248.509 295.348C248.509 295.348 147.929 280.248 122.16 337.32C96.3918 394.392 203.325 471.767 203.325 471.767C203.325 471.767 175.745 494.061 206.947 543.107C206.947 543.107 38.68 471.172 0.621094 865.03H349V0H95.2637Z" fill="#CCCCCC"/>
<path d="M0.502441 865C38.5614 471.143 206.828 543.077 206.828 543.077C175.627 494.061 203.206 471.737 203.206 471.737C203.206 471.737 96.3326 394.274 122.16 337.231C147.988 280.189 248.509 295.259 248.509 295.259C156.805 220.471 227.075 204.39 227.075 204.39C215.467 185.693 227.075 176.775 227.075 176.775C143.387 157.216 199.436 114.352 199.436 114.352C20.571 107.367 95.2639 0 95.2639 0H144.337C144.337 0 37.463 86.2027 220.425 112.509C220.425 112.509 147.602 147.466 239.068 173C239.068 173 214.28 184.652 239.84 207.927C239.84 207.927 163.129 213.396 267.805 298.678C267.805 298.678 154.104 287.085 141.516 339.877C128.929 392.668 240.761 475.601 240.761 475.601C240.761 475.601 178.774 461.69 224.522 550.092C224.522 550.092 39.1551 492.426 53.3159 865.178L0.502441 865Z" fill="white"/>
</svg>
