<svg width="1728" height="1061" viewBox="0 0 1728 1061" fill="none" xmlns="http://www.w3.org/2000/svg">
<g opacity="0.5" clip-path="url(#clip0_0_1)">
<path d="M1728 0H0V1061H1728V0Z" fill="url(#paint0_radial_0_1)"/>
<path d="M1300.09 0C1300.09 0 1278.74 14.9123 1292.99 56.4408C1292.99 56.4408 1254.73 52.102 1224.48 83.8226C1194.22 115.543 1204.94 168.01 1204.94 168.01C1204.94 168.01 1185.35 182.229 1190.72 207.351C1190.72 207.351 1155.1 231.451 1189.77 275.131C1189.77 275.131 1172.38 291.283 1183.36 318.592C1183.36 318.592 1154.89 326.285 1165.87 367.084C1165.87 367.084 1144.83 388.231 1134.14 393.7C1134.14 393.7 1280.73 351.37 1459.54 151.202C1457.91 155.336 1457.14 159.894 1457.27 164.481C1457.41 169.068 1458.45 173.546 1460.31 177.526C1460.31 177.526 1435.79 187.808 1435.4 214.716C1435.4 214.716 1402.48 218.726 1405.72 275.568C1405.72 275.568 1375.41 327.816 1292.67 390.2C1292.67 390.2 1486.61 288.512 1702.62 0.072921L1300.09 0Z" fill="#D9ECD7"/>
<path d="M1292.73 390.127C1375.47 327.743 1405.78 275.495 1405.78 275.495C1402.48 218.654 1435.46 214.643 1435.46 214.643C1435.85 187.735 1460.37 177.453 1460.37 177.453C1458.51 173.473 1457.46 168.996 1457.33 164.408C1457.2 159.821 1457.97 155.263 1459.6 151.129C1459.6 151.129 1457.28 166.953 1470.37 180.479C1470.37 180.479 1443.66 179.823 1442.05 218.836C1442.05 218.836 1402.48 225.545 1414.74 274.037C1414.74 274.037 1371.58 343.057 1292.79 390.127H1292.73Z" fill="white"/>
<g opacity="0.82">
<path d="M951.988 790.159C951.988 790.159 949.324 787.738 947.352 789.129C945.381 790.52 948.569 795.647 951.988 797.502C955.408 799.357 955.869 796.214 954.925 794.591C953.981 792.967 951.988 790.159 951.988 790.159Z" fill="#5082B4"/>
<path d="M951.988 797.476C950.661 796.713 949.465 795.646 948.464 794.333C948.464 794.333 947.017 792.092 947.709 791.216C948.401 790.34 951.191 791.937 952.576 794.333C953.96 796.729 953.562 797.167 953.1 797.476C952.742 797.645 952.346 797.645 951.988 797.476V797.476Z" fill="#619AC9"/>
<path d="M794.617 736.391C794.617 736.391 796.715 733.274 798.938 734.073C801.162 734.871 798.938 740.745 795.981 743.502C793.023 746.259 791.953 743.347 792.582 741.492C793.212 739.637 794.617 736.391 794.617 736.391Z" fill="#5082B4"/>
<path d="M795.981 743.502C797.136 742.393 798.105 741.019 798.834 739.457C798.834 739.457 799.819 736.881 798.98 736.211C798.141 735.541 795.729 737.886 794.785 740.616C793.841 743.347 794.323 743.656 794.785 743.837C795.204 743.923 795.633 743.802 795.981 743.502V743.502Z" fill="#619AC9"/>
<path d="M854.654 676.646C854.654 676.646 855.724 675.075 856.752 675.461C857.78 675.847 856.752 678.836 855.262 680.227C853.773 681.618 853.165 680.227 853.563 679.222C853.962 678.218 854.654 676.646 854.654 676.646Z" fill="#619AC9"/>
<path d="M881.379 685.612C881.379 685.612 881.673 686.488 882.218 686.488C882.763 686.488 882.617 684.968 882.092 684.092C881.568 683.216 881.148 683.783 881.19 684.246C881.232 684.71 881.379 685.612 881.379 685.612Z" fill="#619AC9"/>
<path d="M855.975 673.245C855.975 673.245 856.248 672.859 856.521 672.962C856.794 673.065 856.521 673.812 856.143 674.173C855.766 674.534 855.64 674.173 855.703 673.915L855.975 673.245Z" fill="#619AC9"/>
<path d="M855.325 680.227C855.915 679.676 856.407 678.984 856.773 678.192C856.773 678.192 857.255 676.904 856.773 676.569C856.29 676.234 855.136 677.393 854.675 678.784C854.213 680.176 854.444 680.305 854.675 680.382C854.785 680.423 854.902 680.43 855.016 680.403C855.129 680.376 855.235 680.316 855.325 680.227V680.227Z" fill="#71AFDB"/>
<path d="M950.667 825.61C950.667 825.61 952.66 830.479 954.862 830.479C957.065 830.479 958.093 810.023 954.862 806.184C951.632 802.345 941.584 799.099 942.066 807.343C942.549 815.588 948.59 819.452 950.667 825.61Z" fill="#619AC9"/>
<path d="M956.666 812.032C956.297 810.985 955.684 810.096 954.903 809.477C954.123 808.858 953.211 808.537 952.282 808.554C951.829 808.547 951.38 808.667 950.97 808.905C950.56 809.142 950.2 809.492 949.916 809.927C949.633 810.362 949.434 810.87 949.335 811.414C949.236 811.957 949.24 812.521 949.345 813.063C949.345 813.063 945.8 804.458 942.57 810.28L942.842 811.285C942.842 811.285 944.751 803.737 949.786 814.712C950.844 817.28 951.728 819.952 952.429 822.698C952.702 828.057 950.667 825.61 950.667 825.61C950.667 825.61 952.66 830.479 954.862 830.479C956.666 830.479 957.568 819.426 956.666 812.032Z" fill="#5082B4"/>
<path d="M945.716 817.108C945.619 816.302 945.661 815.48 945.838 814.694C946.015 813.909 946.323 813.178 946.744 812.548L947.184 813.166C946.373 814.448 945.977 816.055 946.073 817.674L945.716 817.108Z" fill="#5082B4"/>
<path d="M772.549 763.7C772.549 763.7 774.647 764.525 777.563 759.269C780.478 754.013 789.939 743.579 787.485 738.349C785.031 733.119 776.409 735.103 773.85 740.694C771.29 746.284 770.263 762.077 772.549 763.7Z" fill="#5082B4"/>
<path d="M771.332 754.812C771.144 759.192 771.5 762.953 772.549 763.7C772.549 763.7 774.647 764.525 777.563 759.269C780.479 754.013 789.939 743.579 787.485 738.349C787.485 738.349 782.199 735.773 778.737 746.078C775.276 756.384 774.71 757.981 773.451 758.805C771.626 759.99 771.332 754.812 771.332 754.812Z" fill="#619AC9"/>
<path d="M781.842 744.635C781.842 744.635 784.926 746.027 784.821 748.294L784.191 749.299C784.191 749.299 784.359 746.722 781.527 745.795C781.527 745.795 781.087 744.919 781.842 744.635Z" fill="#5082B4"/>
<path d="M783.436 750.484C783.436 750.484 782.87 747.727 780.898 747.418C780.898 747.418 780.143 747.418 780.479 748.397C781.074 748.528 781.622 748.879 782.05 749.404C782.477 749.929 782.764 750.603 782.87 751.334L783.436 750.484Z" fill="#5082B4"/>
<path d="M871.75 661.703C871.75 661.703 857.066 737.499 836.299 780.575C815.531 823.652 728.014 1000.8 594.536 1119.93H1059.01C1059.01 1119.93 900.657 872.318 880.162 753.678L875.967 701.353C875.967 701.353 877.33 695.943 872.652 689.734C872.652 689.734 872.107 666.882 873.869 658.354C873.1 659.408 872.392 660.527 871.75 661.703V661.703Z" fill="#38BEE4"/>
<path d="M872.569 689.682C872.569 689.682 841.564 820.328 808.001 1102.95L806.323 1119.88H1059.01C1059.01 1119.88 904.957 872.963 884.463 754.322L878.547 720.315L876.785 694.242L872.569 689.682Z" fill="#009DB4"/>
<path d="M864.597 735.206C867.974 715.781 870.177 706.222 870.177 706.222L878.002 712.071L878.295 716.553L904.601 1119.93H830.656C831.761 1086.06 833.159 1054.34 834.851 1024.79L877.96 1030.97L876.659 943.528L841.291 930.234C844.123 895.583 847.165 865.079 850.186 838.594L872.673 845.293L873.156 805.617L855.178 798.12C857.171 783.023 859.101 769.78 860.863 758.496L873.177 764.009L873.68 740.823L864.597 735.206Z" fill="#3CBFD3"/>
<path opacity="0.3" d="M871.247 732.501L866.821 730.182C866.821 730.182 838.019 915.678 839.844 1119.93H1016.05L871.247 732.501Z" fill="#1D597F"/>
<path d="M876.722 715.446L868.541 725.055C868.541 725.055 839.718 918.976 850.039 1119.93H1020.6L876.722 715.446Z" fill="#6BA2CF"/>
<path d="M932.144 1119.93H1187.42C912.467 881.181 887.441 722.891 887.441 722.891L876.953 715.471C876.953 715.471 871.436 939.587 932.144 1119.93Z" fill="#5082B4"/>
<path d="M932.144 1119.93H1187.42C912.467 881.181 887.441 722.891 887.441 722.891L876.953 715.471C876.953 715.471 871.436 939.587 932.144 1119.93Z" fill="url(#paint1_radial_0_1)"/>
<path d="M878.547 720.366C878.547 720.366 884.127 978.566 970.511 1119.93H1020.6C1020.6 1119.93 913.139 1003.99 880.351 721.423L878.547 720.366Z" fill="url(#paint2_radial_0_1)"/>
<path d="M881.61 722.041C881.61 722.041 921.005 1002.14 1032.69 1119.93H1097.36C1097.36 1119.93 947.226 1028.37 883.393 723.175L881.61 722.041Z" fill="url(#paint3_radial_0_1)"/>
<path d="M884.714 723.638L886.162 724.282C886.162 724.282 926.249 921.784 1178.42 1119.93H1114.52C1114.52 1119.93 965.057 1031.25 884.714 723.638Z" fill="url(#paint4_radial_0_1)"/>
<path d="M918.613 1119.93H892.874C854.948 956.307 873.156 723.355 873.156 723.355L875.086 721.5C875.086 721.5 868.793 938.582 918.613 1119.93Z" fill="#89D7FF"/>
<path d="M887.064 1119.93H861.325C841.69 951.566 869.715 726.369 869.715 726.369L871.645 724.514C871.645 724.514 849.787 938.582 887.064 1119.93Z" fill="#89D7FF"/>
<path opacity="0.3" d="M407.063 1104.99C504.355 1074.9 706.807 990.598 824.719 785.264C824.719 785.264 832.691 772.537 842.739 773.722C852.787 774.907 851.78 790.803 850.186 798.558C850.186 798.558 820.965 961.46 761.977 1119.93H407.063" fill="#007383"/>
<path d="M823.356 769.394C823.356 769.394 831.747 756.074 842.236 757.311C852.724 758.548 851.717 775.191 850.039 783.332C850.039 783.332 813.706 958.935 743.349 1119.93" fill="#3CA4B0"/>
<path d="M418.915 1093.16C481.792 1070.75 542.619 1040.44 600.431 1002.71C631.558 982.266 661.489 959.186 690.004 933.635C702.031 922.815 713.862 911.384 725.497 899.344C738.964 885.381 752.117 870.592 764.787 854.903C771.248 846.899 777.591 838.654 783.814 830.17C790.89 820.534 797.757 810.598 804.413 800.362C807.868 795.054 811.28 789.644 814.65 784.131C814.65 784.131 828.537 767.642 839.571 773.825C850.605 780.009 846.116 801.134 846.116 801.134C844.878 806.493 843.368 812.986 841.564 820.431C838.816 831.767 835.418 845.396 831.348 860.777C828.642 871.082 825.621 882.263 822.307 894.088C815.804 917.275 808.189 942.884 799.463 970.013C792.981 990.108 785.891 1011 778.192 1032.26C767.703 1061.24 756.082 1090.84 743.349 1119.98" fill="#007CC1"/>
<path d="M418.915 1093.16C481.792 1070.75 542.619 1040.44 600.431 1002.71C631.558 982.266 661.489 959.186 690.004 933.635C702.031 922.815 713.862 911.384 725.497 899.344C738.964 885.38 752.117 870.592 764.787 854.902C771.248 846.899 777.591 838.654 783.814 830.17C790.89 820.534 797.757 810.598 804.413 800.362C807.875 795.054 810.371 791.138 813.706 785.651C813.706 785.651 828.39 769.291 839.34 775.345C850.291 781.4 845.172 805.05 845.172 805.05C843.934 810.435 843.368 812.779 841.564 820.302C838.816 831.638 835.418 845.267 831.348 860.648C828.642 870.953 825.621 882.134 822.307 893.96C815.804 917.147 808.189 942.755 799.463 969.884C792.981 989.98 785.891 1010.87 778.192 1032.13C767.703 1061.11 756.082 1090.71 743.349 1119.85" fill="#008FE6"/>
<path d="M418.915 1093.16C481.792 1070.75 542.619 1040.44 600.431 1002.71C631.558 982.266 661.489 959.186 690.004 933.635C702.031 922.815 713.862 911.384 725.497 899.344C738.964 885.381 752.117 870.592 764.787 854.903C771.248 846.899 777.591 838.654 783.814 830.17C790.89 820.534 797.757 810.598 804.413 800.362C804.413 800.362 823.838 781.915 833.32 788.407C842.802 794.9 841.564 820.38 841.564 820.38C838.816 831.715 835.418 845.344 831.348 860.725C828.642 871.03 825.621 882.212 822.307 894.037C815.804 917.224 808.189 942.833 799.463 969.961C792.981 990.057 785.891 1010.95 778.192 1032.21C767.703 1061.19 756.082 1090.79 743.349 1119.93" fill="#3CA4B0"/>
<path d="M418.915 1093.16C481.792 1070.75 542.619 1040.44 600.431 1002.71C631.558 982.266 661.489 959.186 690.004 933.635C702.031 922.815 713.862 911.384 725.497 899.344C738.964 885.38 752.117 870.592 764.787 854.902C771.248 846.899 777.591 838.654 783.814 830.17C783.814 830.17 809.469 806.983 821.846 814.325C834.222 821.668 834.642 848.384 831.348 860.699C828.558 871.236 825.621 882.186 822.307 894.011C815.804 917.198 808.189 942.807 799.463 969.936C792.981 990.031 785.891 1010.93 778.192 1032.18C767.703 1061.16 756.082 1090.77 743.349 1119.9" fill="#007CC1"/>
<path d="M418.915 1093.16C481.792 1070.75 542.619 1040.44 600.431 1002.71C631.558 982.266 661.489 959.186 690.004 933.635C702.031 922.815 713.862 911.384 725.497 899.344C738.964 885.38 752.117 870.592 764.787 854.902C771.248 846.89 774.374 843.026 780.583 834.549C780.583 834.549 809.007 810.847 821.384 818.267C833.761 825.687 831.621 859.72 828.306 872.061C825.517 882.546 825.621 882.212 822.307 894.037C815.804 917.224 808.189 942.833 799.463 969.961C792.981 990.057 785.891 1010.95 778.192 1032.21C767.703 1061.19 756.082 1090.79 743.349 1119.93" fill="#008FE6"/>
<path d="M418.915 1093.16C481.792 1070.75 542.619 1040.44 600.431 1002.71C631.558 982.266 661.489 959.186 690.004 933.635C702.031 922.815 713.862 911.384 725.497 899.344C738.964 885.38 752.117 870.592 764.787 854.902C764.787 854.902 793.589 831.715 812.028 840.681C830.467 849.647 822.307 894.037 822.307 894.037C815.804 917.224 808.189 942.833 799.463 969.961C792.981 990.057 785.891 1010.95 778.192 1032.21C767.703 1061.19 756.082 1090.79 743.349 1119.93" fill="#3CA4B0"/>
<path d="M418.915 1093.16C481.792 1070.75 542.619 1040.44 600.431 1002.71C631.558 982.266 661.489 959.186 690.004 933.635C702.031 922.815 713.862 911.384 725.497 899.344C725.497 899.344 770.892 868.222 795.876 884.814C820.86 901.405 799.463 969.833 799.463 969.833C792.981 989.928 785.891 1010.82 778.192 1032.08C767.703 1061.06 756.082 1090.66 743.349 1119.8" fill="#007CC1"/>
<path d="M418.915 1093.16C481.792 1070.75 542.619 1040.44 600.431 1002.71C631.558 982.266 661.489 959.186 690.004 933.635C702.024 922.815 709.135 916.58 720.756 904.548C720.756 904.548 768.228 872.55 793.212 889.09C818.195 905.63 796.253 979.803 796.253 979.803C789.771 999.924 785.891 1010.9 778.192 1032.15C767.703 1061.14 756.082 1090.74 743.349 1119.88" fill="#008FE6"/>
<path d="M418.915 1093.16C481.792 1070.75 542.619 1040.44 600.431 1002.71C631.558 982.266 661.489 959.186 690.004 933.635C690.004 933.635 750.418 907.202 775.423 930.775C800.428 954.349 778.192 1032.33 778.192 1032.33C767.703 1061.32 756.082 1090.92 743.349 1120.06" fill="#3CA4B0"/>
<path d="M418.915 1093.16C481.792 1070.75 542.619 1040.44 600.431 1002.71C600.431 1002.71 675.949 999.332 697.849 1024.76C719.749 1050.19 720.609 1119.93 720.609 1119.93" fill="#007CC1"/>
<path d="M418.915 1093.16C468.925 1075.13 518.116 1054.03 585.915 1012.06C585.915 1012.06 664.474 1009.22 686.438 1034.65C708.401 1060.08 712.974 1119.93 712.974 1119.93H407.063V1097.36L419.02 1093.16" fill="#008FE6"/>
<path opacity="0.2" d="M407.063 1097.36C515.641 1060.16 708.757 969.163 823.461 769.394C825.081 766.967 826.925 764.78 828.957 762.876C828.957 762.876 720.61 992.015 421.621 1119.93H407.063V1097.36Z" fill="white"/>
<path opacity="0.25" d="M743.349 1119.93C813.706 958.935 850.039 783.332 850.039 783.332C851.109 778.179 851.927 769.523 849.661 763.623C849.661 763.623 796.924 1002.58 647.588 1119.93H743.349Z" fill="#006469"/>
<path d="M868.289 677.883C867.741 676.726 867.392 675.442 867.266 674.112C867.14 672.782 867.238 671.435 867.555 670.154C867.83 668.845 868.354 667.635 869.083 666.623C869.812 665.611 870.726 664.826 871.75 664.331C870.124 665.416 868.901 667.23 868.338 669.395C867.775 671.56 867.916 673.909 868.73 675.95L868.289 677.883Z" fill="#538FB1"/>
<path d="M872.401 678.862C873.974 678.862 876.722 678.192 876.722 674.353C876.719 673.659 876.598 672.973 876.366 672.34C876.134 671.706 875.797 671.14 875.376 670.676C874.955 670.212 874.46 669.862 873.922 669.648C873.385 669.434 872.816 669.36 872.254 669.432C870.435 669.403 868.641 669.956 867.049 671.035C865.457 672.115 864.12 673.684 863.171 675.59C861.618 678.681 859.709 687.57 864.87 692.542L865.185 691.254C863.592 689.296 862.614 686.71 862.422 683.953C862.23 681.196 862.837 678.444 864.136 676.182C864.968 674.443 866.158 673.004 867.587 672.009C869.016 671.014 870.632 670.499 872.275 670.514C872.275 670.514 875.757 670.514 875.757 674.379C875.757 676.955 873.659 677.471 872.401 677.522V678.862Z" fill="#4C80A2"/>
<path d="M876.26 695.943C877.472 695.635 878.556 694.813 879.323 693.621C880.09 692.429 880.491 690.943 880.456 689.425C880.309 687.716 879.805 686.082 878.993 684.683C878.18 683.283 877.087 682.166 875.82 681.438C875.82 681.438 862.352 672.679 850.018 692.387C838.543 710.731 846.641 725.88 853.836 733.377L854.675 730.517C849.85 724.927 841.585 711.555 851.864 693.598C851.864 693.598 861.576 675.925 875.212 683.293C876.204 683.847 877.062 684.708 877.702 685.792C878.342 686.876 878.741 688.146 878.862 689.476C878.862 692.233 877.33 693.573 875.316 694.165L876.26 695.943Z" fill="#447195"/>
<path d="M820.44 718.022C820.44 718.022 823.104 706.248 829.166 708.309C835.229 710.37 827.887 719.748 827.887 719.748L827.027 719.542C827.027 719.542 834.516 710.86 829.125 708.721C823.733 706.583 821.489 718.099 821.489 718.099L820.44 718.022Z" fill="#FF6DDE"/>
<path d="M818.216 776.247C818.216 776.247 818.615 769.291 816.391 769.291C814.168 769.291 811.525 772.177 810.916 783.281H811.923C811.923 783.281 812.154 770.038 816.265 769.987C816.265 769.987 817.734 769.549 817.461 776.943" fill="#FF6DDE"/>
<path d="M870.072 695.943C870.072 695.943 869.212 691.898 867.974 694.268C866.737 696.638 868.751 702.719 868.751 702.719L869.065 702.1C869.065 702.1 867.219 696.355 868.226 694.371C869.233 692.388 869.778 696.638 869.778 696.638L870.072 695.943Z" fill="#FF6DDE"/>
<path d="M896.419 712.199C896.419 712.199 895.664 706.609 893.399 707.201C891.133 707.794 896.419 712.199 896.419 712.199Z" fill="#FF6DDE"/>
<path d="M891.951 732.733C891.951 732.733 890.336 728.405 892.539 728.173C894.741 727.941 896.42 732.733 896.42 732.733L895.56 732.553C895.56 732.553 894.406 728.662 892.665 728.585C890.924 728.508 892.35 732.733 892.35 732.733H891.951Z" fill="#FF6DDE"/>
<path d="M891.637 739.534C893.622 737.742 895.25 735.419 896.399 732.742C897.547 730.064 898.185 727.101 898.265 724.076C898.265 703.723 884.609 697.36 870.324 697.36C856.038 697.36 817.272 703.878 804.539 745.589C797.931 767.256 805.252 779.081 813.79 785.676L819.055 776.968C813.056 771.558 807.371 762.052 811.818 746.49C819.874 718.151 845.613 702.693 870.345 702.693C895.077 702.693 895.098 720.727 895.098 724.051C894.977 726.17 894.478 728.23 893.637 730.087C892.796 731.943 891.633 733.55 890.231 734.794L891.637 739.534Z" fill="#385D80"/>
<path d="M804.455 745.563C817.188 703.852 855.975 697.411 870.24 697.411C884.504 697.411 898.182 703.775 898.182 724.128C898.182 724.128 898.79 710.473 890.777 702.976C882.763 695.479 866.443 693.908 851.318 698.88C836.194 703.852 824.74 709.185 812.909 726.369C812.909 726.369 805.861 737.757 804.728 743.914L804.455 745.563Z" fill="#5895BF"/>
<path d="M745.384 824.115C745.384 824.115 746.39 794.204 757.76 794.204C765.123 794.204 758.222 824.94 758.222 824.94H757.383C757.383 824.94 764.2 796.239 757.676 795.853C748.027 795.286 746.39 824.012 746.39 824.012L745.384 824.115Z" fill="#FF6DDE"/>
<path d="M790.946 772.125C790.946 772.125 794.072 749.273 799.337 750.896C803.91 752.313 799.631 774.933 799.631 774.933L797.533 778.051C797.533 778.051 802.567 752.674 799.4 751.643C794.869 750.123 791.764 772.589 791.764 772.589L790.946 772.125Z" fill="#FF6DDE"/>
<path d="M858.702 736.056C858.702 736.056 861.031 724.128 863.024 724.437C865.017 724.746 859.982 748.088 859.982 748.088L859.206 748.242C859.206 748.242 863.401 726.678 862.877 725.571C862.352 724.463 859.793 735.876 859.793 735.876L858.702 736.056Z" fill="#FF6DDE"/>
<path d="M931.682 789.438C931.682 789.438 929.396 780.524 932.983 780.833C936.57 781.142 941.374 791.885 941.374 791.885L940.493 792.092C940.493 792.092 935.185 781.529 933.256 781.477C931.326 781.426 931.158 784.491 932.249 788.974C933.339 793.457 931.682 789.438 931.682 789.438Z" fill="#FF6DDE"/>
<path d="M927.424 740.616C927.424 740.616 923.627 730.955 917.585 730.801C911.544 730.646 919.788 747.676 919.788 747.676C919.788 747.676 913.495 731.651 917.585 731.728C921.676 731.805 926.102 739.972 926.102 739.972L927.424 742.059V740.616Z" fill="#FF6DDE"/>
<path d="M921.215 808.58C946.828 799.82 952.953 767.359 940.094 751.643C927.235 735.927 892.77 733.068 861.346 738.195C829.922 743.322 784.884 765.684 755.767 806.158C726.651 846.632 759.229 861.704 759.229 861.704L767.368 851.708C756.271 847.792 748.488 836.611 764.578 814.377C781.485 791.19 811.651 759.218 853.291 749.582C894.93 739.947 923.585 748.603 923.585 748.603C940.996 755.25 944.562 771.378 937.724 783.925C932.836 792.967 922.473 798.3 917.082 800.568L921.215 808.58Z" fill="#2D516E"/>
<path d="M743.768 833.674C744.482 826.228 747.838 817.108 755.746 806.158C784.863 765.684 829.901 743.322 861.325 738.195C892.748 733.068 927.214 735.824 940.073 751.643C944.029 756.586 946.34 763.164 946.555 770.09C946.576 765.145 945.544 760.28 943.56 755.978C941.577 751.675 938.711 748.085 935.248 745.563C923.27 736.494 904.601 729.487 861.492 735.696C829.209 740.359 790.946 759.656 757.655 801.057C757.655 801.057 743.768 819.633 743.768 833.674V833.674Z" fill="#4F81AB"/>
<path d="M755.872 831.844C755.872 831.844 753.774 847.457 769.381 848.977L767.284 851.708C767.284 851.708 752.327 847.637 755.872 831.844Z" fill="#4F81AB"/>
<path d="M940.828 774.031C940.828 774.031 940.828 791.061 917.061 800.568L915.928 798.352C915.928 798.352 936.129 793.199 940.828 774.031Z" fill="#4F81AB"/>
<path d="M1120.04 890.636C1120.04 890.636 1171.12 972.28 1067.72 1119.93H1023.48L1120.04 890.636Z" fill="#2D516E"/>
<path d="M1084.92 944.945C1084.92 944.945 1083.83 876.673 1020.6 862.863C991.698 856.551 957.002 868.222 957.002 868.222L949.576 856.912L985.783 846.607L1097.36 873.529L1084.92 944.945Z" fill="#2D516E"/>
<path d="M855.409 1119.93C1057.67 1076.7 1093.4 950.845 1085.74 920.187C1068.26 850.239 1000.24 850.883 955.68 866.084L947.457 853.434C989.537 840.784 1076.84 822.518 1114.58 880.795C1173.32 971.378 1053.75 1119.88 1053.75 1119.88L855.409 1119.93Z" fill="url(#paint5_radial_0_1)"/>
<path d="M1054.19 1119.93C1054.19 1119.93 1182.93 955.045 1107.01 870.927C1107.01 870.927 1185.02 939.999 1046.01 1119.93H1054.19Z" fill="#6FA9D9"/>
<path d="M868.016 643.798C869.118 645.219 870.538 646.207 872.097 646.636C873.656 647.066 875.284 646.918 876.775 646.211C878.265 645.504 879.551 644.27 880.471 642.665C881.39 641.06 881.901 639.157 881.939 637.195C881.977 635.233 881.541 633.302 880.685 631.645C879.829 629.988 878.592 628.68 877.131 627.886C875.67 627.093 874.05 626.849 872.476 627.187C870.902 627.524 869.445 628.428 868.289 629.783C867.52 630.679 866.903 631.754 866.473 632.945C866.042 634.135 865.808 635.419 865.783 636.721C865.757 638.023 865.942 639.318 866.325 640.533C866.708 641.747 867.283 642.857 868.016 643.798V643.798Z" fill="white"/>
<path d="M854.15 659.977C857.86 664.799 862.652 668.158 867.918 669.631C873.184 671.104 878.688 670.622 883.731 668.248C888.774 665.875 893.13 661.715 896.246 656.297C899.362 650.879 901.098 644.446 901.233 637.815C901.369 631.184 899.898 624.653 897.008 619.049C894.117 613.446 889.937 609.023 884.997 606.341C880.057 603.66 874.58 602.84 869.26 603.986C863.94 605.132 859.017 608.192 855.115 612.779C849.912 618.895 846.891 627.291 846.71 636.134C846.529 644.976 849.204 653.548 854.15 659.977V659.977Z" fill="url(#paint6_radial_0_1)"/>
<path d="M859.269 638.156C858.828 630.659 869.401 623.239 869.401 623.239C865.278 623.368 861.244 624.739 857.654 627.232C852.514 631.174 853.668 642.69 859.269 647.585C862.661 650.594 866.6 652.54 870.743 653.253C870.743 653.253 859.709 645.73 859.269 638.156Z" fill="white"/>
<path d="M889.539 628.237C886.046 625.543 882.072 623.933 877.96 623.548C877.96 623.548 888.217 631.586 887.483 639.006C886.749 646.426 875.421 653.408 875.421 653.408C879.588 652.946 883.6 651.239 887.106 648.435C892.895 643.824 894.511 632.514 889.539 628.237Z" fill="white"/>
</g>
<path d="M1134.05 393.773C1144.74 388.304 1165.78 367.157 1165.78 367.157C1154.8 326.358 1183.27 318.665 1183.27 318.665C1172.29 291.356 1189.68 275.204 1189.68 275.204C1154.89 231.451 1190.63 207.424 1190.63 207.424C1185.26 182.302 1204.85 168.083 1204.85 168.083C1204.85 168.083 1194.23 115.543 1224.48 83.8591C1254.73 52.1749 1292.99 56.4773 1292.99 56.4773C1278.74 14.9123 1300.09 0 1300.09 0H1335.71C1335.71 0 1290.86 6.56289 1306.23 63.2225C1306.23 63.2225 1204.53 72.8116 1220.82 164.874C1220.82 164.874 1189.56 168.994 1196.57 208.882C1196.57 208.882 1159.73 224.159 1194.7 276.735C1194.7 276.735 1175.91 284.282 1189.5 320.123C1189.5 320.123 1157.89 321.436 1170.8 367.522C1170.8 367.522 1148.89 387.393 1134.17 393.81L1134.05 393.773Z" fill="white"/>
<path d="M1616.09 94.4474C1616.09 94.4474 1524.45 179.254 1631.26 229.351C1631.26 229.351 1600.12 255.603 1626.84 300.413C1626.84 300.413 1572.54 296.074 1553.9 350.728C1535.25 405.382 1596.65 442.645 1596.65 442.645C1596.65 442.645 1563.72 471.084 1585.1 520.269C1585.1 520.269 1561.97 526.832 1558.38 543.239C1558.38 543.239 1503.19 512.649 1454.27 558.626C1405.34 604.602 1421.37 707.312 1421.37 707.312C1421.37 707.312 1361.82 675.627 1290.57 721.568C1219.32 767.508 1193.64 903.104 1193.64 903.104C1193.64 903.104 970.991 891.619 989.041 1155.41H1815.47V94.4474H1616.09Z" fill="#B1B7C2"/>
<path d="M989.041 1155.45C971.229 891.656 1193.64 903.141 1193.64 903.141C1193.64 903.141 1219.32 767.544 1290.57 721.568C1361.82 675.591 1421.4 707.275 1421.4 707.275C1421.4 707.275 1405.34 604.53 1454.3 558.589C1503.25 512.649 1558.41 543.203 1558.41 543.203C1561.97 526.796 1585.13 520.233 1585.13 520.233C1563.7 471.084 1596.65 442.645 1596.65 442.645C1596.65 442.645 1535.23 405.528 1553.9 350.837C1572.57 296.147 1626.84 300.522 1626.84 300.522C1600.12 255.712 1631.26 229.461 1631.26 229.461C1524.39 179.254 1616.09 94.5568 1616.09 94.5568H1686.18C1686.18 94.5568 1527.03 138.309 1653.91 229.242C1653.91 229.242 1600.12 253.926 1640.44 305.408C1640.44 305.408 1582.07 302.965 1565.54 351.53C1549 400.096 1615.53 443.192 1615.53 443.192C1615.53 443.192 1563.46 457.193 1595.82 522.493C1595.82 522.493 1570.29 523.15 1566.66 548.016L1582.16 558.152C1582.16 558.152 1515.63 518.045 1461.1 565.225C1406.56 612.405 1432.45 715.442 1432.45 715.442C1432.45 715.442 1370.11 680.112 1301.23 735.97C1232.36 791.827 1218.11 932.856 1218.11 932.856C1218.11 932.856 1023.39 943.977 1039 1155.45H989.041Z" fill="#D2D2D2"/>
<path d="M1079.1 0C1079.1 0 1036.97 24.2098 1039.97 54.4355C1042.97 84.6612 1090.44 74.0877 1090.44 74.0877C1090.44 74.0877 1055.44 98.8808 1115.08 110.147C1115.08 110.147 1104.09 118.168 1116.56 126.554C1116.56 126.554 1051.01 154.264 1091.66 168.447C1091.66 168.447 1060.22 195.428 1035.61 205.674C1035.61 205.674 1142.75 188.938 1284.21 0L1079.1 0Z" fill="#D9ECD7"/>
<path d="M1035.58 205.674C1060.19 195.428 1091.63 168.447 1091.63 168.447C1050.93 154.264 1116.53 126.554 1116.53 126.554C1104.07 118.168 1115.05 110.147 1115.05 110.147C1055.41 98.8808 1090.41 74.0877 1090.41 74.0877C1090.41 74.0877 1042.91 84.6977 1039.94 54.4355C1036.97 24.1733 1079.1 0 1079.1 0H1115.76C1115.76 0 1070.01 19.9074 1059.36 45.0287C1048.7 70.15 1101.39 71.3532 1101.39 71.3532C1101.39 71.3532 1071.71 94.542 1120.33 110.84C1120.33 110.84 1108.13 116.017 1120.33 126.19C1120.33 126.19 1064.76 153.025 1096.35 168.01C1096.35 168.01 1060.72 195.173 1035.64 205.674H1035.58Z" fill="white"/>
<path d="M604.541 0C604.541 0 615.911 109.783 718.747 145.842C718.747 145.842 675.345 125.351 653.97 91.771C653.97 91.771 677.898 87.177 657.74 75.9107C657.74 75.9107 667.507 77.7338 667.507 63.5142C667.507 49.2946 651.179 43.1328 651.179 43.1328C651.179 43.1328 672.851 40.0336 668.992 0.0364605L604.541 0Z" fill="#D9ECD7"/>
<path d="M655.217 0H668.962C672.851 40.1065 651.15 43.0963 651.15 43.0963C651.15 43.0963 667.478 49.2581 667.478 63.4777C667.478 77.6973 657.711 75.8743 657.711 75.8743C677.868 87.1406 653.94 91.7346 653.94 91.7346C675.345 125.315 718.747 145.842 718.747 145.842C718.747 145.842 667.953 126.299 649.843 90.1668C649.843 90.1668 673.86 87.9062 652.812 76.2024C652.812 76.2024 665.459 74.27 662.639 63.186C659.818 52.102 641.858 42.5858 641.858 42.5858C641.858 42.5858 655.543 31.4654 655.781 4.19296L655.217 0Z" fill="white"/>
<path d="M589.282 0C589.282 0 616.891 60.6702 518.982 83.8591C518.982 83.8591 592.814 90.3855 555.943 131.95C555.943 131.95 606.233 127.539 603.591 167.973C603.591 167.973 618.613 157.509 625.53 178C625.53 178 681.935 202.283 721.449 205.273C721.449 205.273 480.686 220.586 356 0.182302L589.282 0Z" fill="#D9ECD7"/>
<path d="M544.81 0H589.341C589.341 0 616.95 60.6702 519.042 83.8591C519.042 83.8591 592.874 90.3855 556.002 131.95C556.002 131.95 606.292 127.539 603.65 167.973C603.65 167.973 618.672 157.509 625.589 178C625.589 178 681.995 202.283 721.508 205.272C721.508 205.272 667.715 202.83 620.275 183.396C620.275 183.396 622.947 161.812 596.525 173.88C596.525 173.88 606.945 132.424 546.413 135.852C546.413 135.852 586.699 93.9587 509.215 86.4113C509.215 86.4113 599.583 56.5137 553.063 7.69316L544.81 0Z" fill="white"/>
<path d="M471.611 0C471.611 0 473.422 82.8747 420.015 102.819C420.015 102.819 480.072 135.633 445.813 173.187C445.813 173.187 517.893 173.187 537.071 225.581C556.249 277.975 510.353 303.205 481.467 302.695C481.467 302.695 507.295 327.816 484.614 350.786C484.614 350.786 521.931 392.315 480.814 410.363C480.814 410.363 518.487 464.47 563.938 485.727C563.938 485.727 371.239 504.467 120.056 145.805C120.056 145.805 121.303 188.829 80.9578 188.865C80.9578 188.865 110.942 218.69 84.55 242.936C84.55 242.936 116.018 290.517 133.831 302.877C133.831 302.877 -45.0344 270.063 -184 0H471.611Z" fill="#B1B7C2"/>
<path d="M133.771 302.877C115.959 290.517 84.4907 242.936 84.4907 242.936C110.883 218.763 80.8985 188.865 80.8985 188.865C121.243 188.865 119.997 145.805 119.997 145.805C119.997 145.805 112.753 189.558 72.4971 179.458C72.4971 179.458 102.184 219.893 77.9298 235.608C77.9298 235.608 100.433 280.819 133.801 302.877H133.771Z" fill="#D2D2D2"/>
<path d="M419.629 0H471.611C471.611 0 473.422 82.8747 420.015 102.819C420.015 102.819 480.072 135.633 445.813 173.187C445.813 173.187 517.893 173.187 537.071 225.581C556.249 277.975 510.353 303.205 481.467 302.695C481.467 302.695 507.295 327.816 484.614 350.786C484.614 350.786 521.931 392.315 480.814 410.363C480.814 410.363 518.487 464.47 563.938 485.727C563.938 485.727 504.564 471.398 474.877 410.8C474.877 410.8 511.303 393.955 477.697 349.729C477.697 349.729 507.206 335.874 469.919 296.606C469.919 296.606 550.519 292.741 530.332 228.68C510.145 164.619 424.527 180.552 424.527 180.552C424.527 180.552 466.238 137.383 407.338 102.527C407.338 102.527 446.941 58.0815 424.527 8.64113L419.629 0Z" fill="#D2D2D2"/>
</g>
<path d="M142.053 0C142.053 0 215.024 144.88 30.1621 189.557C30.1621 189.557 81.6694 218.034 30.1621 259.054C30.1621 259.054 145.556 343.86 30.1621 432.5C30.1621 432.5 218.26 510.291 30.1621 661.888C30.1621 661.888 79.5022 681.477 93.2177 722.468C93.2177 722.468 279.386 709.924 267.036 865H0.296875V0H142.053Z" fill="#CCCCCC"/>
<path d="M93.099 0H142.053C142.053 0 215.024 144.88 30.1622 189.557C30.1622 189.557 81.6694 218.034 30.1622 259.054C30.1622 259.054 145.556 343.86 30.1622 432.5C30.1622 432.5 218.26 510.291 30.1622 661.888C30.1622 661.888 79.5022 681.477 93.2177 722.468C93.2177 722.468 279.386 709.924 267.036 865C267.036 865 224.613 727.403 86.5084 735.636C86.5084 735.636 94.613 697.232 12.2905 660.016C12.2905 660.016 197.004 534.219 12.2905 432.5C12.2905 432.5 150.662 367.848 12.2905 256.201C12.2905 256.201 81.046 236.404 12.2905 188.725C12.2905 188.725 167.525 147.912 100.135 9.45258L93.099 0Z" fill="white"/>
<g clip-path="url(#clip1_0_1)">
<path d="M0.296875 1675C0.296875 1675 182 1603 30.1621 1540.44C30.1621 1540.44 81.6694 1511.97 30.1621 1470.95C30.1621 1470.95 145.556 1386.14 30.1621 1297.5C30.1621 1297.5 218.26 1219.71 30.1621 1068.11C30.1621 1068.11 79.5022 1048.52 93.2177 1007.53C93.2177 1007.53 279.386 1020.08 267.036 865H0.296875V1730V1675Z" fill="#CCCCCC"/>
<path d="M93.099 1730H142.053C142.053 1730 215.024 1585.12 30.1622 1540.44C30.1622 1540.44 81.6694 1511.97 30.1622 1470.95C30.1622 1470.95 145.556 1386.14 30.1622 1297.5C30.1622 1297.5 218.26 1219.71 30.1622 1068.11C30.1622 1068.11 79.5022 1048.52 93.2177 1007.53C93.2177 1007.53 279.386 1020.08 267.036 865C267.036 865 224.613 1002.6 86.5084 994.364C86.5084 994.364 94.613 1032.77 12.2905 1069.98C12.2905 1069.98 197.004 1195.78 12.2905 1297.5C12.2905 1297.5 150.662 1362.15 12.2905 1473.8C12.2905 1473.8 81.046 1493.6 12.2905 1541.28C12.2905 1541.28 167.525 1582.09 100.135 1720.55L93.099 1730Z" fill="white"/>
</g>
<defs>
<radialGradient id="paint0_radial_0_1" cx="0" cy="0" r="1" gradientUnits="userSpaceOnUse" gradientTransform="translate(863.57 530.5) scale(754.386 1158.13)">
<stop stop-color="#00FFFF"/>
<stop offset="0.16" stop-color="#00E7FA"/>
<stop offset="0.49" stop-color="#00A8EC"/>
<stop offset="0.65" stop-color="#008AE6"/>
</radialGradient>
<radialGradient id="paint1_radial_0_1" cx="0" cy="0" r="1" gradientUnits="userSpaceOnUse" gradientTransform="translate(933.57 935.052) scale(229.113 281.387)">
<stop stop-color="#2B98B3"/>
<stop offset="0.08" stop-color="#3393B3"/>
<stop offset="0.3" stop-color="#438AB4"/>
<stop offset="0.55" stop-color="#4D84B4"/>
<stop offset="0.88" stop-color="#5082B4"/>
</radialGradient>
<radialGradient id="paint2_radial_0_1" cx="0" cy="0" r="1" gradientUnits="userSpaceOnUse" gradientTransform="translate(949.576 920.135) scale(194.039 238.311)">
<stop stop-color="#00C2E3"/>
<stop offset="0.12" stop-color="#00ACE4"/>
<stop offset="0.25" stop-color="#009CE5"/>
<stop offset="0.4" stop-color="#0092E6"/>
<stop offset="0.59" stop-color="#008FE6"/>
</radialGradient>
<radialGradient id="paint3_radial_0_1" cx="0" cy="0" r="1" gradientUnits="userSpaceOnUse" gradientTransform="translate(949.24 924.129) scale(209.374 257.144)">
<stop stop-color="#00C2E3"/>
<stop offset="0.12" stop-color="#00ACE4"/>
<stop offset="0.26" stop-color="#009CE5"/>
<stop offset="0.42" stop-color="#0092E6"/>
<stop offset="0.62" stop-color="#008FE6"/>
</radialGradient>
<radialGradient id="paint4_radial_0_1" cx="0" cy="0" r="1" gradientUnits="userSpaceOnUse" gradientTransform="translate(994.131 935.129) scale(221.519 272.061)">
<stop stop-color="#00C2E3"/>
<stop offset="0.19" stop-color="#00ACE4"/>
<stop offset="0.41" stop-color="#009CE5"/>
<stop offset="0.65" stop-color="#0092E6"/>
<stop offset="0.96" stop-color="#008FE6"/>
</radialGradient>
<radialGradient id="paint5_radial_0_1" cx="0" cy="0" r="1" gradientUnits="userSpaceOnUse" gradientTransform="translate(993.062 980.189) scale(166.874 204.947)">
<stop offset="0.12" stop-color="#53769B"/>
<stop offset="0.31" stop-color="#4B6F93"/>
<stop offset="0.88" stop-color="#385D80"/>
</radialGradient>
<radialGradient id="paint6_radial_0_1" cx="0" cy="0" r="1" gradientUnits="userSpaceOnUse" gradientTransform="translate(873.848 636.971) scale(57.6664 70.8234)">
<stop stop-color="white"/>
<stop offset="0.09" stop-color="white" stop-opacity="0.99"/>
<stop offset="0.12" stop-color="white" stop-opacity="0.97"/>
<stop offset="0.14" stop-color="white" stop-opacity="0.92"/>
<stop offset="0.16" stop-color="white" stop-opacity="0.85"/>
<stop offset="0.17" stop-color="white" stop-opacity="0.77"/>
<stop offset="0.19" stop-color="white" stop-opacity="0.66"/>
<stop offset="0.2" stop-color="white" stop-opacity="0.53"/>
<stop offset="0.21" stop-color="white" stop-opacity="0.39"/>
<stop offset="0.22" stop-color="white" stop-opacity="0.22"/>
<stop offset="0.23" stop-color="white" stop-opacity="0"/>
</radialGradient>
<clipPath id="clip0_0_1">
<rect width="1728" height="1061" fill="white"/>
</clipPath>
<clipPath id="clip1_0_1">
<rect width="278" height="208" fill="white" transform="translate(0 852)"/>
</clipPath>
</defs>
</svg>
