<svg width="1728" height="6320" viewBox="0 0 1728 6320" fill="none" xmlns="http://www.w3.org/2000/svg">
<path d="M0 815C0 815 181.703 743 29.8653 680.443C29.8653 680.443 81.3725 651.966 29.8653 610.946C29.8653 610.946 145.259 526.14 29.8653 437.5C29.8653 437.5 217.963 359.709 29.8653 208.112C29.8653 208.112 79.2053 188.523 92.9208 147.532C92.9208 147.532 279.089 160.076 266.739 5H0V870V815Z" fill="#CCCCCC"/>
<path d="M92.8021 870H141.756C141.756 870 214.727 725.12 29.8653 680.443C29.8653 680.443 81.3725 651.966 29.8653 610.946C29.8653 610.946 145.259 526.14 29.8653 437.5C29.8653 437.5 217.963 359.709 29.8653 208.112C29.8653 208.112 79.2054 188.523 92.9208 147.532C92.9208 147.532 279.089 160.076 266.739 4.99998C266.739 4.99998 224.316 142.597 86.2115 134.364C86.2115 134.364 94.3161 172.768 11.9937 209.984C11.9937 209.984 196.707 335.781 11.9937 437.5C11.9937 437.5 150.365 502.152 11.9937 613.799C11.9937 613.799 80.7491 633.596 11.9937 681.275C11.9937 681.275 167.228 722.088 99.8379 860.547L92.8021 870Z" fill="white"/>
<path d="M1729.17 937.5C1729.17 937.5 1456.67 910 1579.64 756.266C1579.64 756.266 1523.59 713.462 1607.27 693.844C1607.27 693.844 1595.67 684.926 1607.27 666.229C1607.27 666.229 1536.98 650.148 1628.68 575.33C1628.68 575.33 1528.1 590.43 1502.33 533.358C1476.56 476.286 1583.49 398.911 1583.49 398.911C1583.49 398.911 1555.92 376.618 1587.12 327.571C1587.12 327.571 1366.17 335.5 1424.67 5.64856H1729.17V870.678L1729.17 937.5Z" fill="#CCCCCC"/>
<path d="M1387.17 0C1339.17 350.5 1587 327.601 1587 327.601C1555.8 376.618 1583.38 398.941 1583.38 398.941C1583.38 398.941 1476.5 476.405 1502.33 533.447C1528.16 590.49 1628.68 575.419 1628.68 575.419C1536.98 650.207 1607.24 666.289 1607.24 666.289C1595.64 684.986 1607.24 693.903 1607.24 693.903C1523.56 713.462 1579.61 756.326 1579.61 756.326C1430.17 877 1731.17 964.5 1731.17 964.5V935.5C1731.17 935.5 1488.17 863 1600.59 758.169C1600.59 758.169 1527.77 723.212 1619.24 697.678C1619.24 697.678 1594.45 686.026 1620.01 662.751C1620.01 662.751 1543.3 657.282 1647.98 572.001C1647.98 572.001 1534.27 583.593 1521.69 530.802C1509.1 478.01 1620.93 395.077 1620.93 395.077C1620.93 395.077 1558.94 408.988 1604.69 320.586C1604.69 320.586 1417.01 378.431 1431.17 5.67834L1387.17 0Z" fill="white"/>
<path d="M1727.7 855C1727.7 855 1455.2 882.5 1578.17 1036.23C1578.17 1036.23 1522.12 1079.04 1605.81 1098.66C1605.81 1098.66 1594.2 1107.57 1605.81 1126.27C1605.81 1126.27 1535.51 1142.35 1627.21 1217.17C1627.21 1217.17 1526.63 1202.07 1500.86 1259.14C1475.09 1316.21 1582.03 1393.59 1582.03 1393.59C1582.03 1393.59 1554.45 1415.88 1585.65 1464.93C1585.65 1464.93 1412.7 1679 1727.7 1786.85L1727.7 921.822L1727.7 855Z" fill="#CCCCCC"/>
<path d="M1727.7 2686C1727.7 2686 1455.2 2713.5 1578.17 2867.23C1578.17 2867.23 1522.12 2910.04 1605.81 2929.66C1605.81 2929.66 1594.2 2938.57 1605.81 2957.27C1605.81 2957.27 1535.51 2973.35 1627.21 3048.17C1627.21 3048.17 1526.63 3033.07 1500.86 3090.14C1475.09 3147.21 1582.03 3224.59 1582.03 3224.59C1582.03 3224.59 1554.45 3246.88 1585.65 3295.93C1585.65 3295.93 1412.7 3510 1727.7 3617.85L1727.7 2752.82L1727.7 2686Z" fill="#CCCCCC"/>
<path d="M0.000106812 1744C0.000106812 1744 272.5 1771.5 149.534 1925.23C149.534 1925.23 205.584 1968.04 121.896 1987.66C121.896 1987.66 133.503 1996.57 121.896 2015.27C121.896 2015.27 192.195 2031.35 100.491 2106.17C100.491 2106.17 201.071 2091.07 226.84 2148.14C252.608 2205.21 145.675 2282.59 145.675 2282.59C145.675 2282.59 173.255 2304.88 142.053 2353.93C142.053 2353.93 315 2568 9.15527e-05 2675.85L0.000137329 1810.82L0.000106812 1744Z" fill="#CCCCCC"/>
<path d="M0.000106812 3575C0.000106812 3575 272.5 3602.5 149.534 3756.23C149.534 3756.23 205.584 3799.04 121.896 3818.66C121.896 3818.66 133.503 3827.57 121.896 3846.27C121.896 3846.27 192.195 3862.35 100.491 3937.17C100.491 3937.17 201.071 3922.07 226.84 3979.14C252.608 4036.21 145.675 4113.59 145.675 4113.59C145.675 4113.59 173.255 4135.88 142.053 4184.93C142.053 4184.93 315 4399 9.15527e-05 4506.85L0.000137329 3641.82L0.000106812 3575Z" fill="#CCCCCC"/>
<path d="M0 1776C0 1776 181.703 1704 29.8653 1641.44C29.8653 1641.44 81.3725 1612.97 29.8653 1571.95C29.8653 1571.95 145.259 1487.14 29.8653 1398.5C29.8653 1398.5 217.963 1320.71 29.8653 1169.11C29.8653 1169.11 79.2053 1149.52 92.9208 1108.53C92.9208 1108.53 191.703 912.5 0 845V966V1831V1776Z" fill="#CCCCCC"/>
<path d="M0 3607C0 3607 181.703 3535 29.8653 3472.44C29.8653 3472.44 81.3725 3443.97 29.8653 3402.95C29.8653 3402.95 145.259 3318.14 29.8653 3229.5C29.8653 3229.5 217.963 3151.71 29.8653 3000.11C29.8653 3000.11 79.2053 2980.52 92.9208 2939.53C92.9208 2939.53 191.703 2743.5 0 2676V2797V3662V3607Z" fill="#CCCCCC"/>
<path d="M0 5400C0 5400 181.703 5328 29.8653 5265.44C29.8653 5265.44 81.3725 5236.97 29.8653 5195.95C29.8653 5195.95 145.259 5111.14 29.8653 5022.5C29.8653 5022.5 217.963 4944.71 29.8653 4793.11C29.8653 4793.11 79.2053 4773.52 92.9208 4732.53C92.9208 4732.53 191.703 4536.5 0 4469V4590V5455V5400Z" fill="#CCCCCC"/>
<path d="M0 6316C0 6316 181.703 6244 29.8653 6181.44C29.8653 6181.44 81.3725 6152.97 29.8653 6111.95C29.8653 6111.95 145.259 6027.14 29.8653 5938.5C29.8653 5938.5 217.963 5860.71 29.8653 5709.11C29.8653 5709.11 79.2053 5689.52 92.9208 5648.53C92.9208 5648.53 191.703 5452.5 0 5385V5506V6371V6316Z" fill="#CCCCCC"/>
<path d="M1727.7 2696C1727.7 2696 1546 2624 1697.84 2561.44C1697.84 2561.44 1646.33 2532.97 1697.84 2491.95C1697.84 2491.95 1582.44 2407.14 1697.84 2318.5C1697.84 2318.5 1509.74 2240.71 1697.84 2089.11C1697.84 2089.11 1648.5 2069.52 1634.78 2028.53C1634.78 2028.53 1536 1832.5 1727.7 1765V1886V2751V2696Z" fill="#CCCCCC"/>
<path d="M1727.7 4527C1727.7 4527 1546 4455 1697.84 4392.44C1697.84 4392.44 1646.33 4363.97 1697.84 4322.95C1697.84 4322.95 1582.44 4238.14 1697.84 4149.5C1697.84 4149.5 1509.74 4071.71 1697.84 3920.11C1697.84 3920.11 1648.5 3900.52 1634.78 3859.53C1634.78 3859.53 1536 3663.5 1727.7 3596V3717V4582V4527Z" fill="#CCCCCC"/>
<path d="M1727.7 5219C1727.7 5219 1546 5147 1697.84 5084.44C1697.84 5084.44 1646.33 5055.97 1697.84 5014.95C1697.84 5014.95 1582.44 4930.14 1697.84 4841.5C1697.84 4841.5 1509.74 4763.71 1697.84 4612.11C1697.84 4612.11 1648.5 4592.52 1634.78 4551.53C1634.78 4551.53 1536 4355.5 1727.7 4288V4409V5274V5219Z" fill="#CCCCCC"/>
<path d="M1735.27 6332.56C1735.27 6332.56 1515.78 6245.6 1699.19 6170.03C1699.19 6170.03 1636.98 6135.63 1699.19 6086.09C1699.19 6086.09 1559.81 5983.65 1699.19 5876.58C1699.19 5876.58 1471.99 5782.61 1699.19 5599.5C1699.19 5599.5 1639.59 5575.84 1623.03 5526.32C1623.03 5526.32 1503.71 5289.53 1735.27 5208V5354.16V6399V6332.56Z" fill="#CCCCCC"/>
</svg>
